<svg xmlns="http://www.w3.org/2000/svg" xmlns:xlink="http://www.w3.org/1999/xlink" width="113" height="113" viewBox="0 0 113 113">
  <defs>
    <filter id="Trazado_982547" x="0" y="0" width="113" height="113" filterUnits="userSpaceOnUse">
      <feOffset dy="3" input="SourceAlpha"/>
      <feGaussianBlur stdDeviation="3" result="blur"/>
      <feFlood flood-opacity="0.161"/>
      <feComposite operator="in" in2="blur"/>
      <feComposite in="SourceGraphic"/>
    </filter>
  </defs>
  <g id="Grupo_1177985" data-name="Grupo 1177985" transform="translate(-743.25 -912)">
    <g id="Grupo_1177680" data-name="Grupo 1177680" transform="translate(752.25 918)">
      <g id="Grupo_1172010" data-name="Grupo 1172010">
        <g id="Grupo_1171046" data-name="Grupo 1171046">
          <g id="Grupo_1148525" data-name="Grupo 1148525">
            <g transform="matrix(1, 0, 0, 1, -9, -6)" filter="url(#Trazado_982547)">
              <g id="Trazado_982547-2" data-name="Trazado 982547" transform="translate(9 6)" fill="#fdfbec">
                <path d="M 47.5 93.5 C 41.28937149047852 93.5 35.26533508300781 92.28397369384766 29.59518623352051 89.88570404052734 C 24.11771965026855 87.56893157958984 19.19813346862793 84.25196075439453 14.97309303283691 80.02691650390625 C 10.74804019927979 75.80186462402344 7.431066513061523 70.88229370117188 5.114293098449707 65.40481567382812 C 2.716026782989502 59.73468017578125 1.5 53.71062850952148 1.5 47.5 C 1.5 41.28937149047852 2.716026782989502 35.26533508300781 5.114293098449707 29.59518623352051 C 7.431066513061523 24.11771965026855 10.74804019927979 19.19813346862793 14.97309303283691 14.97309303283691 C 19.19813346862793 10.74804019927979 24.11771965026855 7.431066513061523 29.59518623352051 5.114293098449707 C 35.26533508300781 2.716026782989502 41.28937149047852 1.5 47.5 1.5 C 53.71062850952148 1.5 59.73468017578125 2.716026782989502 65.40481567382812 5.114293098449707 C 70.88229370117188 7.431066513061523 75.80186462402344 10.74804019927979 80.02691650390625 14.97309303283691 C 84.25196075439453 19.19813346862793 87.56893157958984 24.11771965026855 89.88570404052734 29.59518623352051 C 92.28397369384766 35.26533508300781 93.5 41.28937149047852 93.5 47.5 C 93.5 53.71062850952148 92.28397369384766 59.73468017578125 89.88570404052734 65.40481567382812 C 87.56893157958984 70.88229370117188 84.25196075439453 75.80186462402344 80.02691650390625 80.02691650390625 C 75.80186462402344 84.25196075439453 70.88229370117188 87.56893157958984 65.40481567382812 89.88570404052734 C 59.73468017578125 92.28397369384766 53.71062850952148 93.5 47.5 93.5 Z" stroke="none"/>
                <path d="M 47.5 3 C 41.49121475219727 3 35.66376876831055 4.176155090332031 30.17950439453125 6.495796203613281 C 24.88084411621094 8.736953735351562 20.12152099609375 11.94598388671875 16.03375244140625 16.03375244140625 C 11.94598388671875 20.12152099609375 8.736953735351562 24.88084411621094 6.495796203613281 30.17950439453125 C 4.176155090332031 35.66376876831055 3 41.49121475219727 3 47.5 C 3 53.50878524780273 4.176155090332031 59.33623123168945 6.495796203613281 64.82049560546875 C 8.736953735351562 70.11915588378906 11.94598388671875 74.87847900390625 16.03375244140625 78.96624755859375 C 20.12152099609375 83.05401611328125 24.88084411621094 86.26304626464844 30.17950439453125 88.50419616699219 C 35.66376876831055 90.82384490966797 41.49121475219727 92 47.5 92 C 53.50878524780273 92 59.33623123168945 90.82384490966797 64.82049560546875 88.50419616699219 C 70.11915588378906 86.26304626464844 74.87847900390625 83.05401611328125 78.96624755859375 78.96624755859375 C 83.05401611328125 74.87847900390625 86.26304626464844 70.11915588378906 88.50419616699219 64.82049560546875 C 90.82384490966797 59.33623123168945 92 53.50878524780273 92 47.5 C 92 41.49121475219727 90.82384490966797 35.66376876831055 88.50419616699219 30.17950439453125 C 86.26304626464844 24.88084411621094 83.05401611328125 20.12152099609375 78.96624755859375 16.03375244140625 C 74.87847900390625 11.94598388671875 70.11915588378906 8.736953735351562 64.82049560546875 6.495796203613281 C 59.33623123168945 4.176155090332031 53.50878524780273 3 47.5 3 M 47.5 0 C 73.7335205078125 0 95 21.2664794921875 95 47.5 C 95 73.7335205078125 73.7335205078125 95 47.5 95 C 21.2664794921875 95 0 73.7335205078125 0 47.5 C 0 21.2664794921875 21.2664794921875 0 47.5 0 Z" stroke="none" fill="#83793c"/>
              </g>
            </g>
          </g>
        </g>
      </g>
    </g>
    <g id="dictionary_4178309" transform="translate(767.75 931.552)">
      <path id="Trazado_1036113" data-name="Trazado 1036113" d="M8,22H56V62H8Z" fill="#594139"/>
      <path id="Trazado_1036114" data-name="Trazado 1036114" d="M36,20H52V58H32V24A4,4,0,0,1,36,20Z" fill="#ccc"/>
      <path id="Trazado_1036115" data-name="Trazado 1036115" d="M28,20H12V58H32V24A4,4,0,0,0,28,20Z" fill="#ccc"/>
      <path id="Trazado_1036116" data-name="Trazado 1036116" d="M16,24H28V44H16Z" fill="#f2f2f2"/>
      <path id="Trazado_1036117" data-name="Trazado 1036117" d="M16,24V41h6a3,3,0,0,0,3-3V24Z" fill="#fff"/>
      <path id="Trazado_1036118" data-name="Trazado 1036118" d="M47,17A15,15,0,1,0,29.245,31.736L32,40l2.755-8.264A15,15,0,0,0,47,17Z" fill="#f3a845"/>
      <path id="Trazado_1036119" data-name="Trazado 1036119" d="M40,21V4.327A14.979,14.979,0,0,0,19.329,25H36A4,4,0,0,0,40,21Z" fill="#eecc61"/>
      <path id="Trazado_1036120" data-name="Trazado 1036120" d="M36,40H48V52H36Z" fill="#f2f2f2"/>
      <path id="Trazado_1036121" data-name="Trazado 1036121" d="M36,40v9h6a3,3,0,0,0,3-3V40Z" fill="#fff"/>
      <circle id="Elipse_12490" data-name="Elipse 12490" cx="6" cy="6" r="6" transform="translate(23 7)" fill="#ccc"/>
      <path id="Trazado_1036122" data-name="Trazado 1036122" d="M34.466,15.466a6.021,6.021,0,0,1-3,3L38,25l3-3Z" fill="#594139"/>
      <path id="Trazado_1036123" data-name="Trazado 1036123" d="M29,7a5.993,5.993,0,0,0-5.191,9H29a3,3,0,0,0,3-3V7.809A5.97,5.97,0,0,0,29,7Z" fill="#f2f2f2"/>
      <path id="Trazado_1036124" data-name="Trazado 1036124" d="M56,21H53V20a1,1,0,0,0-1-1H47.861a16,16,0,1,0-31.722,0H12a1,1,0,0,0-1,1v1H8a1,1,0,0,0-1,1V62a1,1,0,0,0,1,1H56a1,1,0,0,0,1-1V22A1,1,0,0,0,56,21ZM32,3a14,14,0,0,1,2.572,27.753,1,1,0,0,0-.766.667L32,36.838,30.194,31.42a1,1,0,0,0-.766-.667A14,14,0,0,1,32,3ZM13,21h3.51a15.922,15.922,0,0,0,.672,2H16a1,1,0,0,0-1,1V44a1,1,0,0,0,1,1H28a1,1,0,0,0,1-1V36H27v7H17V25h1.154a15.97,15.97,0,0,0,10.325,7.6l2.572,7.716a1,1,0,0,0,1.9,0l2.57-7.716A15.911,15.911,0,0,0,42.572,29H49V27H44.487a16.026,16.026,0,0,0,1.359-2H49V23H46.818a15.919,15.919,0,0,0,.672-2H51V57H36a3,3,0,0,1-3-3V43H31V54a3,3,0,0,1-3,3H13ZM55,61H9V23h2V58a1,1,0,0,0,1,1H28a4.982,4.982,0,0,0,4-2.031A4.982,4.982,0,0,0,36,59H52a1,1,0,0,0,1-1V23h2Z"/>
      <path id="Trazado_1036125" data-name="Trazado 1036125" d="M29,20a6.939,6.939,0,0,0,2.219-.367l6.074,6.074a1,1,0,0,0,1.414,0l3-3a1,1,0,0,0,0-1.414l-6.074-6.074A7,7,0,1,0,29,20Zm10.586,2L38,23.586l-4.914-4.914a7.061,7.061,0,0,0,1.586-1.586ZM29,8a5,5,0,1,1-5,5,5,5,0,0,1,5-5Z"/>
      <path id="Trazado_1036126" data-name="Trazado 1036126" d="M15,47H29v2H15Z"/>
      <path id="Trazado_1036127" data-name="Trazado 1036127" d="M15,51H25v2H15Z"/>
      <path id="Trazado_1036128" data-name="Trazado 1036128" d="M36,53H48a1,1,0,0,0,1-1V40a1,1,0,0,0-1-1H36a1,1,0,0,0-1,1V52A1,1,0,0,0,36,53Zm1-12H47V51H37Z"/>
      <path id="Trazado_1036129" data-name="Trazado 1036129" d="M42,31h7v2H42Z"/>
      <path id="Trazado_1036130" data-name="Trazado 1036130" d="M35,35H49v2H35Z"/>
      <path id="Trazado_1036131" data-name="Trazado 1036131" d="M27,51h2v2H27Z"/>
    </g>
  </g>
</svg>
