<svg xmlns="http://www.w3.org/2000/svg" xmlns:xlink="http://www.w3.org/1999/xlink" width="118" height="118" viewBox="0 0 118 118">
  <defs>
    <filter id="Trazado_982547" x="0" y="0" width="118" height="118" filterUnits="userSpaceOnUse">
      <feOffset dy="3" input="SourceAlpha"/>
      <feGaussianBlur stdDeviation="3" result="blur"/>
      <feFlood flood-opacity="0.161"/>
      <feComposite operator="in" in2="blur"/>
      <feComposite in="SourceGraphic"/>
    </filter>
  </defs>
  <g id="Grupo_1177787" data-name="Grupo 1177787" transform="translate(-204.5 -4911.545)">
    <g id="Grupo_1173988" data-name="Grupo 1173988" transform="translate(213.5 4917.545)">
      <g id="Grupo_1172010" data-name="Grupo 1172010">
        <g id="Grupo_1171046" data-name="Grupo 1171046">
          <g id="Grupo_1148525" data-name="Grupo 1148525">
            <g transform="matrix(1, 0, 0, 1, -9, -6)" filter="url(#Trazado_982547)">
              <g id="Trazado_982547-2" data-name="Trazado 982547" transform="translate(9 6)" fill="#fdfbec">
                <path d="M 50 98.5 C 43.45188522338867 98.5 37.10042953491211 97.21787261962891 31.12207221984863 94.68923950195312 C 25.34691429138184 92.24655914306641 20.15997123718262 88.74931335449219 15.70532894134521 84.29468536376953 C 11.2506856918335 79.84004211425781 7.753442764282227 74.65309906005859 5.310757160186768 68.8779296875 C 2.782128572463989 62.89957046508789 1.5 56.54811477661133 1.5 50 C 1.5 43.45188522338867 2.782128572463989 37.10042953491211 5.310757160186768 31.12207221984863 C 7.753442764282227 25.34691429138184 11.2506856918335 20.15997123718262 15.70532894134521 15.70532894134521 C 20.15997123718262 11.2506856918335 25.34691429138184 7.753442764282227 31.12207221984863 5.310757160186768 C 37.10042953491211 2.782128572463989 43.45188522338867 1.5 50 1.5 C 56.54811477661133 1.5 62.89957046508789 2.782128572463989 68.8779296875 5.310757160186768 C 74.65309906005859 7.753442764282227 79.84004211425781 11.2506856918335 84.29468536376953 15.70532894134521 C 88.74931335449219 20.15997123718262 92.24655914306641 25.34691429138184 94.68923950195312 31.12207221984863 C 97.21787261962891 37.10042953491211 98.5 43.45188522338867 98.5 50 C 98.5 56.54811477661133 97.21787261962891 62.89957046508789 94.68923950195312 68.8779296875 C 92.24655914306641 74.65309906005859 88.74931335449219 79.84004211425781 84.29468536376953 84.29468536376953 C 79.84004211425781 88.74931335449219 74.65309906005859 92.24655914306641 68.8779296875 94.68923950195312 C 62.89957046508789 97.21787261962891 56.54811477661133 98.5 50 98.5 Z" stroke="none"/>
                <path d="M 50 3 C 43.65372467041016 3 37.49886322021484 4.242263793945312 31.70639801025391 6.6922607421875 C 26.11003112792969 9.059326171875 21.08335113525391 12.44861602783203 16.76598358154297 16.76598358154297 C 12.44861602783203 21.08335113525391 9.059326171875 26.11003112792969 6.6922607421875 31.70639801025391 C 4.242263793945312 37.49886322021484 3 43.65372467041016 3 50 C 3 56.34627532958984 4.242263793945312 62.50113677978516 6.6922607421875 68.29360198974609 C 9.059326171875 73.88996887207031 12.44861602783203 78.91666412353516 16.76598358154297 83.23401641845703 C 21.08335113525391 87.55138397216797 26.11003112792969 90.940673828125 31.70639801025391 93.3077392578125 C 37.49886322021484 95.75773620605469 43.65372467041016 97 50 97 C 56.34627532958984 97 62.50113677978516 95.75773620605469 68.29360198974609 93.3077392578125 C 73.88996887207031 90.940673828125 78.91666412353516 87.55138397216797 83.23401641845703 83.23401641845703 C 87.55138397216797 78.91666412353516 90.940673828125 73.88996887207031 93.3077392578125 68.29360198974609 C 95.75773620605469 62.50113677978516 97 56.34627532958984 97 50 C 97 43.65372467041016 95.75773620605469 37.49886322021484 93.3077392578125 31.70639801025391 C 90.940673828125 26.11003112792969 87.55138397216797 21.08335113525391 83.23401641845703 16.76598358154297 C 78.91666412353516 12.44861602783203 73.88996887207031 9.059326171875 68.29360198974609 6.6922607421875 C 62.50113677978516 4.242263793945312 56.34627532958984 3 50 3 M 50 0 C 77.61424255371094 0 100 22.38577270507812 100 50 C 100 77.61424255371094 77.61424255371094 100 50 100 C 22.38577270507812 100 0 77.61424255371094 0 50 C 0 22.38577270507812 22.38577270507812 0 50 0 Z" stroke="none" fill="#83793c"/>
              </g>
            </g>
          </g>
        </g>
      </g>
    </g>
    <g id="lesson_1575406_1_" data-name="lesson_1575406 (1)" transform="translate(231.835 4938.998)">
      <path id="Trazado_1036428" data-name="Trazado 1036428" d="M279.666,56.238V92.1H254.332v2.111a2.136,2.136,0,0,1-.254,1l.254.053h28.5V56.238Zm0,0" transform="translate(-220.555 -48.818)" fill="#00ccb3"/>
      <path id="Trazado_1036429" data-name="Trazado 1036429" d="M262.809,40H256V78h25.334V40Zm0,0" transform="translate(-222.224 -34.722)" fill="#e6e7e8"/>
      <path id="Trazado_1036430" data-name="Trazado 1036430" d="M311.223,17.5v4.222l-2.481.5a8.822,8.822,0,0,1-.834,2.006l1.4,2.1-2.987,2.987-2.1-1.4a8.824,8.824,0,0,1-2.005.834l-.5,2.481H297.5l-.5-2.481A8.823,8.823,0,0,1,295,27.908l-2.1,1.4-2.987-2.987,1.4-2.1a8.825,8.825,0,0,1-.834-2.006l-2.481-.5V17.5l2.481-.5A8.825,8.825,0,0,1,291.315,15l-1.4-2.1L292.9,9.911l2.1,1.4A8.824,8.824,0,0,1,297,10.481L297.5,8h4.222l.5,2.481a8.824,8.824,0,0,1,2.005.834l2.1-1.4,2.987,2.987-1.4,2.1A8.822,8.822,0,0,1,308.742,17Zm0,0" transform="translate(-250.001 -6.944)" fill="#ffa733"/>
      <path id="Trazado_1036431" data-name="Trazado 1036431" d="M36.5,94.208V92.1H11.167V56.238H8V95.264H36.5l.254-.053A2.137,2.137,0,0,1,36.5,94.208Zm0,0" transform="translate(-6.947 -48.817)" fill="#00ccb3"/>
      <path id="Trazado_1036432" data-name="Trazado 1036432" d="M32,40H57.334V78H32Zm0,0" transform="translate(-27.78 -34.722)" fill="#e6e7e8"/>
      <path id="Trazado_1036433" data-name="Trazado 1036433" d="M216,392h23.223v4.222H216Zm0,0" transform="translate(-187.501 -340.276)" fill="#5aaae7"/>
      <path id="Trazado_1036434" data-name="Trazado 1036434" d="M394.111,392a2.111,2.111,0,0,1,0,4.222H392V392Zm0,0" transform="translate(-340.278 -340.276)" fill="#3d9ae2"/>
      <path id="Trazado_1036435" data-name="Trazado 1036435" d="M174.334,392v4.222h-1.056L168,394.111,173.278,392Zm0,0" transform="translate(-145.835 -340.276)" fill="#1e81ce"/>
      <path id="Trazado_1036436" data-name="Trazado 1036436" d="M48,416h6.334A3.167,3.167,0,1,1,48,416Zm0,0" transform="translate(-41.669 -361.109)" fill="#898890"/>
      <path id="Trazado_1036437" data-name="Trazado 1036437" d="M41.13,384.116a2.11,2.11,0,0,1-.686,4.106H34.111A2.118,2.118,0,0,1,32,386.111a2.063,2.063,0,0,1,.623-1.489,2.013,2.013,0,0,1,.8-.507,2.087,2.087,0,0,1,.686-.116h6.334a2.087,2.087,0,0,1,.686.116Zm0,0" transform="translate(-27.78 -333.331)" fill="#acabb1"/>
      <path id="Trazado_1036438" data-name="Trazado 1036438" d="M64,152H80.89v8.445H64Zm0,0" transform="translate(-55.558 -131.944)" fill="#78b9eb"/>
      <path id="Trazado_1036439" data-name="Trazado 1036439" d="M346.556,61.278A5.278,5.278,0,1,1,341.278,56,5.278,5.278,0,0,1,346.556,61.278Zm0,0" transform="translate(-291.667 -48.611)" fill="#ff6243"/>
      <path id="Trazado_1036440" data-name="Trazado 1036440" d="M228.222,91.89V94A2.111,2.111,0,1,1,224,94V56h4.222Zm0,0" transform="translate(-194.446 -48.611)" fill="#ff9811"/>
      <path id="Trazado_1036441" data-name="Trazado 1036441" d="M16.445,264A8.455,8.455,0,0,0,8,272.445a8.31,8.31,0,0,0,.623,3.167,8.43,8.43,0,0,0,3.969,4.338,2.087,2.087,0,0,1,.686-.116h6.334a2.087,2.087,0,0,1,.686.116,8.43,8.43,0,0,0,3.969-4.338,8.31,8.31,0,0,0,.623-3.167A8.445,8.445,0,0,0,16.445,264Zm0,0" transform="translate(-6.947 -229.165)" fill="#ffd422"/>
      <path id="Trazado_1036442" data-name="Trazado 1036442" d="M26.111,34.111H49.334V70H41.945v2.111h7.389v1.056a3.167,3.167,0,1,0,6.334,0V72.113H79.947A1.056,1.056,0,0,0,81,71.057V53.112H78.891V70H55.668V34.111h2.111V32H54.612a1.056,1.056,0,0,0-1.056,1.056v1.056H51.446V33.056A1.056,1.056,0,0,0,50.39,32H25.056A1.056,1.056,0,0,0,24,33.056V60.5h2.111Zm27.446,2.111V73.168a1.056,1.056,0,1,1-2.111,0V36.222Zm0,0" transform="translate(-20.836 -27.778)"/>
      <path id="Trazado_1036443" data-name="Trazado 1036443" d="M160,344h6.334v2.111H160Zm0,0" transform="translate(-138.89 -298.609)"/>
      <path id="Trazado_1036444" data-name="Trazado 1036444" d="M0,56.23H2.111V83.646H0Zm0,0" transform="translate(-0.002 -48.811)"/>
      <path id="Trazado_1036445" data-name="Trazado 1036445" d="M56,80h4.222v2.111H56Zm0,0" transform="translate(-48.613 -69.444)"/>
      <path id="Trazado_1036446" data-name="Trazado 1036446" d="M104,80h12.667v2.111H104Zm0,0" transform="translate(-90.28 -69.444)"/>
      <path id="Trazado_1036447" data-name="Trazado 1036447" d="M56,112H75v2.111H56Zm0,0" transform="translate(-48.613 -97.222)"/>
      <path id="Trazado_1036448" data-name="Trazado 1036448" d="M297.334,160.23v24.248H272v2.111h26.39a1.056,1.056,0,0,0,1.056-1.056v-25.3Zm0,0" transform="translate(-236.112 -139.088)"/>
      <path id="Trazado_1036449" data-name="Trazado 1036449" d="M56,153.5a1.056,1.056,0,0,0,1.056,1.056h16.89A1.056,1.056,0,0,0,75,153.5v-8.445A1.056,1.056,0,0,0,73.945,144H57.056A1.056,1.056,0,0,0,56,145.056Zm2.111-7.389H72.89v6.334H58.111Zm0,0" transform="translate(-48.613 -124.999)"/>
      <path id="Trazado_1036450" data-name="Trazado 1036450" d="M120,176h2.111v2.111H120Zm0,0" transform="translate(-104.168 -152.777)"/>
      <path id="Trazado_1036451" data-name="Trazado 1036451" d="M152,176h2.111v2.111H152Zm0,0" transform="translate(-131.946 -152.777)"/>
      <path id="Trazado_1036452" data-name="Trazado 1036452" d="M88,176h2.111v2.111H88Zm0,0" transform="translate(-76.391 -152.777)"/>
      <path id="Trazado_1036453" data-name="Trazado 1036453" d="M304,240h14.778v2.111H304Zm0,0" transform="translate(-263.89 -208.332)"/>
      <path id="Trazado_1036454" data-name="Trazado 1036454" d="M304,272h14.778v2.111H304Zm0,0" transform="translate(-263.89 -236.11)"/>
      <path id="Trazado_1036455" data-name="Trazado 1036455" d="M334.334,60.667A6.334,6.334,0,1,0,328,54.334,6.334,6.334,0,0,0,334.334,60.667Zm0-10.556a4.222,4.222,0,1,1-4.222,4.222A4.223,4.223,0,0,1,334.334,50.111Zm0,0" transform="translate(-284.723 -41.666)"/>
      <path id="Trazado_1036456" data-name="Trazado 1036456" d="M280,14.778a1.056,1.056,0,0,0,.844,1.034l1.873.375a10.5,10.5,0,0,0,.422,1.025L282.084,18.8a1.055,1.055,0,0,0,.132,1.332l2.987,2.989a1.055,1.055,0,0,0,1.332.132l1.583-1.056a10.5,10.5,0,0,0,1.025.422l.378,1.874a1.056,1.056,0,0,0,1.034.844h4.222a1.056,1.056,0,0,0,1.034-.844l.375-1.873a10.5,10.5,0,0,0,1.025-.422l1.583,1.056a1.055,1.055,0,0,0,1.332-.132l2.99-2.987a1.055,1.055,0,0,0,.132-1.332l-1.056-1.583a10.493,10.493,0,0,0,.422-1.025l1.874-.378a1.056,1.056,0,0,0,.844-1.034V10.556a1.056,1.056,0,0,0-.844-1.034l-1.873-.375a10.494,10.494,0,0,0-.422-1.025l1.056-1.583a1.054,1.054,0,0,0-.133-1.335l-2.986-2.986a1.055,1.055,0,0,0-1.332-.132l-1.583,1.056a10.5,10.5,0,0,0-1.025-.422L295.813.844A1.056,1.056,0,0,0,294.778,0h-4.222a1.056,1.056,0,0,0-1.034.844l-.375,1.873a10.5,10.5,0,0,0-1.025.422l-1.583-1.056a1.055,1.055,0,0,0-1.332.132L282.217,5.2a1.055,1.055,0,0,0-.132,1.332l1.056,1.583a10.5,10.5,0,0,0-.422,1.025l-1.874.378A1.056,1.056,0,0,0,280,10.556Zm2.111-3.357,1.634-.327a1.054,1.054,0,0,0,.808-.745,8.423,8.423,0,0,1,.739-1.783,1.057,1.057,0,0,0-.043-1.1l-.923-1.383,1.763-1.763,1.383.922a1.054,1.054,0,0,0,1.1.043,8.449,8.449,0,0,1,1.783-.739,1.057,1.057,0,0,0,.745-.808l.323-1.63h2.492l.327,1.634a1.054,1.054,0,0,0,.745.808,8.424,8.424,0,0,1,1.783.739,1.056,1.056,0,0,0,1.1-.043l1.383-.923,1.763,1.763-.922,1.383a1.054,1.054,0,0,0-.043,1.1,8.449,8.449,0,0,1,.739,1.783,1.056,1.056,0,0,0,.808.745l1.63.323v2.492l-1.634.327a1.054,1.054,0,0,0-.808.745,8.423,8.423,0,0,1-.739,1.783,1.056,1.056,0,0,0,.043,1.1l.923,1.383-1.763,1.763-1.383-.922a1.054,1.054,0,0,0-1.1-.043,8.449,8.449,0,0,1-1.783.739,1.056,1.056,0,0,0-.745.808l-.323,1.63h-2.492l-.327-1.634a1.054,1.054,0,0,0-.745-.808,8.424,8.424,0,0,1-1.783-.739,1.057,1.057,0,0,0-1.1.043l-1.383.923-1.763-1.763.922-1.383a1.054,1.054,0,0,0,.043-1.1,8.445,8.445,0,0,1-.739-1.783,1.057,1.057,0,0,0-.808-.745l-1.63-.323Zm0,0" transform="translate(-243.056 0)"/>
      <path id="Trazado_1036457" data-name="Trazado 1036457" d="M268.063,157.328a17.068,17.068,0,0,0,1.68,2.206l1.569-1.411a14.855,14.855,0,0,1-1.469-1.931Zm0,0" transform="translate(-232.695 -135.582)"/>
      <path id="Trazado_1036458" data-name="Trazado 1036458" d="M308.295,182.507A14.8,14.8,0,0,1,292.7,180l-1.4,1.583a16.906,16.906,0,0,0,17.826,2.864Zm0,0" transform="translate(-252.869 -156.249)"/>
      <path id="Trazado_1036459" data-name="Trazado 1036459" d="M192.71,384H166.32a1.068,1.068,0,0,0-.393.075l-5.278,2.111a1.056,1.056,0,0,0,0,1.962l5.278,2.111a1.067,1.067,0,0,0,.393.075h26.39a3.167,3.167,0,0,0,0-6.334Zm-24.279,2.111h21.112v2.111H168.431Zm-4.548,1.056,2.436-.974v1.948Zm28.826,1.056h-1.056v-2.111h1.056a1.056,1.056,0,0,1,0,2.111Zm0,0" transform="translate(-138.877 -333.331)"/>
      <path id="Trazado_1036460" data-name="Trazado 1036460" d="M9.5,256A9.484,9.484,0,0,0,3.82,273.093,3.132,3.132,0,0,0,5.375,278a4.222,4.222,0,0,0,8.246,0,3.132,3.132,0,0,0,1.555-4.911A9.484,9.484,0,0,0,9.5,256Zm0,23.223a2.1,2.1,0,0,1-1.818-1.056h3.636A2.1,2.1,0,0,1,9.5,279.223Zm3.167-3.167H6.331a1.056,1.056,0,1,1,0-2.111h6.334a1.056,1.056,0,1,1,0,2.111Zm.506-4.172a3.261,3.261,0,0,0-.506-.051H6.331a3.261,3.261,0,0,0-.506.051,7.389,7.389,0,1,1,7.345,0Zm0,0" transform="translate(0 -222.221)"/>
      <path id="Trazado_1036461" data-name="Trazado 1036461" d="M40.556,314.54l-1.233-1.849a1.1,1.1,0,0,0-1.757,0l-1.233,1.849L35.1,312.687l-1.757,1.172,2.111,3.167a1.1,1.1,0,0,0,1.757,0l1.233-1.853,1.233,1.849a1.056,1.056,0,0,0,1.757,0l2.111-3.167-1.757-1.172Zm0,0" transform="translate(-28.946 -271.049)"/>
    </g>
  </g>
</svg>
