<svg xmlns="http://www.w3.org/2000/svg" xmlns:xlink="http://www.w3.org/1999/xlink" width="118" height="118" viewBox="0 0 118 118">
  <defs>
    <filter id="Trazado_982547" x="0" y="0" width="118" height="118" filterUnits="userSpaceOnUse">
      <feOffset dy="3" input="SourceAlpha"/>
      <feGaussianBlur stdDeviation="3" result="blur"/>
      <feFlood flood-opacity="0.161"/>
      <feComposite operator="in" in2="blur"/>
      <feComposite in="SourceGraphic"/>
    </filter>
  </defs>
  <g id="Grupo_1177791" data-name="Grupo 1177791" transform="translate(-204.5 -4911.545)">
    <g id="Grupo_1173988" data-name="Grupo 1173988" transform="translate(213.5 4917.545)">
      <g id="Grupo_1172010" data-name="Grupo 1172010">
        <g id="Grupo_1171046" data-name="Grupo 1171046">
          <g id="Grupo_1148525" data-name="Grupo 1148525">
            <g transform="matrix(1, 0, 0, 1, -9, -6)" filter="url(#Trazado_982547)">
              <g id="Trazado_982547-2" data-name="Trazado 982547" transform="translate(9 6)" fill="#fdfbec">
                <path d="M 50 98.5 C 43.45188522338867 98.5 37.10042953491211 97.21787261962891 31.12207221984863 94.68923950195312 C 25.34691429138184 92.24655914306641 20.15997123718262 88.74931335449219 15.70532894134521 84.29468536376953 C 11.2506856918335 79.84004211425781 7.753442764282227 74.65309906005859 5.310757160186768 68.8779296875 C 2.782128572463989 62.89957046508789 1.5 56.54811477661133 1.5 50 C 1.5 43.45188522338867 2.782128572463989 37.10042953491211 5.310757160186768 31.12207221984863 C 7.753442764282227 25.34691429138184 11.2506856918335 20.15997123718262 15.70532894134521 15.70532894134521 C 20.15997123718262 11.2506856918335 25.34691429138184 7.753442764282227 31.12207221984863 5.310757160186768 C 37.10042953491211 2.782128572463989 43.45188522338867 1.5 50 1.5 C 56.54811477661133 1.5 62.89957046508789 2.782128572463989 68.8779296875 5.310757160186768 C 74.65309906005859 7.753442764282227 79.84004211425781 11.2506856918335 84.29468536376953 15.70532894134521 C 88.74931335449219 20.15997123718262 92.24655914306641 25.34691429138184 94.68923950195312 31.12207221984863 C 97.21787261962891 37.10042953491211 98.5 43.45188522338867 98.5 50 C 98.5 56.54811477661133 97.21787261962891 62.89957046508789 94.68923950195312 68.8779296875 C 92.24655914306641 74.65309906005859 88.74931335449219 79.84004211425781 84.29468536376953 84.29468536376953 C 79.84004211425781 88.74931335449219 74.65309906005859 92.24655914306641 68.8779296875 94.68923950195312 C 62.89957046508789 97.21787261962891 56.54811477661133 98.5 50 98.5 Z" stroke="none"/>
                <path d="M 50 3 C 43.65372467041016 3 37.49886322021484 4.242263793945312 31.70639801025391 6.6922607421875 C 26.11003112792969 9.059326171875 21.08335113525391 12.44861602783203 16.76598358154297 16.76598358154297 C 12.44861602783203 21.08335113525391 9.059326171875 26.11003112792969 6.6922607421875 31.70639801025391 C 4.242263793945312 37.49886322021484 3 43.65372467041016 3 50 C 3 56.34627532958984 4.242263793945312 62.50113677978516 6.6922607421875 68.29360198974609 C 9.059326171875 73.88996887207031 12.44861602783203 78.91666412353516 16.76598358154297 83.23401641845703 C 21.08335113525391 87.55138397216797 26.11003112792969 90.940673828125 31.70639801025391 93.3077392578125 C 37.49886322021484 95.75773620605469 43.65372467041016 97 50 97 C 56.34627532958984 97 62.50113677978516 95.75773620605469 68.29360198974609 93.3077392578125 C 73.88996887207031 90.940673828125 78.91666412353516 87.55138397216797 83.23401641845703 83.23401641845703 C 87.55138397216797 78.91666412353516 90.940673828125 73.88996887207031 93.3077392578125 68.29360198974609 C 95.75773620605469 62.50113677978516 97 56.34627532958984 97 50 C 97 43.65372467041016 95.75773620605469 37.49886322021484 93.3077392578125 31.70639801025391 C 90.940673828125 26.11003112792969 87.55138397216797 21.08335113525391 83.23401641845703 16.76598358154297 C 78.91666412353516 12.44861602783203 73.88996887207031 9.059326171875 68.29360198974609 6.6922607421875 C 62.50113677978516 4.242263793945312 56.34627532958984 3 50 3 M 50 0 C 77.61424255371094 0 100 22.38577270507812 100 50 C 100 77.61424255371094 77.61424255371094 100 50 100 C 22.38577270507812 100 0 77.61424255371094 0 50 C 0 22.38577270507812 22.38577270507812 0 50 0 Z" stroke="none" fill="#83793c"/>
              </g>
            </g>
          </g>
        </g>
      </g>
    </g>
    <g id="project-management_18508875" transform="translate(196.874 4922.037)">
      <path id="Trazado_1036462" data-name="Trazado 1036462" d="M87.12,53.893a2.357,2.357,0,0,1,1.269,1.682l1.261,6.792A2.746,2.746,0,0,1,87.27,65.4a3.347,3.347,0,0,1-2.009-.22v6.806a3.034,3.034,0,0,1-3.029,3.029H43.109a3.034,3.034,0,0,1-3.029-3.029V19.029A3.034,3.034,0,0,1,43.109,16H75.6a.781.781,0,0,1,.561.235L85.025,25.1a.779.779,0,0,1,.236.57v5.1a10.6,10.6,0,0,1,1.295,20.083Z" fill-rule="evenodd"/>
      <path id="Trazado_1036463" data-name="Trazado 1036463" d="M122.616,296.237a6.382,6.382,0,1,1,0-9.026,6.382,6.382,0,0,1,0,9.026Zm-11.481-9.091a8.355,8.355,0,0,0-1.2,2.91.786.786,0,0,1-.777.669h-1.59l-.389.389v1.22l.389.39h1.59a.786.786,0,0,1,.777.668,8.455,8.455,0,0,0,1.2,2.91.788.788,0,0,1-.063,1.041l-1.124,1.124v.555l.861.861h.551l1.124-1.125a.788.788,0,0,1,1.041-.063,8.455,8.455,0,0,0,2.91,1.2.786.786,0,0,1,.668.777v1.59l.39.389h1.222l.389-.389V300.67a.786.786,0,0,1,.669-.777,8.465,8.465,0,0,0,2.91-1.2.786.786,0,0,1,1.04.063l1.125,1.125h.551l.861-.861v-.551l-1.124-1.124a.784.784,0,0,1-.063-1.04,8.461,8.461,0,0,0,1.2-2.911.786.786,0,0,1,.776-.668h1.59l.39-.39v-1.22l-.39-.389h-1.59a.786.786,0,0,1-.776-.669,8.455,8.455,0,0,0-1.2-2.91.784.784,0,0,1,.063-1.04l1.127-1.127v-.545l-.861-.861h-.551l-1.125,1.125a.784.784,0,0,1-1.04.061,8.465,8.465,0,0,0-2.91-1.2.786.786,0,0,1-.669-.776v-1.593l-.392-.393H117.5l-.391.393v1.586a.786.786,0,0,1-.668.776,8.454,8.454,0,0,0-2.91,1.2.786.786,0,0,1-1.041-.061l-1.124-1.125h-.551l-.861.861v.551l1.124,1.125A.786.786,0,0,1,111.135,287.147Z" transform="translate(-58.85 -232.243)" fill="#378fef" fill-rule="evenodd"/>
      <circle id="Elipse_12505" data-name="Elipse 12505" cx="4.811" cy="4.811" r="4.811" transform="translate(53.255 62.702) rotate(-73.142)" fill="#67aaf3"/>
      <g id="Grupo_1178042" data-name="Grupo 1178042" transform="translate(41.65 17.571)">
        <path id="Trazado_1036464" data-name="Trazado 1036464" d="M268.63,309.463a3.755,3.755,0,0,0-1.854-5.763.783.783,0,0,1,.168.558v1.134a.782.782,0,0,1-.229.553l-.916.916a9.814,9.814,0,0,1,.984,2.377h1.293A.778.778,0,0,1,268.63,309.463Z" transform="translate(-239.618 -269.899)" fill="#67aaf3" fill-rule="evenodd"/>
        <path id="Trazado_1036465" data-name="Trazado 1036465" d="M219.088,260.536a5.32,5.32,0,0,1,5.308,8.574c.076.269,0,1.741.031,1.807l1.777,1.777h.393l.687-.689v-.392l-.945-.947a.784.784,0,0,1-.063-1.04,7.234,7.234,0,0,0,1.02-2.48.787.787,0,0,1,.777-.668h1.338l.278-.278v-.974l-.278-.278h-1.338a.787.787,0,0,1-.777-.669,7.259,7.259,0,0,0-1.02-2.48.784.784,0,0,1,.063-1.04l.945-.947v-.392l-.687-.689H226.2l-.947.947a.786.786,0,0,1-1.04.063,7.226,7.226,0,0,0-2.48-1.022.787.787,0,0,1-.668-.777v-1.336l-.278-.278h-.974l-.277.278v1.338a.787.787,0,0,1-.668.777,7.242,7.242,0,0,0-2.481,1.022.786.786,0,0,1-1.04-.063l-.945-.947h-.246a.859.859,0,0,1,.343.668V260.7a9.814,9.814,0,0,1,2.377.984l.916-.916a.784.784,0,0,1,.555-.23Z" transform="translate(-194.327 -228.353)" fill="#378fef" fill-rule="evenodd"/>
        <path id="Trazado_1036466" data-name="Trazado 1036466" d="M335.41,37.81v5.1A1.107,1.107,0,0,0,336.5,44h5.1Z" transform="translate(-300.669 -36.7)" fill="#919091" fill-rule="evenodd"/>
        <path id="Trazado_1036467" data-name="Trazado 1036467" d="M343.275,173.28a.751.751,0,0,1-.117.021,5.787,5.787,0,1,0,.117-.021Zm3,3.119a.786.786,0,0,1,1.216.993l-3.279,4a.784.784,0,0,1-1.253-.05L341.03,179a.782.782,0,1,1,1.209-.993l1.359,1.657Z" transform="translate(-303.334 -155.443)" fill="#ace5fa" fill-rule="evenodd"/>
        <path id="Trazado_1036468" data-name="Trazado 1036468" d="M400.689,334.3a1.763,1.763,0,0,0-2.036.375.845.845,0,0,0-.2.762l1.249,6.73c.166.9,1.816,1.006,2.484.2a.861.861,0,0,0,.215-.7l-1.26-6.792A.827.827,0,0,0,400.689,334.3Z" transform="translate(-355.939 -296.589)" fill="#07718b" fill-rule="evenodd"/>
        <path id="Trazado_1036469" data-name="Trazado 1036469" d="M94.89,73.683,93.81,67.852a2.412,2.412,0,0,1,.58-2.016l-.557-3a10.582,10.582,0,0,1-6.462-2.155.78.78,0,0,1-.226.446l-.738.738a8.619,8.619,0,0,1,.807,1.944c1.589,0,1.221-.149,2.336.968a.782.782,0,0,1,.23.556v1.624a.787.787,0,0,1-.235.559l-.738.738a.779.779,0,0,1-.555.23H87.208a8.6,8.6,0,0,1-.807,1.944c1.12,1.12.97.761.97,2.336a.782.782,0,0,1-.235.559l-1.143,1.145a.787.787,0,0,1-.556.23H84.394a.782.782,0,0,1-.559-.235l-1.7-1.7c-.262.261-.439.5-.827.5H80.02a9.794,9.794,0,0,1-.984,2.377l.916.916a.787.787,0,0,1,.23.556v1.2a.782.782,0,0,1-.235.559L78.63,80.191a.781.781,0,0,1-.555.23h-1.2a.782.782,0,0,1-.559-.235l-.911-.911a9.867,9.867,0,0,1-2.377.984v1.293a.783.783,0,0,1-.235.561l-.845.845a.782.782,0,0,1-.556.23H69.518a.782.782,0,0,1-.559-.235l-.845-.847a.782.782,0,0,1-.23-.556V80.258a9.867,9.867,0,0,1-2.377-.984l-.916.916a.782.782,0,0,1-.556.23h-1.2a.782.782,0,0,1-.559-.235l-1.318-1.317a.784.784,0,0,1-.23-.556v-1.2a.783.783,0,0,1,.235-.561l.911-.911a9.814,9.814,0,0,1-.984-2.377h-1.3a.784.784,0,0,1-.561-.235l-.845-.845a.784.784,0,0,1-.23-.554V69.755a.783.783,0,0,1,.235-.561l.845-.845a.782.782,0,0,1,.556-.23h1.292a9.887,9.887,0,0,1,.984-2.377l-.912-.912a.779.779,0,0,1-.23-.555v-1.2a.783.783,0,0,1,.235-.561L62.28,61.2a.784.784,0,0,1,.555-.23h1.2a.783.783,0,0,1,.561.235l.911.911a9.814,9.814,0,0,1,2.377-.984v-1.3a.782.782,0,0,1,.235-.559l.845-.845a.779.779,0,0,1,.554-.23h1.763l.369-.369a.781.781,0,0,1,.554-.23c1.59,0,1.221-.149,2.336.969a8.675,8.675,0,0,1,1.944-.807c0-1.589-.149-1.221.968-2.336a.782.782,0,0,1,.556-.23h1.624a.782.782,0,0,1,.559.235l.738.738a.783.783,0,0,1,.231.556v1.044a8.642,8.642,0,0,1,1.943.807l.738-.738a.937.937,0,0,1,.777-.231A10.6,10.6,0,0,1,94.885,41.7V37.65h-6.2a2.67,2.67,0,0,1-2.664-2.664V28.78H54.309a1.462,1.462,0,0,0-1.459,1.458V83.195a1.462,1.462,0,0,0,1.459,1.458H93.432a1.462,1.462,0,0,0,1.458-1.458ZM68.956,53.227a.786.786,0,1,1,0-1.57H80.778a.786.786,0,0,1,0,1.57Zm0-4.6a.786.786,0,1,1,0-1.57H81.539a.786.786,0,1,1,0,1.57Zm0-13.172a.786.786,0,0,1,0-1.571H82.3a.786.786,0,0,1,0,1.571Zm0,4.6a.786.786,0,1,1,0-1.57H85.379a.786.786,0,1,1,0,1.57ZM57.2,45.159h8.388a.786.786,0,0,1,.786.786v8.388a.786.786,0,0,1-.786.786H57.2a.786.786,0,0,1-.786-.786V45.95a.786.786,0,0,1,.786-.791Zm0-13.172h8.388a.786.786,0,0,1,.786.786v8.388a.786.786,0,0,1-.786.786H57.2a.786.786,0,0,1-.786-.786V32.778a.786.786,0,0,1,.786-.786Z" transform="translate(-52.85 -28.78)" fill="#f2f2f2" fill-rule="evenodd"/>
        <path id="Trazado_1036470" data-name="Trazado 1036470" d="M323.279,167.628a3.774,3.774,0,0,1,.476-.057l-.559-3.015a.784.784,0,0,1,.515-.942,9.034,9.034,0,0,0,6.043-10.163.749.749,0,0,1-.021-.123,9.045,9.045,0,0,0-7.078-7.149.685.685,0,0,1-.087-.017,8.992,8.992,0,0,0-3.3-.02.749.749,0,0,1-.117.021,9.034,9.034,0,0,0,2.362,17.888.784.784,0,0,1,.834.686l.553,2.984.379-.093ZM319.54,147.9a7.268,7.268,0,1,1-4.672,3.032A7.268,7.268,0,0,1,319.54,147.9Z" transform="translate(-279.941 -131.588)" fill="#0c9198" fill-rule="evenodd"/>
        <path id="Trazado_1036471" data-name="Trazado 1036471" d="M97.209,180.2a.786.786,0,1,1-1.107-1.107l.861-.861-.861-.861a.786.786,0,0,1,1.107-1.107l.861.861.861-.861a.786.786,0,0,1,1.107,1.107l-.861.861.861.861A.786.786,0,0,1,98.93,180.2l-.861-.861Zm4.268-5.378H94.66v6.816h6.816Z" transform="translate(-89.519 -156.864)" fill="#ef6262" fill-rule="evenodd"/>
        <path id="Trazado_1036472" data-name="Trazado 1036472" d="M101.476,67.69H94.66v6.816h6.816Zm-2.383,1.667a.782.782,0,1,1,1.209.993l-2.035,2.488a.784.784,0,0,1-1.21,0l-1.222-1.491a.785.785,0,0,1,1.215-.993l.615.751Z" transform="translate(-89.519 -62.906)" fill="#f7ba2d" fill-rule="evenodd"/>
      </g>
    </g>
  </g>
</svg>
