<svg xmlns="http://www.w3.org/2000/svg" width="295" height="147.124" viewBox="0 0 295 147.124">
  <g id="Grupo_1178311" data-name="Grupo 1178311" transform="translate(-1125 -4482.966)">
    <rect id="Rect치ngulo_415938" data-name="Rect치ngulo 415938" width="295" height="66.937" rx="5" transform="translate(1125 4529)" fill="#2f4f7e"/>
    <g id="Grupo_1178052" data-name="Grupo 1178052">
      <rect id="Rect치ngulo_415940" data-name="Rect치ngulo 415940" width="252.41" height="126.09" rx="5" transform="translate(1146 4499)" fill="#5692e8"/>
      <g id="Artboard121" transform="translate(1191.577 4475.962)">
        <g id="Grupo_1178051" data-name="Grupo 1178051" transform="translate(25.874 7.004)">
          <g id="Grupo_1178050" data-name="Grupo 1178050" transform="translate(2.479 2.367)">
            <g id="Grupo_1178047" data-name="Grupo 1178047" transform="translate(0 28.918)">
              <g id="Grupo_1178043" data-name="Grupo 1178043">
                <g id="CorelEMF">
                  <path id="Trazado_1036473" data-name="Trazado 1036473" d="M36.763,112.472h66.384a2.446,2.446,0,0,1,1.789.741l12.046,12.046a2.446,2.446,0,0,1,.741,1.789v91.108a2.53,2.53,0,0,1-2.524,2.524H36.763a2.531,2.531,0,0,1-2.531-2.524V115a2.536,2.536,0,0,1,2.531-2.531Z" transform="translate(-34.233 -112.472)" fill="#eceff1" fill-rule="evenodd"/>
                  <path id="Trazado_1036474" data-name="Trazado 1036474" d="M270.094,113.2V125.25a1.268,1.268,0,0,0,1.265,1.265h12.046a2.529,2.529,0,0,0-.524-.741l-12.046-12.046A2.658,2.658,0,0,0,270.094,113.2Z" transform="translate(-200.132 -112.987)" fill="#a79ba7" fill-rule="evenodd"/>
                  <path id="Trazado_1036475" data-name="Trazado 1036475" d="M36.764,112.472h2.524V220.681H36.764a2.531,2.531,0,0,1-2.531-2.524V115a2.536,2.536,0,0,1,2.531-2.531Z" transform="translate(-34.233 -112.472)" fill="#d1d1d6" fill-rule="evenodd"/>
                </g>
              </g>
              <g id="Grupo_1178044" data-name="Grupo 1178044" transform="translate(15.026 27.707)">
                <path id="Trazado_1036476" data-name="Trazado 1036476" d="M86.732,205.878h14.123a1.847,1.847,0,0,1,1.843,1.843v14.123a1.847,1.847,0,0,1-1.843,1.843H86.732a1.847,1.847,0,0,1-1.843-1.843V207.721A1.847,1.847,0,0,1,86.732,205.878Z" transform="translate(-84.889 -205.878)" fill="#8ac9fe" fill-rule="evenodd"/>
                <path id="Trazado_1036477" data-name="Trazado 1036477" d="M128.713,205.878h2.966a1.847,1.847,0,0,1,1.843,1.843v14.123a1.847,1.847,0,0,1-1.843,1.843h-2.966a1.847,1.847,0,0,0,1.843-1.843V207.721A1.847,1.847,0,0,0,128.713,205.878Z" transform="translate(-115.714 -205.878)" fill="#60b7ff" fill-rule="evenodd"/>
              </g>
              <g id="Grupo_1178045" data-name="Grupo 1178045" transform="translate(15.026 53.127)">
                <path id="Trazado_1036478" data-name="Trazado 1036478" d="M86.732,291.576h14.123a1.847,1.847,0,0,1,1.843,1.843v14.123a1.847,1.847,0,0,1-1.843,1.843H86.732a1.847,1.847,0,0,1-1.843-1.843V293.419A1.847,1.847,0,0,1,86.732,291.576Z" transform="translate(-84.889 -291.576)" fill="#6cf5c2" fill-rule="evenodd"/>
                <path id="Trazado_1036479" data-name="Trazado 1036479" d="M128.713,291.576h2.966a1.847,1.847,0,0,1,1.843,1.843v14.123a1.847,1.847,0,0,1-1.843,1.843h-2.966a1.847,1.847,0,0,0,1.843-1.843V293.419A1.847,1.847,0,0,0,128.713,291.576Z" transform="translate(-115.714 -291.576)" fill="#00e499" fill-rule="evenodd"/>
              </g>
              <g id="Grupo_1178046" data-name="Grupo 1178046" transform="translate(15.026 78.547)">
                <path id="Trazado_1036480" data-name="Trazado 1036480" d="M86.732,377.273h14.123a1.853,1.853,0,0,1,1.843,1.849v14.123a1.847,1.847,0,0,1-1.843,1.843H86.732a1.847,1.847,0,0,1-1.843-1.843V379.122A1.853,1.853,0,0,1,86.732,377.273Z" transform="translate(-84.889 -377.273)" fill="#ffe177" fill-rule="evenodd"/>
                <path id="Trazado_1036481" data-name="Trazado 1036481" d="M128.713,377.273h2.966a1.853,1.853,0,0,1,1.843,1.849v14.123a1.847,1.847,0,0,1-1.843,1.843h-2.966a1.847,1.847,0,0,0,1.843-1.843V379.122A1.853,1.853,0,0,0,128.713,377.273Z" transform="translate(-115.714 -377.273)" fill="#ffd064" fill-rule="evenodd"/>
              </g>
            </g>
            <g id="Grupo_1178048" data-name="Grupo 1178048" transform="translate(10.795)">
              <path id="Trazado_1036482" data-name="Trazado 1036482" d="M100.733,19.144a21.405,21.405,0,0,1,6.275,2.6l4.078-1.809,4.8,4.8-1.809,4.078a21.4,21.4,0,0,1,2.6,6.276l4.161,1.6v6.8l-4.161,1.6a21.421,21.421,0,0,1-2.6,6.272l1.809,4.078-4.8,4.807-4.078-1.812a21.412,21.412,0,0,1-6.275,2.6l-1.6,4.158h-6.8l-1.6-4.161a21.414,21.414,0,0,1-6.272-2.6l-4.078,1.812-4.807-4.807,1.812-4.075a21.479,21.479,0,0,1-2.6-6.275l-4.158-1.6V36.7l4.158-1.6a21.411,21.411,0,0,1,2.6-6.276L75.575,24.74l4.807-4.8,4.075,1.809a21.465,21.465,0,0,1,6.275-2.6l1.6-4.161h6.8Z" transform="translate(-70.625 -14.983)" fill="#ffe177" fill-rule="evenodd"/>
              <path id="Trazado_1036483" data-name="Trazado 1036483" d="M131.411,20.544l1.37-.608,4.8,4.8-1.809,4.078a21.4,21.4,0,0,1,2.6,6.276l4.161,1.6v6.8l-4.161,1.6a21.421,21.421,0,0,1-2.6,6.272l1.809,4.078-4.8,4.807-1.37-.608,4.2-4.2L133.8,51.366a21.421,21.421,0,0,0,2.6-6.272l4.161-1.6V36.7l-4.161-1.6a21.4,21.4,0,0,0-2.6-6.276l1.812-4.078Zm-29.942,0,.608-.608,4.075,1.809c-.288.16-.572.326-.851.5Zm20.959-1.4a21.405,21.405,0,0,1,6.275,2.6l-1.124.5a28.01,28.01,0,0,0-7.13-3.1l-1.6-4.161h1.978Zm-16.273,39.3-4.078,1.812-.608-.608,3.832-1.7q.418.258.854.5Zm22.548,0a21.412,21.412,0,0,1-6.275,2.6l-1.6,4.158h-1.978l1.6-4.158a28.064,28.064,0,0,0,7.133-3.1Z" transform="translate(-92.32 -14.983)" fill="#ffd064" fill-rule="evenodd"/>
              <path id="Trazado_1036484" data-name="Trazado 1036484" d="M125.033,56.64a12.753,12.753,0,1,1-12.751,12.754A12.754,12.754,0,0,1,125.033,56.64Z" transform="translate(-99.925 -44.283)" fill="#eceff1" fill-rule="evenodd"/>
              <path id="Trazado_1036485" data-name="Trazado 1036485" d="M125.033,56.64c.29,0,.578.01.866.031a12.752,12.752,0,0,0,0,25.446c-.288.018-.575.028-.866.028a12.753,12.753,0,0,1,0-25.505Z" transform="translate(-99.925 -44.283)" fill="#d1d1d6" fill-rule="evenodd"/>
            </g>
            <g id="Grupo_1178049" data-name="Grupo 1178049" transform="translate(54.584 68.261)">
              <path id="Trazado_1036486" data-name="Trazado 1036486" d="M365.985,381.358a26.89,26.89,0,0,1-4.56,5.026l12.4,12.16,4.723-4.868Z" transform="translate(-318.956 -340.943)" fill="#a79ba7" fill-rule="evenodd"/>
              <path id="Trazado_1036487" data-name="Trazado 1036487" d="M373.881,381.084a3.119,3.119,0,0,1-1.353,1.809l12.323,12.246,1.511-1.656Z" transform="translate(-326.766 -340.75)" fill="#837683" fill-rule="evenodd"/>
              <path id="Trazado_1036488" data-name="Trazado 1036488" d="M411.251,435.694l5.329-5.5a2.452,2.452,0,0,0-.05-3.456l-14.765-14.327a2.452,2.452,0,0,0-3.456.054l-5.329,5.492a2.452,2.452,0,0,0,.05,3.456L407.8,435.744A2.452,2.452,0,0,0,411.251,435.694Z" transform="translate(-340.667 -362.305)" fill="#f1ba84" fill-rule="evenodd"/>
              <path id="Trazado_1036489" data-name="Trazado 1036489" d="M415.414,412.416l14.765,14.327a2.452,2.452,0,0,1,.05,3.456l-5.329,5.5a2.5,2.5,0,0,1-.661.48,2.455,2.455,0,0,0,2.846-.48l5.329-5.5a2.452,2.452,0,0,0-.05-3.456L417.6,412.416a2.458,2.458,0,0,0-2.8-.43,2.454,2.454,0,0,1,.611.43Z" transform="translate(-356.501 -362.307)" fill="#e3a76f" fill-rule="evenodd"/>
              <path id="Trazado_1036490" data-name="Trazado 1036490" d="M245.136,245.108a26.885,26.885,0,1,1-26.885,26.885A26.883,26.883,0,0,1,245.136,245.108Z" transform="translate(-218.251 -245.108)" fill="#8ac9fe" fill-rule="evenodd"/>
              <path id="Trazado_1036491" data-name="Trazado 1036491" d="M305.786,245.108a26.885,26.885,0,1,1,0,53.77c-.439,0-.873-.014-1.307-.032a26.885,26.885,0,0,0,0-53.706c.434-.023.868-.032,1.307-.032Z" transform="translate(-278.902 -245.108)" fill="#60b7ff" fill-rule="evenodd"/>
              <path id="Trazado_1036492" data-name="Trazado 1036492" d="M264.07,272.027a18.9,18.9,0,1,1-18.9,18.9A18.9,18.9,0,0,1,264.07,272.027Z" transform="translate(-237.185 -264.042)" fill="#eceff1" fill-rule="evenodd"/>
              <path id="Trazado_1036493" data-name="Trazado 1036493" d="M264.07,272.027c.429,0,.853.012,1.278.041a18.9,18.9,0,0,0,0,37.713c-.424.029-.849.045-1.278.045a18.9,18.9,0,0,1,0-37.8Z" transform="translate(-237.185 -264.042)" fill="#d1d1d6" fill-rule="evenodd"/>
            </g>
          </g>
          <path id="Trazado_1036494" data-name="Trazado 1036494" d="M114.1,133.446V146.5a2.373,2.373,0,0,1-2.373,2.373H28.247a2.373,2.373,0,0,1-2.373-2.373V38.3a2.373,2.373,0,0,1,2.373-2.373h8.427V31.091a2.373,2.373,0,0,1,1.521-2.215l3.033-1.167a23.874,23.874,0,0,1,1.925-4.641L41.832,20.1a2.373,2.373,0,0,1,.49-2.642l4.8-4.8a2.373,2.373,0,0,1,2.642-.49l2.972,1.321a23.733,23.733,0,0,1,4.636-1.921l1.173-3.039A2.373,2.373,0,0,1,60.76,7h6.793a2.373,2.373,0,0,1,2.215,1.522l1.167,3.037a23.731,23.731,0,0,1,4.634,1.92l2.971-1.321a2.373,2.373,0,0,1,2.642.49l4.8,4.8a2.373,2.373,0,0,1,.492,2.639L85.16,23.066a23.671,23.671,0,0,1,1.922,4.644l3.03,1.166a2.373,2.373,0,0,1,1.521,2.215v4.837H98.2a2.372,2.372,0,0,1,1.678.695l13.529,13.529a2.373,2.373,0,0,1,.695,1.678V75.586a29.268,29.268,0,0,1,20.693,44l5.617,5.454a4.844,4.844,0,0,1,5.168,1l0,0,14.762,14.327a4.825,4.825,0,0,1,.1,6.812l0,0-5.327,5.488,0,0a4.835,4.835,0,0,1-6.8.112l-.009-.009-14.754-14.326a4.825,4.825,0,0,1-1.165-5.138l-5.362-5.2a29.1,29.1,0,0,1-12.918,5.337ZM39.689,40.674H30.62V144.125h78.737V133.77a29.175,29.175,0,0,1-21.043-9.305H72.335a2.373,2.373,0,0,1,0-4.746H84.713a29.088,29.088,0,0,1-4.2-13.372h-8.18a2.373,2.373,0,0,1,0-4.746H80.6q.129-1.3.368-2.563H72.335a2.373,2.373,0,0,1,0-4.746h9.959a29.266,29.266,0,0,1,27.063-19.031V54.2H98.2a2.373,2.373,0,0,1-2.373-2.373V40.674H88.618l-1.537.591A23.912,23.912,0,0,1,85.159,45.9l1.318,2.975a2.373,2.373,0,0,1-.492,2.639l-4.8,4.8a2.373,2.373,0,0,1-2.639.492l-2.971-1.316a23.677,23.677,0,0,1-4.638,1.921l-1.166,3.031a2.373,2.373,0,0,1-2.215,1.521H60.76a2.373,2.373,0,0,1-2.215-1.521l-1.166-3.03a23.877,23.877,0,0,1-4.641-1.923l-2.975,1.318a2.373,2.373,0,0,1-2.639-.492l-4.8-4.8a2.373,2.373,0,0,1-.49-2.642l1.321-2.97a23.876,23.876,0,0,1-1.924-4.635ZM106,49.457l-5.427-5.428v5.428Zm25.993,74.024q-.661.776-1.375,1.5l4.778,4.637,1.418-1.46ZM45.115,63.623H59.238a4.226,4.226,0,0,1,4.216,4.216V81.962a4.226,4.226,0,0,1-4.216,4.216H45.115A4.226,4.226,0,0,1,40.9,81.962V67.839a4.226,4.226,0,0,1,4.216-4.216Zm.53,17.808H58.708V68.369H45.646Zm1.79-5.149a2.373,2.373,0,0,1,3.352-3.359l.66.659,1.942-2.4a2.373,2.373,0,1,1,3.691,2.984l-3.6,4.45a2.373,2.373,0,0,1-3.522.187Zm-2.32,12.761H59.238a4.226,4.226,0,0,1,4.216,4.216v14.123a4.226,4.226,0,0,1-4.216,4.216H45.115a4.226,4.226,0,0,1-4.216-4.216V93.259a4.226,4.226,0,0,1,4.216-4.216Zm.53,4.746v13.062H58.708V93.789Zm1.788,7.912a2.373,2.373,0,0,1,3.356-3.356l.66.66,1.94-2.4a2.373,2.373,0,0,1,3.691,2.984l-3.6,4.45a2.373,2.373,0,0,1-3.523.186Zm24.9,30.072a2.373,2.373,0,1,1,0-4.746h15.05a2.373,2.373,0,1,1,0,4.746Zm0-58.155a2.373,2.373,0,0,1,0-4.746h23.12a2.373,2.373,0,0,1,0,4.746Zm-27.22,40.844H59.238a4.234,4.234,0,0,1,4.216,4.222v14.123a4.226,4.226,0,0,1-4.216,4.216H45.115a4.226,4.226,0,0,1-4.216-4.216V118.685A4.234,4.234,0,0,1,45.115,114.463Zm.53,4.746v13.068H58.708V119.209Zm1.79,7.919a2.373,2.373,0,0,1,3.352-3.359l.66.659,1.942-2.4a2.373,2.373,0,1,1,3.691,2.984l-3.6,4.45a2.373,2.373,0,0,1-3.522.188Zm24.9-46.2a2.373,2.373,0,0,1,0-4.746h15.05a2.373,2.373,0,1,1,0,4.746Zm-5.4-66.533L65.923,11.75H62.388L61.367,14.4A2.374,2.374,0,0,1,59.7,15.852a19,19,0,0,0-5.577,2.311,2.374,2.374,0,0,1-2.209.148L49.328,17.16l-2.5,2.5,1.151,2.588a2.373,2.373,0,0,1-.148,2.209,19.166,19.166,0,0,0-2.319,5.589A2.374,2.374,0,0,1,44.059,31.7L41.42,32.72v3.535l2.639,1.015a2.372,2.372,0,0,1,1.455,1.659,19.115,19.115,0,0,0,2.318,5.581,2.372,2.372,0,0,1,.15,2.212L46.83,49.31l2.5,2.5,2.589-1.147a2.372,2.372,0,0,1,2.2.146,19.142,19.142,0,0,0,5.588,2.314,2.372,2.372,0,0,1,1.667,1.457l1.016,2.638h3.534l1.016-2.638a2.373,2.373,0,0,1,1.666-1.456,18.914,18.914,0,0,0,5.574-2.309,2.372,2.372,0,0,1,2.209-.151l2.589,1.147,2.5-2.5-1.147-2.589a2.372,2.372,0,0,1,.146-2.2,19.177,19.177,0,0,0,2.314-5.582,2.373,2.373,0,0,1,1.456-1.666l2.638-1.015V32.72L84.249,31.7a2.373,2.373,0,0,1-1.457-1.668,18.957,18.957,0,0,0-2.311-5.582,2.372,2.372,0,0,1-.149-2.206l1.147-2.589-2.5-2.5-2.588,1.151a2.374,2.374,0,0,1-2.209-.148,18.994,18.994,0,0,0-5.577-2.311,2.373,2.373,0,0,1-1.666-1.458Zm-2.786,5.868A14.225,14.225,0,1,1,49.932,34.484,14.223,14.223,0,0,1,64.154,20.262Zm0,4.746a9.479,9.479,0,1,0,9.483,9.476A9.473,9.473,0,0,0,64.154,25.008Zm45.561,55a24.51,24.51,0,1,0,24.51,24.51,24.509,24.509,0,0,0-24.51-24.51Zm0,3.158a21.352,21.352,0,1,1-21.353,21.352,21.352,21.352,0,0,1,21.353-21.352Zm0,4.746a16.606,16.606,0,1,0,16.607,16.606A16.606,16.606,0,0,0,109.715,87.91Zm41.994,61.457,5.329-5.49a.071.071,0,0,0,.006-.1l0,0-14.764-14.328a.071.071,0,0,0-.1,0l0,0-5.329,5.49,0,0a.062.062,0,0,0,0,.087l.009.009L151.6,149.366a.075.075,0,0,0,.1,0Z" transform="translate(-25.874 -7.004)" fill-rule="evenodd"/>
        </g>
      </g>
    </g>
  </g>
</svg>
