<svg xmlns="http://www.w3.org/2000/svg" xmlns:xlink="http://www.w3.org/1999/xlink" width="108" height="108" viewBox="0 0 108 108">
  <defs>
    <filter id="Trazado_904820" x="0" y="0" width="108" height="108" filterUnits="userSpaceOnUse">
      <feOffset dy="3" input="SourceAlpha"/>
      <feGaussianBlur stdDeviation="3" result="blur"/>
      <feFlood flood-opacity="0.161"/>
      <feComposite operator="in" in2="blur"/>
      <feComposite in="SourceGraphic"/>
    </filter>
  </defs>
  <g id="Grupo_1177315" data-name="Grupo 1177315" transform="translate(-620 -526)">
    <g id="Grupo_1173585" data-name="Grupo 1173585" transform="translate(629 532)">
      <g id="Grupo_1173428" data-name="Grupo 1173428" transform="translate(0 0)">
        <g id="Grupo_1171958" data-name="Grupo 1171958">
          <g id="Grupo_1167341" data-name="Grupo 1167341">
            <g id="Grupo_1166792" data-name="Grupo 1166792">
              <g transform="matrix(1, 0, 0, 1, -9, -6)" filter="url(#Trazado_904820)">
                <g id="Trazado_904820-2" data-name="Trazado 904820" transform="translate(9 6)" fill="#effbfe">
                  <path d="M 44.99999618530273 88.49999237060547 C 39.12687301635742 88.49999237060547 33.43022155761719 87.35006713867188 28.06829643249512 85.08216857910156 C 22.88852119445801 82.89130401611328 18.23629570007324 79.75457763671875 14.24084663391113 75.75914001464844 C 10.24540901184082 71.76369476318359 7.108683586120605 67.11146545410156 4.917821407318115 61.93169403076172 C 2.649921178817749 56.56976699829102 1.499996185302734 50.87311553955078 1.499996185302734 44.99999237060547 C 1.499996185302734 39.12686920166016 2.649921178817749 33.43021774291992 4.917821407318115 28.06829261779785 C 7.108683586120605 22.88851737976074 10.24540901184082 18.23630523681641 14.24084663391113 14.24085521697998 C 18.23629570007324 10.24540519714355 22.88852119445801 7.108692169189453 28.06829643249512 4.917829990386963 C 33.43022155761719 2.649929761886597 39.12687301635742 1.500004887580872 44.99999618530273 1.500004887580872 C 50.87311935424805 1.500004887580872 56.56977081298828 2.649929761886597 61.93169784545898 4.917829990386963 C 67.11147308349609 7.108692169189453 71.76369476318359 10.24540519714355 75.75914764404297 14.24085521697998 C 79.75458526611328 18.23630523681641 82.89131164550781 22.88851737976074 85.08216857910156 28.06829261779785 C 87.35007476806641 33.43021774291992 88.5 39.12686920166016 88.5 44.99999237060547 C 88.5 50.87311553955078 87.35007476806641 56.56976699829102 85.08216857910156 61.93169403076172 C 82.89131164550781 67.11146545410156 79.75458526611328 71.76369476318359 75.75914764404297 75.75914001464844 C 71.76369476318359 79.75457763671875 67.11147308349609 82.89130401611328 61.93169784545898 85.08216857910156 C 56.56977081298828 87.35006713867188 50.87311935424805 88.49999237060547 44.99999618530273 88.49999237060547 Z" stroke="none"/>
                  <path d="M 44.99999618530273 2.999992370605469 C 39.32870864868164 2.999992370605469 33.82865142822266 4.11004638671875 28.65262603759766 6.299331665039062 C 23.65165710449219 8.414566040039062 19.15968322753906 11.44333648681641 15.301513671875 15.30150604248047 C 11.44333648681641 19.15967559814453 8.414566040039062 23.65164947509766 6.299339294433594 28.65262222290039 C 4.110054016113281 33.82864761352539 2.999992370605469 39.32870483398438 2.999992370605469 44.99999237060547 C 2.999992370605469 50.67127990722656 4.110054016113281 56.17132186889648 6.299339294433594 61.34736633300781 C 8.414566040039062 66.34833526611328 11.44333648681641 70.84029388427734 15.301513671875 74.69846343994141 C 19.15968322753906 78.55663299560547 23.65165710449219 81.58540344238281 28.65262603759766 83.70063781738281 C 33.82865142822266 85.88992309570312 39.32870864868164 86.99997711181641 44.99999618530273 86.99997711181641 C 50.67128372192383 86.99997711181641 56.17134094238281 85.88992309570312 61.34736633300781 83.70063781738281 C 66.34834289550781 81.58540344238281 70.84030914306641 78.55663299560547 74.69847869873047 74.69846343994141 C 78.55665588378906 70.84029388427734 81.58542633056641 66.34833526611328 83.70065307617188 61.34736633300781 C 85.88993835449219 56.17132186889648 87 50.67127990722656 87 44.99999237060547 C 87 39.32870483398438 85.88993835449219 33.82864761352539 83.70065307617188 28.65262222290039 C 81.58542633056641 23.65164947509766 78.55665588378906 19.15967559814453 74.69847869873047 15.30150604248047 C 70.84030914306641 11.44333648681641 66.34834289550781 8.414566040039062 61.34736633300781 6.299331665039062 C 56.17134094238281 4.11004638671875 50.67128372192383 2.999992370605469 44.99999618530273 2.999992370605469 M 44.99999618530273 -7.62939453125e-06 C 69.85281372070312 -7.62939453125e-06 90 20.14717864990234 90 44.99999237060547 C 90 69.85279083251953 69.85281372070312 89.99997711181641 44.99999618530273 89.99997711181641 C 20.14717864990234 89.99997711181641 -7.62939453125e-06 69.85279083251953 -7.62939453125e-06 44.99999237060547 C -7.62939453125e-06 20.14717864990234 20.14717864990234 -7.62939453125e-06 44.99999618530273 -7.62939453125e-06 Z" stroke="none" fill="#497f88"/>
                </g>
              </g>
            </g>
          </g>
        </g>
      </g>
    </g>
    <g id="creative-team_12521190" transform="translate(623.57 542.387)">
      <path id="Trazado_1036269" data-name="Trazado 1036269" d="M278.968,344.667H285.5v1.5a1.5,1.5,0,0,1-1.5,1.5h-3.533a1.5,1.5,0,0,1-1.5-1.5Z" transform="translate(-226.058 -300.409)" fill="#808f9e" fill-rule="evenodd"/>
      <path id="Trazado_1036270" data-name="Trazado 1036270" d="M266.578,318.047h9.2v1.5a1.5,1.5,0,0,1-1.5,1.5h-6.2a1.5,1.5,0,0,1-1.5-1.5Z" transform="translate(-215.001 -276.654)" fill="#9ba7b5" fill-rule="evenodd"/>
      <rect id="Rect치ngulo_416256" data-name="Rect치ngulo 416256" width="11.534" height="3.9" rx="1.95" transform="translate(42.48 56.856)" fill="#c2591d"/>
      <path id="Trazado_1036271" data-name="Trazado 1036271" d="M193.572,470.184a.978.978,0,0,0-.975-.974h-9.584a.978.978,0,0,0-.975.975v1.149a.978.978,0,0,0,.975.974H192.6a.978.978,0,0,0,.975-.975Z" transform="translate(-139.558 -411.551)" fill="#d6763e" fill-rule="evenodd"/>
      <path id="Trazado_1036272" data-name="Trazado 1036272" d="M146.441,250.522l-.645-.649c-.336-.338-.4-.55-.4-1.488V239.29a1.988,1.988,0,0,0-3.975,0v12.4a2.558,2.558,0,0,0,.748,1.814l5.392,5.392a1.534,1.534,0,0,1,.557,1.226v1.333h6.878V255.04a2.17,2.17,0,0,0-.692-1.534l-5.409-5.409a1.749,1.749,0,0,0-2.466,0,1.7,1.7,0,0,0,.015,2.425Z" transform="translate(-103.308 -204.598)" fill="#ffbcab" fill-rule="evenodd"/>
      <path id="Trazado_1036273" data-name="Trazado 1036273" d="M250.947,387.112h1.775l.015-2.936V380.7a2.17,2.17,0,0,0-.692-1.534l-1.051-1.051-.047,9Z" transform="translate(-201.052 -330.257)" fill="#fa9f82" fill-rule="evenodd"/>
      <rect id="Rect치ngulo_416257" data-name="Rect치ngulo 416257" width="11.534" height="3.9" rx="1.95" transform="translate(58.337 56.856)" fill="#c2591d"/>
      <g id="Grupo_1177989" data-name="Grupo 1177989" transform="translate(46.061 18.154)">
        <path id="Trazado_1036274" data-name="Trazado 1036274" d="M329.411,470.184a.978.978,0,0,1,.975-.974h9.584a.978.978,0,0,1,.975.975v1.149a.978.978,0,0,1-.975.974h-9.584a.978.978,0,0,1-.975-.975Z" transform="translate(-317.135 -429.706)" fill="#d6763e" fill-rule="evenodd"/>
        <path id="Trazado_1036275" data-name="Trazado 1036275" d="M359.6,250.522l.645-.649c.336-.338.4-.55.4-1.488V239.29a1.988,1.988,0,0,1,3.975,0v12.4a2.558,2.558,0,0,1-.748,1.814l-5.392,5.392a1.534,1.534,0,0,0-.557,1.226v1.333h-6.878V255.04a2.17,2.17,0,0,1,.692-1.534l5.409-5.409a1.749,1.749,0,0,1,2.466,0,1.7,1.7,0,0,1-.015,2.425Z" transform="translate(-336.447 -222.752)" fill="#ffbcab" fill-rule="evenodd"/>
        <path id="Trazado_1036276" data-name="Trazado 1036276" d="M352.843,387.112h-1.775l-.015-2.936V380.7a2.17,2.17,0,0,1,.692-1.534l1.051-1.051.047,9Z" transform="translate(-336.448 -348.411)" fill="#fa9f82" fill-rule="evenodd"/>
        <path id="Trazado_1036277" data-name="Trazado 1036277" d="M229.915,125.443a1.286,1.286,0,0,0,1.4-1.093c.639-8.054,4.235-8.98,4.235-13.414,0-4.9-4.528-8.866-10.114-8.866s-10.113,3.969-10.114,8.866c0,4.434,3.6,5.361,4.235,13.414a1.286,1.286,0,0,0,1.4,1.093h8.958Z" transform="translate(-215.322 -102.07)" fill="#fac852" fill-rule="evenodd"/>
        <path id="Trazado_1036278" data-name="Trazado 1036278" d="M224.745,102.265c-5.263.311-9.422,4.152-9.423,8.845,0,4.434,3.6,5.361,4.235,13.414a1.286,1.286,0,0,0,1.4,1.093h7.576a1.286,1.286,0,0,0,1.4-1.093c.639-8.054,4.235-8.98,4.235-13.414C234.167,106.417,230.009,102.576,224.745,102.265Z" transform="translate(-215.322 -102.244)" fill="#ffd675" fill-rule="evenodd"/>
        <path id="Trazado_1036279" data-name="Trazado 1036279" d="M263.469,296.292a1.286,1.286,0,0,0,1.4-1.093c.047-.6.112-1.156.189-1.68H252.922c.077.524.141,1.082.189,1.68a1.286,1.286,0,0,0,1.4,1.093h8.958Z" transform="translate(-248.876 -272.919)" fill="#d2d4d6" fill-rule="evenodd"/>
        <path id="Trazado_1036280" data-name="Trazado 1036280" d="M266.578,319.258l8.161,0v1.432a1.436,1.436,0,0,1-1.432,1.432h-5.23a1.5,1.5,0,0,1-1.5-1.5Z" transform="translate(-261.063 -295.888)" fill="#afbac7" fill-rule="evenodd"/>
      </g>
      <g id="Grupo_1177991" data-name="Grupo 1177991" transform="translate(26.192 18.154)">
        <path id="Trazado_1036281" data-name="Trazado 1036281" d="M34.049,102.07a3.4,3.4,0,0,0-3.388,3.388v30.2h6.776v-30.2a3.4,3.4,0,0,0-3.388-3.388Z" transform="translate(-30.661 -102.07)" fill="#993800" fill-rule="evenodd"/>
        <path id="Trazado_1036282" data-name="Trazado 1036282" d="M30.66,184.2h6.776v4.125H30.66Z" transform="translate(-30.66 -175.358)" fill="#f0d4c9"/>
        <g id="Grupo_1177990" data-name="Grupo 1177990" transform="translate(0)">
          <path id="Trazado_1036283" data-name="Trazado 1036283" d="M34.048,102.07a3.4,3.4,0,0,0-3.388,3.388v5.449h6.776v-5.449a3.4,3.4,0,0,0-3.388-3.388Z" transform="translate(-30.66 -102.07)" fill="#635463" fill-rule="evenodd"/>
          <path id="Trazado_1036284" data-name="Trazado 1036284" d="M30.66,414.247h6.776l-3.388,9.012Z" transform="translate(-30.66 -380.657)" fill="#635463" fill-rule="evenodd"/>
        </g>
      </g>
      <g id="Grupo_1177996" data-name="Grupo 1177996" transform="translate(26.192 18.195)">
        <g id="Grupo_1177992" data-name="Grupo 1177992" transform="translate(0 0)">
          <path id="Trazado_1036285" data-name="Trazado 1036285" d="M33.523,102.451A3.4,3.4,0,0,0,30.66,105.8V136h5.727V105.8a3.4,3.4,0,0,0-2.863-3.347Z" transform="translate(-30.66 -102.451)" fill="#c2591d" fill-rule="evenodd"/>
          <path id="Trazado_1036286" data-name="Trazado 1036286" d="M30.66,184.2h5.726v4.125H30.66Z" transform="translate(-30.66 -175.399)" fill="#faefe8"/>
          <path id="Trazado_1036287" data-name="Trazado 1036287" d="M33.523,102.451A3.4,3.4,0,0,0,30.66,105.8v5.449h5.727V105.8a3.4,3.4,0,0,0-2.863-3.347Z" transform="translate(-30.66 -102.451)" fill="#635463" fill-rule="evenodd"/>
        </g>
        <g id="Grupo_1177993" data-name="Grupo 1177993" transform="translate(0 8.796)">
          <path id="Trazado_1036288" data-name="Trazado 1036288" d="M30.66,184.2h5.727v4.125H30.66Z" transform="translate(-30.66 -184.195)" fill="#c2591d"/>
          <path id="Trazado_1036289" data-name="Trazado 1036289" d="M30.66,184.2h5.726v4.125H30.66Z" transform="translate(-30.66 -184.195)" fill="#faefe8"/>
        </g>
        <g id="Grupo_1177995" data-name="Grupo 1177995" transform="translate(0)">
          <g id="Grupo_1177994" data-name="Grupo 1177994">
            <path id="Trazado_1036290" data-name="Trazado 1036290" d="M33.523,102.45A3.4,3.4,0,0,0,30.66,105.8v5.449h5.727V105.8a3.4,3.4,0,0,0-2.863-3.347Z" transform="translate(-30.66 -102.45)" fill="#c2591d" fill-rule="evenodd"/>
            <path id="Trazado_1036291" data-name="Trazado 1036291" d="M33.523,102.451A3.4,3.4,0,0,0,30.66,105.8v5.449h5.727V105.8a3.4,3.4,0,0,0-2.863-3.347Z" transform="translate(-30.66 -102.451)" fill="#837683" fill-rule="evenodd"/>
          </g>
          <path id="Trazado_1036292" data-name="Trazado 1036292" d="M30.66,414.247h5.727l-2.863,7.616Z" transform="translate(-30.66 -380.698)" fill="#837683" fill-rule="evenodd"/>
        </g>
      </g>
      <path id="Trazado_1036293" data-name="Trazado 1036293" d="M262.086,296.292a1.286,1.286,0,0,0,1.4-1.093c.047-.6.112-1.156.189-1.68H252.921c.077.524.142,1.082.189,1.68a1.286,1.286,0,0,0,1.4,1.093Z" transform="translate(-202.814 -254.765)" fill="#eceff1" fill-rule="evenodd"/>
      <path id="Trazado_1036294" data-name="Trazado 1036294" d="M278.967,345.915h5.624v1.5a1.5,1.5,0,0,1-.881,1.365h-3.244a1.5,1.5,0,0,1-1.5-1.5v-1.365Z" transform="translate(-226.057 -301.523)" fill="#9aa6b3" fill-rule="evenodd"/>
      <path id="Trazado_1036295" data-name="Trazado 1036295" d="M54.556,47.691h3.667a2.188,2.188,0,0,0,2.185-2.185v-.852a2.189,2.189,0,0,0,1.333-2.012v-.835a1.9,1.9,0,0,0,1.278-1.631A17.9,17.9,0,0,1,65.6,31.839,9.82,9.82,0,0,0,67.257,26.7c0-5.3-4.876-9.619-10.867-9.619S45.524,21.4,45.523,26.7a9.82,9.82,0,0,0,1.653,5.138,17.9,17.9,0,0,1,2.584,8.336,1.9,1.9,0,0,0,1.278,1.63v.835a2.188,2.188,0,0,0,1.333,2.012v.852a2.188,2.188,0,0,0,2.185,2.185Zm-2.012-5.729h7.692v.679a.68.68,0,0,1-.679.679H53.223a.68.68,0,0,1-.679-.679Zm1.711-13.127H53a1.155,1.155,0,0,1-1.257-1.009,1.288,1.288,0,0,1,2.514,0Zm2.764,8.848H55.761V30.341h1.258ZM61.6,39.189q-.047.42-.083.867c-.022.275-.352.4-.65.4H51.911c-.3,0-.628-.125-.65-.4q-.036-.448-.083-.867H61.6Zm-3.378,7H54.556a.68.68,0,0,1-.679-.679v-.679H58.9v.679A.68.68,0,0,1,58.224,46.184ZM48.492,31.107A8.388,8.388,0,0,1,47.029,26.7c0-4.473,4.2-8.113,9.361-8.113s9.36,3.639,9.361,8.113a8.388,8.388,0,0,1-1.463,4.405,19.174,19.174,0,0,0-2.471,6.576H58.525V30.341h1.257a2.526,2.526,0,1,0-2.763-2.515v1.009H55.761V27.826A2.776,2.776,0,1,0,53,30.341h1.257v7.341H50.962a19.178,19.178,0,0,0-2.471-6.576Zm10.033-2.272V27.826a1.288,1.288,0,0,1,2.514,0,1.155,1.155,0,0,1-1.257,1.009ZM55.739,14.13V8.789a.753.753,0,1,1,1.506,0v5.34a.753.753,0,0,1-1.506,0Zm6.375.213L63.872,11.3a.753.753,0,0,1,1.3.753L63.418,15.1a.753.753,0,0,1-1.3-.753Zm4.667,5.42a.753.753,0,0,1,.276-1.029L70.1,16.976a.753.753,0,1,1,.753,1.3L67.81,20.038a.753.753,0,0,1-1.029-.276ZM47.6,12.05a.753.753,0,0,1,1.3-.753l1.758,3.046a.753.753,0,1,1-1.3.753Zm-5.955,5.2a.753.753,0,0,1,1.029-.276l3.046,1.758a.753.753,0,1,1-.753,1.3L41.925,18.28A.753.753,0,0,1,41.649,17.251ZM72.466,31.633a2.743,2.743,0,0,0-2.74,2.74v8.05a2.5,2.5,0,0,0-3.278.221l-5.393,5.393a2.931,2.931,0,0,0-.926,2.08v5.667h-.6A1.73,1.73,0,0,0,57.8,57.513v1.95a1.73,1.73,0,0,0,1.728,1.728H69.11a1.73,1.73,0,0,0,1.728-1.728v-1.95a1.73,1.73,0,0,0-1.728-1.728h-.6V55.2c0-.3.026-.354.348-.7l5.379-5.379a3.294,3.294,0,0,0,.969-2.346V34.373a2.743,2.743,0,0,0-2.74-2.74Zm-3.135,25.88v1.95a.224.224,0,0,1-.221.221H59.529a.224.224,0,0,1-.221-.221v-1.95a.224.224,0,0,1,.221-.221H69.11A.224.224,0,0,1,69.332,57.513ZM73.7,46.767a1.8,1.8,0,0,1-.527,1.281l-5.391,5.391-.022.023A2.262,2.262,0,0,0,67,55.2v.588H61.635V50.118a1.418,1.418,0,0,1,.439-.971l.032-.03,5.407-5.407a1,1,0,0,1,1.4,0,.943.943,0,0,1-.015,1.358l-4.052,4.076a.753.753,0,1,0,1.068,1.062l4.049-4.073h0l.645-.649a2.376,2.376,0,0,0,.622-2.018V34.373a1.234,1.234,0,0,1,2.467,0V46.767ZM53.251,55.785h-.6V50.118a2.931,2.931,0,0,0-.926-2.08l-5.393-5.393a2.5,2.5,0,0,0-3.278-.221v-8.05a2.74,2.74,0,0,0-5.48,0V46.767a3.294,3.294,0,0,0,.969,2.346l5.379,5.379c.322.351.348.407.348.7v.588h-.6a1.73,1.73,0,0,0-1.728,1.728v1.95a1.73,1.73,0,0,0,1.728,1.728h9.581a1.73,1.73,0,0,0,1.728-1.728v-1.95a1.73,1.73,0,0,0-1.728-1.728Zm-8.23-2.323L45,53.439l-5.391-5.391a1.8,1.8,0,0,1-.527-1.281V34.373a1.234,1.234,0,0,1,2.467,0v9.091a2.376,2.376,0,0,0,.622,2.018l.645.649h0l4.049,4.073a.753.753,0,0,0,1.068-1.062l-4.051-4.075a.943.943,0,0,1-.016-1.359,1,1,0,0,1,1.4,0l5.407,5.407.032.03a1.419,1.419,0,0,1,.439.971v5.667H45.775V55.2a2.261,2.261,0,0,0-.755-1.735Zm8.452,6a.224.224,0,0,1-.221.221H43.67a.224.224,0,0,1-.221-.221v-1.95a.224.224,0,0,1,.221-.221h9.581a.224.224,0,0,1,.221.221ZM33.935,30.8V21.223a4.141,4.141,0,1,0-8.282,0v5.448h0V51.426c0,.005,0,.011,0,.016s0,.031,0,.047,0,.021,0,.032,0,.026.006.039.005.026.008.039l.008.031q.006.023.014.045l0,.016L29.089,60.7a.753.753,0,0,0,1.41,0l3.388-9.012,0-.016c.005-.015.01-.029.014-.045s.006-.021.008-.031.006-.026.008-.039,0-.026.006-.039,0-.021,0-.032,0-.031,0-.047,0-.011,0-.016V30.8h0Zm-1.506-.752H27.159V27.425h5.269ZM27.159,31.55h5.269V50.673H27.159Zm2.635-12.962a2.638,2.638,0,0,1,2.635,2.635v4.7H27.159v-4.7A2.638,2.638,0,0,1,29.794,18.589Zm0,39.708-2.3-6.118h4.6Z" transform="translate(0)"/>
    </g>
  </g>
</svg>
