<svg xmlns="http://www.w3.org/2000/svg" xmlns:xlink="http://www.w3.org/1999/xlink" width="113" height="113" viewBox="0 0 113 113">
  <defs>
    <filter id="Trazado_982547" x="0" y="0" width="113" height="113" filterUnits="userSpaceOnUse">
      <feOffset dy="3" input="SourceAlpha"/>
      <feGaussianBlur stdDeviation="3" result="blur"/>
      <feFlood flood-opacity="0.161"/>
      <feComposite operator="in" in2="blur"/>
      <feComposite in="SourceGraphic"/>
    </filter>
  </defs>
  <g id="Grupo_1178016" data-name="Grupo 1178016" transform="translate(-586.85 -1275.921)">
    <g id="Grupo_1177781" data-name="Grupo 1177781" transform="translate(595.85 1281.921)">
      <g id="Grupo_1172010" data-name="Grupo 1172010" transform="translate(0)">
        <g id="Grupo_1171046" data-name="Grupo 1171046">
          <g id="Grupo_1148525" data-name="Grupo 1148525">
            <g transform="matrix(1, 0, 0, 1, -9, -6)" filter="url(#Trazado_982547)">
              <g id="Trazado_982547-2" data-name="Trazado 982547" transform="translate(9 6)" fill="#fdfbec">
                <path d="M 47.5 93.5 C 41.28937149047852 93.5 35.26533508300781 92.28397369384766 29.59518623352051 89.88570404052734 C 24.11771965026855 87.56893157958984 19.19813346862793 84.25196075439453 14.97309303283691 80.02691650390625 C 10.74804019927979 75.80186462402344 7.431066513061523 70.88229370117188 5.114293098449707 65.40481567382812 C 2.716026782989502 59.73468017578125 1.5 53.71062850952148 1.5 47.5 C 1.5 41.28937149047852 2.716026782989502 35.26533508300781 5.114293098449707 29.59518623352051 C 7.431066513061523 24.11771965026855 10.74804019927979 19.19813346862793 14.97309303283691 14.97309303283691 C 19.19813346862793 10.74804019927979 24.11771965026855 7.431066513061523 29.59518623352051 5.114293098449707 C 35.26533508300781 2.716026782989502 41.28937149047852 1.5 47.5 1.5 C 53.71062850952148 1.5 59.73468017578125 2.716026782989502 65.40481567382812 5.114293098449707 C 70.88229370117188 7.431066513061523 75.80186462402344 10.74804019927979 80.02691650390625 14.97309303283691 C 84.25196075439453 19.19813346862793 87.56893157958984 24.11771965026855 89.88570404052734 29.59518623352051 C 92.28397369384766 35.26533508300781 93.5 41.28937149047852 93.5 47.5 C 93.5 53.71062850952148 92.28397369384766 59.73468017578125 89.88570404052734 65.40481567382812 C 87.56893157958984 70.88229370117188 84.25196075439453 75.80186462402344 80.02691650390625 80.02691650390625 C 75.80186462402344 84.25196075439453 70.88229370117188 87.56893157958984 65.40481567382812 89.88570404052734 C 59.73468017578125 92.28397369384766 53.71062850952148 93.5 47.5 93.5 Z" stroke="none"/>
                <path d="M 47.5 3 C 41.49121475219727 3 35.66376876831055 4.176155090332031 30.17950439453125 6.495796203613281 C 24.88084411621094 8.736953735351562 20.12152099609375 11.94598388671875 16.03375244140625 16.03375244140625 C 11.94598388671875 20.12152099609375 8.736953735351562 24.88084411621094 6.495796203613281 30.17950439453125 C 4.176155090332031 35.66376876831055 3 41.49121475219727 3 47.5 C 3 53.50878524780273 4.176155090332031 59.33623123168945 6.495796203613281 64.82049560546875 C 8.736953735351562 70.11915588378906 11.94598388671875 74.87847900390625 16.03375244140625 78.96624755859375 C 20.12152099609375 83.05401611328125 24.88084411621094 86.26304626464844 30.17950439453125 88.50419616699219 C 35.66376876831055 90.82384490966797 41.49121475219727 92 47.5 92 C 53.50878524780273 92 59.33623123168945 90.82384490966797 64.82049560546875 88.50419616699219 C 70.11915588378906 86.26304626464844 74.87847900390625 83.05401611328125 78.96624755859375 78.96624755859375 C 83.05401611328125 74.87847900390625 86.26304626464844 70.11915588378906 88.50419616699219 64.82049560546875 C 90.82384490966797 59.33623123168945 92 53.50878524780273 92 47.5 C 92 41.49121475219727 90.82384490966797 35.66376876831055 88.50419616699219 30.17950439453125 C 86.26304626464844 24.88084411621094 83.05401611328125 20.12152099609375 78.96624755859375 16.03375244140625 C 74.87847900390625 11.94598388671875 70.11915588378906 8.736953735351562 64.82049560546875 6.495796203613281 C 59.33623123168945 4.176155090332031 53.50878524780273 3 47.5 3 M 47.5 0 C 73.7335205078125 0 95 21.2664794921875 95 47.5 C 95 73.7335205078125 73.7335205078125 95 47.5 95 C 21.2664794921875 95 0 73.7335205078125 0 47.5 C 0 21.2664794921875 21.2664794921875 0 47.5 0 Z" stroke="none" fill="#83793c"/>
              </g>
            </g>
          </g>
        </g>
      </g>
    </g>
    <g id="wheelchair_1806279" transform="translate(612.291 1301.449)">
      <path id="Trazado_1036328" data-name="Trazado 1036328" d="M292.652,238.055H312v8.308H292.652Zm0,0" transform="translate(-257.718 -209.638)" fill="#e27727"/>
      <path id="Trazado_1036329" data-name="Trazado 1036329" d="M155.531,196.5h14.136a2.48,2.48,0,1,1,0,4.96H155.531Zm0,0" transform="translate(-136.966 -173.047)" fill="#ffc48f"/>
      <path id="Trazado_1036330" data-name="Trazado 1036330" d="M172.144,210.164a2.48,2.48,0,0,1-2.481,2.48H155.527v-1.929h14.136a2.48,2.48,0,0,0,2.286-1.515A2.466,2.466,0,0,1,172.144,210.164Zm0,0" transform="translate(-136.962 -184.227)" fill="#e59a5c"/>
      <path id="Trazado_1036331" data-name="Trazado 1036331" d="M163.106,274.539l6.089,1.06a2.763,2.763,0,0,1,2.095,1.7l3.619,9.139a2.762,2.762,0,1,1-5.136,2.034l-3.049-7.7h-6.505" transform="translate(-141.093 -241.767)" fill="#34abe0"/>
      <path id="Trazado_1036332" data-name="Trazado 1036332" d="M221.027,336.139a2.672,2.672,0,0,1-.695.09,2.762,2.762,0,0,1-2.568-1.745l-3.049-7.7a2.053,2.053,0,0,1,1.909,1.3l2.535,6.4A2.759,2.759,0,0,0,221.027,336.139Zm0,0" transform="translate(-189.085 -287.776)" fill="#1895b7"/>
      <path id="Trazado_1036333" data-name="Trazado 1036333" d="M61.98,182.017v-4.3a7.641,7.641,0,0,1,15.281,0V183.2" transform="translate(-54.582 -149.779)" fill="#f75772"/>
      <path id="Trazado_1036334" data-name="Trazado 1036334" d="M71.366,170.282a7.645,7.645,0,0,0-5.9,7.441v4.565l-3.489-.27v-4.3a7.648,7.648,0,0,1,9.386-7.441Zm0,0" transform="translate(-54.582 -149.779)" fill="#e0244c"/>
      <path id="Trazado_1036335" data-name="Trazado 1036335" d="M74.768,32.707A7.568,7.568,0,1,1,62.6,38.714v-5.38L67.492,29.5Zm0,0" transform="translate(-55.126 -25.979)" fill="#ffc48f"/>
      <path id="Trazado_1036336" data-name="Trazado 1036336" d="M71.855,46.094A7.576,7.576,0,0,1,62.6,38.715V33.335L67.493,29.5l2.163.953-3.677,2.882v5.379A7.571,7.571,0,0,0,71.855,46.094Zm0,0" transform="translate(-55.126 -25.979)" fill="#e59a5c"/>
      <path id="Trazado_1036337" data-name="Trazado 1036337" d="M32.786,262.683a12.591,12.591,0,1,1-12.59-12.59A12.591,12.591,0,0,1,32.786,262.683Zm0,0" transform="translate(-6.698 -220.239)" fill="#3b3d4c"/>
      <path id="Trazado_1036338" data-name="Trazado 1036338" d="M53.145,286.234a9.4,9.4,0,1,1-9.4-9.4A9.4,9.4,0,0,1,53.145,286.234Zm0,0" transform="translate(-30.248 -243.79)" fill="#e6e6e6"/>
      <path id="Trazado_1036339" data-name="Trazado 1036339" d="M62.6,14.054v5.38a3.857,3.857,0,0,0,3.857-3.857V13.63h6.759a6.024,6.024,0,0,0,6.024-6.024H69.047A6.448,6.448,0,0,0,62.6,14.054Zm0,0" transform="translate(-55.126 -6.698)" fill="#5c5e70"/>
      <path id="Trazado_1036340" data-name="Trazado 1036340" d="M73.244,7.6a6.449,6.449,0,0,0-6.434,6.025h-.355v1.946A3.857,3.857,0,0,1,62.6,19.43V14.051A6.449,6.449,0,0,1,69.046,7.6Zm0,0" transform="translate(-55.126 -6.694)" fill="#3b3d4c"/>
      <path id="Trazado_1036341" data-name="Trazado 1036341" d="M67.5,234.09v5.689l2.883,2.883a2.761,2.761,0,1,1-3.905,3.905l-3.692-3.692a2.761,2.761,0,0,1-.809-1.953V234.09" transform="translate(-54.582 -206.147)" fill="#ffc48f"/>
      <path id="Trazado_1036342" data-name="Trazado 1036342" d="M69.814,247.007a2.764,2.764,0,0,1-3.333-.44l-3.692-3.692a2.762,2.762,0,0,1-.809-1.953V234.09h2.76v6.833a2.762,2.762,0,0,0,.809,1.953l3.692,3.692A2.72,2.72,0,0,0,69.814,247.007Zm0,0" transform="translate(-54.582 -206.146)" fill="#e59a5c"/>
      <path id="Trazado_1036343" data-name="Trazado 1036343" d="M220.265,409.2a3.291,3.291,0,1,1-3.291-3.291A3.291,3.291,0,0,1,220.265,409.2Zm0,0" transform="translate(-188.176 -357.453)" fill="#3b3d4c"/>
      <path id="Trazado_1036344" data-name="Trazado 1036344" d="M268.762,238.055h3.683v26.618h-3.683Zm0,0" transform="translate(-236.68 -209.638)" fill="#f78e39"/>
      <path id="Trazado_1036345" data-name="Trazado 1036345" d="M268.762,238.055h3.683v4.96h-3.683Zm0,0" transform="translate(-236.68 -209.638)" fill="#e27727"/>
      <path id="Trazado_1036346" data-name="Trazado 1036346" d="M443.586,238.055h3.684v26.618h-3.684Zm0,0" transform="translate(-390.635 -209.638)" fill="#f78e39"/>
      <path id="Trazado_1036347" data-name="Trazado 1036347" d="M443.586,238.055h3.684v4.96h-3.684Zm0,0" transform="translate(-390.635 -209.638)" fill="#e27727"/>
      <path id="Trazado_1036348" data-name="Trazado 1036348" d="M239.672,226.629h31.6V229.6h-31.6Zm0,0" transform="translate(-211.063 -199.576)" fill="#f78e39"/>
      <path id="Trazado_1036349" data-name="Trazado 1036349" d="M338.277,72.138h3.9a2.282,2.282,0,0,0,2.282-2.282V58.548a2.282,2.282,0,0,0-2.282-2.282H325.059a2.282,2.282,0,0,0-2.282,2.282V69.856a2.282,2.282,0,0,0,2.282,2.282h6.15" transform="translate(-284.247 -49.55)" fill="#3b3d4c"/>
      <path id="Trazado_1036350" data-name="Trazado 1036350" d="M393.418,113.4h7.068v13.516h-7.068Zm0,0" transform="translate(-346.456 -99.862)" fill="#5c5e70"/>
      <path id="Trazado_1036351" data-name="Trazado 1036351" d="M130.064,77.434a.908.908,0,0,0,.908-.908V74.763a.908.908,0,1,0-1.816,0v1.763A.908.908,0,0,0,130.064,77.434Zm0,0" transform="translate(-113.739 -65.039)"/>
      <path id="Trazado_1036352" data-name="Trazado 1036352" d="M155.915,77.434a.908.908,0,0,0,.908-.908V74.763a.908.908,0,1,0-1.815,0v1.763A.908.908,0,0,0,155.915,77.434Zm0,0" transform="translate(-136.504 -65.039)"/>
      <path id="Trazado_1036353" data-name="Trazado 1036353" d="M235.071,426.043a.907.907,0,1,0,.342,1.084A.915.915,0,0,0,235.071,426.043Zm0,0" transform="translate(-205.769 -375.054)"/>
      <path id="Trazado_1036354" data-name="Trazado 1036354" d="M57.927,23.5a3.193,3.193,0,0,0,3.19-3.189V9a3.194,3.194,0,0,0-3.19-3.19H40.812A3.194,3.194,0,0,0,37.622,9V20.306a3.193,3.193,0,0,0,3.19,3.189h5.243v2.649H36.083c0-.069.007-.138.007-.208A3.392,3.392,0,0,0,32.7,22.549H21.671a8.67,8.67,0,0,0-.588-.65,8.56,8.56,0,0,0-2.221-1.6A8.474,8.474,0,0,0,21.317,7.04,6.939,6.939,0,0,0,25.02.908.908.908,0,0,0,24.112,0H13.921a7.4,7.4,0,0,0-7.05,5.253.908.908,0,0,0,1.74.518,5.573,5.573,0,0,1,5.31-3.956h9.2a5.132,5.132,0,0,1-3.685,4.028h-.005a5.1,5.1,0,0,1-1.345.18H11.33a.908.908,0,0,0-.908.907V8.879A2.955,2.955,0,0,1,8.38,11.686V9.221a.908.908,0,0,0-1.815,0v3.506s0,.006,0,.009A8.483,8.483,0,0,0,11.221,20.3,8.556,8.556,0,0,0,6.49,27.943v2.963A13.5,13.5,0,1,0,25.085,49.361h.259a4.2,4.2,0,0,0,5.844,5.831.908.908,0,0,0,.893.75h3.683a.908.908,0,0,0,.908-.908v-17.4h15.37v17.4a.908.908,0,0,0,.908.908h3.684a.908.908,0,0,0,.907-.908V52.482a.908.908,0,1,0-1.815,0v1.645H53.858V30.937h1.868V48.753a.908.908,0,1,0,1.815,0V30.937H60.21a.908.908,0,0,0,.907-.908V27.053a.907.907,0,0,0-.907-.908H54.938V23.5ZM40.812,21.68a1.376,1.376,0,0,1-1.374-1.374V9a1.376,1.376,0,0,1,1.374-1.375H57.927A1.376,1.376,0,0,1,59.3,9V20.306a1.376,1.376,0,0,1-1.375,1.374H54.938V13.536a.908.908,0,0,0-.908-.908H46.962a.908.908,0,0,0-.908.908V21.68ZM32.7,24.365a1.575,1.575,0,0,1,1.573,1.572,1.538,1.538,0,0,1-.015.208h-5.65a.908.908,0,0,0-.907.908v.456H23.576a8.5,8.5,0,0,0-.771-3.144ZM26.434,38.588a13.479,13.479,0,0,0-2.373-4.538l3.884.676a1.868,1.868,0,0,1,1.406,1.144l1.823,4.6v7.07a1.842,1.842,0,0,1-1.651-1.169s-3.074-7.757-3.089-7.785Zm4.74-3.047-.135-.34a3.7,3.7,0,0,0-2.782-2.264l-4.669-.813v-2.8H27.7v.7a.908.908,0,0,0,.907.908h2.565ZM8.431,13.547a4.767,4.767,0,0,0,3.806-4.668V7.84h5.852a6.94,6.94,0,0,0,1.322-.128A6.659,6.659,0,0,1,15.052,19.4h-.026a6.667,6.667,0,0,1-6.595-5.848Zm6.595,7.664h.026A6.687,6.687,0,0,1,19.8,23.183a6.792,6.792,0,0,1,.665.773l.022.031a6.681,6.681,0,0,1,1.286,3.957v3.843a13.427,13.427,0,0,0-7.943-2.836V26a.908.908,0,1,0-1.815,0v1.034H8.369a6.742,6.742,0,0,1,6.657-5.825ZM12.279,34.274l2.883,2.883a1.854,1.854,0,1,1-2.622,2.622L8.849,36.087a1.843,1.843,0,0,1-.543-1.311V28.851h3.708v4.781a.907.907,0,0,0,.266.642Zm-4.714,3.1,3.692,3.692a3.669,3.669,0,0,0,5.189-5.189L14.6,34.028a8.494,8.494,0,1,1-7.476,2.811,3.714,3.714,0,0,0,.441.532ZM13.5,54.127A11.683,11.683,0,0,1,6.49,33.1v1.681c0,.037,0,.074,0,.111a10.307,10.307,0,1,0,7.336-2.74v-1.38A11.683,11.683,0,0,1,13.5,54.127Zm13.339-9.606,1,2.521a3.641,3.641,0,0,0,.244.5H25.994a13.383,13.383,0,0,0,.842-3.025ZM28.8,54.127a2.383,2.383,0,1,1,2.383-2.383A2.385,2.385,0,0,1,28.8,54.127Zm6.06,0H32.989V30.937h1.868Zm17.185-18.31H36.673V30.936h15.37Zm7.259-6.7H29.517V27.96H59.3ZM47.87,26.145v-11.7h5.253v11.7Zm0,0" transform="translate(0 0)"/>
    </g>
  </g>
</svg>
