<svg xmlns="http://www.w3.org/2000/svg" xmlns:xlink="http://www.w3.org/1999/xlink" width="118" height="118" viewBox="0 0 118 118">
  <defs>
    <filter id="Trazado_982547" x="0" y="0" width="118" height="118" filterUnits="userSpaceOnUse">
      <feOffset dy="3" input="SourceAlpha"/>
      <feGaussianBlur stdDeviation="3" result="blur"/>
      <feFlood flood-opacity="0.161"/>
      <feComposite operator="in" in2="blur"/>
      <feComposite in="SourceGraphic"/>
    </filter>
  </defs>
  <g id="Grupo_1177790" data-name="Grupo 1177790" transform="translate(-204.5 -4911.545)">
    <g id="Grupo_1173988" data-name="Grupo 1173988" transform="translate(213.5 4917.545)">
      <g id="Grupo_1172010" data-name="Grupo 1172010">
        <g id="Grupo_1171046" data-name="Grupo 1171046">
          <g id="Grupo_1148525" data-name="Grupo 1148525">
            <g transform="matrix(1, 0, 0, 1, -9, -6)" filter="url(#Trazado_982547)">
              <g id="Trazado_982547-2" data-name="Trazado 982547" transform="translate(9 6)" fill="#fdfbec">
                <path d="M 50 98.5 C 43.45188522338867 98.5 37.10042953491211 97.21787261962891 31.12207221984863 94.68923950195312 C 25.34691429138184 92.24655914306641 20.15997123718262 88.74931335449219 15.70532894134521 84.29468536376953 C 11.2506856918335 79.84004211425781 7.753442764282227 74.65309906005859 5.310757160186768 68.8779296875 C 2.782128572463989 62.89957046508789 1.5 56.54811477661133 1.5 50 C 1.5 43.45188522338867 2.782128572463989 37.10042953491211 5.310757160186768 31.12207221984863 C 7.753442764282227 25.34691429138184 11.2506856918335 20.15997123718262 15.70532894134521 15.70532894134521 C 20.15997123718262 11.2506856918335 25.34691429138184 7.753442764282227 31.12207221984863 5.310757160186768 C 37.10042953491211 2.782128572463989 43.45188522338867 1.5 50 1.5 C 56.54811477661133 1.5 62.89957046508789 2.782128572463989 68.8779296875 5.310757160186768 C 74.65309906005859 7.753442764282227 79.84004211425781 11.2506856918335 84.29468536376953 15.70532894134521 C 88.74931335449219 20.15997123718262 92.24655914306641 25.34691429138184 94.68923950195312 31.12207221984863 C 97.21787261962891 37.10042953491211 98.5 43.45188522338867 98.5 50 C 98.5 56.54811477661133 97.21787261962891 62.89957046508789 94.68923950195312 68.8779296875 C 92.24655914306641 74.65309906005859 88.74931335449219 79.84004211425781 84.29468536376953 84.29468536376953 C 79.84004211425781 88.74931335449219 74.65309906005859 92.24655914306641 68.8779296875 94.68923950195312 C 62.89957046508789 97.21787261962891 56.54811477661133 98.5 50 98.5 Z" stroke="none"/>
                <path d="M 50 3 C 43.65372467041016 3 37.49886322021484 4.242263793945312 31.70639801025391 6.6922607421875 C 26.11003112792969 9.059326171875 21.08335113525391 12.44861602783203 16.76598358154297 16.76598358154297 C 12.44861602783203 21.08335113525391 9.059326171875 26.11003112792969 6.6922607421875 31.70639801025391 C 4.242263793945312 37.49886322021484 3 43.65372467041016 3 50 C 3 56.34627532958984 4.242263793945312 62.50113677978516 6.6922607421875 68.29360198974609 C 9.059326171875 73.88996887207031 12.44861602783203 78.91666412353516 16.76598358154297 83.23401641845703 C 21.08335113525391 87.55138397216797 26.11003112792969 90.940673828125 31.70639801025391 93.3077392578125 C 37.49886322021484 95.75773620605469 43.65372467041016 97 50 97 C 56.34627532958984 97 62.50113677978516 95.75773620605469 68.29360198974609 93.3077392578125 C 73.88996887207031 90.940673828125 78.91666412353516 87.55138397216797 83.23401641845703 83.23401641845703 C 87.55138397216797 78.91666412353516 90.940673828125 73.88996887207031 93.3077392578125 68.29360198974609 C 95.75773620605469 62.50113677978516 97 56.34627532958984 97 50 C 97 43.65372467041016 95.75773620605469 37.49886322021484 93.3077392578125 31.70639801025391 C 90.940673828125 26.11003112792969 87.55138397216797 21.08335113525391 83.23401641845703 16.76598358154297 C 78.91666412353516 12.44861602783203 73.88996887207031 9.059326171875 68.29360198974609 6.6922607421875 C 62.50113677978516 4.242263793945312 56.34627532958984 3 50 3 M 50 0 C 77.61424255371094 0 100 22.38577270507812 100 50 C 100 77.61424255371094 77.61424255371094 100 50 100 C 22.38577270507812 100 0 77.61424255371094 0 50 C 0 22.38577270507812 22.38577270507812 0 50 0 Z" stroke="none" fill="#83793c"/>
              </g>
            </g>
          </g>
        </g>
      </g>
    </g>
    <g id="beach-volleyball_16891661" transform="translate(205.744 4914.146)">
      <path id="Trazado_1036412" data-name="Trazado 1036412" d="M48.063,220.059l5.543-8.256a1.8,1.8,0,1,1,2.99,2c-.7,1.044-6.449,9.373-6.411,9.686.145,1.123,1.649,9.33,1.806,10.206l4.054,2.2a1.8,1.8,0,0,1,.9,2.08l-1.724,8.373a1.8,1.8,0,1,1-3.518-.723l1.474-7.165-2.384-1.2-1.939-.085L46.7,238.416c-.723,1.18-2.2,4.336-3.507,4.574l-7.1,1.709a1.8,1.8,0,1,1-.829-3.494l6.466-1.555,2.408-3.936c-.59-2.045-.95-5.211-1.34-7.408l-3.715,5.626a1.8,1.8,0,0,1-3-1.975l5.543-8.4C42.351,222.475,47.524,221.056,48.063,220.059Z" transform="translate(-6.059 -164.036)" fill="#58be8c"/>
      <path id="Trazado_1036413" data-name="Trazado 1036413" d="M69.682,218.99a4.4,4.4,0,1,1-4.4,4.4A4.4,4.4,0,0,1,69.682,218.99Z" transform="translate(-33.13 -170.92)" fill="#eaa377" fill-rule="evenodd"/>
      <path id="Trazado_1036414" data-name="Trazado 1036414" d="M83.243,218.99a4.409,4.409,0,0,1,3.929,6.4,4.4,4.4,0,0,1-5.684-6.032A4.427,4.427,0,0,1,83.243,218.99Z" transform="translate(-46.691 -170.92)" fill="#eeb491" fill-rule="evenodd"/>
      <path id="Trazado_1036415" data-name="Trazado 1036415" d="M310.191,351.08h5.52a1.806,1.806,0,0,1,0,3.613l-6.6,0a1.816,1.816,0,0,1-1.594-.961l-1.9-3.088-1.994.676-9.166,4.382a1.8,1.8,0,0,1-1.553-3.241l9.166-4.382v-6.043l-6.087,2.838a1.805,1.805,0,0,1-1.525-3.272c1.877-.871,7.54-5.218,11.668-5.218a4.059,4.059,0,0,1,4.061,4.057C310.191,341.98,310.788,350.7,310.191,351.08Z" transform="translate(-228.487 -272.123)" fill="#e52a61"/>
      <g id="Grupo_1178041" data-name="Grupo 1178041" transform="translate(31.501 24.346)">
        <path id="Trazado_1036416" data-name="Trazado 1036416" d="M363.262,277.13a4.112,4.112,0,1,1-4.112,4.112A4.113,4.113,0,0,1,363.262,277.13Z" transform="translate(-317.976 -245.389)" fill="#eaa377" fill-rule="evenodd"/>
        <path id="Trazado_1036417" data-name="Trazado 1036417" d="M375.944,277.13a3.317,3.317,0,1,1-2.084,2.2,1.675,1.675,0,0,1,2.084-2.2Z" transform="translate(-330.658 -245.389)" fill="#eeb491" fill-rule="evenodd"/>
        <path id="Trazado_1036418" data-name="Trazado 1036418" d="M230.253,285.97a3.148,3.148,0,0,1,3.139,3.139v23.3H227.11v-23.3A3.149,3.149,0,0,1,230.253,285.97Z" transform="translate(-204.145 -253.01)" fill="#78797b" fill-rule="evenodd"/>
        <path id="Trazado_1036419" data-name="Trazado 1036419" d="M230.253,312.413H227.11v-23.3a3.149,3.149,0,0,1,3.143-3.139Z" transform="translate(-204.144 -253.01)" fill="#59595b" fill-rule="evenodd"/>
        <path id="Trazado_1036420" data-name="Trazado 1036420" d="M225.628,187.07a6.008,6.008,0,1,1-6.008,6.008A6.007,6.007,0,0,1,225.628,187.07Z" transform="translate(-197.687 -167.748)" fill="#385dab" fill-rule="evenodd"/>
        <path id="Trazado_1036421" data-name="Trazado 1036421" d="M245.25,187.07a6.012,6.012,0,0,1,5.175,9.065,6.072,6.072,0,0,1-2.037.352,6.007,6.007,0,0,1-5.171-9.065A6.047,6.047,0,0,1,245.25,187.07Z" transform="translate(-217.309 -167.748)" fill="#3e67b1" fill-rule="evenodd"/>
        <path id="Trazado_1036422" data-name="Trazado 1036422" d="M236.258,198.377a6.055,6.055,0,0,1-2.5,2.853,16.97,16.97,0,0,1-8.237-8.2,6.055,6.055,0,0,1,2.842-2.514,13.422,13.422,0,0,0,7.9,7.857Z" transform="translate(-202.774 -170.722)" fill="#f7ec13" fill-rule="evenodd"/>
        <path id="Trazado_1036423" data-name="Trazado 1036423" d="M68.834,46.95a4.732,4.732,0,0,1,4.449,3.134,4.181,4.181,0,0,1,7.071,3.377H80.8a3.18,3.18,0,1,1,0,6.36H63.749a3.18,3.18,0,0,1,0-6.36h.712a4.732,4.732,0,0,1,4.374-6.512Z" transform="translate(-60.57 -46.95)" fill="#34c6f4" fill-rule="evenodd"/>
        <path id="Trazado_1036424" data-name="Trazado 1036424" d="M71.791,46.95a4.732,4.732,0,0,1,4.449,3.134,4.181,4.181,0,0,1,7.071,3.377h.445a3.183,3.183,0,0,1,2.706,1.513,3.181,3.181,0,0,1-2.706,1.513H66.706A3.188,3.188,0,0,1,64,54.974a3.187,3.187,0,0,1,2.706-1.513h.712A4.732,4.732,0,0,1,71.791,46.95Z" transform="translate(-63.527 -46.95)" fill="#60ccf0" fill-rule="evenodd"/>
        <path id="Trazado_1036425" data-name="Trazado 1036425" d="M335.12,57.58a4.6,4.6,0,1,1-4.6,4.6A4.6,4.6,0,0,1,335.12,57.58Z" transform="translate(-293.294 -56.114)" fill="#fdb614" fill-rule="evenodd"/>
        <path id="Trazado_1036426" data-name="Trazado 1036426" d="M347.034,57.58a4.6,4.6,0,0,1,4.194,6.485,4.6,4.6,0,0,1-6.485-5.874A4.588,4.588,0,0,1,347.034,57.58Z" transform="translate(-305.209 -56.114)" fill="#f7ec13" fill-rule="evenodd"/>
      </g>
      <path id="Trazado_1036427" data-name="Trazado 1036427" d="M68.135,23.342a.961.961,0,1,1,1.666-.957l.887,1.536a.96.96,0,1,1-1.664.957ZM72.361,21.7a.965.965,0,0,1,1.931,0V23.47a.965.965,0,0,1-1.931,0Zm0,15.651a.965.965,0,0,1,1.931,0v1.775a.965.965,0,0,1-1.931,0ZM69.8,38.433a.961.961,0,0,1-1.666-.958l.888-1.536a.96.96,0,1,1,1.664.957Zm7.826-13.551a.962.962,0,1,1-1.664-.965l.887-1.536a.962.962,0,1,1,1.664.965ZM66.263,35.6a.964.964,0,1,1-.965-1.669l1.536-.887a.964.964,0,0,1,.965,1.669Zm13.551-7.826a.964.964,0,0,1-.965-1.669l1.536-.887a.964.964,0,0,1,.965,1.669Zm-15.2,3.6a.965.965,0,0,1,0-1.931h1.775a.965.965,0,1,1,0,1.931Zm15.649,0a.965.965,0,1,1,0-1.931h1.775a.965.965,0,1,1,0,1.931ZM65.3,26.887a.964.964,0,1,1,.965-1.669l1.536.887a.964.964,0,0,1-.965,1.669Zm13.551,7.826a.964.964,0,0,1,.965-1.669l1.536.887a.964.964,0,0,1-.965,1.669ZM75.96,36.9a.962.962,0,1,1,1.664-.965l.888,1.536a.962.962,0,0,1-1.664.965ZM73.327,24.846a5.563,5.563,0,1,1-5.567,5.563A5.563,5.563,0,0,1,73.327,24.846Zm2.568,2.994a3.633,3.633,0,1,0,0,5.135,3.638,3.638,0,0,0,0-5.135ZM39.765,23.38a5.694,5.694,0,0,1,4.8,2.638,5.153,5.153,0,0,1,7.673,3.905,4.145,4.145,0,0,1-.507,8.259H34.679a4.146,4.146,0,0,1-.539-8.256,5.706,5.706,0,0,1,5.625-6.546Zm2.161,2.612A3.764,3.764,0,0,0,36,29.08a8.492,8.492,0,0,0,.352,1.779.965.965,0,0,1-.965.965,2.7,2.7,0,0,0-2.275.649,2.217,2.217,0,0,0,1.564,3.78H51.73a2.215,2.215,0,0,0,0-4.429l-.528,0a.967.967,0,0,1-.88-1.044A3.223,3.223,0,0,0,45.91,27.5c-.86.348-.954.739-1.372.887A.967.967,0,0,1,43.3,27.8a3.771,3.771,0,0,0-1.376-1.809Zm16.461,18.75A12.467,12.467,0,0,0,64.38,50.7,5.049,5.049,0,0,0,58.387,44.742Zm5.246,7.74A14.4,14.4,0,0,1,56.616,45.5a5.044,5.044,0,0,0-1.266,1.231,16.11,16.11,0,0,0,7.059,7.02,5.155,5.155,0,0,0,1.223-1.266Zm-3.511,2.188a18.041,18.041,0,0,1-5.68-5.657A5.049,5.049,0,0,0,60.121,54.671ZM59.442,42.7a6.975,6.975,0,1,1-.3,13.943,4.109,4.109,0,0,1,2.568,3.8v23.3a.967.967,0,0,1-.965.965H54.466a.968.968,0,0,1-.965-.965v-23.3a4.119,4.119,0,0,1,3.905-4.1A6.975,6.975,0,0,1,59.442,42.7ZM57.609,58.271a2.183,2.183,0,0,0-2.177,2.173V82.784h4.351V60.445A2.182,2.182,0,0,0,57.609,58.271ZM76.786,55.12a5.076,5.076,0,0,1,3.4,8.853,5.029,5.029,0,0,1,2.486,4.338c0,.43.036,1.231.083,2.233a59.05,59.05,0,0,1,.034,7.446h4.436a2.77,2.77,0,1,1,0,5.539v0l-6.6,0A2.749,2.749,0,0,1,78.2,82.1l-1.5-2.427-1.227.414-9.1,4.351A2.759,2.759,0,1,1,64,79.463l8.616-4.12V71.418l-4.715,2.2A2.768,2.768,0,1,1,65.568,68.6c.441-.207,1.114-.622,1.931-1.125a40.347,40.347,0,0,1,6.141-3.287,5.076,5.076,0,0,1,3.147-9.063Zm.754,10.1a5.216,5.216,0,0,1-.7.055c-2.717.367-6.074,2.439-8.33,3.831a24,24,0,0,1-2.154,1.251.84.84,0,0,0,.731,1.513l6.055-2.826a.967.967,0,0,1,1.4.86v6.043h0a.96.96,0,0,1-.547.867L64.836,81.2a.835.835,0,0,0,.083,1.54.821.821,0,0,0,.637-.032l9.272-4.429,1.943-.656a.966.966,0,0,1,1.18.39l1.9,3.085h0a.854.854,0,0,0,.774.5l6.6,0v0a.839.839,0,0,0,0-1.678H81.7a.965.965,0,0,1-.52-1.775c.015-.011-.226-4.613-.356-7.521-.051-1.095-.09-1.971-.09-2.314a3.094,3.094,0,0,0-3.2-3.092Zm1.473-7.251a3.149,3.149,0,1,0-2.271,5.375c.2-.023.407-.043.61-.051a3.149,3.149,0,0,0,1.662-5.324ZM36.552,47.1a5.369,5.369,0,0,1,4.163,8.757c.445-.23.383-.226.535-.437l5.5-8.193A2.76,2.76,0,1,1,51.335,50.3c-1.517,2.263-6.266,8.932-6.254,9.034.109.863,1.266,7.314,1.72,9.7l3.663,1.99a2.764,2.764,0,0,1,1.357,3.143l-1.713,8.337A2.759,2.759,0,0,1,44.7,81.4l1.325-6.449-1.536-.769-1.453-.062-1.7.974c-.106.183-.223.39-.348.618-.872,1.568-2.154,3.878-3.647,4.178L30.256,81.6v0a2.762,2.762,0,0,1-2.987-4.131,2.729,2.729,0,0,1,1.79-1.255l6-1.447,1.982-3.241c-.352-1.36-.618-3.061-.863-4.664l-2.346,3.556a2.758,2.758,0,1,1-4.609-3.03l5.546-8.412v0a4.217,4.217,0,0,1,1.544-1.146A5.367,5.367,0,0,1,36.552,47.1Zm2.431,2.934a3.437,3.437,0,1,0,0,4.862A3.441,3.441,0,0,0,38.983,50.039ZM48.348,48.3l-5.5,8.2c-.437.782-2.009,1.447-3.607,2.126a11.741,11.741,0,0,0-2.872,1.434h0L30.825,68.45a.835.835,0,0,0,.867,1.274.863.863,0,0,0,.579-.434l3.62-5.488a.963.963,0,0,1,1.794.3c.394,2.228.758,5.363,1.317,7.31a.971.971,0,0,1-.106.767L36.489,76.11v0a.957.957,0,0,1-.6.434l-6.469,1.565a.836.836,0,1,0,.473,1.6l6.993-1.685A.437.437,0,0,1,36.966,78c.716-.13,2.146-2.881,2.823-4.078a.97.97,0,0,1,.371-.383l2.158-1.24v0a.954.954,0,0,1,.52-.125l1.939.083v0a.931.931,0,0,1,.387.1l2.346,1.176a.963.963,0,0,1,.552,1.071l-1.474,7.169a.834.834,0,1,0,1.634.339l1.72-8.357a.925.925,0,0,0-.019-.645.81.81,0,0,0-.394-.414l-3.982-2.165a.96.96,0,0,1-.558-.716c-.164-.938-.192-1.071-.226-1.266-.469-2.584-1.466-8.06-1.583-8.987-.094-.723,4.917-7.884,6.563-10.342a.837.837,0,0,0-1.391-.931Z" transform="translate(0 0)"/>
    </g>
  </g>
</svg>
