<svg xmlns="http://www.w3.org/2000/svg" xmlns:xlink="http://www.w3.org/1999/xlink" width="113" height="113" viewBox="0 0 113 113">
  <defs>
    <filter id="Trazado_982547" x="0" y="0" width="113" height="113" filterUnits="userSpaceOnUse">
      <feOffset dy="3" input="SourceAlpha"/>
      <feGaussianBlur stdDeviation="3" result="blur"/>
      <feFlood flood-opacity="0.161"/>
      <feComposite operator="in" in2="blur"/>
      <feComposite in="SourceGraphic"/>
    </filter>
  </defs>
  <g id="Grupo_1178279" data-name="Grupo 1178279" transform="translate(-586.56 -2563.778)">
    <g id="Grupo_1177902" data-name="Grupo 1177902" transform="translate(595.561 2569.778)">
      <g id="Grupo_1172010" data-name="Grupo 1172010" transform="translate(0)">
        <g id="Grupo_1171046" data-name="Grupo 1171046">
          <g id="Grupo_1148525" data-name="Grupo 1148525">
            <g transform="matrix(1, 0, 0, 1, -9, -6)" filter="url(#Trazado_982547)">
              <g id="Trazado_982547-2" data-name="Trazado 982547" transform="translate(9 6)" fill="#ebe9f0">
                <path d="M 47.5 93.5 C 41.28937149047852 93.5 35.26533508300781 92.28397369384766 29.59518623352051 89.88570404052734 C 24.11771965026855 87.56893157958984 19.19813346862793 84.25196075439453 14.97309303283691 80.02691650390625 C 10.74804019927979 75.80186462402344 7.431066513061523 70.88229370117188 5.114293098449707 65.40481567382812 C 2.716026782989502 59.73468017578125 1.5 53.71062850952148 1.5 47.5 C 1.5 41.28937149047852 2.716026782989502 35.26533508300781 5.114293098449707 29.59518623352051 C 7.431066513061523 24.11771965026855 10.74804019927979 19.19813346862793 14.97309303283691 14.97309303283691 C 19.19813346862793 10.74804019927979 24.11771965026855 7.431066513061523 29.59518623352051 5.114293098449707 C 35.26533508300781 2.716026782989502 41.28937149047852 1.5 47.5 1.5 C 53.71062850952148 1.5 59.73468017578125 2.716026782989502 65.40481567382812 5.114293098449707 C 70.88229370117188 7.431066513061523 75.80186462402344 10.74804019927979 80.02691650390625 14.97309303283691 C 84.25196075439453 19.19813346862793 87.56893157958984 24.11771965026855 89.88570404052734 29.59518623352051 C 92.28397369384766 35.26533508300781 93.5 41.28937149047852 93.5 47.5 C 93.5 53.71062850952148 92.28397369384766 59.73468017578125 89.88570404052734 65.40481567382812 C 87.56893157958984 70.88229370117188 84.25196075439453 75.80186462402344 80.02691650390625 80.02691650390625 C 75.80186462402344 84.25196075439453 70.88229370117188 87.56893157958984 65.40481567382812 89.88570404052734 C 59.73468017578125 92.28397369384766 53.71062850952148 93.5 47.5 93.5 Z" stroke="none"/>
                <path d="M 47.5 3 C 41.49121475219727 3 35.66376876831055 4.176155090332031 30.17950439453125 6.495796203613281 C 24.88084411621094 8.736953735351562 20.12152099609375 11.94598388671875 16.03375244140625 16.03375244140625 C 11.94598388671875 20.12152099609375 8.736953735351562 24.88084411621094 6.495796203613281 30.17950439453125 C 4.176155090332031 35.66376876831055 3 41.49121475219727 3 47.5 C 3 53.50878524780273 4.176155090332031 59.33623123168945 6.495796203613281 64.82049560546875 C 8.736953735351562 70.11915588378906 11.94598388671875 74.87847900390625 16.03375244140625 78.96624755859375 C 20.12152099609375 83.05401611328125 24.88084411621094 86.26304626464844 30.17950439453125 88.50419616699219 C 35.66376876831055 90.82384490966797 41.49121475219727 92 47.5 92 C 53.50878524780273 92 59.33623123168945 90.82384490966797 64.82049560546875 88.50419616699219 C 70.11915588378906 86.26304626464844 74.87847900390625 83.05401611328125 78.96624755859375 78.96624755859375 C 83.05401611328125 74.87847900390625 86.26304626464844 70.11915588378906 88.50419616699219 64.82049560546875 C 90.82384490966797 59.33623123168945 92 53.50878524780273 92 47.5 C 92 41.49121475219727 90.82384490966797 35.66376876831055 88.50419616699219 30.17950439453125 C 86.26304626464844 24.88084411621094 83.05401611328125 20.12152099609375 78.96624755859375 16.03375244140625 C 74.87847900390625 11.94598388671875 70.11915588378906 8.736953735351562 64.82049560546875 6.495796203613281 C 59.33623123168945 4.176155090332031 53.50878524780273 3 47.5 3 M 47.5 0 C 73.7335205078125 0 95 21.2664794921875 95 47.5 C 95 73.7335205078125 73.7335205078125 95 47.5 95 C 21.2664794921875 95 0 73.7335205078125 0 47.5 C 0 21.2664794921875 21.2664794921875 0 47.5 0 Z" stroke="none" fill="#453179"/>
              </g>
            </g>
          </g>
        </g>
      </g>
    </g>
    <g id="production_13271250" transform="translate(606.12 2560.447)">
      <g id="Grupo_1178273" data-name="Grupo 1178273" transform="translate(7.5 28.929)">
        <g id="Grupo_1178272" data-name="Grupo 1178272" transform="translate(0 0)">
          <g id="Grupo_1178270" data-name="Grupo 1178270">
            <g id="Grupo_1178268" data-name="Grupo 1178268" transform="translate(7.537)">
              <path id="Trazado_1039973" data-name="Trazado 1039973" d="M103.107,43.581a1.386,1.386,0,0,1-1.08-.943,13.565,13.565,0,0,0-.813-1.965,1.383,1.383,0,0,1,.246-1.609l1.6-1.6a1.375,1.375,0,0,0,0-1.944L100.4,32.848a1.375,1.375,0,0,0-1.944,0l-1.6,1.6a1.383,1.383,0,0,1-1.609.246,13.564,13.564,0,0,0-1.965-.813,1.382,1.382,0,0,1-.963-1.311V30.3a1.375,1.375,0,0,0-1.375-1.375H87.165A1.375,1.375,0,0,0,85.79,30.3v2.27a1.382,1.382,0,0,1-.963,1.311,13.565,13.565,0,0,0-1.965.813,1.383,1.383,0,0,1-1.609-.246l-1.6-1.6a1.375,1.375,0,0,0-1.944,0l-2.667,2.667a1.375,1.375,0,0,0,0,1.944l1.6,1.6a1.383,1.383,0,0,1,.246,1.609,13.562,13.562,0,0,0-.813,1.965,1.382,1.382,0,0,1-1.311.963H72.493a1.375,1.375,0,0,0-1.375,1.375v3.191H101.17A10.6,10.6,0,0,1,103.107,43.581Z" transform="translate(-71.118 -28.929)" fill="#b5adb6"/>
              <path id="Trazado_1039974" data-name="Trazado 1039974" d="M166.141,116.623a8.732,8.732,0,1,0-17.27,0Z" transform="translate(-139.574 -97.386)" fill="#918291"/>
              <path id="Trazado_1039975" data-name="Trazado 1039975" d="M195.828,147.876l-1.582-1.582a1.375,1.375,0,0,0-.972-.4h-2.237a1.375,1.375,0,0,0-.972.4l-1.582,1.582a1.375,1.375,0,0,0-.4.972v2.237a1.373,1.373,0,0,0,.014.186h8.123a1.377,1.377,0,0,0,.014-.186v-2.237A1.375,1.375,0,0,0,195.828,147.876Z" transform="translate(-174.222 -132.034)" fill="#7a6d79"/>
              <path id="Trazado_1039976" data-name="Trazado 1039976" d="M219.251,147.876l-1.582-1.582a1.375,1.375,0,0,0-.972-.4H214.65l.4.4a6.776,6.776,0,0,1,1.985,4.792h0a1.373,1.373,0,0,1-.014.186h2.616a1.377,1.377,0,0,0,.014-.186v-2.237A1.375,1.375,0,0,0,219.251,147.876Z" transform="translate(-197.645 -132.034)" fill="#685e68"/>
            </g>
            <g id="Grupo_1178269" data-name="Grupo 1178269" transform="translate(21.395 19.11)">
              <path id="Trazado_1039977" data-name="Trazado 1039977" d="M188.089,210.135h15.734v-1.806a1.8,1.8,0,0,1,1.794-1.794h9.124v-3.79a10.62,10.62,0,0,1-7.355-3.008H193.652a1.163,1.163,0,0,1-1.042-.654L188.4,190.35l-.189-.118-.118.209Z" transform="translate(-188.089 -190.232)" fill="#60b7ff"/>
            </g>
            <path id="Trazado_1039978" data-name="Trazado 1039978" d="M60.758,210.135v-19.9l-.189.118-4.214,8.733a1.163,1.163,0,0,1-1.042.654H43.723l-.212.118v10.279Z" transform="translate(-39.245 -171.122)" fill="#8ac9fe"/>
            <path id="Trazado_1039979" data-name="Trazado 1039979" d="M205.024,192.088a10.676,10.676,0,0,1,.162-1.856h-16.1l4.3,8.9a1.275,1.275,0,0,0,1.148.721h13.859A10.629,10.629,0,0,1,205.024,192.088Z" transform="translate(-167.575 -171.122)" fill="#8ac9fe"/>
            <path id="Trazado_1039980" data-name="Trazado 1039980" d="M8.138,199.856H23.569a1.275,1.275,0,0,0,1.148-.721l4.3-8.9H12.567a1.275,1.275,0,0,0-1.148.721l-3.854,7.988A.638.638,0,0,0,8.138,199.856Z" transform="translate(-7.5 -171.122)" fill="#b3dafe"/>
          </g>
          <path id="Trazado_1039981" data-name="Trazado 1039981" d="M46.542,372.02h-.118a1.8,1.8,0,0,1-1.794-1.794v-2.344a1.8,1.8,0,0,1,1.794-1.794v-.237a1.8,1.8,0,0,1-1.794-1.794v-2.344a1.8,1.8,0,0,1,1.794-1.794v-.237a1.8,1.8,0,0,1-1.794-1.794v-.657H8.775A1.275,1.275,0,0,0,7.5,358.5v12.358a1.275,1.275,0,0,0,1.275,1.275H46.542Z" transform="translate(-7.5 -318.334)" fill="#e2dee2"/>
          <path id="Trazado_1039982" data-name="Trazado 1039982" d="M46.542,372.02h-.118a1.8,1.8,0,0,1-1.794-1.794v-2.344a1.8,1.8,0,0,1,1.794-1.794v-.237a1.8,1.8,0,0,1-1.794-1.794v-2.344a1.8,1.8,0,0,1,1.794-1.794v-.237a1.8,1.8,0,0,1-1.794-1.794v-.657H41.507V367.4a1.275,1.275,0,0,1-1.275,1.275H7.5v2.188a1.275,1.275,0,0,0,1.275,1.275H46.542Z" transform="translate(-7.5 -318.334)" fill="#cbc4cc"/>
          <g id="Grupo_1178271" data-name="Grupo 1178271" transform="translate(37.33 10.191)">
            <circle id="Elipse_12525" data-name="Elipse 12525" cx="10.776" cy="10.776" r="10.776" fill="#ffe177"/>
            <path id="Trazado_1039983" data-name="Trazado 1039983" d="M368.019,118.568a10.778,10.778,0,0,1-9.543,18.923,10.777,10.777,0,1,0,9.543-18.923Z" transform="translate(-354.224 -118.139)" fill="#ffd15b"/>
          </g>
          <path id="Trazado_1039984" data-name="Trazado 1039984" d="M321.812,326.84h17.726a1.913,1.913,0,0,1,1.913,1.913V331.1a1.913,1.913,0,0,1-1.913,1.913H321.812A1.913,1.913,0,0,1,319.9,331.1v-2.344A1.913,1.913,0,0,1,321.812,326.84Z" transform="translate(-282.888 -291.545)" fill="#ffe177"/>
          <path id="Trazado_1039985" data-name="Trazado 1039985" d="M339.538,326.84h-1.629v2.279a1.185,1.185,0,0,1-1.185,1.185H319.9v.793a1.913,1.913,0,0,0,1.913,1.913h17.726a1.913,1.913,0,0,0,1.913-1.913v-2.344A1.913,1.913,0,0,0,339.538,326.84Z" transform="translate(-282.888 -291.545)" fill="#ffd15b"/>
          <path id="Trazado_1039986" data-name="Trazado 1039986" d="M321.812,378.917h17.726a1.913,1.913,0,0,1,1.913,1.913v2.344a1.913,1.913,0,0,1-1.913,1.913H321.812a1.913,1.913,0,0,1-1.913-1.913V380.83A1.913,1.913,0,0,1,321.812,378.917Z" transform="translate(-282.888 -337.453)" fill="#ffe177"/>
          <path id="Trazado_1039987" data-name="Trazado 1039987" d="M321.812,430.994h17.726a1.913,1.913,0,0,1,1.913,1.913v2.344a1.913,1.913,0,0,1-1.913,1.913H321.812a1.913,1.913,0,0,1-1.913-1.913v-2.344A1.913,1.913,0,0,1,321.812,430.994Z" transform="translate(-282.888 -383.36)" fill="#ffe177"/>
          <path id="Trazado_1039988" data-name="Trazado 1039988" d="M339.538,430.994h-1.629v2.279a1.185,1.185,0,0,1-1.185,1.185H319.9v.793a1.913,1.913,0,0,0,1.913,1.913h17.726a1.913,1.913,0,0,0,1.913-1.913v-2.344A1.913,1.913,0,0,0,339.538,430.994Z" transform="translate(-282.888 -383.36)" fill="#ffd15b"/>
          <path id="Trazado_1039989" data-name="Trazado 1039989" d="M46.211,407.417H41.85a.638.638,0,0,1-.638-.638v-4.362a.638.638,0,0,1,.638-.638h4.361a.638.638,0,0,1,.638.638v4.362A.638.638,0,0,1,46.211,407.417Z" transform="translate(-37.218 -357.607)" fill="#fff"/>
          <path id="Trazado_1039990" data-name="Trazado 1039990" d="M46.211,401.781h-1.4v2.943a.638.638,0,0,1-.638.638h-2.96v1.419a.638.638,0,0,0,.638.638h4.361a.638.638,0,0,0,.638-.638v-4.362A.637.637,0,0,0,46.211,401.781Z" transform="translate(-37.218 -357.608)" fill="#f3f0f3"/>
        </g>
        <path id="Trazado_1039991" data-name="Trazado 1039991" d="M339.538,378.917h-1.629V381.2a1.185,1.185,0,0,1-1.185,1.185H319.9v.793a1.913,1.913,0,0,0,1.913,1.913h17.726a1.913,1.913,0,0,0,1.913-1.913V380.83A1.913,1.913,0,0,0,339.538,378.917Z" transform="translate(-282.888 -337.453)" fill="#ffd15b"/>
      </g>
      <g id="Grupo_1178278" data-name="Grupo 1178278" transform="translate(7.5 28.929)">
        <path id="Trazado_1039992" data-name="Trazado 1039992" d="M196.227,151.144c0-.02,0-.039,0-.059v-2.237a1.375,1.375,0,0,0-.4-.972l-1.582-1.582a1.375,1.375,0,0,0-.972-.4h-2.237a1.375,1.375,0,0,0-.972.4l-1.582,1.582a1.375,1.375,0,0,0-.4.972v2.237c0,.02,0,.039,0,.059h8.146Z" transform="translate(-166.684 -132.034)" fill="none" stroke="#000" stroke-linejoin="round" stroke-miterlimit="10" stroke-width="1.3"/>
        <path id="Trazado_1039993" data-name="Trazado 1039993" d="M43.51,199.856v10.161H60.757V190.232" transform="translate(-39.244 -171.122)" fill="none" stroke="#000" stroke-linejoin="round" stroke-miterlimit="10" stroke-width="1.3"/>
        <path id="Trazado_1039994" data-name="Trazado 1039994" d="M17.629,199.856h5.94a1.275,1.275,0,0,0,1.148-.721l4.3-8.9H12.567a1.275,1.275,0,0,0-1.148.721l-3.854,7.988a.638.638,0,0,0,.574.915h5.345" transform="translate(-7.5 -171.122)" fill="none" stroke="#000" stroke-linecap="round" stroke-linejoin="round" stroke-miterlimit="10" stroke-width="1.3"/>
        <g id="Grupo_1178275" data-name="Grupo 1178275" transform="translate(45.189 14.978)">
          <g id="Grupo_1178274" data-name="Grupo 1178274" transform="translate(0 1.497)">
            <path id="Trazado_1039995" data-name="Trazado 1039995" d="M394.463,168.911a4.1,4.1,0,0,0-3.513-.782,1.873,1.873,0,0,0-.727,3.362s1.239.553,2.613,1.06c3.308,1.22,1.883,4.421-.78,4.421a4.243,4.243,0,0,1-3.13-1.332" transform="translate(-388.927 -167.988)" fill="none" stroke="#000" stroke-linecap="round" stroke-linejoin="round" stroke-miterlimit="10" stroke-width="1.3"/>
          </g>
          <line id="Línea_1045" data-name="Línea 1045" y1="1.497" transform="translate(3.043)" fill="none" stroke="#000" stroke-linecap="round" stroke-linejoin="round" stroke-miterlimit="10" stroke-width="1.3"/>
          <line id="Línea_1046" data-name="Línea 1046" y1="1.497" transform="translate(3.043 10.48)" fill="none" stroke="#000" stroke-linecap="round" stroke-linejoin="round" stroke-miterlimit="10" stroke-width="1.3"/>
        </g>
        <g id="Grupo_1178276" data-name="Grupo 1178276" transform="translate(13.738 46.239)">
          <line id="Línea_1047" data-name="Línea 1047" x2="9.947" transform="translate(0 3.571)" fill="none" stroke="#000" stroke-linecap="round" stroke-linejoin="round" stroke-miterlimit="10" stroke-width="1.3"/>
          <line id="Línea_1048" data-name="Línea 1048" x2="9.947" fill="none" stroke="#000" stroke-linecap="round" stroke-linejoin="round" stroke-miterlimit="10" stroke-width="1.3"/>
        </g>
        <path id="Trazado_1039996" data-name="Trazado 1039996" d="M46.211,407.417H41.85a.638.638,0,0,1-.638-.638v-4.362a.638.638,0,0,1,.638-.638h4.361a.638.638,0,0,1,.638.638v4.362A.638.638,0,0,1,46.211,407.417Z" transform="translate(-37.218 -357.607)" fill="none" stroke="#000" stroke-linecap="round" stroke-linejoin="round" stroke-miterlimit="10" stroke-width="1.3"/>
        <path id="Trazado_1039997" data-name="Trazado 1039997" d="M321.812,326.84h17.726a1.913,1.913,0,0,1,1.913,1.913V331.1a1.913,1.913,0,0,1-1.913,1.913H321.812A1.913,1.913,0,0,1,319.9,331.1v-2.344A1.913,1.913,0,0,1,321.812,326.84Z" transform="translate(-282.888 -291.545)" fill="none" stroke="#000" stroke-linecap="round" stroke-linejoin="round" stroke-miterlimit="10" stroke-width="1.3"/>
        <path id="Trazado_1039998" data-name="Trazado 1039998" d="M321.812,378.917h17.726a1.913,1.913,0,0,1,1.913,1.913v2.344a1.913,1.913,0,0,1-1.913,1.913H321.812a1.913,1.913,0,0,1-1.913-1.913V380.83A1.913,1.913,0,0,1,321.812,378.917Z" transform="translate(-282.888 -337.453)" fill="none" stroke="#000" stroke-linecap="round" stroke-linejoin="round" stroke-miterlimit="10" stroke-width="1.3"/>
        <path id="Trazado_1039999" data-name="Trazado 1039999" d="M321.812,430.994h17.726a1.913,1.913,0,0,1,1.913,1.913v2.344a1.913,1.913,0,0,1-1.913,1.913H321.812a1.913,1.913,0,0,1-1.913-1.913v-2.344A1.913,1.913,0,0,1,321.812,430.994Z" transform="translate(-282.888 -383.36)" fill="none" stroke="#000" stroke-linecap="round" stroke-linejoin="round" stroke-miterlimit="10" stroke-width="1.3"/>
        <line id="Línea_1049" data-name="Línea 1049" x1="5.201" transform="translate(31.81 38.895)" fill="none" stroke="#000" stroke-linecap="round" stroke-linejoin="round" stroke-miterlimit="10" stroke-width="1.3"/>
        <path id="Trazado_1040000" data-name="Trazado 1040000" d="M35.164,357.229H8.775A1.275,1.275,0,0,0,7.5,358.5v12.358a1.275,1.275,0,0,0,1.275,1.275H46.424" transform="translate(-7.5 -318.334)" fill="none" stroke="#000" stroke-linecap="round" stroke-linejoin="round" stroke-miterlimit="10" stroke-width="1.3"/>
        <circle id="Elipse_12526" data-name="Elipse 12526" cx="10.776" cy="10.776" r="10.776" transform="translate(37.33 10.191)" fill="none" stroke="#000" stroke-linecap="round" stroke-linejoin="round" stroke-miterlimit="10" stroke-width="1.3"/>
        <g id="Grupo_1178277" data-name="Grupo 1178277" transform="translate(7.537 0)">
          <path id="Trazado_1040001" data-name="Trazado 1040001" d="M102.977,43.55a1.387,1.387,0,0,1-.951-.912,13.563,13.563,0,0,0-.813-1.965,1.383,1.383,0,0,1,.246-1.609l1.6-1.6a1.375,1.375,0,0,0,0-1.944L100.4,32.848a1.375,1.375,0,0,0-1.944,0l-1.6,1.6a1.383,1.383,0,0,1-1.609.246,13.564,13.564,0,0,0-1.965-.813,1.382,1.382,0,0,1-.963-1.311V30.3a1.375,1.375,0,0,0-1.375-1.375H87.165A1.375,1.375,0,0,0,85.79,30.3v2.27a1.382,1.382,0,0,1-.963,1.311,13.565,13.565,0,0,0-1.965.813,1.383,1.383,0,0,1-1.609-.246l-1.6-1.6a1.375,1.375,0,0,0-1.944,0l-2.667,2.667a1.375,1.375,0,0,0,0,1.944l1.6,1.6a1.383,1.383,0,0,1,.246,1.609,13.564,13.564,0,0,0-.813,1.965,1.382,1.382,0,0,1-1.311.963H72.493a1.375,1.375,0,0,0-1.375,1.375v3.063" transform="translate(-71.118 -28.929)" fill="none" stroke="#000" stroke-linejoin="round" stroke-miterlimit="10" stroke-width="1.3"/>
        </g>
        <path id="Trazado_1040002" data-name="Trazado 1040002" d="M150.412,110.23a8.69,8.69,0,0,0-1.638,5.088,8.8,8.8,0,0,0,.081,1.178h17.3a8.726,8.726,0,0,0-8.652-9.91,8.692,8.692,0,0,0-3.937.938" transform="translate(-132.037 -97.386)" fill="none" stroke="#000" stroke-linecap="round" stroke-linejoin="round" stroke-miterlimit="10" stroke-width="1.3"/>
        <path id="Trazado_1040003" data-name="Trazado 1040003" d="M205.065,190.232H189.089l4.3,8.9a1.275,1.275,0,0,0,1.148.721h13.68" transform="translate(-167.575 -171.122)" fill="none" stroke="#000" stroke-linejoin="round" stroke-miterlimit="10" stroke-width="1.3"/>
        <line id="Línea_1050" data-name="Línea 1050" y1="3.553" transform="translate(48.048 31.741)" fill="none" stroke="#000" stroke-linejoin="round" stroke-miterlimit="10" stroke-width="1.3"/>
      </g>
    </g>
  </g>
</svg>
