<svg xmlns="http://www.w3.org/2000/svg" xmlns:xlink="http://www.w3.org/1999/xlink" width="113" height="113" viewBox="0 0 113 113">
  <defs>
    <filter id="Trazado_982547" x="0" y="0" width="113" height="113" filterUnits="userSpaceOnUse">
      <feOffset dy="3" input="SourceAlpha"/>
      <feGaussianBlur stdDeviation="3" result="blur"/>
      <feFlood flood-opacity="0.161"/>
      <feComposite operator="in" in2="blur"/>
      <feComposite in="SourceGraphic"/>
    </filter>
  </defs>
  <g id="Grupo_1178307" data-name="Grupo 1178307" transform="translate(-901.56 -2563.778)">
    <g id="Grupo_1177903" data-name="Grupo 1177903" transform="translate(910.561 2569.778)">
      <g id="Grupo_1172010" data-name="Grupo 1172010" transform="translate(0)">
        <g id="Grupo_1171046" data-name="Grupo 1171046">
          <g id="Grupo_1148525" data-name="Grupo 1148525">
            <g transform="matrix(1, 0, 0, 1, -9, -6)" filter="url(#Trazado_982547)">
              <g id="Trazado_982547-2" data-name="Trazado 982547" transform="translate(9 6)" fill="#ebe9f0">
                <path d="M 47.5 93.5 C 41.28937149047852 93.5 35.26533508300781 92.28397369384766 29.59518623352051 89.88570404052734 C 24.11771965026855 87.56893157958984 19.19813346862793 84.25196075439453 14.97309303283691 80.02691650390625 C 10.74804019927979 75.80186462402344 7.431066513061523 70.88229370117188 5.114293098449707 65.40481567382812 C 2.716026782989502 59.73468017578125 1.5 53.71062850952148 1.5 47.5 C 1.5 41.28937149047852 2.716026782989502 35.26533508300781 5.114293098449707 29.59518623352051 C 7.431066513061523 24.11771965026855 10.74804019927979 19.19813346862793 14.97309303283691 14.97309303283691 C 19.19813346862793 10.74804019927979 24.11771965026855 7.431066513061523 29.59518623352051 5.114293098449707 C 35.26533508300781 2.716026782989502 41.28937149047852 1.5 47.5 1.5 C 53.71062850952148 1.5 59.73468017578125 2.716026782989502 65.40481567382812 5.114293098449707 C 70.88229370117188 7.431066513061523 75.80186462402344 10.74804019927979 80.02691650390625 14.97309303283691 C 84.25196075439453 19.19813346862793 87.56893157958984 24.11771965026855 89.88570404052734 29.59518623352051 C 92.28397369384766 35.26533508300781 93.5 41.28937149047852 93.5 47.5 C 93.5 53.71062850952148 92.28397369384766 59.73468017578125 89.88570404052734 65.40481567382812 C 87.56893157958984 70.88229370117188 84.25196075439453 75.80186462402344 80.02691650390625 80.02691650390625 C 75.80186462402344 84.25196075439453 70.88229370117188 87.56893157958984 65.40481567382812 89.88570404052734 C 59.73468017578125 92.28397369384766 53.71062850952148 93.5 47.5 93.5 Z" stroke="none"/>
                <path d="M 47.5 3 C 41.49121475219727 3 35.66376876831055 4.176155090332031 30.17950439453125 6.495796203613281 C 24.88084411621094 8.736953735351562 20.12152099609375 11.94598388671875 16.03375244140625 16.03375244140625 C 11.94598388671875 20.12152099609375 8.736953735351562 24.88084411621094 6.495796203613281 30.17950439453125 C 4.176155090332031 35.66376876831055 3 41.49121475219727 3 47.5 C 3 53.50878524780273 4.176155090332031 59.33623123168945 6.495796203613281 64.82049560546875 C 8.736953735351562 70.11915588378906 11.94598388671875 74.87847900390625 16.03375244140625 78.96624755859375 C 20.12152099609375 83.05401611328125 24.88084411621094 86.26304626464844 30.17950439453125 88.50419616699219 C 35.66376876831055 90.82384490966797 41.49121475219727 92 47.5 92 C 53.50878524780273 92 59.33623123168945 90.82384490966797 64.82049560546875 88.50419616699219 C 70.11915588378906 86.26304626464844 74.87847900390625 83.05401611328125 78.96624755859375 78.96624755859375 C 83.05401611328125 74.87847900390625 86.26304626464844 70.11915588378906 88.50419616699219 64.82049560546875 C 90.82384490966797 59.33623123168945 92 53.50878524780273 92 47.5 C 92 41.49121475219727 90.82384490966797 35.66376876831055 88.50419616699219 30.17950439453125 C 86.26304626464844 24.88084411621094 83.05401611328125 20.12152099609375 78.96624755859375 16.03375244140625 C 74.87847900390625 11.94598388671875 70.11915588378906 8.736953735351562 64.82049560546875 6.495796203613281 C 59.33623123168945 4.176155090332031 53.50878524780273 3 47.5 3 M 47.5 0 C 73.7335205078125 0 95 21.2664794921875 95 47.5 C 95 73.7335205078125 73.7335205078125 95 47.5 95 C 21.2664794921875 95 0 73.7335205078125 0 47.5 C 0 21.2664794921875 21.2664794921875 0 47.5 0 Z" stroke="none" fill="#453179"/>
              </g>
            </g>
          </g>
        </g>
      </g>
    </g>
    <g id="control_2654557" transform="translate(926.289 2583)">
      <g id="Grupo_1178305" data-name="Grupo 1178305">
        <g id="Grupo_1178280" data-name="Grupo 1178280">
          <path id="Trazado_1040004" data-name="Trazado 1040004" d="M6,55H18v7H6Z" fill="#969faa"/>
        </g>
        <g id="Grupo_1178281" data-name="Grupo 1178281">
          <path id="Trazado_1040005" data-name="Trazado 1040005" d="M46,55H58v7H46Z" fill="#969faa"/>
        </g>
        <g id="Grupo_1178282" data-name="Grupo 1178282">
          <path id="Trazado_1040006" data-name="Trazado 1040006" d="M18,51v4H6V46a5,5,0,0,0,5,5Z" fill="#b4dd7f"/>
        </g>
        <g id="Grupo_1178283" data-name="Grupo 1178283">
          <path id="Trazado_1040007" data-name="Trazado 1040007" d="M11.28,35.05a5.425,5.425,0,0,1,.72.19,8.023,8.023,0,0,1,5.67,6.81L18,45H12V37A3,3,0,0,0,11.28,35.05Z" fill="#b4dd7f"/>
        </g>
        <g id="Grupo_1178284" data-name="Grupo 1178284">
          <path id="Trazado_1040008" data-name="Trazado 1040008" d="M8.4,34.06A3,3,0,0,1,12,37v5H6V37.12a3.116,3.116,0,0,1,2-2.95A2.619,2.619,0,0,1,8.4,34.06Z" fill="#b4dd7f"/>
        </g>
        <g id="Grupo_1178285" data-name="Grupo 1178285">
          <path id="Trazado_1040009" data-name="Trazado 1040009" d="M58,46v9H46V51h7A5,5,0,0,0,58,46Z" fill="#ff826e"/>
        </g>
        <g id="Grupo_1178286" data-name="Grupo 1178286">
          <path id="Trazado_1040010" data-name="Trazado 1040010" d="M52,35.24a5.424,5.424,0,0,1,.72-.19A3,3,0,0,0,52,37v8H46l.33-2.95A8.023,8.023,0,0,1,52,35.24Z" fill="#ff826e"/>
        </g>
        <g id="Grupo_1178287" data-name="Grupo 1178287">
          <path id="Trazado_1040011" data-name="Trazado 1040011" d="M56,34.17a3.116,3.116,0,0,1,2,2.95V42H52V37a3,3,0,0,1,3.6-2.94,2.619,2.619,0,0,1,.4.11Z" fill="#ff826e"/>
        </g>
        <g id="Grupo_1178288" data-name="Grupo 1178288">
          <path id="Trazado_1040012" data-name="Trazado 1040012" d="M35,31l.85-6.79,1.75.44a7.058,7.058,0,0,1,2.55,1.21,7.276,7.276,0,0,1,2.1,2.52A7.054,7.054,0,0,1,43,31.56V39.2l-3.22-3.22-2.29,1.36a11.91,11.91,0,0,0-1.84-.77L35,34H29l-.65,2.57a11.91,11.91,0,0,0-1.84.77l-2.29-1.36L21,39.2V31.56a7.147,7.147,0,0,1,2.85-5.7,7.059,7.059,0,0,1,2.55-1.21l1.75-.44L29,31l3-4Z" fill="#75b1f2"/>
        </g>
        <g id="Grupo_1178289" data-name="Grupo 1178289">
          <path id="Trazado_1040013" data-name="Trazado 1040013" d="M35.85,24.21,35,31l-3-4,3-3Z" fill="#5d9cec"/>
        </g>
        <g id="Grupo_1178290" data-name="Grupo 1178290">
          <path id="Trazado_1040014" data-name="Trazado 1040014" d="M32,27l-3,4-.85-6.79L29,24Z" fill="#5d9cec"/>
        </g>
        <g id="Grupo_1178291" data-name="Grupo 1178291">
          <path id="Trazado_1040015" data-name="Trazado 1040015" d="M43.43,51.65a11.91,11.91,0,0,1-.77,1.84l1.36,2.29-4.24,4.24-2.29-1.36a11.91,11.91,0,0,1-1.84.77L35,62H29l-.65-2.57a11.91,11.91,0,0,1-1.84-.77l-2.29,1.36-4.24-4.24,1.36-2.29a11.91,11.91,0,0,1-.77-1.84l.04-.65H23a2.939,2.939,0,0,0,1.44-.37,8.007,8.007,0,0,0,15.12,0A2.939,2.939,0,0,0,41,51h2.64Z" fill="#ffc729"/>
        </g>
        <g id="Grupo_1178292" data-name="Grupo 1178292">
          <path id="Trazado_1040016" data-name="Trazado 1040016" d="M42.66,42.51a11.91,11.91,0,0,1,.77,1.84l.24.65H41a2.939,2.939,0,0,0-1.44.37,8.007,8.007,0,0,0-15.12,0A2.939,2.939,0,0,0,23,45H20.56l.01-.65a11.909,11.909,0,0,1,.77-1.84l-1.36-2.29L21,39.2l3.22-3.22,2.29,1.36a11.91,11.91,0,0,1,1.84-.77L29,34h6l.65,2.57a11.91,11.91,0,0,1,1.84.77l2.29-1.36L43,39.2l1.02,1.02Z" fill="#ffc729"/>
        </g>
        <g id="Grupo_1178293" data-name="Grupo 1178293">
          <path id="Trazado_1040017" data-name="Trazado 1040017" d="M36,48a4,4,0,1,0-4,4A4,4,0,0,0,36,48Zm2,0a2.989,2.989,0,0,0,1.56,2.63,8.007,8.007,0,0,1-15.12,0,3,3,0,0,0,.68-4.75,3.1,3.1,0,0,0-.68-.51,8.007,8.007,0,0,1,15.12,0,3.1,3.1,0,0,0-.68.51A2.993,2.993,0,0,0,38,48Z" fill="#fcd770"/>
        </g>
        <g id="Grupo_1178294" data-name="Grupo 1178294">
          <path id="Trazado_1040018" data-name="Trazado 1040018" d="M16,15a2.006,2.006,0,0,1,2,2,4.025,4.025,0,0,1-1.17,2.83A4.066,4.066,0,0,1,14,21H12.46a3,3,0,0,0-2.94,2.41L8,31l-.44-.15A8.133,8.133,0,0,1,10.14,15Z" fill="#b27946"/>
        </g>
        <g id="Grupo_1178295" data-name="Grupo 1178295">
          <path id="Trazado_1040019" data-name="Trazado 1040019" d="M59.12,42.4,58,43.33V37.12a3.116,3.116,0,0,0-2-2.95V31l-1.52-7.59A3,3,0,0,0,51.54,21H50a4.007,4.007,0,0,1-4-4,2.015,2.015,0,0,1,2-2h6a8,8,0,0,1,8,8V36.25A7.982,7.982,0,0,1,59.12,42.4Z" fill="#b27946"/>
        </g>
        <g id="Grupo_1178296" data-name="Grupo 1178296">
          <path id="Trazado_1040020" data-name="Trazado 1040020" d="M41,10v.23a5.583,5.583,0,0,1-.93,3.08A1.97,1.97,0,0,0,39,13H37v-.01h-.17a6.835,6.835,0,0,1-4.83-2,6.835,6.835,0,0,1-4.83,2H27V13H25a1.97,1.97,0,0,0-1.07.31A5.583,5.583,0,0,1,23,10.23a7.788,7.788,0,0,1,2.28-5.51l.63-.63A7.138,7.138,0,0,1,37.08,5.47L38,7a3,3,0,0,1,3,3Z" fill="#656d78"/>
        </g>
        <g id="Grupo_1178297" data-name="Grupo 1178297">
          <path id="Trazado_1040021" data-name="Trazado 1040021" d="M40.41,13.59A1.955,1.955,0,0,1,41,15a2.006,2.006,0,0,1-2,2H37V13h2a1.97,1.97,0,0,1,1.07.31A1.809,1.809,0,0,1,40.41,13.59Z" fill="#f0d0b4"/>
        </g>
        <g id="Grupo_1178298" data-name="Grupo 1178298">
          <path id="Trazado_1040022" data-name="Trazado 1040022" d="M37,13v4a5,5,0,0,1-10,0V12.99h.17a6.835,6.835,0,0,0,4.83-2,6.835,6.835,0,0,0,4.83,2H37Z" fill="#f0d0b4"/>
        </g>
        <g id="Grupo_1178299" data-name="Grupo 1178299">
          <path id="Trazado_1040023" data-name="Trazado 1040023" d="M29.65,21.41a5.051,5.051,0,0,0,4.7,0L35,24l-3,3-3-3Z" fill="#f0d0b4"/>
        </g>
        <g id="Grupo_1178300" data-name="Grupo 1178300">
          <path id="Trazado_1040024" data-name="Trazado 1040024" d="M27,16.99V17H25a2.015,2.015,0,0,1-2-2,2,2,0,0,1,.93-1.69A1.97,1.97,0,0,1,25,13h2Z" fill="#f0d0b4"/>
        </g>
        <g id="Grupo_1178301" data-name="Grupo 1178301">
          <path id="Trazado_1040025" data-name="Trazado 1040025" d="M12,32v3.24a5.424,5.424,0,0,0-.72-.19,3.01,3.01,0,0,0-2.88-.99,2.619,2.619,0,0,0-.4.11V31l1.52-7.59A3,3,0,0,1,12.46,21H14a3.956,3.956,0,0,0,2.15-.63L18,25l-1,1v2a4,4,0,0,1-4,4Z" fill="#f0d0b4"/>
        </g>
        <g id="Grupo_1178302" data-name="Grupo 1178302">
          <path id="Trazado_1040026" data-name="Trazado 1040026" d="M12,42v3H23a2.939,2.939,0,0,1,1.44.37,3.1,3.1,0,0,1,.68.51,3,3,0,0,1-.68,4.75A2.939,2.939,0,0,1,23,51H11a5,5,0,0,1-5-5V42Z" fill="#f0d0b4"/>
        </g>
        <g id="Grupo_1178303" data-name="Grupo 1178303">
          <path id="Trazado_1040027" data-name="Trazado 1040027" d="M58,45v1a5,5,0,0,1-5,5H41a2.939,2.939,0,0,1-1.44-.37,3,3,0,0,1-.68-4.75,3.1,3.1,0,0,1,.68-.51A2.939,2.939,0,0,1,41,45H52V42h6v3Z" fill="#f0d0b4"/>
        </g>
        <g id="Grupo_1178304" data-name="Grupo 1178304">
          <path id="Trazado_1040028" data-name="Trazado 1040028" d="M55.6,34.06a3.01,3.01,0,0,0-2.88.99,5.425,5.425,0,0,0-.72.19V32H51a4,4,0,0,1-4-4V26l-1-1,1.85-4.63A3.956,3.956,0,0,0,50,21h1.54a3,3,0,0,1,2.94,2.41L56,31v3.17a2.619,2.619,0,0,0-.4-.11Z" fill="#f0d0b4"/>
        </g>
      </g>
      <g id="Grupo_1178306" data-name="Grupo 1178306">
        <path id="Trazado_1040029" data-name="Trazado 1040029" d="M32,53a5,5,0,1,0-5-5A5.006,5.006,0,0,0,32,53Zm0-8a3,3,0,1,1-3,3A3,3,0,0,1,32,45Z"/>
        <path id="Trazado_1040030" data-name="Trazado 1040030" d="M54,14H48a3,3,0,0,0-3,3,4.97,4.97,0,0,0,1.649,3.685l-1.823,4.556L46,26.414V28a5.006,5.006,0,0,0,5,5v1.525a9.008,9.008,0,0,0-5.666,7.411L45.1,44h-.739a12.648,12.648,0,0,0-.568-1.446l1.479-2.489L44,38.787V31.561a8.161,8.161,0,0,0-3.249-6.5,8.077,8.077,0,0,0-2.9-1.382l-2.022-.506L35.5,21.859A6,6,0,0,0,37.909,18H39a3,3,0,0,0,3-3,2.97,2.97,0,0,0-.679-1.877A6.527,6.527,0,0,0,42,10.231V10a4.005,4.005,0,0,0-3.407-3.956l-.655-1.092A8.184,8.184,0,0,0,30.957,1,8.086,8.086,0,0,0,25.2,3.384l-.625.625A8.738,8.738,0,0,0,22,10.231a6.528,6.528,0,0,0,.679,2.892A2.968,2.968,0,0,0,22,15a3,3,0,0,0,3,3h1.091A6,6,0,0,0,28.5,21.86l-.329,1.316-2.022.506a8.057,8.057,0,0,0-2.9,1.382,8.159,8.159,0,0,0-3.25,6.5v7.226l-1.277,1.277L20.2,42.554A12.648,12.648,0,0,0,19.634,44h-.739l-.229-2.064A9.008,9.008,0,0,0,13,34.525V33a5.006,5.006,0,0,0,5-5V26.414l1.174-1.173-1.823-4.556A4.97,4.97,0,0,0,19,17a3,3,0,0,0-3-3H10.136A9.132,9.132,0,0,0,7,31.71v1.835a4.139,4.139,0,0,0-2,3.574V63H19V56.213l5.064,5.064L26.553,59.8c.317.147.638.281.956.4l.714,2.8h7.555l.713-2.8c.318-.119.639-.253.956-.4l2.489,1.479L45,56.213V63H59V43.8l.761-.635A8.975,8.975,0,0,0,63,36.253V23a9.01,9.01,0,0,0-9-9ZM48,28V25.586l-.826-.827,1.219-3.048A4.929,4.929,0,0,0,50,22h1.541A2.006,2.006,0,0,1,53.5,23.608L55,31.1v1.912a3.979,3.979,0,0,0-2,.548V31H51a3,3,0,0,1-3-3Zm-.678,14.156a7,7,0,0,1,3.709-5.436c-.007.094-.031.185-.031.28v7H47.117ZM36.7,25.456l.661.165a6.073,6.073,0,0,1,2.188,1.042,6.153,6.153,0,0,1,2.45,4.9v5.226l-2.064-2.064L37.447,36.2c-.317-.147-.638-.281-.956-.4L35.777,33h-.019Zm-4.7.13-1.893-1.893.235-.939a5.894,5.894,0,0,0,3.316,0l.235.939Zm2.646.182-.332,2.652-.994-1.326ZM30.68,27.094l-.994,1.326-.332-2.652ZM32,28.667,35.25,33h-6.5ZM39,16H38V14h1a1,1,0,0,1,0,2ZM26,16H25a1,1,0,0,1,0-2h1Zm1.172-4.007H26V12H25a2.991,2.991,0,0,0-.61.063A4.557,4.557,0,0,1,24,10.231a6.754,6.754,0,0,1,1.991-4.808l.625-.625A6.1,6.1,0,0,1,30.957,3a6.173,6.173,0,0,1,5.266,2.98L37.434,8H38a2,2,0,0,1,2,2v.231a4.548,4.548,0,0,1-.391,1.832A2.981,2.981,0,0,0,39,12H38v-.007H36.828a5.787,5.787,0,0,1-4.121-1.707L32,9.578l-.707.708a5.793,5.793,0,0,1-4.121,1.707Zm.828,5V13.95a7.745,7.745,0,0,0,4-1.622,7.754,7.754,0,0,0,4,1.622v3.043a4,4,0,1,1-8,0ZM22,31.562a6.151,6.151,0,0,1,2.45-4.9,6.082,6.082,0,0,1,2.188-1.042l.661-.165L28.242,33h-.019l-.713,2.8c-.318.119-.639.253-.956.4l-2.489-1.479L22,36.787Zm-.764,8.817,3.143-3.143,2.095,1.246.493-.255a11.016,11.016,0,0,1,1.685-.705l.528-.168.6-2.354h4.445l.6,2.354.528.168a11.016,11.016,0,0,1,1.685.705l.493.255,2.1-1.246,3.143,3.143-1.246,2.1.255.493c.175.339.325.683.464,1.033H41a3.956,3.956,0,0,0-.89.108,8.992,8.992,0,0,0-16.22,0A3.956,3.956,0,0,0,23,44H21.764a10.93,10.93,0,0,1,.464-1.033l.255-.493Zm4.437,4.667a6.97,6.97,0,0,1,12.654,0,3.953,3.953,0,0,0,0,5.909,6.97,6.97,0,0,1-12.654,0,3.951,3.951,0,0,0,0-5.908Zm-8.995-2.89.2,1.844H13V37c0-.1-.024-.186-.031-.28a7,7,0,0,1,3.709,5.436ZM16,25.586V28a3,3,0,0,1-3,3H11v2.56a3.981,3.981,0,0,0-2-.548V31.1l1.5-7.493A2.006,2.006,0,0,1,12.459,22H14a4.929,4.929,0,0,0,1.607-.289l1.219,3.048ZM3,23.136A7.144,7.144,0,0,1,10.136,16H16a1,1,0,0,1,1,1,3,3,0,0,1-3,3H12.459a4.011,4.011,0,0,0-3.922,3.215L7.248,29.661A7.125,7.125,0,0,1,3,23.136ZM7,37.118A2.091,2.091,0,0,1,8.593,35.04,2.207,2.207,0,0,1,9,35a1.971,1.971,0,0,1,1.267.456A2,2,0,0,1,11,37v4H7ZM7,45V43h4v1.586L9.293,46.293l1.414,1.414L12.414,46H23a2,2,0,1,1,0,4H11a4,4,0,0,1-4-4ZM17,61H14v-.586a2.4,2.4,0,0,1,.707-1.707l-1.414-1.414A4.384,4.384,0,0,0,12,60.414V61H7V56H17Zm0-7H7V50.46A5.969,5.969,0,0,0,11,52h6Zm2,1.469V52h.635a12.648,12.648,0,0,0,.568,1.446Zm20.621,3.3-2.1-1.246-.493.255a11.016,11.016,0,0,1-1.685.705l-.528.168L34.223,61H29.778l-.6-2.354-.528-.168a11.016,11.016,0,0,1-1.685-.705l-.493-.255-2.095,1.246-3.143-3.143,1.246-2.1-.255-.493A11.178,11.178,0,0,1,21.764,52H23a3.956,3.956,0,0,0,.89-.108,8.992,8.992,0,0,0,16.22,0A3.963,3.963,0,0,0,41,52h1.237c-.137.345-.287.69-.464,1.033l-.255.493,1.246,2.1ZM43.8,53.446A12.877,12.877,0,0,0,44.366,52H45v3.469ZM57,61H52v-.586a4.384,4.384,0,0,0-1.293-3.121l-1.414,1.414A2.4,2.4,0,0,1,50,60.414V61H47V56H57Zm0-7H47V52h6a5.969,5.969,0,0,0,4-1.54Zm0-9v1a4,4,0,0,1-4,4H41a2,2,0,0,1,0-4H51.586l1.707,1.707,1.414-1.414L53,44.586V43h4Zm0-4H53V37a2,2,0,0,1,2.407-1.96A2.091,2.091,0,0,1,57,37.118Zm4-4.747a6.973,6.973,0,0,1-2,4.894V37.118a4.14,4.14,0,0,0-2-3.574V31l-1.537-7.784A4.011,4.011,0,0,0,51.541,20H50a3,3,0,0,1-3-3,1,1,0,0,1,1-1h6a7.008,7.008,0,0,1,7,7Z"/>
      </g>
    </g>
  </g>
</svg>
