<svg xmlns="http://www.w3.org/2000/svg" xmlns:xlink="http://www.w3.org/1999/xlink" width="113" height="113" viewBox="0 0 113 113">
  <defs>
    <filter id="Trazado_982547" x="0" y="0" width="113" height="113" filterUnits="userSpaceOnUse">
      <feOffset dy="3" input="SourceAlpha"/>
      <feGaussianBlur stdDeviation="3" result="blur"/>
      <feFlood flood-opacity="0.161"/>
      <feComposite operator="in" in2="blur"/>
      <feComposite in="SourceGraphic"/>
    </filter>
  </defs>
  <g id="Grupo_1178309" data-name="Grupo 1178309" transform="translate(-1216.56 -2563.778)">
    <g id="Grupo_1177904" data-name="Grupo 1177904" transform="translate(1225.561 2569.778)">
      <g id="Grupo_1172010" data-name="Grupo 1172010" transform="translate(0)">
        <g id="Grupo_1171046" data-name="Grupo 1171046">
          <g id="Grupo_1148525" data-name="Grupo 1148525">
            <g transform="matrix(1, 0, 0, 1, -9, -6)" filter="url(#Trazado_982547)">
              <g id="Trazado_982547-2" data-name="Trazado 982547" transform="translate(9 6)" fill="#ebe9f0">
                <path d="M 47.5 93.5 C 41.28937149047852 93.5 35.26533508300781 92.28397369384766 29.59518623352051 89.88570404052734 C 24.11771965026855 87.56893157958984 19.19813346862793 84.25196075439453 14.97309303283691 80.02691650390625 C 10.74804019927979 75.80186462402344 7.431066513061523 70.88229370117188 5.114293098449707 65.40481567382812 C 2.716026782989502 59.73468017578125 1.5 53.71062850952148 1.5 47.5 C 1.5 41.28937149047852 2.716026782989502 35.26533508300781 5.114293098449707 29.59518623352051 C 7.431066513061523 24.11771965026855 10.74804019927979 19.19813346862793 14.97309303283691 14.97309303283691 C 19.19813346862793 10.74804019927979 24.11771965026855 7.431066513061523 29.59518623352051 5.114293098449707 C 35.26533508300781 2.716026782989502 41.28937149047852 1.5 47.5 1.5 C 53.71062850952148 1.5 59.73468017578125 2.716026782989502 65.40481567382812 5.114293098449707 C 70.88229370117188 7.431066513061523 75.80186462402344 10.74804019927979 80.02691650390625 14.97309303283691 C 84.25196075439453 19.19813346862793 87.56893157958984 24.11771965026855 89.88570404052734 29.59518623352051 C 92.28397369384766 35.26533508300781 93.5 41.28937149047852 93.5 47.5 C 93.5 53.71062850952148 92.28397369384766 59.73468017578125 89.88570404052734 65.40481567382812 C 87.56893157958984 70.88229370117188 84.25196075439453 75.80186462402344 80.02691650390625 80.02691650390625 C 75.80186462402344 84.25196075439453 70.88229370117188 87.56893157958984 65.40481567382812 89.88570404052734 C 59.73468017578125 92.28397369384766 53.71062850952148 93.5 47.5 93.5 Z" stroke="none"/>
                <path d="M 47.5 3 C 41.49121475219727 3 35.66376876831055 4.176155090332031 30.17950439453125 6.495796203613281 C 24.88084411621094 8.736953735351562 20.12152099609375 11.94598388671875 16.03375244140625 16.03375244140625 C 11.94598388671875 20.12152099609375 8.736953735351562 24.88084411621094 6.495796203613281 30.17950439453125 C 4.176155090332031 35.66376876831055 3 41.49121475219727 3 47.5 C 3 53.50878524780273 4.176155090332031 59.33623123168945 6.495796203613281 64.82049560546875 C 8.736953735351562 70.11915588378906 11.94598388671875 74.87847900390625 16.03375244140625 78.96624755859375 C 20.12152099609375 83.05401611328125 24.88084411621094 86.26304626464844 30.17950439453125 88.50419616699219 C 35.66376876831055 90.82384490966797 41.49121475219727 92 47.5 92 C 53.50878524780273 92 59.33623123168945 90.82384490966797 64.82049560546875 88.50419616699219 C 70.11915588378906 86.26304626464844 74.87847900390625 83.05401611328125 78.96624755859375 78.96624755859375 C 83.05401611328125 74.87847900390625 86.26304626464844 70.11915588378906 88.50419616699219 64.82049560546875 C 90.82384490966797 59.33623123168945 92 53.50878524780273 92 47.5 C 92 41.49121475219727 90.82384490966797 35.66376876831055 88.50419616699219 30.17950439453125 C 86.26304626464844 24.88084411621094 83.05401611328125 20.12152099609375 78.96624755859375 16.03375244140625 C 74.87847900390625 11.94598388671875 70.11915588378906 8.736953735351562 64.82049560546875 6.495796203613281 C 59.33623123168945 4.176155090332031 53.50878524780273 3 47.5 3 M 47.5 0 C 73.7335205078125 0 95 21.2664794921875 95 47.5 C 95 73.7335205078125 73.7335205078125 95 47.5 95 C 21.2664794921875 95 0 73.7335205078125 0 47.5 C 0 21.2664794921875 21.2664794921875 0 47.5 0 Z" stroke="none" fill="#453179"/>
              </g>
            </g>
          </g>
        </g>
      </g>
    </g>
    <g id="quality_1472009" transform="translate(1245.71 2587.927)">
      <path id="Trazado_1040031" data-name="Trazado 1040031" d="M119.149,13.681v3.787a1.9,1.9,0,0,1-1.894,1.894H105.894A1.9,1.9,0,0,1,104,17.468V13.681a1.9,1.9,0,0,1,1.894-1.894h1.894a3.787,3.787,0,0,1,7.574,0h1.894a1.9,1.9,0,0,1,1.894,1.894Zm0,0" transform="translate(-91.692 -7.053)" fill="#b4dd7f"/>
      <path id="Trazado_1040032" data-name="Trazado 1040032" d="M243.361,84.337a7.725,7.725,0,0,1-.814.047h-2.973v-24.6H232V56h9.468a1.9,1.9,0,0,1,1.894,1.894Zm0,0" transform="translate(-204.543 -49.371)" fill="#cf9e76"/>
      <path id="Trazado_1040033" data-name="Trazado 1040033" d="M45.871,95.746v9.487a1.9,1.9,0,0,1-1.894,1.894H9.894A1.9,1.9,0,0,1,8,105.233V57.894A1.9,1.9,0,0,1,9.894,56h9.468v3.787H11.787v43.552h30.3V95.746Zm0,0" transform="translate(-7.053 -49.372)" fill="#cf9e76"/>
      <path id="Trazado_1040034" data-name="Trazado 1040034" d="M62.723,88a1.9,1.9,0,0,1-1.894,1.894H49.468A1.9,1.9,0,0,1,47.574,88H40v43.552H70.3V88Zm0,0" transform="translate(-35.266 -77.585)" fill="#e6e9ed"/>
      <path id="Trazado_1040035" data-name="Trazado 1040035" d="M216,136h3.787v13.255H216Zm0,0" transform="translate(-190.437 -119.904)" fill="#ffeaa7"/>
      <path id="Trazado_1040036" data-name="Trazado 1040036" d="M152,200h3.787v5.681H152Zm0,0" transform="translate(-134.011 -176.33)" fill="#ffeaa7"/>
      <path id="Trazado_1040037" data-name="Trazado 1040037" d="M88,168h3.787v9.468H88Zm0,0" transform="translate(-77.585 -148.117)" fill="#ffeaa7"/>
      <path id="Trazado_1040038" data-name="Trazado 1040038" d="M205.681,284.593v10.4H200V279.84h5.681Zm0,0" transform="translate(-176.33 -246.721)" fill="#b4dd7f"/>
      <path id="Trazado_1040039" data-name="Trazado 1040039" d="M251.787,293.1v1.894H248V279.84h3.787Zm0,0" transform="translate(-218.649 -246.721)" fill="#fcd770"/>
      <g id="Grupo_1178308" data-name="Grupo 1178308" transform="translate(33.138 22.705)">
        <path id="Trazado_1040040" data-name="Trazado 1040040" d="M280,295.84h1.894V307.2H280Zm0,0" transform="translate(-280 -283.532)" fill="#f0d0b4"/>
        <path id="Trazado_1040041" data-name="Trazado 1040041" d="M415.292,287.84a1.9,1.9,0,0,1,1.894,1.894,1.907,1.907,0,0,1-1.894,1.894h-5.681a1.9,1.9,0,0,1-1.894-1.894l-.038-.028a5.369,5.369,0,0,0,.691-1.4.01.01,0,0,0,.01-.01,1.876,1.876,0,0,1,1.231-.454Zm0,0" transform="translate(-392.569 -276.479)" fill="#f0d0b4"/>
        <path id="Trazado_1040042" data-name="Trazado 1040042" d="M415.574,319.84a1.9,1.9,0,0,1,1.894,1.894,1.907,1.907,0,0,1-1.894,1.894h-5.681A1.9,1.9,0,0,1,408,321.734a1.907,1.907,0,0,1,1.894-1.894Zm0,0" transform="translate(-392.851 -304.691)" fill="#f0d0b4"/>
        <path id="Trazado_1040043" data-name="Trazado 1040043" d="M415.574,351.84a1.9,1.9,0,0,1,1.894,1.894,1.907,1.907,0,0,1-1.894,1.894h-5.681A1.9,1.9,0,0,1,408,353.734a1.907,1.907,0,0,1,1.894-1.894Zm0,0" transform="translate(-392.851 -332.904)" fill="#f0d0b4"/>
        <path id="Trazado_1040044" data-name="Trazado 1040044" d="M415.574,383.84a1.9,1.9,0,0,1,1.894,1.894,1.907,1.907,0,0,1-1.894,1.894h-5.681A1.9,1.9,0,0,1,408,385.734a1.907,1.907,0,0,1,1.894-1.894Zm0,0" transform="translate(-392.851 -361.117)" fill="#f0d0b4"/>
        <path id="Trazado_1040045" data-name="Trazado 1040045" d="M309.255,205.1a1.9,1.9,0,0,0,1.894,1.894,1.907,1.907,0,0,0-1.894,1.894,1.9,1.9,0,0,0,1.894,1.894,1.907,1.907,0,0,0-1.894,1.894,1.9,1.9,0,0,0,1.894,1.894,1.907,1.907,0,0,0-1.894,1.894,1.9,1.9,0,0,0,1.894,1.894h-4.336a5.787,5.787,0,0,1-2.547-.6l-4.478-2.244H296V204.148h2.973a7.729,7.729,0,0,0,.814-.047,7.361,7.361,0,0,0,2.519-.739,7.436,7.436,0,0,0,4.109-6.656V191.84a3.782,3.782,0,0,1,3.787,3.787v6.249a5.887,5.887,0,0,1-.284,1.78.01.01,0,0,1-.01.01,5.369,5.369,0,0,1-.691,1.4Zm0,0" transform="translate(-294.106 -191.84)" fill="#f0d0b4"/>
      </g>
      <path id="Trazado_1040046" data-name="Trazado 1040046" d="M338.86,53.023c.483.833,4.289.862,4.289,1.894s-3.806,1.061-4.289,1.894c-.5.862,1.363,4.166.5,4.668-.833.483-2.755-2.774-3.787-2.774s-2.954,3.257-3.787,2.774c-.862-.5,1-3.806.5-4.668-.483-.833-4.289-.862-4.289-1.894s3.806-1.061,4.289-1.894c.5-.862-1.363-4.166-.5-4.668.833-.483,2.755,2.774,3.787,2.774s2.954-3.257,3.787-2.774C340.223,48.857,338.358,52.161,338.86,53.023Zm0,0" transform="translate(-289.182 -42.589)" fill="#fcd770"/>
      <path id="Trazado_1040047" data-name="Trazado 1040047" d="M57.963,37.853a2.828,2.828,0,0,0-2.1-4.734H50.18l-.025,0c.007-.126.025-.251.025-.379V26.492a4.739,4.739,0,0,0-4.734-4.734H44.5v5.818a6.413,6.413,0,0,1-4.734,6.236V16.1H37.872v17.97H34.085V32.172H22.723V49.215H34.085V47.321h3.787v8.54a.948.948,0,0,1-.947.947H2.841a.948.948,0,0,1-.947-.947V8.522a.948.948,0,0,1,.947-.947h8.521V9.469H3.787V54.914H35.978V51.249H34.085v1.772H5.681V11.362h5.855A2.837,2.837,0,0,0,14.2,13.256H25.563a2.836,2.836,0,0,0,2.666-1.894h5.855V30.3h1.894V9.469H28.4V7.575h8.521a.948.948,0,0,1,.947.947h1.894a2.844,2.844,0,0,0-2.84-2.84h-8.7a2.837,2.837,0,0,0-2.666-1.894H24.521a4.734,4.734,0,0,0-9.276,0H14.2a2.836,2.836,0,0,0-2.666,1.894h-8.7A2.844,2.844,0,0,0,0,8.522V55.861a2.844,2.844,0,0,0,2.84,2.84H36.925a2.844,2.844,0,0,0,2.84-2.84V47.906l3.111,1.556a6.677,6.677,0,0,0,2.963.7H55.861a2.828,2.828,0,0,0,2.1-4.734,2.8,2.8,0,0,0,0-3.787,2.8,2.8,0,0,0,0-3.787ZM13.255,6.628a.948.948,0,0,1,.947-.947h2.84V4.735a2.84,2.84,0,0,1,5.681,0v.947h2.84a.948.948,0,0,1,.947.947v3.787a.948.948,0,0,1-.947.947H14.2a.948.948,0,0,1-.947-.947ZM56.807,43.534a.948.948,0,0,1-.947.947H50.18a.947.947,0,0,1,0-1.894h5.681A.949.949,0,0,1,56.807,43.534Zm-6.627-2.84a.947.947,0,0,1,0-1.894h5.681a.947.947,0,1,1,0,1.894Zm0-5.681h5.681a.947.947,0,0,1,0,1.894H50.18a.937.937,0,0,1-.92-.816,6.739,6.739,0,0,0,.458-.94A.939.939,0,0,1,50.18,35.013ZM32.191,47.321H30.3V37.872H28.4v9.449H24.617V34.066H28.4v1.913H30.3V34.066h1.894Zm11.532.447-4.681-2.341H34.085V35.96h3.924a8.423,8.423,0,0,0,3.75-.887,8.332,8.332,0,0,0,4.634-7.5V23.813a2.846,2.846,0,0,1,1.894,2.679v6.252a4.756,4.756,0,0,1-2.3,4.059l-1.976,1.186.975,1.624,1.975-1.186a6.55,6.55,0,0,0,.98-.737c.044.057.089.112.136.166a2.8,2.8,0,0,0,0,3.787,2.8,2.8,0,0,0,0,3.787,2.753,2.753,0,0,0-.564,2.84H45.839a4.775,4.775,0,0,1-2.116-.5Zm12.138.5H50.18a.947.947,0,1,1,0-1.894h5.681a.947.947,0,0,1,0,1.894Zm0,0"/>
      <path id="Trazado_1040048" data-name="Trazado 1040048" d="M320,47.788c0,1.316,1.51,1.667,2.97,2.007a10.274,10.274,0,0,1,1.407.393,10.131,10.131,0,0,1-.369,1.474c-.423,1.407-.859,2.862.25,3.505,1.092.63,2.112-.454,3.1-1.5a9.163,9.163,0,0,1,1.163-1.108,9.274,9.274,0,0,1,1.162,1.107c.786.833,1.594,1.687,2.438,1.687a1.307,1.307,0,0,0,.662-.186c1.11-.643.673-2.1.251-3.506a10.161,10.161,0,0,1-.369-1.474,10.466,10.466,0,0,1,1.406-.393c1.46-.34,2.97-.692,2.97-2.007s-1.51-1.668-2.97-2.006a10.62,10.62,0,0,1-1.407-.393,10.213,10.213,0,0,1,.369-1.474c.423-1.407.859-2.863-.25-3.505-1.093-.631-2.112.454-3.1,1.5a9.072,9.072,0,0,1-1.162,1.106,9.212,9.212,0,0,1-1.162-1.107c-.988-1.046-2.012-2.132-3.1-1.5-1.11.643-.673,2.1-.251,3.506a10.157,10.157,0,0,1,.369,1.474,10.483,10.483,0,0,1-1.407.393c-1.46.34-2.97.691-2.97,2.007Zm6.059-1.418c.436-.754.124-1.8-.238-3-.042-.139-.092-.306-.141-.478.11.113.214.223.3.318.881.932,1.641,1.738,2.538,1.738s1.658-.806,2.539-1.738c.089-.095.193-.2.3-.318-.049.173-.1.338-.141.479-.362,1.2-.675,2.245-.238,3,.425.735,1.461.976,2.66,1.255.194.045.435.1.674.163-.239.061-.481.118-.675.164-1.2.279-2.234.52-2.66,1.255-.436.754-.124,1.8.238,3,.042.139.092.3.141.477-.11-.114-.214-.223-.3-.318-.882-.932-1.642-1.737-2.538-1.737s-1.658.806-2.539,1.738c-.089.095-.193.2-.3.318.049-.172.1-.337.141-.478.362-1.2.675-2.245.239-3-.426-.735-1.461-.976-2.661-1.256-.194-.045-.435-.1-.673-.163.239-.061.48-.117.674-.163,1.2-.278,2.234-.52,2.66-1.256Zm0,0" transform="translate(-282.128 -35.46)"/>
      <path id="Trazado_1040049" data-name="Trazado 1040049" d="M64,416h1.894v1.894H64Zm0,0" transform="translate(-56.425 -366.767)"/>
      <path id="Trazado_1040050" data-name="Trazado 1040050" d="M96,416h9.468v1.894H96Zm0,0" transform="translate(-84.638 -366.767)"/>
      <path id="Trazado_1040051" data-name="Trazado 1040051" d="M64,384h1.894v1.894H64Zm0,0" transform="translate(-56.425 -338.554)"/>
      <path id="Trazado_1040052" data-name="Trazado 1040052" d="M96,384h9.468v1.894H96Zm0,0" transform="translate(-84.638 -338.554)"/>
      <path id="Trazado_1040053" data-name="Trazado 1040053" d="M64,352h1.894v1.894H64Zm0,0" transform="translate(-56.425 -310.341)"/>
      <path id="Trazado_1040054" data-name="Trazado 1040054" d="M96,352h9.468v1.894H96Zm0,0" transform="translate(-84.638 -310.341)"/>
      <path id="Trazado_1040055" data-name="Trazado 1040055" d="M64,320h1.894v1.894H64Zm0,0" transform="translate(-56.425 -282.128)"/>
      <path id="Trazado_1040056" data-name="Trazado 1040056" d="M96,320h9.468v1.894H96Zm0,0" transform="translate(-84.638 -282.128)"/>
      <path id="Trazado_1040057" data-name="Trazado 1040057" d="M64,288h1.894v1.894H64Zm0,0" transform="translate(-56.425 -253.915)"/>
      <path id="Trazado_1040058" data-name="Trazado 1040058" d="M96,288h9.468v1.894H96Zm0,0" transform="translate(-84.638 -253.915)"/>
      <path id="Trazado_1040059" data-name="Trazado 1040059" d="M88.616,141.255H86.723V128H81.042v13.255H79.149v-5.681H73.468v5.681H71.574v-9.468H65.894v9.468H64v1.894H88.616Zm-5.681-11.361h1.894v11.361H82.936Zm-7.574,7.574h1.894v3.787H75.361Zm-7.574-3.787h1.894v7.574H67.787Zm0,0" transform="translate(-56.425 -112.851)"/>
      <path id="Trazado_1040060" data-name="Trazado 1040060" d="M128,64h1.894v1.894H128Zm0,0" transform="translate(-112.851 -56.425)"/>
      <path id="Trazado_1040061" data-name="Trazado 1040061" d="M192,64h1.894v1.894H192Zm0,0" transform="translate(-169.277 -56.425)"/>
    </g>
  </g>
</svg>
