<svg xmlns="http://www.w3.org/2000/svg" width="105.436" height="105.483" viewBox="0 0 105.436 105.483">
  <g id="inspire-idea_14781822_1_" data-name="inspire-idea_14781822 (1)" transform="translate(-6.734 -6.75)">
    <g id="Grupo_1173811" data-name="Grupo 1173811" transform="translate(7.75 7.5)">
      <path id="Trazado_1030754" data-name="Trazado 1030754" d="M118.589,358.3v-7.593a4.617,4.617,0,0,0,3.752-4.536V333.114h23.847V346.17a4.617,4.617,0,0,0,3.752,4.536l.649,6.54Z" transform="translate(-95.446 -265.126)" fill="#ca6e59"/>
      <path id="Trazado_1030755" data-name="Trazado 1030755" d="M84.95,28.05c0,15.023-8.085,32.87-28.667,26.966L39.109,47.206a6.782,6.782,0,0,1-.447-10.029L40.4,36.7l1.2-1.192A7.166,7.166,0,0,1,43.03,23.214a.632.632,0,0,0,.37-.735,6.8,6.8,0,0,1-.19-1.6,6.621,6.621,0,0,1,6.548-6.69,6.554,6.554,0,0,1,1.274.127,3.108,3.108,0,0,1,.495-.5,2.644,2.644,0,0,0,1.1-2.307,7.38,7.38,0,0,1,10.339-.73.623.623,0,0,0,.934-.15,6.478,6.478,0,0,1,11.088,0,.623.623,0,0,0,.936.149A7.354,7.354,0,0,1,77.393,9.8C84.95,12.09,84.95,22.63,84.95,28.05Z" transform="translate(-30.624 -7.5)" fill="#73788c"/>
      <path id="Trazado_1030756" data-name="Trazado 1030756" d="M176.582,47.686a6.731,6.731,0,0,1-2.449,5.216L154.491,63.576H136.933l-6.293-2.863A30.852,30.852,0,0,0,151.75,15.5a7.308,7.308,0,0,1,3.324-.8,7.41,7.41,0,0,1,5.544,2.5l.345,1.685,1.249,1.123a6.549,6.549,0,0,1,1.272-.127,6.621,6.621,0,0,1,6.55,6.69,6.839,6.839,0,0,1-.345,2.14A7.158,7.158,0,0,1,171.648,41.2,6.668,6.668,0,0,1,176.582,47.686Z" transform="translate(-104.98 -13.197)" fill="#5e6577"/>
      <path id="Trazado_1030757" data-name="Trazado 1030757" d="M95.876,208.2a11.431,11.431,0,0,0,8.708-11.1h0a4.546,4.546,0,0,0-4.545-4.546H95.876l-45.792.006H45.92a4.546,4.546,0,0,0-4.545,4.546h0a11.431,11.431,0,0,0,8.708,11.1Z" transform="translate(-34.354 -153.911)" fill="#ca6e59"/>
      <path id="Trazado_1030758" data-name="Trazado 1030758" d="M117.707,131.171a4.523,4.523,0,0,1,5.906,1.946,18.158,18.158,0,0,0,1.515,2.3l.987,1.313c.418,1.219,1.348,6.915,2.638,6.915V160.99a14.468,14.468,0,0,1-4.941,10.89l-8.984,7.863a9.644,9.644,0,0,1-6.35,2.385H103.15a9.644,9.644,0,0,1-6.35-2.385l-8.984-7.863a14.467,14.467,0,0,1-4.941-10.89V143.646a3.071,3.071,0,0,0,2.854-2.1l1.979-7.719a4.522,4.522,0,0,1,6.229-2.614l.289.138,2.327.892a25.77,25.77,0,0,0,18.441,0l2.327-.892Z" transform="translate(-67.189 -105.007)" fill="#d78878"/>
      <path id="Trazado_1030759" data-name="Trazado 1030759" d="M173.265,303.583c-4.954,0-5.174-4.572-5.091-6.231a.625.625,0,0,1,.626-.592h8.916a.625.625,0,0,1,.626.607C178.383,299.039,178.056,303.583,173.265,303.583Z" transform="translate(-134.668 -236.362)" fill="#eaf6ff"/>
      <path id="Trazado_1030760" data-name="Trazado 1030760" d="M21.482,447.393l-13.106-.03a.625.625,0,0,1-.626-.626V435.1a.627.627,0,0,1,.336-.557,20.251,20.251,0,0,1,5.46-1.879l1.51-.3,13.318,4.94Z" transform="translate(-7.75 -343.649)" fill="#9be69d"/>
      <path id="Trazado_1030761" data-name="Trazado 1030761" d="M312.595,438.733l-5.056,8.25L290.087,447l-6.315-11.058c.069-.071,12.766-4.057,12.766-4.057l.862.165a20.257,20.257,0,0,1,5.707,2.009Z" transform="translate(-226.138 -343.269)" fill="#9be69d"/>
      <path id="Trazado_1030762" data-name="Trazado 1030762" d="M139.465,418.39l1.907,9.581-6.893,8.345-20.932.024-7.94-8.752,2.961-9.149A21.439,21.439,0,0,0,139.465,418.39Z" transform="translate(-85.174 -332.596)" fill="#eaf6ff"/>
      <path id="Trazado_1030763" data-name="Trazado 1030763" d="M60.416,420.3l-5.7-20.5a2.3,2.3,0,0,0-2.878-1.58l-12.675,3.863a.993.993,0,0,0-.621,1.354l2.674,6.054a.627.627,0,0,0,.433.358l6.514,1.495a.626.626,0,0,1,.374.969L45,417.382a.627.627,0,0,0-.076.57l.851,2.353Z" transform="translate(-32.044 -316.561)" fill="#bbf49b"/>
      <path id="Trazado_1030764" data-name="Trazado 1030764" d="M243.879,420.1l5.709-20.525A2.293,2.293,0,0,1,252.466,398l12.675,3.861a1,1,0,0,1,.621,1.355l-2.674,6.055a.626.626,0,0,1-.433.357l-6.515,1.494a.627.627,0,0,0-.374.969l3.536,5.068a.626.626,0,0,1,.076.57l-.855,2.383Z" transform="translate(-194.575 -316.38)" fill="#bbf49b"/>
      <g id="Grupo_1173808" data-name="Grupo 1173808" transform="translate(77.295 56.641)">
        <path id="Trazado_1030765" data-name="Trazado 1030765" d="M402.743,387.922v8.03a24.459,24.459,0,0,1-.551,4.868,17.1,17.1,0,0,1-1.978,3.558c-1.265,2.13-.711,4.322-.7,6.8l-1.6,1.026H382.082v-3.437a8.635,8.635,0,0,0-2.272-5.836,7.148,7.148,0,0,1-1.877-4.823v-3.46a4.235,4.235,0,0,1,1.808-3.47Z" transform="translate(-377.933 -365.131)" fill="#d78878"/>
        <g id="Grupo_1173807" data-name="Grupo 1173807" transform="translate(19.312 13.482)">
          <path id="Trazado_1030766" data-name="Trazado 1030766" d="M475.923,344.7v7.961a1.67,1.67,0,0,1-.67,1.495c-.5.5-2.262-.265-3.026-.259l-1.361-1.455-.44-5.176,1.445-1.116a2.8,2.8,0,0,1,2.727-2.8C475.516,343.691,475.923,344.164,475.923,344.7Z" transform="translate(-470.425 -343.349)" fill="#d78878"/>
          <path id="Trazado_1030767" data-name="Trazado 1030767" d="M484.3,346.138v6.291a2.8,2.8,0,0,1-5.068,1.645l-.18-.19a2.8,2.8,0,0,0,2.777-2.8V344.8a2.785,2.785,0,0,0-.407-1.455c.025,0,.05,0,.075,0A2.8,2.8,0,0,1,484.3,346.138Z" transform="translate(-477.252 -343.34)" fill="#ca6e59"/>
        </g>
        <path id="Trazado_1030768" data-name="Trazado 1030768" d="M479.949,386.87v8.375a13.654,13.654,0,0,1-1.921,6.984,13.662,13.662,0,0,0-1.919,7.037l.006,1.476a.626.626,0,0,1-.626.629h-1.927l-.008-2.1a13.684,13.684,0,0,1,1.921-7.037,13.654,13.654,0,0,0,1.921-6.984v-8.014Z" transform="translate(-453.588 -364.299)" fill="#ca6e59"/>
        <path id="Trazado_1030769" data-name="Trazado 1030769" d="M393.863,282.719v22.617c0,1.624-2.658,2.952-4.283,2.952l1.381-3.689-1.909-1.816V282.719a2.956,2.956,0,0,1,1.741-2.689A2.731,2.731,0,0,1,393.863,282.719Z" transform="translate(-386.73 -279.767)" fill="#d78878"/>
        <path id="Trazado_1030770" data-name="Trazado 1030770" d="M420.45,333.542v7.421c0,1.2-1.943,2.232-2.97,2.693a2.959,2.959,0,0,1-1.748-2.693l-.721-.16V333.8l.721-.255a2.959,2.959,0,0,1,1.748-2.692C419.957,331.167,420.45,332.347,420.45,333.542Z" transform="translate(-407.269 -319.976)" fill="#d78878"/>
        <path id="Trazado_1030771" data-name="Trazado 1030771" d="M450.153,333.542v7.87c0,1.194-2.16,2.23-3.188,2.691a2.956,2.956,0,0,1-1.748-2.691l-.7-.449v-7.1l.7-.319a2.959,2.959,0,0,1,1.748-2.692C449.765,331.23,450.153,332.347,450.153,333.542Z" transform="translate(-430.612 -319.976)" fill="#d78878"/>
        <path id="Trazado_1030772" data-name="Trazado 1030772" d="M401.793,281.723v21.414a1.335,1.335,0,0,1-2.66,0V281.723a2.96,2.96,0,0,0-1.739-2.689,2.908,2.908,0,0,1,1.211-.263h.236A2.96,2.96,0,0,1,401.793,281.723Z" transform="translate(-393.331 -278.77)" fill="#ca6e59"/>
        <path id="Trazado_1030773" data-name="Trazado 1030773" d="M431.229,332.552v7.421a2.962,2.962,0,0,1-2.952,2.955h-.238a2.885,2.885,0,0,1-1.2-.261,2.96,2.96,0,0,0,1.748-2.694v-7.421a2.959,2.959,0,0,0-1.748-2.692,2.886,2.886,0,0,1,1.2-.261h.238A2.962,2.962,0,0,1,431.229,332.552Z" transform="translate(-416.623 -318.987)" fill="#ca6e59"/>
        <path id="Trazado_1030774" data-name="Trazado 1030774" d="M460.649,332.552v7.87a2.962,2.962,0,0,1-2.954,2.952h-.236a2.876,2.876,0,0,1-1.2-.261A2.957,2.957,0,0,0,458,340.422v-7.87a2.959,2.959,0,0,0-1.746-2.692,2.879,2.879,0,0,1,1.2-.261h.236A2.963,2.963,0,0,1,460.649,332.552Z" transform="translate(-439.9 -318.987)" fill="#ca6e59"/>
        <path id="Trazado_1030775" data-name="Trazado 1030775" d="M409.783,368.827a6.351,6.351,0,0,1-.135,1.3c-.549,2.626-4.456,2.952-7.225,3.24,0,0-3.008-1.4-5.234-.713-1.656.512-2.695,3.171-2.719,3.153l-5.42-2.836V370.3l5.233-3.763a5.863,5.863,0,0,1,3.351-1.091l8.689-.082A3.464,3.464,0,0,1,409.783,368.827Z" transform="translate(-386.729 -347.285)" fill="#ca6e59"/>
        <path id="Trazado_1030776" data-name="Trazado 1030776" d="M394.555,385.863l2.472-3.326a.627.627,0,0,1,.427-.248l5.342-.648a4.24,4.24,0,0,0,2.923-4.067,1.426,1.426,0,0,0-1.435-1.4h-7.861a5.306,5.306,0,0,0-3.044.959l-6.784,4.748Z" transform="translate(-384.786 -355.84)" fill="#d78878"/>
      </g>
      <g id="Grupo_1173810" data-name="Grupo 1173810" transform="translate(57.372 2.951)">
        <path id="Trazado_1030777" data-name="Trazado 1030777" d="M324.4,38.365c0,13.572-10.579,24.7-24.152,24.7-4.406,0-14.079-3.233-15.337-6.745l.238-.96a.62.62,0,0,0-.054-.436,22.8,22.8,0,0,1,35.3-27.6C323.325,31.9,324.4,35.709,324.4,38.365Z" transform="translate(-282.517 -21.635)" fill="#eaf6ff"/>
        <path id="Trazado_1030778" data-name="Trazado 1030778" d="M328.689,70.8a22.835,22.835,0,0,1-34.222,14.581.623.623,0,0,0-.443-.081l-9.4,1.792a.627.627,0,0,1-.727-.766l2.09-8.456a24.587,24.587,0,0,0,35.488-29A22.744,22.744,0,0,1,328.689,70.8Z" transform="translate(-283.593 -43.179)" fill="#d8ecfe"/>
        <g id="Grupo_1173809" data-name="Grupo 1173809" transform="translate(11.034 5.68)">
          <path id="Trazado_1030779" data-name="Trazado 1030779" d="M356.2,61.072c0,6.109-6.417,12.019-12.651,12.019-.946,0-1.968.643-3.62-1.8a13.283,13.283,0,0,0-1.634-2.874,11.317,11.317,0,0,1,6.386-18.739C353.245,49.682,356.2,55.638,356.2,61.072Z" transform="translate(-335.361 -49.506)" fill="#ffe177"/>
          <path id="Trazado_1030780" data-name="Trazado 1030780" d="M373.982,60.154a11.277,11.277,0,0,1-2.88,7.54,13.663,13.663,0,0,0-2.74,8.147v.707l-11.393.037v-.625a19.125,19.125,0,0,0-1.4-6.225,11.459,11.459,0,0,0,2.742.329c6.235,0,11.635-4.06,11.635-10.169a11.127,11.127,0,0,0-9.278-10.883,11.325,11.325,0,0,1,13.315,11.141Z" transform="translate(-351.349 -48.837)" fill="#ffd15b"/>
          <path id="Trazado_1030781" data-name="Trazado 1030781" d="M370.632,179.51l1.771,3.459c0,1.877-1.125,3.459-5.167,3.459h-.887a3.4,3.4,0,0,1-3.4-3.4v-3.52h7.681Z" transform="translate(-357.19 -152.225)" fill="#5e6577"/>
          <path id="Trazado_1030782" data-name="Trazado 1030782" d="M390.3,179.511v3.52a3.4,3.4,0,0,1-3.4,3.4h-3.428a3.4,3.4,0,0,0,3.4-3.4v-3.52Z" transform="translate(-373.428 -152.226)" fill="#4d5263"/>
          <path id="Trazado_1030783" data-name="Trazado 1030783" d="M361.926,161.711c0,.752.456,1.6,0,2.1s-3.844,1.078-4.542,1.078h-8.357a2.629,2.629,0,0,1-2.523-2.723,2.838,2.838,0,0,1,.738-1.928,2.432,2.432,0,0,1,1.785-.8h8.357C358.778,159.439,361.926,160.206,361.926,161.711Z" transform="translate(-344.177 -136.345)" fill="#73788c"/>
          <path id="Trazado_1030784" data-name="Trazado 1030784" d="M405.711,162.164a2.834,2.834,0,0,1-.738,1.926,2.432,2.432,0,0,1-1.785.8h-4.577a2.428,2.428,0,0,0,1.785-.8,2.834,2.834,0,0,0,.738-1.926,2.63,2.63,0,0,0-2.523-2.725h4.577A2.629,2.629,0,0,1,405.711,162.164Z" transform="translate(-385.404 -136.345)" fill="#5e6577"/>
        </g>
      </g>
    </g>
    <g id="Grupo_1173820" data-name="Grupo 1173820" transform="translate(7.75 7.5)">
      <g id="Grupo_1173812" data-name="Grupo 1173812" transform="translate(7.021 38.644)">
        <path id="Trazado_1030785" data-name="Trazado 1030785" d="M49.979,208.2a11.432,11.432,0,0,1-8.6-11.076h0a4.546,4.546,0,0,1,4.545-4.546h4.163" transform="translate(-41.376 -192.577)" fill="none" stroke="#000" stroke-linecap="round" stroke-linejoin="round" stroke-miterlimit="10" stroke-width="1.5"/>
        <path id="Trazado_1030786" data-name="Trazado 1030786" d="M311.014,232.041a11.451,11.451,0,0,1-7.957,7.367" transform="translate(-248.418 -223.801)" fill="none" stroke="#000" stroke-linecap="round" stroke-linejoin="round" stroke-miterlimit="10" stroke-width="1.5"/>
      </g>
      <path id="Trazado_1030787" data-name="Trazado 1030787" d="M209.872,133.7a25.765,25.765,0,0,0,5.6-1.451l2.327-.892.386-.182a4.522,4.522,0,0,1,6.2,2.627" transform="translate(-167.669 -105.007)" fill="none" stroke="#000" stroke-linecap="round" stroke-linejoin="round" stroke-miterlimit="10" stroke-width="1.5"/>
      <path id="Trazado_1030788" data-name="Trazado 1030788" d="M128.753,152.19v8.917A14.467,14.467,0,0,1,123.812,172l-8.984,7.863a9.644,9.644,0,0,1-6.35,2.385H103.15a9.644,9.644,0,0,1-6.35-2.385L87.816,172a14.467,14.467,0,0,1-4.941-10.89V143.763a3.071,3.071,0,0,0,2.854-2.1l1.979-7.719a4.522,4.522,0,0,1,6.229-2.614l.289.138,2.327.892a25.754,25.754,0,0,0,5.567,1.446" transform="translate(-67.189 -105.124)" fill="none" stroke="#000" stroke-linecap="round" stroke-linejoin="round" stroke-miterlimit="10" stroke-width="1.5"/>
      <g id="Grupo_1173814" data-name="Grupo 1173814" transform="translate(25.373 36.66)">
        <g id="Grupo_1173813" data-name="Grupo 1173813">
          <path id="Trazado_1030789" data-name="Trazado 1030789" d="M186.479,262.089a4.841,4.841,0,0,1-4.39,0" transform="translate(-171.059 -245.59)" fill="none" stroke="#000" stroke-linecap="round" stroke-linejoin="round" stroke-miterlimit="10" stroke-width="1.5"/>
          <path id="Trazado_1030790" data-name="Trazado 1030790" d="M137.294,184.1a8.351,8.351,0,0,0-8.028,0" transform="translate(-129.266 -183.073)" fill="none" stroke="#000" stroke-linecap="round" stroke-linejoin="round" stroke-miterlimit="10" stroke-width="1.5"/>
          <path id="Trazado_1030791" data-name="Trazado 1030791" d="M225.514,184.1a8.351,8.351,0,0,0-8.028,0" transform="translate(-199.066 -183.073)" fill="none" stroke="#000" stroke-linecap="round" stroke-linejoin="round" stroke-miterlimit="10" stroke-width="1.5"/>
          <line id="Línea_813" data-name="Línea 813" y1="3.557" transform="translate(22.435 6.029)" fill="none" stroke="#000" stroke-linecap="round" stroke-linejoin="round" stroke-miterlimit="10" stroke-width="1.5"/>
          <line id="Línea_814" data-name="Línea 814" y1="3.557" transform="translate(4.014 6.029)" fill="none" stroke="#000" stroke-linecap="round" stroke-linejoin="round" stroke-miterlimit="10" stroke-width="1.5"/>
        </g>
        <path id="Trazado_1030792" data-name="Trazado 1030792" d="M173.265,303.583c-6.051,0-5.039-6.823-5.039-6.823H178.3S179.135,303.583,173.265,303.583Z" transform="translate(-160.041 -273.022)" fill="none" stroke="#000" stroke-linecap="round" stroke-linejoin="round" stroke-miterlimit="10" stroke-width="1.5"/>
      </g>
      <path id="Trazado_1030793" data-name="Trazado 1030793" d="M94.107,16.53a6.456,6.456,0,0,0-6.251-2.214A7.515,7.515,0,0,0,80.72,9a7.4,7.4,0,0,0-5.361,2.308,6.493,6.493,0,0,0-11.826,0A7.4,7.4,0,0,0,58.172,9a7.515,7.515,0,0,0-7.136,5.313,6.452,6.452,0,0,0-1.274-.127,6.62,6.62,0,0,0-6.549,6.689,6.807,6.807,0,0,0,.344,2.14A7.16,7.16,0,0,0,41.6,35.507a6.747,6.747,0,0,0-2.485,11.7" transform="translate(-30.627 -7.5)" fill="none" stroke="#000" stroke-linecap="round" stroke-linejoin="round" stroke-miterlimit="10" stroke-width="1.5"/>
      <path id="Trazado_1030794" data-name="Trazado 1030794" d="M63.282,142.839a6.554,6.554,0,0,1-2.955-1.2" transform="translate(-49.349 -113.632)" fill="none" stroke="#000" stroke-linecap="round" stroke-linejoin="round" stroke-miterlimit="10" stroke-width="1.5"/>
      <path id="Trazado_1030795" data-name="Trazado 1030795" d="M105.6,40.2a6.215,6.215,0,0,1,3.939,2.617" transform="translate(-85.169 -33.371)" fill="none" stroke="#000" stroke-linecap="round" stroke-linejoin="round" stroke-miterlimit="10" stroke-width="1.5"/>
      <path id="Trazado_1030796" data-name="Trazado 1030796" d="M269.71,40.183a6.224,6.224,0,0,0-3.164,2.41" transform="translate(-212.509 -33.359)" fill="none" stroke="#000" stroke-linecap="round" stroke-linejoin="round" stroke-miterlimit="10" stroke-width="1.5"/>
      <path id="Trazado_1030797" data-name="Trazado 1030797" d="M325.97,46.777q-.1.661-.249,1.324a23.505,23.505,0,0,1-35.443,14.879l-10.912,2.08,2.694-10.907A23.445,23.445,0,0,1,298.836,20" transform="translate(-222.596 -17.392)" fill="none" stroke="#000" stroke-linecap="round" stroke-linejoin="round" stroke-miterlimit="10" stroke-width="1.5"/>
      <path id="Trazado_1030798" data-name="Trazado 1030798" d="M407.545,19.544q.842.12,1.688.3a23.472,23.472,0,0,1,18.214,19.26" transform="translate(-324.068 -17.029)" fill="none" stroke="#000" stroke-linecap="round" stroke-linejoin="round" stroke-miterlimit="10" stroke-width="1.5"/>
      <g id="Grupo_1173815" data-name="Grupo 1173815" transform="translate(68.404 8.637)">
        <path id="Trazado_1030799" data-name="Trazado 1030799" d="M340.274,71.566a13.347,13.347,0,0,0-1.991-3.832,11.3,11.3,0,1,1,16.805-.057,13.941,13.941,0,0,0-2.026,3.844" transform="translate(-335.355 -48.863)" fill="none" stroke="#000" stroke-linecap="round" stroke-linejoin="round" stroke-miterlimit="10" stroke-width="1.5"/>
        <line id="Línea_815" data-name="Línea 815" y1="8.311" transform="translate(11.304 14.347)" fill="none" stroke="#000" stroke-linecap="round" stroke-linejoin="round" stroke-miterlimit="10" stroke-width="1.5"/>
        <path id="Trazado_1030800" data-name="Trazado 1030800" d="M374.017,186.134v1.286a4.176,4.176,0,0,1-4.176,4.176h-2.747a4.176,4.176,0,0,1-4.176-4.176v-1.286" transform="translate(-357.163 -157.472)" fill="none" stroke="#000" stroke-linecap="round" stroke-linejoin="round" stroke-miterlimit="10" stroke-width="1.5"/>
        <path id="Trazado_1030801" data-name="Trazado 1030801" d="M362.975,163.48h-11.25a2.858,2.858,0,0,1-2.858-2.858v-.169a2.858,2.858,0,0,1,2.858-2.858h11.25a2.858,2.858,0,0,1,2.858,2.858v.169A2.858,2.858,0,0,1,362.975,163.48Z" transform="translate(-346.046 -134.892)" fill="none" stroke="#000" stroke-linecap="round" stroke-linejoin="round" stroke-miterlimit="10" stroke-width="1.5"/>
        <line id="Línea_816" data-name="Línea 816" x2="7.237" transform="translate(7.836 14.329)" fill="none" stroke="#000" stroke-linecap="round" stroke-linejoin="round" stroke-miterlimit="10" stroke-width="1.5"/>
      </g>
      <path id="Trazado_1030802" data-name="Trazado 1030802" d="M346.53,432.2l.525.1a20.219,20.219,0,0,1,5.705,2.009" transform="translate(-275.793 -343.518)" fill="none" stroke="#000" stroke-linecap="round" stroke-linejoin="round" stroke-miterlimit="10" stroke-width="1.5"/>
      <path id="Trazado_1030803" data-name="Trazado 1030803" d="M250.768,358.351v7.786a4.617,4.617,0,0,0,3.752,4.536" transform="translate(-200.026 -285.093)" fill="none" stroke="#000" stroke-linecap="round" stroke-linejoin="round" stroke-miterlimit="10" stroke-width="1.5"/>
      <path id="Trazado_1030804" data-name="Trazado 1030804" d="M118.589,417.362h0a21.444,21.444,0,0,0,31.351,0h0" transform="translate(-95.446 -331.782)" fill="none" stroke="#000" stroke-linecap="round" stroke-linejoin="round" stroke-miterlimit="10" stroke-width="1.5"/>
      <path id="Trazado_1030805" data-name="Trazado 1030805" d="M14.368,373.942l-.821.165a20.22,20.22,0,0,0-5.8,2.058m26.9-17.813v7.786a4.617,4.617,0,0,1-3.752,4.536l-.24.046" transform="translate(-7.75 -285.093)" fill="none" stroke="#000" stroke-linecap="round" stroke-linejoin="round" stroke-miterlimit="10" stroke-width="1.5"/>
      <g id="Grupo_1173816" data-name="Grupo 1173816" transform="translate(5.837 81.563)">
        <path id="Trazado_1030806" data-name="Trazado 1030806" d="M55.24,411.585,51.963,399.8a2.3,2.3,0,0,0-2.878-1.58L36.41,402.086a.993.993,0,0,0-.621,1.354l2.8,6.341,7.725,1.773-4.251,6.093.964,2.688" transform="translate(-35.703 -398.124)" fill="none" stroke="#000" stroke-linecap="round" stroke-linejoin="round" stroke-miterlimit="10" stroke-width="1.5"/>
        <line id="Línea_817" data-name="Línea 817" x1="0.476" y1="1.71" transform="translate(21.494 20.502)" fill="none" stroke="#000" stroke-linecap="round" stroke-linejoin="round" stroke-miterlimit="10" stroke-width="1.5"/>
        <path id="Trazado_1030807" data-name="Trazado 1030807" d="M244.868,420.336l5.711-20.532a2.294,2.294,0,0,1,2.878-1.579l12.675,3.861a1,1,0,0,1,.621,1.355l-2.8,6.342-7.726,1.772,4.252,6.094-.964,2.687" transform="translate(-201.194 -398.125)" fill="none" stroke="#000" stroke-linecap="round" stroke-linejoin="round" stroke-miterlimit="10" stroke-width="1.5"/>
      </g>
      <g id="Grupo_1173819" data-name="Grupo 1173819" transform="translate(77.308 56.701)">
        <g id="Grupo_1173817" data-name="Grupo 1173817" transform="translate(20.758 13.482)">
          <path id="Trazado_1030808" data-name="Trazado 1030808" d="M483.016,346.424a2.8,2.8,0,0,0-2.8-2.8h0a2.8,2.8,0,0,0-2.8,2.8v6.285a2.8,2.8,0,0,0,2.8,2.8h0a2.8,2.8,0,0,0,2.8-2.8Z" transform="translate(-477.412 -343.626)" fill="none" stroke="#000" stroke-linecap="round" stroke-linejoin="round" stroke-miterlimit="10" stroke-width="1.5"/>
          <path id="Trazado_1030809" data-name="Trazado 1030809" d="M490.831,400.563" transform="translate(-488.029 -388.674)" fill="none" stroke="#000" stroke-linecap="round" stroke-linejoin="round" stroke-miterlimit="10" stroke-width="1.5"/>
        </g>
        <g id="Grupo_1173818" data-name="Grupo 1173818" transform="translate(22.521 22.649)">
          <path id="Trazado_1030810" data-name="Trazado 1030810" d="M489.7,387.53V395.9a13.6,13.6,0,0,1-1.92,6.908h0a13.669,13.669,0,0,0-1.92,7.036l.008,2.1" transform="translate(-485.858 -387.53)" fill="none" stroke="#000" stroke-linecap="round" stroke-linejoin="round" stroke-miterlimit="10" stroke-width="1.5"/>
        </g>
        <path id="Trazado_1030811" data-name="Trazado 1030811" d="M433.859,414.75a11.455,11.455,0,0,1,2.446,10.474l-.087.334" transform="translate(-422.195 -386.417)" fill="none" stroke="#000" stroke-linecap="round" stroke-linejoin="round" stroke-miterlimit="10" stroke-width="1.5"/>
        <path id="Trazado_1030812" data-name="Trazado 1030812" d="M389.115,304.612v-22.6a2.961,2.961,0,0,1,2.953-2.953h.237a2.961,2.961,0,0,1,2.953,2.953v18.365" transform="translate(-386.794 -279.057)" fill="none" stroke="#000" stroke-linecap="round" stroke-linejoin="round" stroke-miterlimit="10" stroke-width="1.5"/>
        <path id="Trazado_1030813" data-name="Trazado 1030813" d="M418.532,332.846a2.961,2.961,0,0,1,2.953-2.953h.237a2.961,2.961,0,0,1,2.953,2.953v6.721" transform="translate(-410.069 -319.278)" fill="none" stroke="#000" stroke-linecap="round" stroke-linejoin="round" stroke-miterlimit="10" stroke-width="1.5"/>
        <path id="Trazado_1030814" data-name="Trazado 1030814" d="M447.947,339.495v-6.649a2.961,2.961,0,0,1,2.953-2.953h.237a2.961,2.961,0,0,1,2.953,2.953v2.819" transform="translate(-433.342 -319.278)" fill="none" stroke="#000" stroke-linecap="round" stroke-linejoin="round" stroke-miterlimit="10" stroke-width="1.5"/>
        <path id="Trazado_1030815" data-name="Trazado 1030815" d="M387.768,386.153l2.633-3.542,5.275-.68A4.24,4.24,0,0,0,398.6,377.9a1.435,1.435,0,0,0-1.436-1.434h-7.526a5.306,5.306,0,0,0-3.044.959l-6.784,4.748A4.238,4.238,0,0,0,378,385.646V389.1a7.139,7.139,0,0,0,1.878,4.823,8.638,8.638,0,0,1,2.271,5.837V403.2" transform="translate(-377.999 -356.129)" fill="none" stroke="#000" stroke-linecap="round" stroke-linejoin="round" stroke-miterlimit="10" stroke-width="1.5"/>
      </g>
    </g>
  </g>
</svg>
