<svg xmlns="http://www.w3.org/2000/svg" xmlns:xlink="http://www.w3.org/1999/xlink" width="108" height="108" viewBox="0 0 108 108">
  <defs>
    <filter id="Trazado_904820" x="0" y="0" width="108" height="108" filterUnits="userSpaceOnUse">
      <feOffset dy="3" input="SourceAlpha"/>
      <feGaussianBlur stdDeviation="3" result="blur"/>
      <feFlood flood-opacity="0.161"/>
      <feComposite operator="in" in2="blur"/>
      <feComposite in="SourceGraphic"/>
    </filter>
  </defs>
  <g id="Grupo_1178241" data-name="Grupo 1178241" transform="translate(-619.477 -365.761)">
    <g id="Grupo_1177315" data-name="Grupo 1177315" transform="translate(628.477 371.761)">
      <g id="Grupo_1173585" data-name="Grupo 1173585" transform="translate(0 0)">
        <g id="Grupo_1173428" data-name="Grupo 1173428">
          <g id="Grupo_1171958" data-name="Grupo 1171958">
            <g id="Grupo_1167341" data-name="Grupo 1167341">
              <g id="Grupo_1166792" data-name="Grupo 1166792">
                <g transform="matrix(1, 0, 0, 1, -9, -6)" filter="url(#Trazado_904820)">
                  <g id="Trazado_904820-2" data-name="Trazado 904820" transform="translate(9 6)" fill="#effbfe">
                    <path d="M 44.99999618530273 88.49999237060547 C 39.12687301635742 88.49999237060547 33.43022155761719 87.35006713867188 28.06829643249512 85.08216857910156 C 22.88852119445801 82.89130401611328 18.23629570007324 79.75457763671875 14.24084663391113 75.75914001464844 C 10.24540901184082 71.76369476318359 7.108683586120605 67.11146545410156 4.917821407318115 61.93169403076172 C 2.649921178817749 56.56976699829102 1.499996185302734 50.87311553955078 1.499996185302734 44.99999237060547 C 1.499996185302734 39.12686920166016 2.649921178817749 33.43021774291992 4.917821407318115 28.06829261779785 C 7.108683586120605 22.88851737976074 10.24540901184082 18.23630523681641 14.24084663391113 14.24085521697998 C 18.23629570007324 10.24540519714355 22.88852119445801 7.108692169189453 28.06829643249512 4.917829990386963 C 33.43022155761719 2.649929761886597 39.12687301635742 1.500004887580872 44.99999618530273 1.500004887580872 C 50.87311935424805 1.500004887580872 56.56977081298828 2.649929761886597 61.93169784545898 4.917829990386963 C 67.11147308349609 7.108692169189453 71.76369476318359 10.24540519714355 75.75914764404297 14.24085521697998 C 79.75458526611328 18.23630523681641 82.89131164550781 22.88851737976074 85.08216857910156 28.06829261779785 C 87.35007476806641 33.43021774291992 88.5 39.12686920166016 88.5 44.99999237060547 C 88.5 50.87311553955078 87.35007476806641 56.56976699829102 85.08216857910156 61.93169403076172 C 82.89131164550781 67.11146545410156 79.75458526611328 71.76369476318359 75.75914764404297 75.75914001464844 C 71.76369476318359 79.75457763671875 67.11147308349609 82.89130401611328 61.93169784545898 85.08216857910156 C 56.56977081298828 87.35006713867188 50.87311935424805 88.49999237060547 44.99999618530273 88.49999237060547 Z" stroke="none"/>
                    <path d="M 44.99999618530273 2.999992370605469 C 39.32870864868164 2.999992370605469 33.82865142822266 4.11004638671875 28.65262603759766 6.299331665039062 C 23.65165710449219 8.414566040039062 19.15968322753906 11.44333648681641 15.301513671875 15.30150604248047 C 11.44333648681641 19.15967559814453 8.414566040039062 23.65164947509766 6.299339294433594 28.65262222290039 C 4.110054016113281 33.82864761352539 2.999992370605469 39.32870483398438 2.999992370605469 44.99999237060547 C 2.999992370605469 50.67127990722656 4.110054016113281 56.17132186889648 6.299339294433594 61.34736633300781 C 8.414566040039062 66.34833526611328 11.44333648681641 70.84029388427734 15.301513671875 74.69846343994141 C 19.15968322753906 78.55663299560547 23.65165710449219 81.58540344238281 28.65262603759766 83.70063781738281 C 33.82865142822266 85.88992309570312 39.32870864868164 86.99997711181641 44.99999618530273 86.99997711181641 C 50.67128372192383 86.99997711181641 56.17134094238281 85.88992309570312 61.34736633300781 83.70063781738281 C 66.34834289550781 81.58540344238281 70.84030914306641 78.55663299560547 74.69847869873047 74.69846343994141 C 78.55665588378906 70.84029388427734 81.58542633056641 66.34833526611328 83.70065307617188 61.34736633300781 C 85.88993835449219 56.17132186889648 87 50.67127990722656 87 44.99999237060547 C 87 39.32870483398438 85.88993835449219 33.82864761352539 83.70065307617188 28.65262222290039 C 81.58542633056641 23.65164947509766 78.55665588378906 19.15967559814453 74.69847869873047 15.30150604248047 C 70.84030914306641 11.44333648681641 66.34834289550781 8.414566040039062 61.34736633300781 6.299331665039062 C 56.17134094238281 4.11004638671875 50.67128372192383 2.999992370605469 44.99999618530273 2.999992370605469 M 44.99999618530273 -7.62939453125e-06 C 69.85281372070312 -7.62939453125e-06 90 20.14717864990234 90 44.99999237060547 C 90 69.85279083251953 69.85281372070312 89.99997711181641 44.99999618530273 89.99997711181641 C 20.14717864990234 89.99997711181641 -7.62939453125e-06 69.85279083251953 -7.62939453125e-06 44.99999237060547 C -7.62939453125e-06 20.14717864990234 20.14717864990234 -7.62939453125e-06 44.99999618530273 -7.62939453125e-06 Z" stroke="none" fill="#27454a"/>
                  </g>
                </g>
              </g>
            </g>
          </g>
        </g>
      </g>
    </g>
    <g id="open-book_893000" transform="translate(645.424 388.708)">
      <path id="Trazado_1039830" data-name="Trazado 1039830" d="M11.62,168H8v32.577H31.528a3.62,3.62,0,0,0,3.62,3.62h0a3.62,3.62,0,0,0,3.62-3.62H62.294V168H11.62Z" transform="translate(-7.095 -148.997)" fill="#d3a06c"/>
      <path id="Trazado_1039831" data-name="Trazado 1039831" d="M82.208,120h4.847v34.386H40V120H82.208Z" transform="translate(-35.475 -106.426)" fill="#ececec"/>
      <rect id="Rectángulo_416393" data-name="Rectángulo 416393" width="23.2" height="34.336" transform="translate(28.052 13.204)" fill="#afb8c9"/>
      <rect id="Rectángulo_416394" data-name="Rectángulo 416394" width="2.784" height="16.704" transform="translate(8.564 28.052)" fill="#fea82f"/>
      <rect id="Rectángulo_416395" data-name="Rectángulo 416395" width="2.784" height="2.784" transform="translate(8.564 41.972)" fill="#ff8031"/>
      <g id="Grupo_1178242" data-name="Grupo 1178242" transform="translate(11.348 31.764)">
        <rect id="Rectángulo_416396" data-name="Rectángulo 416396" width="3.712" height="12.992" transform="translate(7.424 0)" fill="#fea82f"/>
        <rect id="Rectángulo_416397" data-name="Rectángulo 416397" width="3.712" height="11.136" transform="translate(0 1.856)" fill="#fea82f"/>
        <rect id="Rectángulo_416398" data-name="Rectángulo 416398" width="3.712" height="7.424" transform="translate(3.712 5.568)" fill="#fea82f"/>
      </g>
      <g id="Grupo_1178243" data-name="Grupo 1178243" transform="translate(11.348 41.972)">
        <rect id="Rectángulo_416399" data-name="Rectángulo 416399" width="3.712" height="2.784" transform="translate(0 0)" fill="#ff8031"/>
        <rect id="Rectángulo_416400" data-name="Rectángulo 416400" width="3.712" height="2.784" transform="translate(3.712 0)" fill="#ff8031"/>
        <rect id="Rectángulo_416401" data-name="Rectángulo 416401" width="3.712" height="2.784" transform="translate(7.424 0)" fill="#ff8031"/>
      </g>
      <rect id="Rectángulo_416402" data-name="Rectángulo 416402" width="1.856" height="1.856" transform="translate(39.188 23.412)" fill="#cd2c5a"/>
      <rect id="Rectángulo_416403" data-name="Rectángulo 416403" width="48.256" height="1.856" transform="translate(3.924 47.54)" fill="#b27946"/>
      <path id="Trazado_1039832" data-name="Trazado 1039832" d="M296.288,16.144a8.144,8.144,0,1,0-11.764,7.287V26.1h7.239V23.431A8.135,8.135,0,0,0,296.288,16.144Z" transform="translate(-248.328 -7.095)" fill="#fcd770"/>
      <g id="Grupo_1178244" data-name="Grupo 1178244" transform="translate(33.246 2.462)">
        <path id="Trazado_1039833" data-name="Trazado 1039833" d="M370.967,21.768A8.122,8.122,0,0,1,368,33.832v4.477h1.81V35.642a8.129,8.129,0,0,0,1.157-13.874Z" transform="translate(-359.621 -21.768)" fill="#ffc729"/>
        <path id="Trazado_1039834" data-name="Trazado 1039834" d="M295.06,122.911a8.207,8.207,0,0,1-1.14-.7,8.179,8.179,0,0,0,1.14,1.283Z" transform="translate(-293.92 -110.847)" fill="#ffc729"/>
      </g>
      <rect id="Rectángulo_416404" data-name="Rectángulo 416404" width="7.424" height="3.712" transform="translate(36.404 18.772)" fill="#fea82f"/>
      <rect id="Rectángulo_416405" data-name="Rectángulo 416405" width="3.712" height="12.992" transform="translate(40.116 22.484)" fill="#ffc729"/>
      <rect id="Rectángulo_416406" data-name="Rectángulo 416406" width="3.712" height="12.992" transform="translate(36.404 22.484)" fill="#fb5968"/>
      <path id="Trazado_1039835" data-name="Trazado 1039835" d="M323.62,317.429h0a1.464,1.464,0,0,1-1.309-.809L320,312h7.239l-2.31,4.62A1.464,1.464,0,0,1,323.62,317.429Z" transform="translate(-283.804 -276.709)" fill="#ececec"/>
      <path id="Trazado_1039836" data-name="Trazado 1039836" d="M52.485,18.1V12.669H48.106a9.049,9.049,0,1,0-16.58,0H3.62V18.1H0V52.485H23.619a4.525,4.525,0,0,0,8.866,0H56.1V18.1ZM39.816,1.81a7.234,7.234,0,0,1,3.217,13.717l-.5.25V18.1h-1.81V12.54a3.62,3.62,0,1,0-1.81,0V18.1H37.1V15.776l-.5-.25A7.234,7.234,0,0,1,39.816,1.81ZM41.971,36.2l-1.655,3.31a.579.579,0,0,1-1,0L37.66,36.2Zm.559-1.81h-1.81V27.147h-1.81v7.239H37.1V23.528h1.81v1.81h1.81v-1.81h1.81ZM37.1,21.718v-1.81h5.429v1.81Zm2.715-10.859a1.81,1.81,0,1,1,1.81-1.81A1.812,1.812,0,0,1,39.816,10.859Zm-4.525,6.019V18.1h-1.81v1.81h1.81V35.5L37.7,40.316a2.37,2.37,0,0,0,4.239,0L44.34,35.5v-15.6h1.81V18.1H44.34V16.877a9.051,9.051,0,0,0,2.712-2.4h3.622V47.055H28.957V14.479h3.622A9.064,9.064,0,0,0,35.291,16.877Zm-29.862-2.4H27.147V47.055H5.429Zm48.865,36.2H30.767v.9a2.715,2.715,0,1,1-5.429,0v-.9H1.81V19.908H3.62V48.865H52.485V19.908h1.81Z"/>
      <rect id="Rectángulo_416407" data-name="Rectángulo 416407" width="14.848" height="1.856" transform="translate(30.836 43.828)"/>
      <path id="Trazado_1039837" data-name="Trazado 1039837" d="M74.859,249.049h-1.81v-3.62h-3.62V240H64v18.1H80.288V243.62H74.859Zm-7.239,7.239H65.81V241.81h1.81v14.479Zm3.62,0h-1.81v-9.049h1.81v9.049Zm3.62,0h-1.81v-5.429h1.81Zm1.81-10.859h1.81v10.859h-1.81V245.429Z" transform="translate(-56.761 -212.853)"/>
      <rect id="Rectángulo_416408" data-name="Rectángulo 416408" width="14.848" height="1.856" transform="translate(10.42 15.988)"/>
      <rect id="Rectángulo_416409" data-name="Rectángulo 416409" width="17.632" height="1.856" transform="translate(7.636 19.7)"/>
      <rect id="Rectángulo_416410" data-name="Rectángulo 416410" width="11.136" height="1.856" transform="translate(7.636 23.412)"/>
      <rect id="Rectángulo_416411" data-name="Rectángulo 416411" width="1.856" height="1.856" transform="translate(46.612 43.828)"/>
      <rect id="Rectángulo_416412" data-name="Rectángulo 416412" width="1.856" height="1.856" transform="translate(7.636 15.988)"/>
    </g>
  </g>
</svg>
