<svg xmlns="http://www.w3.org/2000/svg" xmlns:xlink="http://www.w3.org/1999/xlink" width="108" height="108" viewBox="0 0 108 108">
  <defs>
    <filter id="Trazado_904820" x="0" y="0" width="108" height="108" filterUnits="userSpaceOnUse">
      <feOffset dy="3" input="SourceAlpha"/>
      <feGaussianBlur stdDeviation="3" result="blur"/>
      <feFlood flood-opacity="0.161"/>
      <feComposite operator="in" in2="blur"/>
      <feComposite in="SourceGraphic"/>
    </filter>
  </defs>
  <g id="Grupo_1177315" data-name="Grupo 1177315" transform="translate(-620 -526)">
    <g id="Grupo_1173585" data-name="Grupo 1173585" transform="translate(629 532)">
      <g id="Grupo_1173428" data-name="Grupo 1173428" transform="translate(0 0)">
        <g id="Grupo_1171958" data-name="Grupo 1171958">
          <g id="Grupo_1167341" data-name="Grupo 1167341">
            <g id="Grupo_1166792" data-name="Grupo 1166792">
              <g transform="matrix(1, 0, 0, 1, -9, -6)" filter="url(#Trazado_904820)">
                <g id="Trazado_904820-2" data-name="Trazado 904820" transform="translate(9 6)" fill="#fdfbec">
                  <path d="M 44.99999618530273 88.49999237060547 C 39.12687301635742 88.49999237060547 33.43022155761719 87.35006713867188 28.06829643249512 85.08216857910156 C 22.88852119445801 82.89130401611328 18.23629570007324 79.75457763671875 14.24084663391113 75.75914001464844 C 10.24540901184082 71.76369476318359 7.108683586120605 67.11146545410156 4.917821407318115 61.93169403076172 C 2.649921178817749 56.56976699829102 1.499996185302734 50.87311553955078 1.499996185302734 44.99999237060547 C 1.499996185302734 39.12686920166016 2.649921178817749 33.43021774291992 4.917821407318115 28.06829261779785 C 7.108683586120605 22.88851737976074 10.24540901184082 18.23630523681641 14.24084663391113 14.24085521697998 C 18.23629570007324 10.24540519714355 22.88852119445801 7.108692169189453 28.06829643249512 4.917829990386963 C 33.43022155761719 2.649929761886597 39.12687301635742 1.500004887580872 44.99999618530273 1.500004887580872 C 50.87311935424805 1.500004887580872 56.56977081298828 2.649929761886597 61.93169784545898 4.917829990386963 C 67.11147308349609 7.108692169189453 71.76369476318359 10.24540519714355 75.75914764404297 14.24085521697998 C 79.75458526611328 18.23630523681641 82.89131164550781 22.88851737976074 85.08216857910156 28.06829261779785 C 87.35007476806641 33.43021774291992 88.5 39.12686920166016 88.5 44.99999237060547 C 88.5 50.87311553955078 87.35007476806641 56.56976699829102 85.08216857910156 61.93169403076172 C 82.89131164550781 67.11146545410156 79.75458526611328 71.76369476318359 75.75914764404297 75.75914001464844 C 71.76369476318359 79.75457763671875 67.11147308349609 82.89130401611328 61.93169784545898 85.08216857910156 C 56.56977081298828 87.35006713867188 50.87311935424805 88.49999237060547 44.99999618530273 88.49999237060547 Z" stroke="none"/>
                  <path d="M 44.99999618530273 2.999992370605469 C 39.32870864868164 2.999992370605469 33.82865142822266 4.11004638671875 28.65262603759766 6.299331665039062 C 23.65165710449219 8.414566040039062 19.15968322753906 11.44333648681641 15.301513671875 15.30150604248047 C 11.44333648681641 19.15967559814453 8.414566040039062 23.65164947509766 6.299339294433594 28.65262222290039 C 4.110054016113281 33.82864761352539 2.999992370605469 39.32870483398438 2.999992370605469 44.99999237060547 C 2.999992370605469 50.67127990722656 4.110054016113281 56.17132186889648 6.299339294433594 61.34736633300781 C 8.414566040039062 66.34833526611328 11.44333648681641 70.84029388427734 15.301513671875 74.69846343994141 C 19.15968322753906 78.55663299560547 23.65165710449219 81.58540344238281 28.65262603759766 83.70063781738281 C 33.82865142822266 85.88992309570312 39.32870864868164 86.99997711181641 44.99999618530273 86.99997711181641 C 50.67128372192383 86.99997711181641 56.17134094238281 85.88992309570312 61.34736633300781 83.70063781738281 C 66.34834289550781 81.58540344238281 70.84030914306641 78.55663299560547 74.69847869873047 74.69846343994141 C 78.55665588378906 70.84029388427734 81.58542633056641 66.34833526611328 83.70065307617188 61.34736633300781 C 85.88993835449219 56.17132186889648 87 50.67127990722656 87 44.99999237060547 C 87 39.32870483398438 85.88993835449219 33.82864761352539 83.70065307617188 28.65262222290039 C 81.58542633056641 23.65164947509766 78.55665588378906 19.15967559814453 74.69847869873047 15.30150604248047 C 70.84030914306641 11.44333648681641 66.34834289550781 8.414566040039062 61.34736633300781 6.299331665039062 C 56.17134094238281 4.11004638671875 50.67128372192383 2.999992370605469 44.99999618530273 2.999992370605469 M 44.99999618530273 -7.62939453125e-06 C 69.85281372070312 -7.62939453125e-06 90 20.14717864990234 90 44.99999237060547 C 90 69.85279083251953 69.85281372070312 89.99997711181641 44.99999618530273 89.99997711181641 C 20.14717864990234 89.99997711181641 -7.62939453125e-06 69.85279083251953 -7.62939453125e-06 44.99999237060547 C -7.62939453125e-06 20.14717864990234 20.14717864990234 -7.62939453125e-06 44.99999618530273 -7.62939453125e-06 Z" stroke="none" fill="#83793c"/>
                </g>
              </g>
            </g>
          </g>
        </g>
      </g>
    </g>
    <g id="creative_1440971" transform="translate(647.228 550.228)">
      <path id="Trazado_1036247" data-name="Trazado 1036247" d="M154.809,56a10.7,10.7,0,1,0,10.709,10.709A10.7,10.7,0,0,0,154.809,56Zm0,0" transform="translate(-128.038 -49.753)" fill="#ffd422"/>
      <path id="Trazado_1036248" data-name="Trazado 1036248" d="M21.225,187.632l-5.1-8.835a2.672,2.672,0,0,0-2.32-1.339,1.852,1.852,0,0,0-.446.044v-6.827a2.677,2.677,0,1,0-5.354,0V190.31l3.57,4.462v1.785H22.279v-7.095Zm0,0" transform="translate(-7.108 -149.26)" fill="#ffdaaa"/>
      <path id="Trazado_1036249" data-name="Trazado 1036249" d="M355.6,168a2.677,2.677,0,0,0-2.677,2.677V177.5a1.851,1.851,0,0,0-.446-.044,2.672,2.672,0,0,0-2.32,1.339l-5.1,8.835L344,189.462v7.095h10.709v-1.785l3.57-4.462V170.677A2.677,2.677,0,0,0,355.6,168Zm0,0" transform="translate(-305.627 -149.26)" fill="#ffdaaa"/>
      <path id="Trazado_1036250" data-name="Trazado 1036250" d="M24,424v5.354H38.278V424Zm0,0" transform="translate(-21.323 -376.704)" fill="#3d9ae2"/>
      <path id="Trazado_1036251" data-name="Trazado 1036251" d="M328,424v5.354h14.278V424Zm0,0" transform="translate(-291.412 -376.704)" fill="#3d9ae2"/>
      <path id="Trazado_1036252" data-name="Trazado 1036252" d="M240,249.1l4.462,1.785V239.2a10.64,10.64,0,0,1-4.462.982Zm0,0" transform="translate(-213.228 -212.517)" fill="#00ccb3"/>
      <path id="Trazado_1036253" data-name="Trazado 1036253" d="M208.924,329.785,204.462,328,200,329.785l2.677,5.354h3.57Zm0,0" transform="translate(-177.69 -291.412)" fill="#ffa733"/>
      <path id="Trazado_1036254" data-name="Trazado 1036254" d="M225.785,397.354a1.785,1.785,0,0,0,1.785-1.785V392H224v3.57A1.785,1.785,0,0,0,225.785,397.354Zm0,0" transform="translate(-199.013 -348.273)" fill="#898890"/>
      <path id="Trazado_1036255" data-name="Trazado 1036255" d="M200,216v14.278l4.462-1.785V216Zm0,0" transform="translate(-177.69 -191.906)" fill="#0b7"/>
      <path id="Trazado_1036256" data-name="Trazado 1036256" d="M240,216v3.57a10.639,10.639,0,0,0,4.462-.982V216Zm0,0" transform="translate(-213.228 -191.906)" fill="#00ccb3"/>
      <path id="Trazado_1036257" data-name="Trazado 1036257" d="M208.924,184H200v3.57h8.924Zm0,0" transform="translate(-177.69 -163.475)" fill="#ffa733"/>
      <path id="Trazado_1036258" data-name="Trazado 1036258" d="M208.924,123.57a3.57,3.57,0,0,0-3.57-3.57H203.57a3.57,3.57,0,0,0-3.57,3.57v3.57h8.924Zm0,0" transform="translate(-177.69 -106.614)" fill="#e6e7e8"/>
      <path id="Trazado_1036259" data-name="Trazado 1036259" d="M16.955,188.556h-.892v-6.2a.892.892,0,0,0-.119-.446L9.787,171.244a3.581,3.581,0,0,0-2.648-1.756v-5.919a3.57,3.57,0,0,0-7.139,0V183.2a.892.892,0,0,0,.2.558l3.374,4.217v.579H2.677a.892.892,0,0,0-.892.892V194.8a.892.892,0,0,0,.892.892H16.955a.892.892,0,0,0,.892-.892v-5.354a.892.892,0,0,0-.892-.892Zm-11.8-1.45-3.374-4.217V163.57a1.785,1.785,0,1,1,3.57,0v6.162a3.966,3.966,0,0,0-.446.205A3.583,3.583,0,0,0,3.6,174.814l5.1,8.835,1.546-.892-5.1-8.835a1.791,1.791,0,0,1,.645-2.435,1.653,1.653,0,0,1,.583-.207c.029,0,.06-.011.089-.018a1.12,1.12,0,0,1,.229-.017,1.764,1.764,0,0,1,1.546.892l6.039,10.456v5.964H5.354v-.892a.892.892,0,0,0-.2-.558Zm10.9,6.8H3.57v-3.57H16.063Zm0,0" transform="translate(0 -142.152)"/>
      <path id="Trazado_1036260" data-name="Trazado 1036260" d="M334.278,160a3.57,3.57,0,0,0-3.57,3.57v5.919a3.582,3.582,0,0,0-2.647,1.756L321.9,181.909a.891.891,0,0,0-.118.446v6.2h-.893a.892.892,0,0,0-.892.892V194.8a.892.892,0,0,0,.892.892h14.278a.892.892,0,0,0,.892-.892v-5.354a.892.892,0,0,0-.892-.892h-.892v-.579l3.374-4.217a.892.892,0,0,0,.2-.558V163.57a3.57,3.57,0,0,0-3.57-3.57Zm0,33.911H321.785v-3.57h12.493Zm1.785-11.022-3.374,4.217a.892.892,0,0,0-.2.558v.892H323.57v-5.964l6.039-10.456a1.765,1.765,0,0,1,1.546-.892,1.131,1.131,0,0,1,.23.018c.029.007.059.013.089.018a1.631,1.631,0,0,1,.572.2,1.792,1.792,0,0,1,.656,2.441l-5.1,8.835,1.546.892,5.1-8.835a3.488,3.488,0,0,0-1.755-5.082V163.57a1.785,1.785,0,1,1,3.57,0Zm0,0" transform="translate(-284.305 -142.152)"/>
      <path id="Trazado_1036261" data-name="Trazado 1036261" d="M159.19,59.512a11.6,11.6,0,1,0-16.955,10.281V80.929a.891.891,0,0,0,.094.4l2.583,5.166v3.359a2.677,2.677,0,0,0,5.354,0V86.494l2.588-5.166a.9.9,0,0,0,.089-.4V69.793a11.6,11.6,0,0,0,6.247-10.281ZM148.822,85.391h-2.466l-2-3.994,3.231-1.292L150.82,81.4Zm-4.8-21.417h7.139v1.785H144.02Zm4.462,3.57h2.677v1.1a9.714,9.714,0,0,1-2.677.637Zm2.677-5.354H144.02V59.512a2.677,2.677,0,0,1,2.677-2.677h1.785a2.677,2.677,0,0,1,2.677,2.677Zm-7.139,5.354H146.7v1.739a9.714,9.714,0,0,1-2.677-.637Zm2.677,3.524V78.54l-2.677,1.071V70.545A11.512,11.512,0,0,0,146.7,71.068Zm1.785,18.785a.892.892,0,1,1-1.785,0V87.176h1.785Zm2.677-10.242-2.677-1.071V71.068a11.512,11.512,0,0,0,2.677-.522Zm1.785-11.882V59.512a4.467,4.467,0,0,0-4.462-4.462H146.7a4.467,4.467,0,0,0-4.462,4.462v8.217a9.816,9.816,0,1,1,10.709,0Zm0,0" transform="translate(-120.818 -42.557)"/>
      <path id="Trazado_1036262" data-name="Trazado 1036262" d="M232,0h1.785V3.57H232Zm0,0" transform="translate(-206.121)"/>
      <path id="Trazado_1036263" data-name="Trazado 1036263" d="M126.867,40.121l1.262-1.262,2.524,2.524-1.262,1.262Zm0,0" transform="translate(-112.715 -34.525)"/>
      <path id="Trazado_1036264" data-name="Trazado 1036264" d="M88,144h3.57v1.785H88Zm0,0" transform="translate(-78.184 -127.937)"/>
      <path id="Trazado_1036265" data-name="Trazado 1036265" d="M126.871,233.715l2.524-2.524,1.262,1.262-2.524,2.524Zm0,0" transform="translate(-112.719 -205.402)"/>
      <path id="Trazado_1036266" data-name="Trazado 1036266" d="M319.2,232.457l1.262-1.262,2.524,2.524-1.262,1.262Zm0,0" transform="translate(-283.589 -205.406)"/>
      <path id="Trazado_1036267" data-name="Trazado 1036267" d="M360,144h3.57v1.785H360Zm0,0" transform="translate(-319.843 -127.937)"/>
      <path id="Trazado_1036268" data-name="Trazado 1036268" d="M319.2,41.383l2.524-2.524,1.262,1.262-2.524,2.524Zm0,0" transform="translate(-283.589 -34.525)"/>
    </g>
  </g>
</svg>
