<svg xmlns="http://www.w3.org/2000/svg" xmlns:xlink="http://www.w3.org/1999/xlink" width="113" height="113" viewBox="0 0 113 113">
  <defs>
    <filter id="Trazado_982547" x="0" y="0" width="113" height="113" filterUnits="userSpaceOnUse">
      <feOffset dy="3" input="SourceAlpha"/>
      <feGaussianBlur stdDeviation="3" result="blur"/>
      <feFlood flood-opacity="0.161"/>
      <feComposite operator="in" in2="blur"/>
      <feComposite in="SourceGraphic"/>
    </filter>
  </defs>
  <g id="Grupo_1177818" data-name="Grupo 1177818" transform="translate(9 6)">
    <g id="Grupo_1172010" data-name="Grupo 1172010" transform="translate(0)">
      <g id="Grupo_1171046" data-name="Grupo 1171046">
        <g id="Grupo_1148525" data-name="Grupo 1148525">
          <g transform="matrix(1, 0, 0, 1, -9, -6)" filter="url(#Trazado_982547)">
            <g id="Trazado_982547-2" data-name="Trazado 982547" transform="translate(9 6)" fill="#fdfbec">
              <path d="M 47.5 93.5 C 41.28937149047852 93.5 35.26533508300781 92.28397369384766 29.59518623352051 89.88570404052734 C 24.11771965026855 87.56893157958984 19.19813346862793 84.25196075439453 14.97309303283691 80.02691650390625 C 10.74804019927979 75.80186462402344 7.431066513061523 70.88229370117188 5.114293098449707 65.40481567382812 C 2.716026782989502 59.73468017578125 1.5 53.71062850952148 1.5 47.5 C 1.5 41.28937149047852 2.716026782989502 35.26533508300781 5.114293098449707 29.59518623352051 C 7.431066513061523 24.11771965026855 10.74804019927979 19.19813346862793 14.97309303283691 14.97309303283691 C 19.19813346862793 10.74804019927979 24.11771965026855 7.431066513061523 29.59518623352051 5.114293098449707 C 35.26533508300781 2.716026782989502 41.28937149047852 1.5 47.5 1.5 C 53.71062850952148 1.5 59.73468017578125 2.716026782989502 65.40481567382812 5.114293098449707 C 70.88229370117188 7.431066513061523 75.80186462402344 10.74804019927979 80.02691650390625 14.97309303283691 C 84.25196075439453 19.19813346862793 87.56893157958984 24.11771965026855 89.88570404052734 29.59518623352051 C 92.28397369384766 35.26533508300781 93.5 41.28937149047852 93.5 47.5 C 93.5 53.71062850952148 92.28397369384766 59.73468017578125 89.88570404052734 65.40481567382812 C 87.56893157958984 70.88229370117188 84.25196075439453 75.80186462402344 80.02691650390625 80.02691650390625 C 75.80186462402344 84.25196075439453 70.88229370117188 87.56893157958984 65.40481567382812 89.88570404052734 C 59.73468017578125 92.28397369384766 53.71062850952148 93.5 47.5 93.5 Z" stroke="none"/>
              <path d="M 47.5 3 C 41.49121475219727 3 35.66376876831055 4.176155090332031 30.17950439453125 6.495796203613281 C 24.88084411621094 8.736953735351562 20.12152099609375 11.94598388671875 16.03375244140625 16.03375244140625 C 11.94598388671875 20.12152099609375 8.736953735351562 24.88084411621094 6.495796203613281 30.17950439453125 C 4.176155090332031 35.66376876831055 3 41.49121475219727 3 47.5 C 3 53.50878524780273 4.176155090332031 59.33623123168945 6.495796203613281 64.82049560546875 C 8.736953735351562 70.11915588378906 11.94598388671875 74.87847900390625 16.03375244140625 78.96624755859375 C 20.12152099609375 83.05401611328125 24.88084411621094 86.26304626464844 30.17950439453125 88.50419616699219 C 35.66376876831055 90.82384490966797 41.49121475219727 92 47.5 92 C 53.50878524780273 92 59.33623123168945 90.82384490966797 64.82049560546875 88.50419616699219 C 70.11915588378906 86.26304626464844 74.87847900390625 83.05401611328125 78.96624755859375 78.96624755859375 C 83.05401611328125 74.87847900390625 86.26304626464844 70.11915588378906 88.50419616699219 64.82049560546875 C 90.82384490966797 59.33623123168945 92 53.50878524780273 92 47.5 C 92 41.49121475219727 90.82384490966797 35.66376876831055 88.50419616699219 30.17950439453125 C 86.26304626464844 24.88084411621094 83.05401611328125 20.12152099609375 78.96624755859375 16.03375244140625 C 74.87847900390625 11.94598388671875 70.11915588378906 8.736953735351562 64.82049560546875 6.495796203613281 C 59.33623123168945 4.176155090332031 53.50878524780273 3 47.5 3 M 47.5 0 C 73.7335205078125 0 95 21.2664794921875 95 47.5 C 95 73.7335205078125 73.7335205078125 95 47.5 95 C 21.2664794921875 95 0 73.7335205078125 0 47.5 C 0 21.2664794921875 21.2664794921875 0 47.5 0 Z" stroke="none" fill="#83793c"/>
            </g>
          </g>
        </g>
      </g>
    </g>
    <g id="interview_9185706" transform="translate(4.179 10.758)">
      <g id="Grupo_1178058" data-name="Grupo 1178058" transform="translate(16.09 7.499)">
        <g id="Grupo_1178053" data-name="Grupo 1178053" transform="translate(5.916 0)">
          <path id="Trazado_1036495" data-name="Trazado 1036495" d="M76.055,11.948,68.391,16.4l-.825-2.029-.816-.6a4.459,4.459,0,0,1,1.695-5.579h0a4.459,4.459,0,0,1,5.738.836,2.2,2.2,0,0,0,.011.906Z" transform="translate(-66.366 -7.5)" fill="#5e5d5d"/>
          <path id="Trazado_1036496" data-name="Trazado 1036496" d="M69.628,25.212a4.527,4.527,0,0,0,.305.571l1.336,2.057,7.664-4.448-1.46-2.37a4.4,4.4,0,0,0-.412-.552,12.906,12.906,0,0,0-7.1,4.323C69.848,24.931,69.736,25.071,69.628,25.212Z" transform="translate(-69.244 -18.944)" fill="#4f4d4d"/>
        </g>
        <path id="Trazado_1036497" data-name="Trazado 1036497" d="M239.467,436.229l-2.341-9.105h7.819l.041,8.107a.706.706,0,0,1-.706.706l-1.951.292Z" transform="translate(-211.116 -377.745)" fill="#ffd9c4"/>
        <path id="Trazado_1036498" data-name="Trazado 1036498" d="M36.219,436.229l2.341-9.105H30.3v8.4a.706.706,0,0,0,.706.706Z" transform="translate(-28.625 -377.745)" fill="#ffd9c4"/>
        <g id="Grupo_1178054" data-name="Grupo 1178054" transform="translate(33.517 30.787)">
          <path id="Trazado_1036499" data-name="Trazado 1036499" d="M321.674,269.343l-2.026-.218H302.584a1.662,1.662,0,0,0-1.662,1.662v14.932a1.662,1.662,0,0,0,1.662,1.662H306.6a.831.831,0,0,1,.831.831v2.831a.746.746,0,0,0,.746.746h0a.746.746,0,0,0,.481-.176l4.781-4.036a.831.831,0,0,1,.536-.2h5.538l2.342-.4a1.662,1.662,0,0,0,1.662-1.662L323.335,271A1.662,1.662,0,0,0,321.674,269.343Z" transform="translate(-300.922 -269.125)" fill="#fed059"/>
          <path id="Trazado_1036500" data-name="Trazado 1036500" d="M460.311,270.787v14.932a1.662,1.662,0,0,1-1.662,1.663H455.59a1.662,1.662,0,0,0,1.662-1.663V270.787a1.661,1.661,0,0,0-1.662-1.662h3.059A1.661,1.661,0,0,1,460.311,270.787Z" transform="translate(-437.39 -269.125)" fill="#ffbc50"/>
        </g>
        <g id="Grupo_1178055" data-name="Grupo 1178055" transform="translate(33.541 4.846)">
          <path id="Trazado_1036501" data-name="Trazado 1036501" d="M302.786,48.679h16.8l2.475.305a1.662,1.662,0,0,1,1.662,1.662v14.37a1.662,1.662,0,0,1-1.662,1.662l-2.475.256h-1.216a.831.831,0,0,0-.831.831V70.6a.746.746,0,0,1-.746.746h0a.746.746,0,0,1-.481-.176l-4.781-4.036a.831.831,0,0,0-.536-.2h-8.205a1.662,1.662,0,0,1-1.662-1.662V50.341A1.662,1.662,0,0,1,302.786,48.679Z" transform="translate(-301.124 -48.679)" fill="#fed059"/>
          <path id="Trazado_1036502" data-name="Trazado 1036502" d="M460.513,50.343V65.274a1.662,1.662,0,0,1-1.662,1.663h-3.06a1.662,1.662,0,0,0,1.662-1.663V50.343a1.661,1.661,0,0,0-1.662-1.662h3.06A1.661,1.661,0,0,1,460.513,50.343Z" transform="translate(-437.592 -48.681)" fill="#ffbc50"/>
        </g>
        <path id="Trazado_1036503" data-name="Trazado 1036503" d="M284.4,432.968v7.039a.706.706,0,0,1-.706.706h-2.354v-7.745l1.53-.762Z" transform="translate(-250.128 -382.229)" fill="#ffc2ab"/>
        <g id="Grupo_1178056" data-name="Grupo 1178056" transform="translate(20.34 0)">
          <path id="Trazado_1036504" data-name="Trazado 1036504" d="M188.939,11.948,196.6,16.4l.825-2.029.816-.6a4.459,4.459,0,0,0-1.695-5.579h0a4.459,4.459,0,0,0-5.738.836,2.2,2.2,0,0,1-.011.906Z" transform="translate(-188.939 -7.5)" fill="#5e5d5d"/>
          <path id="Trazado_1036505" data-name="Trazado 1036505" d="M198.246,25.212a4.537,4.537,0,0,1-.305.571l-1.336,2.057-7.664-4.448,1.46-2.37a4.394,4.394,0,0,1,.411-.552,12.906,12.906,0,0,1,7.1,4.323C198.025,24.931,198.137,25.071,198.246,25.212Z" transform="translate(-188.941 -18.944)" fill="#4f4d4d"/>
        </g>
        <path id="Trazado_1036506" data-name="Trazado 1036506" d="M89.865,75.695l.266-26.71a11.065,11.065,0,0,0-2.237-7.044h0c-2.011-2.4-4.461-4.015-7.595-4.015l-.58-.11-.833.359-.933-.359h-.521a10.586,10.586,0,0,0-8.124,3.8h0a10.638,10.638,0,0,0-2.473,6.819V51.5l.546.911-.546.888V75.918Z" transform="translate(-60.865 -34.25)" fill="#707070"/>
        <path id="Trazado_1036507" data-name="Trazado 1036507" d="M186.81,48.4v3.1l-.411.811.411.987V75.7l-3.6-4.908h0a33.24,33.24,0,0,1-.422-5.282V47.993a10.845,10.845,0,0,0-2.466-6.9,10.529,10.529,0,0,0-4.714-3.277h.613A10.585,10.585,0,0,1,186.81,48.4Z" transform="translate(-156.84 -34.252)" fill="#5e5d5d"/>
        <path id="Trazado_1036508" data-name="Trazado 1036508" d="M25.66,317.99l.671,4.492a10.452,10.452,0,0,1-.988,4.433,10.422,10.422,0,0,0-.99,4.433l-.671.845H17.271a1.179,1.179,0,0,1-1.154-1.417l1.09-5.3a9.115,9.115,0,0,1,6.5-6.949Z" transform="translate(-16.092 -281.453)" fill="#ff61a7"/>
        <path id="Trazado_1036509" data-name="Trazado 1036509" d="M133.173,255.774c-1.081,5.431-10.162,5.563-10.972,0l.357-.1a1.513,1.513,0,0,0,1.11-1.458v-1.809l.54-1.36-.54-2.659h8.038l-.372,2.393.372,1.572v1.863a1.513,1.513,0,0,0,1.11,1.458Z" transform="translate(-109.715 -220.043)" fill="#ffc2ab"/>
        <path id="Trazado_1036510" data-name="Trazado 1036510" d="M142.7,248.39v3.964a5.758,5.758,0,0,1-.9.654,5.619,5.619,0,0,1-6.246,0l-.9-.6V248.39Z" transform="translate(-120.708 -220.043)" fill="#ffaf9c"/>
        <path id="Trazado_1036511" data-name="Trazado 1036511" d="M240.708,331.873l-2.171.32h-3.75l-.988-1.021a10.452,10.452,0,0,0-.988-4.433,10.418,10.418,0,0,1-.988-4.433l.988-4.315,1.354.374.679.316a8.516,8.516,0,0,1,2.011.988,10.152,10.152,0,0,1,1.727,1.706,8.557,8.557,0,0,1,2.127,4.652l1.156,4.43A1.179,1.179,0,0,1,240.708,331.873Z" transform="translate(-206.435 -281.453)" fill="#ff61a7"/>
        <path id="Trazado_1036512" data-name="Trazado 1036512" d="M258.767,335h-3.06a1.178,1.178,0,0,0,1.165-1.36c0-.019-.006-.038-.009-.057l-1.091-5.3c-.362-1.764-1.474-4.792-2.756-6.058a9.1,9.1,0,0,0-1.285-1.057l.6.166a9.115,9.115,0,0,1,6.5,6.949l1.091,5.3A1.179,1.179,0,0,1,258.767,335Z" transform="translate(-224.002 -284.259)" fill="#f2499a"/>
        <path id="Trazado_1036513" data-name="Trazado 1036513" d="M72.1,152.189H70.174a3.336,3.336,0,0,1-3.336-3.336v-1.8a.941.941,0,0,1,.941-.941H72.1v6.076Z" transform="translate(-60.866 -129.802)" fill="#ffc2ab"/>
        <path id="Trazado_1036514" data-name="Trazado 1036514" d="M226.225,152.189h1.909a3.336,3.336,0,0,0,3.336-3.336v-1.8a.941.941,0,0,0-.941-.941h-4.3v6.076Z" transform="translate(-201.498 -129.802)" fill="#ffaf9c"/>
        <path id="Trazado_1036515" data-name="Trazado 1036515" d="M111.911,103.9l-.946.911-.6.4a3.264,3.264,0,0,1-3.63,0l-1.567-1.049a10.489,10.489,0,0,1-4.656-8.717V92.092a8.038,8.038,0,0,1,4.284-7.108l3.41-1.8a.735.735,0,0,1,.687,0l1.556.821,1.823,1.258c2.635,1.392,3.683,3.8,3.683,6.783V95.4C115.954,98.9,114.821,101.95,111.911,103.9Z" transform="translate(-90.577 -74.201)" fill="#ffd9c4"/>
        <path id="Trazado_1036516" data-name="Trazado 1036516" d="M191.1,98.888v3.352a10.49,10.49,0,0,1-4.656,8.717l-.966.647a14.913,14.913,0,0,0,2.68-8.688V98.758a10.935,10.935,0,0,0-3.2-7.958l1.855.98A8.04,8.04,0,0,1,191.1,98.888Z" transform="translate(-165.088 -80.998)" fill="#ffc2ab"/>
        <g id="Grupo_1178057" data-name="Grupo 1178057" transform="translate(7.59 35.731)">
          <path id="Trazado_1036517" data-name="Trazado 1036517" d="M101.352,325.127v8.767H80.591v-8.767a10.422,10.422,0,0,1,.99-4.433,10.452,10.452,0,0,0,.988-4.433v-4.315l2.918-.806a6.027,6.027,0,0,0,10.972,0l2.916.806v4.315a10.418,10.418,0,0,0,.988,4.433,10.453,10.453,0,0,1,.988,4.433Z" transform="translate(-80.591 -311.14)" fill="#ff7bae"/>
        </g>
        <path id="Trazado_1036518" data-name="Trazado 1036518" d="M158.781,340.464v6.117a1.545,1.545,0,1,1-3.09,0v-6.117a7.429,7.429,0,0,0,3.09,0Z" transform="translate(-139.264 -301.283)" fill="#ffc2ab"/>
      </g>
      <g id="Grupo_1178060" data-name="Grupo 1178060" transform="translate(16.09 7.499)">
        <path id="Trazado_1036519" data-name="Trazado 1036519" d="M67.983,15.845l-.951-1.506a4.458,4.458,0,0,1,1.389-6.15h0a4.458,4.458,0,0,1,6.15,1.389L75.4,10.9" transform="translate(-60.429 -7.499)" fill="none" stroke="#000" stroke-linecap="round" stroke-linejoin="round" stroke-miterlimit="10" stroke-width="1.3"/>
        <path id="Trazado_1036520" data-name="Trazado 1036520" d="M201.756,15.752l.892-1.413a4.458,4.458,0,0,0-1.389-6.15h0a4.458,4.458,0,0,0-6.15,1.389l-.832,1.318" transform="translate(-173.308 -7.499)" fill="none" stroke="#000" stroke-linecap="round" stroke-linejoin="round" stroke-miterlimit="10" stroke-width="1.3"/>
        <path id="Trazado_1036521" data-name="Trazado 1036521" d="M300.721,278.73V270.4a1.665,1.665,0,0,1,1.665-1.665h19.639a1.665,1.665,0,0,1,1.665,1.665v8.631" transform="translate(-267.227 -237.99)" fill="none" stroke="#000" stroke-linecap="round" stroke-linejoin="round" stroke-miterlimit="10" stroke-width="1.3"/>
        <path id="Trazado_1036522" data-name="Trazado 1036522" d="M344.275,391.23v2.212a1.666,1.666,0,0,1-1.665,1.666h-8.222a.84.84,0,0,0-.538.2l-4.79,4.044a.748.748,0,0,1-1.231-.571v-2.837a.832.832,0,0,0-.833-.832h-2.944" transform="translate(-287.812 -346.075)" fill="none" stroke="#000" stroke-linecap="round" stroke-linejoin="round" stroke-miterlimit="10" stroke-width="1.3"/>
        <path id="Trazado_1036523" data-name="Trazado 1036523" d="M308.9,48.28h13.129a1.666,1.666,0,0,1,1.665,1.665V64.909a1.666,1.666,0,0,1-1.665,1.665H318a.833.833,0,0,0-.833.833v2.836a.747.747,0,0,1-1.23.572l-4.792-4.044a.831.831,0,0,0-.537-.2h-8.223a1.666,1.666,0,0,1-1.665-1.665V49.945a1.666,1.666,0,0,1,1.665-1.665h2.391" transform="translate(-267.227 -43.481)" fill="none" stroke="#000" stroke-linecap="round" stroke-linejoin="round" stroke-miterlimit="10" stroke-width="1.3"/>
        <g id="Grupo_1178059" data-name="Grupo 1178059" transform="translate(42.501 8.533)">
          <path id="Trazado_1036524" data-name="Trazado 1036524" d="M377.261,82.492a2.511,2.511,0,0,1,.024-.346,2.478,2.478,0,1,1,2.454,2.823V87.56" transform="translate(-377.261 -80.014)" fill="none" stroke="#000" stroke-linecap="round" stroke-linejoin="round" stroke-miterlimit="10" stroke-width="1.3"/>
        </g>
        <line id="Línea_1020" data-name="Línea 1020" transform="translate(44.978 18.988)" fill="none" stroke="#000" stroke-linecap="round" stroke-linejoin="round" stroke-miterlimit="10" stroke-width="1.3"/>
        <line id="Línea_1021" data-name="Línea 1021" y1="4.854" transform="translate(5.972 32.8)" fill="none" stroke="#000" stroke-linecap="round" stroke-linejoin="round" stroke-miterlimit="10" stroke-width="1.3"/>
        <path id="Trazado_1036525" data-name="Trazado 1036525" d="M66.841,62.933V48.439a10.609,10.609,0,0,1,10.6-10.619h2.815A10.584,10.584,0,0,1,90.84,48.4V71.682" transform="translate(-60.869 -34.252)" fill="none" stroke="#000" stroke-linecap="round" stroke-linejoin="round" stroke-miterlimit="10" stroke-width="1.3"/>
        <line id="Línea_1022" data-name="Línea 1022" y1="7.392" transform="translate(1.671 51.092)" fill="none" stroke="#000" stroke-linecap="round" stroke-linejoin="round" stroke-miterlimit="10" stroke-width="1.3"/>
        <path id="Trazado_1036526" data-name="Trazado 1036526" d="M30.043,259.7v4.5a1.513,1.513,0,0,1-1.11,1.458L23.7,267.1a9.115,9.115,0,0,0-3.98,2.3h0a9.116,9.116,0,0,0-2.52,4.646l-1.09,5.3a1.179,1.179,0,0,0,1.155,1.417h6.265" transform="translate(-16.09 -230.022)" fill="none" stroke="#000" stroke-linecap="round" stroke-linejoin="round" stroke-miterlimit="10" stroke-width="1.3"/>
        <path id="Trazado_1036527" data-name="Trazado 1036527" d="M209.483,280.762h6.265a1.179,1.179,0,0,0,1.155-1.417l-1.09-5.3a9.116,9.116,0,0,0-2.52-4.646h0a9.116,9.116,0,0,0-3.98-2.3l-5.228-1.444a1.513,1.513,0,0,1-1.11-1.458v-4.5" transform="translate(-180.982 -230.022)" fill="none" stroke="#000" stroke-linecap="round" stroke-linejoin="round" stroke-miterlimit="10" stroke-width="1.3"/>
        <line id="Línea_1023" data-name="Línea 1023" y1="7.392" transform="translate(34.273 51.092)" fill="none" stroke="#000" stroke-linecap="round" stroke-linejoin="round" stroke-miterlimit="10" stroke-width="1.3"/>
        <line id="Línea_1024" data-name="Línea 1024" x2="3.232" transform="translate(6.248 16.311)" fill="none" stroke="#000" stroke-linecap="round" stroke-linejoin="round" stroke-miterlimit="10" stroke-width="1.3"/>
        <path id="Trazado_1036528" data-name="Trazado 1036528" d="M70.4,172.734h-.231a3.336,3.336,0,0,1-3.336-3.336" transform="translate(-60.865 -150.347)" fill="none" stroke="#000" stroke-linecap="round" stroke-linejoin="round" stroke-miterlimit="10" stroke-width="1.3"/>
        <line id="Línea_1025" data-name="Línea 1025" x1="3.109" transform="translate(26.51 16.311)" fill="none" stroke="#000" stroke-linecap="round" stroke-linejoin="round" stroke-miterlimit="10" stroke-width="1.3"/>
        <path id="Trazado_1036529" data-name="Trazado 1036529" d="M240.707,172.734h.2a3.336,3.336,0,0,0,3.336-3.336" transform="translate(-214.275 -150.347)" fill="none" stroke="#000" stroke-linecap="round" stroke-linejoin="round" stroke-miterlimit="10" stroke-width="1.3"/>
        <path id="Trazado_1036530" data-name="Trazado 1036530" d="M125.782,311.957h0a5.45,5.45,0,0,0,10.128,0h0" transform="translate(-112.874 -276.13)" fill="none" stroke="#000" stroke-linecap="round" stroke-linejoin="round" stroke-miterlimit="10" stroke-width="1.3"/>
        <path id="Trazado_1036531" data-name="Trazado 1036531" d="M110.569,103.138l-1.6,1.074a3.342,3.342,0,0,1-3.717,0l-1.6-1.074a10.74,10.74,0,0,1-4.767-8.926V90.271a6.875,6.875,0,0,1,3.721-6.109l3.968-2.048a1.18,1.18,0,0,1,1.082,0l3.968,2.048a6.875,6.875,0,0,1,3.721,6.109v3.942A10.74,10.74,0,0,1,110.569,103.138Z" transform="translate(-89.133 -73.217)" fill="none" stroke="#000" stroke-linecap="round" stroke-linejoin="round" stroke-miterlimit="10" stroke-width="1.3"/>
        <path id="Trazado_1036532" data-name="Trazado 1036532" d="M158.778,341.154v6.037a1.545,1.545,0,0,1-1.545,1.545h0a1.545,1.545,0,0,1-1.545-1.545v-6.037" transform="translate(-139.261 -301.891)" fill="none" stroke="#000" stroke-linecap="round" stroke-linejoin="round" stroke-miterlimit="10" stroke-width="1.3"/>
        <line id="Línea_1026" data-name="Línea 1026" y1="4.467" transform="translate(17.972 3.879)" fill="none" stroke="#000" stroke-linecap="round" stroke-linejoin="round" stroke-miterlimit="10" stroke-width="1.3"/>
        <path id="Trazado_1036533" data-name="Trazado 1036533" d="M82.573,318.874v4.212a10.427,10.427,0,0,1-.989,4.432h0a10.427,10.427,0,0,0-.989,4.432v8.767" transform="translate(-73.004 -282.233)" fill="none" stroke="#000" stroke-linecap="round" stroke-linejoin="round" stroke-miterlimit="10" stroke-width="1.3"/>
        <path id="Trazado_1036534" data-name="Trazado 1036534" d="M252.841,403.16c.094.292.174.588.241.887a10.429,10.429,0,0,1,.251,2.271v8.767" transform="translate(-224.981 -356.601)" fill="none" stroke="#000" stroke-linecap="round" stroke-linejoin="round" stroke-miterlimit="10" stroke-width="1.3"/>
        <path id="Trazado_1036535" data-name="Trazado 1036535" d="M240.221,318.87v4.212a10.3,10.3,0,0,0,.159,1.807" transform="translate(-213.846 -282.23)" fill="none" stroke="#000" stroke-linecap="round" stroke-linejoin="round" stroke-miterlimit="10" stroke-width="1.3"/>
        <line id="Línea_1027" data-name="Línea 1027" x2="10.737" transform="translate(39.61 37.733)" fill="none" stroke="#000" stroke-linecap="round" stroke-linejoin="round" stroke-miterlimit="10" stroke-width="1.3"/>
        <line id="Línea_1028" data-name="Línea 1028" x2="7.05" transform="translate(41.453 42.44)" fill="none" stroke="#000" stroke-linecap="round" stroke-linejoin="round" stroke-miterlimit="10" stroke-width="1.3"/>
      </g>
    </g>
  </g>
</svg>
