<svg xmlns="http://www.w3.org/2000/svg" xmlns:xlink="http://www.w3.org/1999/xlink" width="113" height="113" viewBox="0 0 113 113">
  <defs>
    <filter id="Trazado_982547" x="0" y="0" width="113" height="113" filterUnits="userSpaceOnUse">
      <feOffset dy="3" input="SourceAlpha"/>
      <feGaussianBlur stdDeviation="3" result="blur"/>
      <feFlood flood-opacity="0.161"/>
      <feComposite operator="in" in2="blur"/>
      <feComposite in="SourceGraphic"/>
    </filter>
  </defs>
  <g id="Grupo_1177984" data-name="Grupo 1177984" transform="translate(-323.5 -912)">
    <g id="Grupo_1177679" data-name="Grupo 1177679" transform="translate(332.5 918)">
      <g id="Grupo_1172010" data-name="Grupo 1172010">
        <g id="Grupo_1171046" data-name="Grupo 1171046">
          <g id="Grupo_1148525" data-name="Grupo 1148525">
            <g transform="matrix(1, 0, 0, 1, -9, -6)" filter="url(#Trazado_982547)">
              <g id="Trazado_982547-2" data-name="Trazado 982547" transform="translate(9 6)" fill="#fdfbec">
                <path d="M 47.5 93.5 C 41.28937149047852 93.5 35.26533508300781 92.28397369384766 29.59518623352051 89.88570404052734 C 24.11771965026855 87.56893157958984 19.19813346862793 84.25196075439453 14.97309303283691 80.02691650390625 C 10.74804019927979 75.80186462402344 7.431066513061523 70.88229370117188 5.114293098449707 65.40481567382812 C 2.716026782989502 59.73468017578125 1.5 53.71062850952148 1.5 47.5 C 1.5 41.28937149047852 2.716026782989502 35.26533508300781 5.114293098449707 29.59518623352051 C 7.431066513061523 24.11771965026855 10.74804019927979 19.19813346862793 14.97309303283691 14.97309303283691 C 19.19813346862793 10.74804019927979 24.11771965026855 7.431066513061523 29.59518623352051 5.114293098449707 C 35.26533508300781 2.716026782989502 41.28937149047852 1.5 47.5 1.5 C 53.71062850952148 1.5 59.73468017578125 2.716026782989502 65.40481567382812 5.114293098449707 C 70.88229370117188 7.431066513061523 75.80186462402344 10.74804019927979 80.02691650390625 14.97309303283691 C 84.25196075439453 19.19813346862793 87.56893157958984 24.11771965026855 89.88570404052734 29.59518623352051 C 92.28397369384766 35.26533508300781 93.5 41.28937149047852 93.5 47.5 C 93.5 53.71062850952148 92.28397369384766 59.73468017578125 89.88570404052734 65.40481567382812 C 87.56893157958984 70.88229370117188 84.25196075439453 75.80186462402344 80.02691650390625 80.02691650390625 C 75.80186462402344 84.25196075439453 70.88229370117188 87.56893157958984 65.40481567382812 89.88570404052734 C 59.73468017578125 92.28397369384766 53.71062850952148 93.5 47.5 93.5 Z" stroke="none"/>
                <path d="M 47.5 3 C 41.49121475219727 3 35.66376876831055 4.176155090332031 30.17950439453125 6.495796203613281 C 24.88084411621094 8.736953735351562 20.12152099609375 11.94598388671875 16.03375244140625 16.03375244140625 C 11.94598388671875 20.12152099609375 8.736953735351562 24.88084411621094 6.495796203613281 30.17950439453125 C 4.176155090332031 35.66376876831055 3 41.49121475219727 3 47.5 C 3 53.50878524780273 4.176155090332031 59.33623123168945 6.495796203613281 64.82049560546875 C 8.736953735351562 70.11915588378906 11.94598388671875 74.87847900390625 16.03375244140625 78.96624755859375 C 20.12152099609375 83.05401611328125 24.88084411621094 86.26304626464844 30.17950439453125 88.50419616699219 C 35.66376876831055 90.82384490966797 41.49121475219727 92 47.5 92 C 53.50878524780273 92 59.33623123168945 90.82384490966797 64.82049560546875 88.50419616699219 C 70.11915588378906 86.26304626464844 74.87847900390625 83.05401611328125 78.96624755859375 78.96624755859375 C 83.05401611328125 74.87847900390625 86.26304626464844 70.11915588378906 88.50419616699219 64.82049560546875 C 90.82384490966797 59.33623123168945 92 53.50878524780273 92 47.5 C 92 41.49121475219727 90.82384490966797 35.66376876831055 88.50419616699219 30.17950439453125 C 86.26304626464844 24.88084411621094 83.05401611328125 20.12152099609375 78.96624755859375 16.03375244140625 C 74.87847900390625 11.94598388671875 70.11915588378906 8.736953735351562 64.82049560546875 6.495796203613281 C 59.33623123168945 4.176155090332031 53.50878524780273 3 47.5 3 M 47.5 0 C 73.7335205078125 0 95 21.2664794921875 95 47.5 C 95 73.7335205078125 73.7335205078125 95 47.5 95 C 21.2664794921875 95 0 73.7335205078125 0 47.5 C 0 21.2664794921875 21.2664794921875 0 47.5 0 Z" stroke="none" fill="#83793c"/>
              </g>
            </g>
          </g>
        </g>
      </g>
    </g>
    <g id="study-group_8019826" transform="translate(350.311 935.823)">
      <g id="Grupo_1177949" data-name="Grupo 1177949" transform="translate(1.922 1.803)">
        <g id="Grupo_1177906" data-name="Grupo 1177906" transform="translate(14.564 14.295)">
          <path id="Trazado_1036043" data-name="Trazado 1036043" d="M18.26,17.84H44.665V51H18.26Z" transform="translate(-18.26 -17.84)" fill="#e2e2e2"/>
        </g>
        <g id="Grupo_1177909" data-name="Grupo 1177909" transform="translate(24.892 14.295)">
          <g id="Grupo_1177907" data-name="Grupo 1177907" transform="translate(0 0)" opacity="0.4">
            <path id="Trazado_1036044" data-name="Trazado 1036044" d="M45.868,40.322V17.84H29.79V33.381a7.164,7.164,0,0,0,7.166,7.166h5.276v-.224Z" transform="translate(-29.79 -17.84)" fill="#fff"/>
          </g>
          <g id="Grupo_1177908" data-name="Grupo 1177908" transform="translate(4.962 0)" opacity="0.5">
            <path id="Trazado_1036045" data-name="Trazado 1036045" d="M46.446,33.5V17.84H35.33a2.821,2.821,0,0,0,2.821,2.821h5.8V31.016A2.489,2.489,0,0,0,46.446,33.5Z" transform="translate(-35.33 -17.84)" fill="#fff"/>
          </g>
        </g>
        <g id="Grupo_1177910" data-name="Grupo 1177910" transform="translate(40.97 18.523)">
          <path id="Trazado_1036046" data-name="Trazado 1036046" d="M47.74,22.56H62.3v3.583H47.74Z" transform="translate(-47.74 -22.56)" fill="#4e6575"/>
        </g>
        <g id="Grupo_1177911" data-name="Grupo 1177911" transform="translate(0 18.523)">
          <path id="Trazado_1036047" data-name="Trazado 1036047" d="M2,22.56H16.564v3.583H2Z" transform="translate(-2 -22.56)" fill="#4e6575"/>
        </g>
        <g id="Grupo_1177912" data-name="Grupo 1177912" transform="translate(11.017 10.713)">
          <path id="Trazado_1036048" data-name="Trazado 1036048" d="M14.3,13.84H47.8v3.583H14.3Z" transform="translate(-14.3 -13.84)" fill="#4e6575"/>
        </g>
        <g id="Grupo_1177913" data-name="Grupo 1177913" transform="translate(40.97 22.106)">
          <path id="Trazado_1036049" data-name="Trazado 1036049" d="M47.74,26.56H58.766V51.909H47.74Z" transform="translate(-47.74 -26.56)" fill="#e2e2e2"/>
        </g>
        <g id="Grupo_1177914" data-name="Grupo 1177914" transform="translate(3.538 22.106)">
          <path id="Trazado_1036050" data-name="Trazado 1036050" d="M5.95,26.56H16.976V51.909H5.95Z" transform="translate(-5.95 -26.56)" fill="#e2e2e2"/>
        </g>
        <g id="Grupo_1177915" data-name="Grupo 1177915" transform="translate(24.865 37.467)">
          <path id="Trazado_1036051" data-name="Trazado 1036051" d="M29.76,43.71h5.8V53.7h-5.8Z" transform="translate(-29.76 -43.71)" fill="#4e6575"/>
        </g>
        <g id="Grupo_1177916" data-name="Grupo 1177916" transform="translate(27.767)">
          <path id="Trazado_1036052" data-name="Trazado 1036052" d="M33,1.88h6.1V7.451H33Z" transform="translate(-33 -1.88)" fill="#ef4a51"/>
        </g>
        <g id="Grupo_1177917" data-name="Grupo 1177917" transform="translate(8.402 44.902)">
          <path id="Trazado_1036053" data-name="Trazado 1036053" d="M13.727,52.888a3.946,3.946,0,0,1-2.347-.878v2.526a2.347,2.347,0,0,0,4.694,0V52.01a3.946,3.946,0,0,1-2.347.878Z" transform="translate(-11.38 -52.01)" fill="#ffb85c"/>
        </g>
        <g id="Grupo_1177918" data-name="Grupo 1177918" transform="translate(0 47.365)">
          <path id="Trazado_1036054" data-name="Trazado 1036054" d="M17.2,54.76H15.1v.063a2.347,2.347,0,0,1-4.694,0V54.76H8.3a6.294,6.294,0,0,0-6.3,6.3v2.087H23.5V61.057a6.294,6.294,0,0,0-6.3-6.3Z" transform="translate(-2 -54.76)" fill="#7cb5e8"/>
        </g>
        <g id="Grupo_1177919" data-name="Grupo 1177919" transform="translate(1.604 27.915)">
          <path id="Trazado_1036055" data-name="Trazado 1036055" d="M22.251,44.013a5.768,5.768,0,0,0-1.12-5.267,5.6,5.6,0,0,1-.663-.923c-3.01-5.088-7.184-4.774-7.184-4.774a6.669,6.669,0,0,0-5.858,3.466A12.537,12.537,0,0,1,5.68,38.71c-4.308,4.326.1,9.19.1,9.19,2.1,2.257,1.155,4.147.511,5a6.361,6.361,0,0,1,2.194-.4h2.1V50.032a3.868,3.868,0,0,0,2.347.878,3.925,3.925,0,0,0,2.347-.878V52.5h2.1a6.291,6.291,0,0,1,4.819,2.248c0-.188-.009-.367-.018-.546a7.087,7.087,0,0,0-1.039-2.965,5.011,5.011,0,0,1,.215-5.088,7.787,7.787,0,0,0,.887-2.132Z" transform="translate(-3.79 -33.046)" fill="#ef4a51"/>
        </g>
        <g id="Grupo_1177920" data-name="Grupo 1177920" transform="translate(43.128 45.851)">
          <path id="Trazado_1036056" data-name="Trazado 1036056" d="M52.694,53.67a5.631,5.631,0,0,1-2.544-.6v1.72a2.553,2.553,0,1,0,5.106,0V53.07A5.707,5.707,0,0,1,52.694,53.67Z" transform="translate(-50.15 -53.07)" fill="#ffab03"/>
        </g>
        <g id="Grupo_1177921" data-name="Grupo 1177921" transform="translate(43.352 45.851)" opacity="0.2">
          <path id="Trazado_1036057" data-name="Trazado 1036057" d="M50.4,53.169a4.038,4.038,0,0,0,3.825,2.777,4.124,4.124,0,0,0,.815-.081,2.553,2.553,0,0,0,.242-1.075V53.07a5.707,5.707,0,0,1-2.562.6,5.766,5.766,0,0,1-2.32-.5Z" transform="translate(-50.4 -53.07)" fill="#fff"/>
        </g>
        <g id="Grupo_1177922" data-name="Grupo 1177922" transform="translate(35.819 47.177)">
          <path id="Trazado_1036058" data-name="Trazado 1036058" d="M56.393,54.55H54.4v.331a2.6,2.6,0,0,1-2.024,2.571,2.561,2.561,0,0,1-3.09-2.5v-.394H47.3A5.312,5.312,0,0,0,41.99,59.87v3.18H61.7V59.87A5.3,5.3,0,0,0,56.393,54.55Z" transform="translate(-41.99 -54.55)" fill="#8aba55"/>
        </g>
        <g id="Grupo_1177923" data-name="Grupo 1177923" transform="translate(38.945 27.978)">
          <path id="Trazado_1036059" data-name="Trazado 1036059" d="M45.489,37.365s-.618-6.01,10.113-3.735a3.95,3.95,0,0,1,2.75,3.422s2.75,2.23.52,4.72c0,0,.054,2.956-.833,3.681,0,0,.26-2.436-.932-3.529,0,0-1.245-.726-1.093-1.765,0,0-6.171,1.451-8.554-.878l-1.98-1.451Z" transform="translate(-45.48 -33.116)" fill="#4e6575"/>
        </g>
        <g id="Grupo_1177924" data-name="Grupo 1177924" transform="translate(38.019 32.228)">
          <path id="Trazado_1036060" data-name="Trazado 1036060" d="M47.352,39.777l-1.98-1.451.009-.466c-2.544,3.628.9,8.088.9,8.088-.009-.036-.009-.081-.018-.116a3.663,3.663,0,0,1,.869-2.866A6.4,6.4,0,0,0,48.185,40.5l.107-.072a3.749,3.749,0,0,1-.94-.654Z" transform="translate(-44.445 -37.86)" fill="#5e7588"/>
        </g>
        <g id="Grupo_1177925" data-name="Grupo 1177925" transform="translate(39.922 34.798)">
          <path id="Trazado_1036061" data-name="Trazado 1036061" d="M57.211,42.718s-1.245-.726-1.093-1.756c0,0-4.846,1.138-7.614-.233L48.4,40.8a6.4,6.4,0,0,1-1.048,2.463,4.13,4.13,0,0,0-.779,1.5v1.863a5.75,5.75,0,0,0,11.42.976,4.4,4.4,0,0,0,.09-.976V44.608a3.166,3.166,0,0,0-.869-1.89Z" transform="translate(-46.57 -40.73)" fill="#ffab03"/>
        </g>
        <g id="Grupo_1177926" data-name="Grupo 1177926" transform="translate(5.034 33.879)">
          <path id="Trazado_1036062" data-name="Trazado 1036062" d="M17.849,42.128a12.539,12.539,0,0,0-3.78-.26,4.572,4.572,0,0,1-4.013-1.917.575.575,0,0,0-.9-.063,5.714,5.714,0,0,0-1.541,3.9c0,3.153,2.553,7.82,5.706,7.82s5.706-4.667,5.706-7.82v-.009A1.744,1.744,0,0,0,17.849,42.128Z" transform="translate(-7.62 -39.704)" fill="#ffb85c"/>
        </g>
        <g id="Grupo_1177927" data-name="Grupo 1177927" transform="translate(46.075 18.523)" opacity="0.1">
          <path id="Trazado_1036063" data-name="Trazado 1036063" d="M53.44,22.936a2.1,2.1,0,0,0,2.1,2.1H62.9V22.56H53.44Z" transform="translate(-53.44 -22.56)" fill="#e2e2e2"/>
        </g>
        <g id="Grupo_1177928" data-name="Grupo 1177928" transform="translate(5.043 18.523)" opacity="0.1">
          <path id="Trazado_1036064" data-name="Trazado 1036064" d="M7.63,22.936a2.1,2.1,0,0,0,2.1,2.1h7.363V22.56H7.63Z" transform="translate(-7.63 -22.56)" fill="#e2e2e2"/>
        </g>
        <g id="Grupo_1177929" data-name="Grupo 1177929" transform="translate(26.101 10.704)" opacity="0.1">
          <path id="Trazado_1036065" data-name="Trazado 1036065" d="M31.14,14.206a2.1,2.1,0,0,0,2.1,2.1h16.32V13.83H31.14Z" transform="translate(-31.14 -13.83)" fill="#e2e2e2"/>
        </g>
        <g id="Grupo_1177930" data-name="Grupo 1177930" transform="translate(29.478 0.009)" opacity="0.2">
          <path id="Trazado_1036066" data-name="Trazado 1036066" d="M34.91,2.553a3.723,3.723,0,0,0,3.726,3.726H39.3V1.89H34.91Z" transform="translate(-34.91 -1.89)" fill="#e2e2e2"/>
        </g>
        <g id="Grupo_1177931" data-name="Grupo 1177931" transform="translate(46.953 47.177)" opacity="0.2">
          <path id="Trazado_1036067" data-name="Trazado 1036067" d="M57.689,54.55H55.7v.331a2.651,2.651,0,0,1-1.281,2.275v.475A3.582,3.582,0,0,0,58,61.214h5V59.862A5.306,5.306,0,0,0,57.689,54.55Z" transform="translate(-54.42 -54.55)" fill="#fff"/>
        </g>
        <g id="Grupo_1177932" data-name="Grupo 1177932" transform="translate(8.554 44.911)" opacity="0.2">
          <path id="Trazado_1036068" data-name="Trazado 1036068" d="M11.55,52.11a3.367,3.367,0,0,0,3.359,3.278,3.563,3.563,0,0,0,1.075-.188,2.272,2.272,0,0,0,.107-.654V52.02a3.868,3.868,0,0,1-2.347.878,3.906,3.906,0,0,1-2.194-.788Z" transform="translate(-11.55 -52.02)" fill="#fff"/>
        </g>
        <g id="Grupo_1177933" data-name="Grupo 1177933" transform="translate(11.958 47.365)" opacity="0.2">
          <path id="Trazado_1036069" data-name="Trazado 1036069" d="M18.592,54.76h-2.1v.063a2.318,2.318,0,0,1-1.138,2v1.1A3.582,3.582,0,0,0,18.933,61.5h5.956v-.448a6.294,6.294,0,0,0-6.3-6.3Z" transform="translate(-15.35 -54.76)" fill="#fff"/>
        </g>
        <g id="Grupo_1177946" data-name="Grupo 1177946" transform="translate(18.147 17.869)">
          <g id="Grupo_1177934" data-name="Grupo 1177934" transform="translate(0 0.009)">
            <path id="Trazado_1036070" data-name="Trazado 1036070" d="M22.26,21.84h4.022V27.16H22.26Z" transform="translate(-22.26 -21.84)" fill="#7cb5e8"/>
          </g>
          <g id="Grupo_1177935" data-name="Grupo 1177935" transform="translate(7.605 0.009)">
            <path id="Trazado_1036071" data-name="Trazado 1036071" d="M30.75,21.84h4.022V27.16H30.75Z" transform="translate(-30.75 -21.84)" fill="#7cb5e8"/>
          </g>
          <g id="Grupo_1177936" data-name="Grupo 1177936" transform="translate(15.218 0.009)">
            <path id="Trazado_1036072" data-name="Trazado 1036072" d="M39.25,21.84h4.022V27.16H39.25Z" transform="translate(-39.25 -21.84)" fill="#7cb5e8"/>
          </g>
          <g id="Grupo_1177937" data-name="Grupo 1177937" transform="translate(0 8.903)">
            <path id="Trazado_1036073" data-name="Trazado 1036073" d="M22.26,31.77h4.022V37.09H22.26Z" transform="translate(-22.26 -31.77)" fill="#7cb5e8"/>
          </g>
          <g id="Grupo_1177938" data-name="Grupo 1177938" transform="translate(7.605 8.903)">
            <path id="Trazado_1036074" data-name="Trazado 1036074" d="M30.75,31.77h4.022V37.09H30.75Z" transform="translate(-30.75 -31.77)" fill="#7cb5e8"/>
          </g>
          <g id="Grupo_1177939" data-name="Grupo 1177939" transform="translate(15.218 8.903)">
            <path id="Trazado_1036075" data-name="Trazado 1036075" d="M39.25,31.77h4.022V37.09H39.25Z" transform="translate(-39.25 -31.77)" fill="#7cb5e8"/>
          </g>
          <g id="Grupo_1177940" data-name="Grupo 1177940" transform="translate(16.069)" opacity="0.2">
            <path id="Trazado_1036076" data-name="Trazado 1036076" d="M40.2,22.314A2.684,2.684,0,0,0,42.887,25h.484V21.83H40.2Z" transform="translate(-40.2 -21.83)" fill="#fff"/>
          </g>
          <g id="Grupo_1177941" data-name="Grupo 1177941" transform="translate(8.464)" opacity="0.2">
            <path id="Trazado_1036077" data-name="Trazado 1036077" d="M31.71,22.314A2.684,2.684,0,0,0,34.4,25h.484V21.83H31.71Z" transform="translate(-31.71 -21.83)" fill="#fff"/>
          </g>
          <g id="Grupo_1177942" data-name="Grupo 1177942" transform="translate(0.86)" opacity="0.2">
            <path id="Trazado_1036078" data-name="Trazado 1036078" d="M23.22,22.314A2.684,2.684,0,0,0,25.907,25h.484V21.83H23.22Z" transform="translate(-23.22 -21.83)" fill="#fff"/>
          </g>
          <g id="Grupo_1177943" data-name="Grupo 1177943" transform="translate(16.069 8.903)" opacity="0.2">
            <path id="Trazado_1036079" data-name="Trazado 1036079" d="M40.2,32.254a2.684,2.684,0,0,0,2.687,2.687h.484V31.77H40.2Z" transform="translate(-40.2 -31.77)" fill="#fff"/>
          </g>
          <g id="Grupo_1177944" data-name="Grupo 1177944" transform="translate(8.464 8.903)" opacity="0.2">
            <path id="Trazado_1036080" data-name="Trazado 1036080" d="M31.71,32.254A2.684,2.684,0,0,0,34.4,34.941h.484V31.77H31.71Z" transform="translate(-31.71 -31.77)" fill="#fff"/>
          </g>
          <g id="Grupo_1177945" data-name="Grupo 1177945" transform="translate(0.86 8.903)" opacity="0.2">
            <path id="Trazado_1036081" data-name="Trazado 1036081" d="M23.22,32.254a2.684,2.684,0,0,0,2.687,2.687h.484V31.77H23.22Z" transform="translate(-23.22 -31.77)" fill="#fff"/>
          </g>
        </g>
        <g id="Grupo_1177947" data-name="Grupo 1177947" transform="translate(7.828 27.924)" opacity="0.2">
          <path id="Trazado_1036082" data-name="Trazado 1036082" d="M21.856,38.756a5.6,5.6,0,0,1-.663-.923c-3.01-5.088-7.184-4.774-7.184-4.774a5.878,5.878,0,0,0-3.269.833A8.152,8.152,0,0,0,22.626,39.93a5.884,5.884,0,0,0-.77-1.173Z" transform="translate(-10.74 -33.056)" fill="#e2e2e2"/>
        </g>
        <g id="Grupo_1177948" data-name="Grupo 1177948" transform="translate(40.495 27.977)" opacity="0.1">
          <path id="Trazado_1036083" data-name="Trazado 1036083" d="M58.523,37.052a3.95,3.95,0,0,0-2.75-3.422c-4.694-.994-7.219-.412-8.563.573a8.166,8.166,0,0,0,12.056,3.672,4.477,4.477,0,0,0-.743-.824Z" transform="translate(-47.21 -33.114)" fill="#e2e2e2"/>
        </g>
      </g>
      <g id="Grupo_1177983" data-name="Grupo 1177983" transform="translate(1.25 1.14)">
        <g id="Grupo_1177950" data-name="Grupo 1177950" transform="translate(11.017 10.704)">
          <path id="Trazado_1036084" data-name="Trazado 1036084" d="M47.721,18.016h-33.5a.677.677,0,0,1-.672-.672V13.762a.677.677,0,0,1,.672-.672h33.5a.677.677,0,0,1,.672.672v3.583A.671.671,0,0,1,47.721,18.016ZM14.894,16.673H47.058V14.434H14.894Z" transform="translate(-13.55 -13.09)"/>
        </g>
        <g id="Grupo_1177951" data-name="Grupo 1177951" transform="translate(24.865 37.458)">
          <path id="Trazado_1036085" data-name="Trazado 1036085" d="M35.477,54.291h-5.8a.677.677,0,0,1-.672-.672V43.632a.677.677,0,0,1,.672-.672h5.8a.677.677,0,0,1,.672.672v9.987A.671.671,0,0,1,35.477,54.291Zm-5.123-1.344h4.452V44.3H30.354Z" transform="translate(-29.01 -42.96)"/>
        </g>
        <g id="Grupo_1177952" data-name="Grupo 1177952" transform="translate(18.147 17.86)">
          <path id="Trazado_1036086" data-name="Trazado 1036086" d="M26.2,27.744H22.182a.677.677,0,0,1-.672-.672V21.752a.677.677,0,0,1,.672-.672H26.2a.677.677,0,0,1,.672.672v5.321A.665.665,0,0,1,26.2,27.744ZM22.854,26.4h2.678V22.424H22.854Z" transform="translate(-21.51 -21.08)"/>
        </g>
        <g id="Grupo_1177953" data-name="Grupo 1177953" transform="translate(25.761 17.86)">
          <path id="Trazado_1036087" data-name="Trazado 1036087" d="M34.7,27.744H30.682a.677.677,0,0,1-.672-.672V21.752a.677.677,0,0,1,.672-.672H34.7a.677.677,0,0,1,.672.672v5.321A.671.671,0,0,1,34.7,27.744ZM31.345,26.4h2.678V22.424H31.345Z" transform="translate(-30.01 -21.08)"/>
        </g>
        <g id="Grupo_1177954" data-name="Grupo 1177954" transform="translate(33.365 17.86)">
          <path id="Trazado_1036088" data-name="Trazado 1036088" d="M43.194,27.744H39.172a.677.677,0,0,1-.672-.672V21.752a.677.677,0,0,1,.672-.672h4.022a.677.677,0,0,1,.672.672v5.321A.671.671,0,0,1,43.194,27.744ZM39.844,26.4h2.678V22.424H39.844Z" transform="translate(-38.5 -21.08)"/>
        </g>
        <g id="Grupo_1177955" data-name="Grupo 1177955" transform="translate(25.761 26.764)">
          <path id="Trazado_1036089" data-name="Trazado 1036089" d="M34.7,37.684H30.682a.677.677,0,0,1-.672-.672V31.692a.677.677,0,0,1,.672-.672H34.7a.677.677,0,0,1,.672.672v5.321A.677.677,0,0,1,34.7,37.684ZM31.345,36.34h2.678V32.364H31.345Z" transform="translate(-30.01 -31.02)"/>
        </g>
        <g id="Grupo_1177956" data-name="Grupo 1177956" transform="translate(27.767)">
          <path id="Trazado_1036090" data-name="Trazado 1036090" d="M32.922,13.187a.677.677,0,0,1-.672-.672V1.812a.672.672,0,1,1,1.344,0v10.7A.677.677,0,0,1,32.922,13.187Z" transform="translate(-32.25 -1.14)"/>
        </g>
        <g id="Grupo_1177957" data-name="Grupo 1177957" transform="translate(27.767)">
          <path id="Trazado_1036091" data-name="Trazado 1036091" d="M39.022,8.046h-6.1a.677.677,0,0,1-.672-.672V1.812a.677.677,0,0,1,.672-.672h6.1a.677.677,0,0,1,.672.672V7.374A.665.665,0,0,1,39.022,8.046ZM33.594,6.7H38.35V2.484H33.594Z" transform="translate(-32.25 -1.14)"/>
        </g>
        <g id="Grupo_1177958" data-name="Grupo 1177958" transform="translate(5.043 33.872)">
          <path id="Trazado_1036092" data-name="Trazado 1036092" d="M13.257,52.2c-3.637,0-6.377-5.15-6.377-8.491A6.339,6.339,0,0,1,8.6,39.354a1.248,1.248,0,0,1,1.935.134,3.96,3.96,0,0,0,3.457,1.63,13.1,13.1,0,0,1,4,.3,2.428,2.428,0,0,1,1.639,2.284c0,3.341-2.741,8.491-6.377,8.491ZM9.5,40.357a5.011,5.011,0,0,0-1.281,3.35c0,2.759,2.3,7.148,5.034,7.148s5.034-4.389,5.034-7.148a1.1,1.1,0,0,0-.743-1.021,12.49,12.49,0,0,0-3.556-.224h-.045a5.2,5.2,0,0,1-4.443-2.1Z" transform="translate(-6.88 -38.956)"/>
        </g>
        <g id="Grupo_1177959" data-name="Grupo 1177959" transform="translate(13.095 44.893)">
          <path id="Trazado_1036093" data-name="Trazado 1036093" d="M16.542,55.129a.677.677,0,0,1-.672-.672V51.932a.672.672,0,0,1,1.344,0v2.526A.677.677,0,0,1,16.542,55.129Z" transform="translate(-15.87 -51.26)"/>
        </g>
        <g id="Grupo_1177960" data-name="Grupo 1177960" transform="translate(8.402 44.893)">
          <path id="Trazado_1036094" data-name="Trazado 1036094" d="M11.3,55.129a.677.677,0,0,1-.672-.672V51.932a.672.672,0,0,1,1.344,0v2.526A.677.677,0,0,1,11.3,55.129Z" transform="translate(-10.63 -51.26)"/>
        </g>
        <g id="Grupo_1177961" data-name="Grupo 1177961" transform="translate(0 47.347)">
          <path id="Trazado_1036095" data-name="Trazado 1036095" d="M23.419,63.727a.677.677,0,0,1-.672-.672V60.969a5.635,5.635,0,0,0-5.625-5.625h-1.5a3.012,3.012,0,0,1-5.9,0h-1.5a5.635,5.635,0,0,0-5.625,5.625v2.087a.672.672,0,0,1-1.344,0V60.969A6.976,6.976,0,0,1,8.219,54h2.1a.677.677,0,0,1,.672.672,1.676,1.676,0,1,0,3.35.063A.734.734,0,0,1,15.017,54h2.1a6.976,6.976,0,0,1,6.969,6.969v2.087A.671.671,0,0,1,23.419,63.727Z" transform="translate(-1.25 -54)"/>
        </g>
        <g id="Grupo_1177962" data-name="Grupo 1177962" transform="translate(8.76 38.381)">
          <circle id="Elipse_12486" data-name="Elipse 12486" cx="0.663" cy="0.663" r="0.663" transform="translate(0)"/>
        </g>
        <g id="Grupo_1177963" data-name="Grupo 1177963" transform="translate(12.397 38.381)">
          <circle id="Elipse_12487" data-name="Elipse 12487" cx="0.663" cy="0.663" r="0.663" transform="translate(0)"/>
        </g>
        <g id="Grupo_1177964" data-name="Grupo 1177964" transform="translate(9.353 41.903)">
          <path id="Trazado_1036096" data-name="Trazado 1036096" d="M13.759,49.837a2.66,2.66,0,0,1-1.872-.77.671.671,0,1,1,.949-.949,1.292,1.292,0,0,0,1.836,0,.671.671,0,1,1,.949.949A2.6,2.6,0,0,1,13.759,49.837Z" transform="translate(-11.692 -47.922)"/>
        </g>
        <g id="Grupo_1177965" data-name="Grupo 1177965" transform="translate(43.128 45.851)">
          <path id="Trazado_1036097" data-name="Trazado 1036097" d="M52.625,57.946A3.234,3.234,0,0,1,49.4,54.722V53a.672.672,0,1,1,1.344,0v1.72a1.881,1.881,0,0,0,3.762,0V53a.672.672,0,0,1,1.344,0v1.72A3.234,3.234,0,0,1,52.625,57.946Z" transform="translate(-49.4 -52.33)"/>
        </g>
        <g id="Grupo_1177966" data-name="Grupo 1177966" transform="translate(44.39 42.868)">
          <path id="Trazado_1036098" data-name="Trazado 1036098" d="M52.772,50.747a3.061,3.061,0,0,1-1.648-.511.659.659,0,0,1-.206-.923.668.668,0,0,1,.932-.206,1.6,1.6,0,0,0,1.872,0,.669.669,0,0,1,.923.215.662.662,0,0,1-.215.923A3.18,3.18,0,0,1,52.772,50.747Z" transform="translate(-50.809 -48.999)"/>
        </g>
        <g id="Grupo_1177967" data-name="Grupo 1177967" transform="translate(43.361 39.259)">
          <circle id="Elipse_12488" data-name="Elipse 12488" cx="0.734" cy="0.734" r="0.734"/>
        </g>
        <g id="Grupo_1177968" data-name="Grupo 1177968" transform="translate(47.876 39.259)">
          <circle id="Elipse_12489" data-name="Elipse 12489" cx="0.734" cy="0.734" r="0.734"/>
        </g>
        <g id="Grupo_1177969" data-name="Grupo 1177969" transform="translate(38.944 27.97)">
          <path id="Trazado_1036099" data-name="Trazado 1036099" d="M57.951,46.047a.666.666,0,0,1-.52-.242.679.679,0,0,1,.09-.949c.367-.3.609-1.908.582-3.153a.7.7,0,0,1,.17-.457,2.314,2.314,0,0,0,.7-1.738A3.39,3.39,0,0,0,57.834,37.5a.7.7,0,0,1-.242-.457,3.276,3.276,0,0,0-2.257-2.839c-4.98-1.057-7.237-.224-8.249.672a2.987,2.987,0,0,0-1.012,2.347.672.672,0,0,1-.6.734.683.683,0,0,1-.734-.6,4.341,4.341,0,0,1,1.433-3.466c1.791-1.612,4.989-1.953,9.486-.994A4.59,4.59,0,0,1,58.9,36.651a4.536,4.536,0,0,1,1.415,2.741,3.5,3.5,0,0,1-.86,2.544c0,.976-.125,3.171-1.075,3.95a.659.659,0,0,1-.43.161Z" transform="translate(-44.729 -32.366)"/>
        </g>
        <g id="Grupo_1177970" data-name="Grupo 1177970" transform="translate(38.013 32.218)">
          <path id="Trazado_1036100" data-name="Trazado 1036100" d="M46.207,46.542a.649.649,0,0,1-.528-.26c-.152-.2-3.717-4.9-.923-8.885a.654.654,0,0,1,.752-.251.683.683,0,0,1,.466.645v.116l1.7,1.245a.449.449,0,0,1,.072.063,3.15,3.15,0,0,0,.77.528.647.647,0,0,1,.367.555.668.668,0,0,1-.287.6l-.107.072a.664.664,0,0,1-.932-.17.363.363,0,0,1-.045-.081,4.409,4.409,0,0,1-.672-.511l-1.5-1.093c-.958,2.49.636,5.222,1.209,6.073a.651.651,0,0,1,.3.457l.018.1a.679.679,0,0,1-.385.734.824.824,0,0,1-.278.063Z" transform="translate(-43.69 -37.109)"/>
        </g>
        <g id="Grupo_1177971" data-name="Grupo 1177971" transform="translate(39.922 34.782)">
          <path id="Trazado_1036101" data-name="Trazado 1036101" d="M52.242,52.976a6.437,6.437,0,0,1-6.422-6.44V44.673a.621.621,0,0,1,.027-.179,4.829,4.829,0,0,1,.9-1.738,5.683,5.683,0,0,0,.914-2.168.677.677,0,0,1,.278-.43l.107-.072a.684.684,0,0,1,.681-.045c2.517,1.245,7.112.188,7.157.179a.661.661,0,0,1,.609.161.7.7,0,0,1,.215.591c-.072.466.546.949.761,1.084.036.027.081.054.116.081a3.812,3.812,0,0,1,1.084,2.275.436.436,0,0,1,.009.107v2.015a5.372,5.372,0,0,1-.107,1.111,6.387,6.387,0,0,1-6.333,5.329Zm-5.079-8.2v1.765a5.079,5.079,0,0,0,10.086.869,3.821,3.821,0,0,0,.081-.869V44.574a2.691,2.691,0,0,0-.618-1.406,3.03,3.03,0,0,1-1.254-1.5A14.671,14.671,0,0,1,48.8,41.52,6.239,6.239,0,0,1,47.791,43.6a3.929,3.929,0,0,0-.627,1.173Z" transform="translate(-45.82 -39.972)"/>
        </g>
        <g id="Grupo_1177972" data-name="Grupo 1177972" transform="translate(40.97 22.097)">
          <path id="Trazado_1036102" data-name="Trazado 1036102" d="M58.688,32.116a.677.677,0,0,1-.672-.672v-4.29H47.662a.672.672,0,0,1,0-1.344H58.688a.677.677,0,0,1,.672.672v4.962A.671.671,0,0,1,58.688,32.116Z" transform="translate(-46.99 -25.81)"/>
        </g>
        <g id="Grupo_1177973" data-name="Grupo 1177973" transform="translate(33.356 26.764)">
          <path id="Trazado_1036103" data-name="Trazado 1036103" d="M41.759,37.684h-2.6a.677.677,0,0,1-.672-.672V31.692a.677.677,0,0,1,.672-.672h4.022a.677.677,0,0,1,.672.672v1.666a.672.672,0,0,1-1.344,0v-.994H39.843V36.34h1.926a.672.672,0,1,1-.009,1.344Z" transform="translate(-38.49 -31.02)"/>
        </g>
        <g id="Grupo_1177974" data-name="Grupo 1177974" transform="translate(18.147 26.764)">
          <path id="Trazado_1036104" data-name="Trazado 1036104" d="M26.2,37.684h-1a.672.672,0,0,1,0-1.344h.331V32.364H22.854v.806a.672.672,0,0,1-1.344,0V31.692a.677.677,0,0,1,.672-.672H26.2a.677.677,0,0,1,.672.672v5.321a.671.671,0,0,1-.672.672Z" transform="translate(-21.51 -31.02)"/>
        </g>
        <g id="Grupo_1177975" data-name="Grupo 1177975" transform="translate(3.538 22.097)">
          <path id="Trazado_1036105" data-name="Trazado 1036105" d="M5.872,34.185a.677.677,0,0,1-.672-.672V26.482a.677.677,0,0,1,.672-.672H16.9a.672.672,0,0,1,0,1.344H6.544v6.36A.671.671,0,0,1,5.872,34.185Z" transform="translate(-5.2 -25.81)"/>
        </g>
        <g id="Grupo_1177976" data-name="Grupo 1177976" transform="translate(0 18.514)">
          <path id="Trazado_1036106" data-name="Trazado 1036106" d="M5.46,26.736H1.922a.677.677,0,0,1-.672-.672V22.482a.677.677,0,0,1,.672-.672H13.8a.672.672,0,0,1,0,1.344H2.594v2.239H5.46a.672.672,0,0,1,0,1.344Z" transform="translate(-1.25 -21.81)"/>
        </g>
        <g id="Grupo_1177977" data-name="Grupo 1177977" transform="translate(43.657 18.514)">
          <path id="Trazado_1036107" data-name="Trazado 1036107" d="M62.539,26.736H59a.672.672,0,0,1,0-1.344h2.866V23.154H50.662a.672.672,0,0,1,0-1.344H62.539a.677.677,0,0,1,.672.672v3.583A.677.677,0,0,1,62.539,26.736Z" transform="translate(-49.99 -21.81)"/>
        </g>
        <g id="Grupo_1177978" data-name="Grupo 1177978" transform="translate(14.564 14.287)">
          <path id="Trazado_1036108" data-name="Trazado 1036108" d="M18.182,30.06a.677.677,0,0,1-.672-.672V17.762a.677.677,0,0,1,.672-.672H44.587a.677.677,0,0,1,.672.672V29.316a.672.672,0,1,1-1.344,0V18.434H18.854V29.388a.677.677,0,0,1-.672.672Z" transform="translate(-17.51 -17.09)"/>
        </g>
        <g id="Grupo_1177979" data-name="Grupo 1177979" transform="translate(22.429 47.446)">
          <path id="Trazado_1036109" data-name="Trazado 1036109" d="M39.457,55.454h-12.5a.672.672,0,0,1,0-1.344h12.5a.672.672,0,1,1,0,1.344Z" transform="translate(-26.29 -54.11)"/>
        </g>
        <g id="Grupo_1177980" data-name="Grupo 1177980" transform="translate(1.595 27.924)">
          <path id="Trazado_1036110" data-name="Trazado 1036110" d="M20.729,51.085a.686.686,0,0,1-.636-.439,5.86,5.86,0,0,1,.618-4.917,7.116,7.116,0,0,0,.806-1.944,5.032,5.032,0,0,0-.976-4.667,6.859,6.859,0,0,1-.734-1.021c-2.741-4.631-6.4-4.461-6.557-4.443a6.018,6.018,0,0,0-5.338,3.153,13.184,13.184,0,0,1-1.836,2.311c-3.816,3.825-.045,8.079.116,8.258a5.359,5.359,0,0,1,1.344,2.338.673.673,0,0,1-1.308.322A4.029,4.029,0,0,0,5.2,48.29c-1.684-1.854-3.852-6.342-.081-10.113A11.519,11.519,0,0,0,6.765,36.1a7.4,7.4,0,0,1,6.449-3.78c.116-.009,4.55-.278,7.739,5.106a5.79,5.79,0,0,0,.591.824,6.44,6.44,0,0,1,1.263,5.858,8.473,8.473,0,0,1-.949,2.3,4.572,4.572,0,0,0-.511,3.78.671.671,0,0,1-.4.86A.83.83,0,0,1,20.729,51.085Z" transform="translate(-3.031 -32.315)"/>
        </g>
        <g id="Grupo_1177981" data-name="Grupo 1177981" transform="translate(50.916 47.208)">
          <path id="Trazado_1036111" data-name="Trazado 1036111" d="M63.384,63.631a.677.677,0,0,1-.672-.672v-3.18a4.644,4.644,0,0,0-4.031-4.595.673.673,0,1,1,.17-1.335,5.993,5.993,0,0,1,5.2,5.921v3.18a.66.66,0,0,1-.663.681Z" transform="translate(-58.094 -53.844)"/>
        </g>
        <g id="Grupo_1177982" data-name="Grupo 1177982" transform="translate(35.828 47.215)">
          <path id="Trazado_1036112" data-name="Trazado 1036112" d="M41.922,63.631a.677.677,0,0,1-.672-.672V59.78a5.979,5.979,0,0,1,5.2-5.921.673.673,0,1,1,.17,1.335,4.652,4.652,0,0,0-4.031,4.595v3.18a.656.656,0,0,1-.663.663Z" transform="translate(-41.25 -53.852)"/>
        </g>
      </g>
    </g>
  </g>
</svg>
