<svg xmlns="http://www.w3.org/2000/svg" xmlns:xlink="http://www.w3.org/1999/xlink" width="113" height="113" viewBox="0 0 113 113">
  <defs>
    <filter id="Trazado_982547" x="0" y="0" width="113" height="113" filterUnits="userSpaceOnUse">
      <feOffset dy="3" input="SourceAlpha"/>
      <feGaussianBlur stdDeviation="3" result="blur"/>
      <feFlood flood-opacity="0.161"/>
      <feComposite operator="in" in2="blur"/>
      <feComposite in="SourceGraphic"/>
    </filter>
  </defs>
  <g id="Grupo_1178015" data-name="Grupo 1178015" transform="translate(-272.289 -1275.921)">
    <g id="Grupo_1177780" data-name="Grupo 1177780" transform="translate(281.289 1281.921)">
      <g id="Grupo_1172010" data-name="Grupo 1172010" transform="translate(0)">
        <g id="Grupo_1171046" data-name="Grupo 1171046">
          <g id="Grupo_1148525" data-name="Grupo 1148525">
            <g transform="matrix(1, 0, 0, 1, -9, -6)" filter="url(#Trazado_982547)">
              <g id="Trazado_982547-2" data-name="Trazado 982547" transform="translate(9 6)" fill="#fdfbec">
                <path d="M 47.5 93.5 C 41.28937149047852 93.5 35.26533508300781 92.28397369384766 29.59518623352051 89.88570404052734 C 24.11771965026855 87.56893157958984 19.19813346862793 84.25196075439453 14.97309303283691 80.02691650390625 C 10.74804019927979 75.80186462402344 7.431066513061523 70.88229370117188 5.114293098449707 65.40481567382812 C 2.716026782989502 59.73468017578125 1.5 53.71062850952148 1.5 47.5 C 1.5 41.28937149047852 2.716026782989502 35.26533508300781 5.114293098449707 29.59518623352051 C 7.431066513061523 24.11771965026855 10.74804019927979 19.19813346862793 14.97309303283691 14.97309303283691 C 19.19813346862793 10.74804019927979 24.11771965026855 7.431066513061523 29.59518623352051 5.114293098449707 C 35.26533508300781 2.716026782989502 41.28937149047852 1.5 47.5 1.5 C 53.71062850952148 1.5 59.73468017578125 2.716026782989502 65.40481567382812 5.114293098449707 C 70.88229370117188 7.431066513061523 75.80186462402344 10.74804019927979 80.02691650390625 14.97309303283691 C 84.25196075439453 19.19813346862793 87.56893157958984 24.11771965026855 89.88570404052734 29.59518623352051 C 92.28397369384766 35.26533508300781 93.5 41.28937149047852 93.5 47.5 C 93.5 53.71062850952148 92.28397369384766 59.73468017578125 89.88570404052734 65.40481567382812 C 87.56893157958984 70.88229370117188 84.25196075439453 75.80186462402344 80.02691650390625 80.02691650390625 C 75.80186462402344 84.25196075439453 70.88229370117188 87.56893157958984 65.40481567382812 89.88570404052734 C 59.73468017578125 92.28397369384766 53.71062850952148 93.5 47.5 93.5 Z" stroke="none"/>
                <path d="M 47.5 3 C 41.49121475219727 3 35.66376876831055 4.176155090332031 30.17950439453125 6.495796203613281 C 24.88084411621094 8.736953735351562 20.12152099609375 11.94598388671875 16.03375244140625 16.03375244140625 C 11.94598388671875 20.12152099609375 8.736953735351562 24.88084411621094 6.495796203613281 30.17950439453125 C 4.176155090332031 35.66376876831055 3 41.49121475219727 3 47.5 C 3 53.50878524780273 4.176155090332031 59.33623123168945 6.495796203613281 64.82049560546875 C 8.736953735351562 70.11915588378906 11.94598388671875 74.87847900390625 16.03375244140625 78.96624755859375 C 20.12152099609375 83.05401611328125 24.88084411621094 86.26304626464844 30.17950439453125 88.50419616699219 C 35.66376876831055 90.82384490966797 41.49121475219727 92 47.5 92 C 53.50878524780273 92 59.33623123168945 90.82384490966797 64.82049560546875 88.50419616699219 C 70.11915588378906 86.26304626464844 74.87847900390625 83.05401611328125 78.96624755859375 78.96624755859375 C 83.05401611328125 74.87847900390625 86.26304626464844 70.11915588378906 88.50419616699219 64.82049560546875 C 90.82384490966797 59.33623123168945 92 53.50878524780273 92 47.5 C 92 41.49121475219727 90.82384490966797 35.66376876831055 88.50419616699219 30.17950439453125 C 86.26304626464844 24.88084411621094 83.05401611328125 20.12152099609375 78.96624755859375 16.03375244140625 C 74.87847900390625 11.94598388671875 70.11915588378906 8.736953735351562 64.82049560546875 6.495796203613281 C 59.33623123168945 4.176155090332031 53.50878524780273 3 47.5 3 M 47.5 0 C 73.7335205078125 0 95 21.2664794921875 95 47.5 C 95 73.7335205078125 73.7335205078125 95 47.5 95 C 21.2664794921875 95 0 73.7335205078125 0 47.5 C 0 21.2664794921875 21.2664794921875 0 47.5 0 Z" stroke="none" fill="#83793c"/>
              </g>
            </g>
          </g>
        </g>
      </g>
    </g>
    <g id="acknowledgement_4443850" transform="translate(299.995 1299)">
      <g id="Grupo_1178013" data-name="Grupo 1178013" transform="translate(0.913 0.913)">
        <g id="Grupo_1177997" data-name="Grupo 1177997" transform="translate(0 43.81)">
          <path id="Trazado_1036296" data-name="Trazado 1036296" d="M55.762,49V59.952H1V56.3H48.461Z" transform="translate(-1 -49)" fill="#f0d0b4"/>
        </g>
        <g id="Grupo_1177998" data-name="Grupo 1177998" transform="translate(0 32.857)">
          <path id="Trazado_1036297" data-name="Trazado 1036297" d="M1,37V55.254H48.461v-7.3h7.3V37Z" transform="translate(-1 -37)" fill="#e6e9ed"/>
        </g>
        <g id="Grupo_1177999" data-name="Grupo 1177999" transform="translate(47.461 43.81)">
          <path id="Trazado_1036298" data-name="Trazado 1036298" d="M60.3,49,53,56.3V49Z" transform="translate(-53 -49)" fill="#fcd770"/>
        </g>
        <g id="Grupo_1178000" data-name="Grupo 1178000" transform="translate(40.159)">
          <circle id="Elipse_12501" data-name="Elipse 12501" cx="7.5" cy="7.5" r="7.5" transform="translate(-0.484 0.087)" fill="#ffeaa7"/>
        </g>
        <g id="Grupo_1178001" data-name="Grupo 1178001" transform="translate(40.159 20.08)">
          <path id="Trazado_1036299" data-name="Trazado 1036299" d="M45,28.476V24.825A1.831,1.831,0,0,1,46.825,23H57.778A1.831,1.831,0,0,1,59.6,24.825v3.651A1.831,1.831,0,0,1,57.778,30.3H55.04l-1.451,1.451a1.291,1.291,0,0,1-2.2-.913V30.3H46.825A1.831,1.831,0,0,1,45,28.476Z" transform="translate(-45 -23)" fill="#e6e9ed"/>
        </g>
        <g id="Grupo_1178002" data-name="Grupo 1178002" transform="translate(0 16.429)">
          <path id="Trazado_1036300" data-name="Trazado 1036300" d="M11.04,20.825v9.127a1.831,1.831,0,0,1-1.825,1.825H1V19H9.214A1.831,1.831,0,0,1,11.04,20.825Z" transform="translate(-1 -19)" fill="#ef7385"/>
        </g>
        <g id="Grupo_1178003" data-name="Grupo 1178003" transform="translate(27.381 15.553)">
          <path id="Trazado_1036301" data-name="Trazado 1036301" d="M34.806,21.809a2.582,2.582,0,1,1-3.651,3.651L31,25.305V18.04c.128.11.256.219.365.329Z" transform="translate(-31 -18.04)" fill="#f0d0b4"/>
        </g>
        <g id="Grupo_1178004" data-name="Grupo 1178004" transform="translate(10.04 14.603)">
          <path id="Trazado_1036302" data-name="Trazado 1036302" d="M22.04,25.205c.055-.046.11-.1.155-.146l.858-.858a5.744,5.744,0,0,1,2.638-1.515l1.533-.21a2.122,2.122,0,0,1,.666,4.135,7.069,7.069,0,0,0-2.2,1.2,1.227,1.227,0,0,0-.128.1l-2.5,2.081a7.873,7.873,0,0,1-1.022.712,7.033,7.033,0,0,1-3.432.9,6.9,6.9,0,0,1-2.2-.356L12,29.778V20.651l6.38-3.185A4.275,4.275,0,0,1,20.333,17H22.04Z" transform="translate(-12 -17)" fill="#f0d0b4"/>
        </g>
        <g id="Grupo_1178005" data-name="Grupo 1178005" transform="translate(23.73 7.302)">
          <path id="Trazado_1036303" data-name="Trazado 1036303" d="M30.651,17.251V23.9a2.119,2.119,0,0,0-2.117-2.117L27,21.988V9h3.651Z" transform="translate(-27 -9)" fill="#fcd770"/>
        </g>
        <g id="Grupo_1178006" data-name="Grupo 1178006" transform="translate(23.73 22.197)">
          <path id="Trazado_1036304" data-name="Trazado 1036304" d="M30.651,25.941V41.457H27V28.533a7.069,7.069,0,0,1,2.2-1.2,2.122,2.122,0,0,0,1.451-2.017Z" transform="translate(-27 -25.32)" fill="#fcd770"/>
        </g>
        <g id="Grupo_1178007" data-name="Grupo 1178007" transform="translate(20.08 25.41)">
          <path id="Trazado_1036305" data-name="Trazado 1036305" d="M26.651,28.84V41.764H23V31.733a7.873,7.873,0,0,0,1.022-.712l2.5-2.081A1.227,1.227,0,0,1,26.651,28.84Z" transform="translate(-23 -28.84)" fill="#5cd6b3"/>
        </g>
        <g id="Grupo_1178008" data-name="Grupo 1178008" transform="translate(20.08 7.302)">
          <path id="Trazado_1036306" data-name="Trazado 1036306" d="M24.013,23.5l-.858.858c-.046.046-.1.1-.155.146V9h3.651V21.988A5.744,5.744,0,0,0,24.013,23.5Z" transform="translate(-23 -9)" fill="#5cd6b3"/>
        </g>
        <g id="Grupo_1178009" data-name="Grupo 1178009" transform="translate(20.08)">
          <path id="Trazado_1036307" data-name="Trazado 1036307" d="M30.3,4.651V8.3H23V4.651a3.651,3.651,0,1,1,7.3,0Z" transform="translate(-23 -1)" fill="#cf9e76"/>
        </g>
        <g id="Grupo_1178010" data-name="Grupo 1178010" transform="translate(20.08 38.334)">
          <path id="Trazado_1036308" data-name="Trazado 1036308" d="M30.3,43l-2.327,4.664a1.484,1.484,0,0,1-2.647,0L23,43h7.3Z" transform="translate(-23 -43)" fill="#cf9e76"/>
        </g>
        <g id="Grupo_1178011" data-name="Grupo 1178011" transform="translate(34.683 36.508)">
          <path id="Trazado_1036309" data-name="Trazado 1036309" d="M39,41h5.476V51.952H39Z" transform="translate(-39 -41)" fill="#ef7385"/>
        </g>
        <g id="Grupo_1178012" data-name="Grupo 1178012" transform="translate(3.651 36.508)">
          <path id="Trazado_1036310" data-name="Trazado 1036310" d="M5,41h9.127V51.952H5Z" transform="translate(-5 -41)" fill="#ef7385"/>
        </g>
      </g>
      <g id="Grupo_1178014" data-name="Grupo 1178014" transform="translate(0 0)">
        <path id="Trazado_1036311" data-name="Trazado 1036311" d="M29.207,25.372a3.483,3.483,0,0,0,.913.168v.016h8.214V23.73H33.328a3.448,3.448,0,0,0-.582-4.141l-3.438-3.437c-.032-.032-.068-.059-.1-.09V9.127h9.127V7.3H29.207V4.564a4.564,4.564,0,1,0-9.127,0V14.6h-.792a5.31,5.31,0,0,0-2.366.559l-5.4,2.7a2.728,2.728,0,0,0-2.392-1.434H0v14.6H9.127a2.733,2.733,0,0,0,2.462-1.563l3.478,1.159a7.817,7.817,0,0,0,5.012-.016v2.246H0v23.73H56.588V32.857H29.207ZM25.148,43.5a.585.585,0,0,1-1.009,0l-1.67-3.34h4.348Zm2.233-5.165H25.556V26.811a6.238,6.238,0,0,1,1.576-.819c.087-.029.166-.069.249-.106ZM21.9,9.127H23.73V20.536a6.754,6.754,0,0,0-1.825,1.05Zm3.651,0h1.825V20.334a3.009,3.009,0,0,0-1.209-.255c-.207,0-.413.012-.616.03Zm5.9,11.753a1.664,1.664,0,0,1-2.248,2.452v-4.7ZM24.643,1.825a2.741,2.741,0,0,1,2.738,2.738V7.3H21.9V4.564A2.741,2.741,0,0,1,24.643,1.825ZM10.04,28.294a.914.914,0,0,1-.913.913h-7.3V18.254h7.3a.914.914,0,0,1,.913.913Zm5.606.6-3.78-1.26v-7.9l5.873-2.936a3.482,3.482,0,0,1,1.549-.366h.792v6.846a2.721,2.721,0,0,1-1.512.455H15.516v1.825h3.051a4.531,4.531,0,0,0,3.227-1.337l.855-.855A4.951,4.951,0,0,1,26.172,21.9a1.209,1.209,0,0,1,.383,2.356,8.05,8.05,0,0,0-2.626,1.463l-2.5,2.081A6.129,6.129,0,0,1,15.646,28.9Zm6.955.31,1.13-.942V38.334H21.9V29.717A7.676,7.676,0,0,0,22.6,29.207ZM1.825,54.762V52.937H48.751l6.011-6.011v7.837Zm47.461-4.941V45.635h4.186Zm5.476-15.138V43.81h-7.3v7.3H1.825V34.683H20.08v4.779l2.426,4.852a2.357,2.357,0,0,0,1.225,1.119v3.853h1.825V45.433a2.363,2.363,0,0,0,1.225-1.118l2.426-4.853V34.683Z" transform="translate(0 0)"/>
        <path id="Trazado_1036312" data-name="Trazado 1036312" d="M4,52.778H14.952V40H4ZM5.825,41.825h7.3v9.127h-7.3Z" transform="translate(-0.349 -3.492)"/>
        <path id="Trazado_1036313" data-name="Trazado 1036313" d="M18,40h1.825v1.825H18Z" transform="translate(-1.571 -3.492)"/>
        <path id="Trazado_1036314" data-name="Trazado 1036314" d="M18,44h1.825v9.127H18Z" transform="translate(-1.571 -3.841)"/>
        <path id="Trazado_1036315" data-name="Trazado 1036315" d="M22,50h1.825v3.651H22Z" transform="translate(-1.92 -4.365)"/>
        <path id="Trazado_1036316" data-name="Trazado 1036316" d="M30,50h1.825v3.651H30Z" transform="translate(-2.619 -4.365)"/>
        <path id="Trazado_1036317" data-name="Trazado 1036317" d="M56,40h1.825v5.476H56Z" transform="translate(-4.888 -3.492)"/>
        <path id="Trazado_1036318" data-name="Trazado 1036318" d="M52,40h1.825v5.476H52Z" transform="translate(-4.539 -3.492)"/>
        <path id="Trazado_1036319" data-name="Trazado 1036319" d="M48,40h1.825V52.778H48Z" transform="translate(-4.19 -3.492)"/>
        <path id="Trazado_1036320" data-name="Trazado 1036320" d="M34,40h1.825V52.778H34Z" transform="translate(-2.968 -3.492)"/>
        <path id="Trazado_1036321" data-name="Trazado 1036321" d="M45.3,40H38V52.778h7.3ZM43.476,50.952H39.825V41.825h3.651Z" transform="translate(-3.317 -3.492)"/>
        <path id="Trazado_1036322" data-name="Trazado 1036322" d="M57.691,22H46.738A2.741,2.741,0,0,0,44,24.738v3.651a2.741,2.741,0,0,0,2.738,2.738h3.684a2.2,2.2,0,0,0,3.728,1.18l1.18-1.18h2.36a2.741,2.741,0,0,0,2.738-2.738V24.738A2.741,2.741,0,0,0,57.691,22Zm.913,6.389a.914.914,0,0,1-.913.913H54.575L52.86,31.017a.392.392,0,0,1-.645-.267V29.3H46.738a.914.914,0,0,1-.913-.913V24.738a.914.914,0,0,1,.913-.913H57.691a.914.914,0,0,1,.913.913Z" transform="translate(-3.841 -1.92)"/>
        <path id="Trazado_1036323" data-name="Trazado 1036323" d="M56,26h1.825v1.825H56Z" transform="translate(-4.888 -2.27)"/>
        <path id="Trazado_1036324" data-name="Trazado 1036324" d="M48,26h1.825v1.825H48Z" transform="translate(-4.19 -2.27)"/>
        <path id="Trazado_1036325" data-name="Trazado 1036325" d="M52,26h1.825v1.825H52Z" transform="translate(-4.539 -2.27)"/>
        <path id="Trazado_1036326" data-name="Trazado 1036326" d="M52.214,16.429A8.214,8.214,0,1,0,44,8.214,8.224,8.224,0,0,0,52.214,16.429Zm0-14.6a6.389,6.389,0,1,1-6.389,6.389A6.4,6.4,0,0,1,52.214,1.825Z" transform="translate(-3.841 0)"/>
        <path id="Trazado_1036327" data-name="Trazado 1036327" d="M56.885,6.584,55.595,5.293l-4.831,4.831-1.18-1.18-1.291,1.291,2.471,2.471Z" transform="translate(-4.216 -0.462)"/>
      </g>
    </g>
  </g>
</svg>
