<svg xmlns="http://www.w3.org/2000/svg" xmlns:xlink="http://www.w3.org/1999/xlink" width="113" height="113" viewBox="0 0 113 113">
  <defs>
    <filter id="Trazado_982547" x="0" y="0" width="113" height="113" filterUnits="userSpaceOnUse">
      <feOffset dy="3" input="SourceAlpha"/>
      <feGaussianBlur stdDeviation="3" result="blur"/>
      <feFlood flood-opacity="0.161"/>
      <feComposite operator="in" in2="blur"/>
      <feComposite in="SourceGraphic"/>
    </filter>
  </defs>
  <g id="Grupo_1178248" data-name="Grupo 1178248" transform="translate(-272 -1405.003)">
    <g id="Grupo_1177900" data-name="Grupo 1177900" transform="translate(281 1411.003)">
      <g id="Grupo_1172010" data-name="Grupo 1172010" transform="translate(0)">
        <g id="Grupo_1171046" data-name="Grupo 1171046">
          <g id="Grupo_1148525" data-name="Grupo 1148525">
            <g transform="matrix(1, 0, 0, 1, -9, -6)" filter="url(#Trazado_982547)">
              <g id="Trazado_982547-2" data-name="Trazado 982547" transform="translate(9 6)" fill="#fdfbec">
                <path d="M 47.5 93.5 C 41.28937149047852 93.5 35.26533508300781 92.28397369384766 29.59518623352051 89.88570404052734 C 24.11771965026855 87.56893157958984 19.19813346862793 84.25196075439453 14.97309303283691 80.02691650390625 C 10.74804019927979 75.80186462402344 7.431066513061523 70.88229370117188 5.114293098449707 65.40481567382812 C 2.716026782989502 59.73468017578125 1.5 53.71062850952148 1.5 47.5 C 1.5 41.28937149047852 2.716026782989502 35.26533508300781 5.114293098449707 29.59518623352051 C 7.431066513061523 24.11771965026855 10.74804019927979 19.19813346862793 14.97309303283691 14.97309303283691 C 19.19813346862793 10.74804019927979 24.11771965026855 7.431066513061523 29.59518623352051 5.114293098449707 C 35.26533508300781 2.716026782989502 41.28937149047852 1.5 47.5 1.5 C 53.71062850952148 1.5 59.73468017578125 2.716026782989502 65.40481567382812 5.114293098449707 C 70.88229370117188 7.431066513061523 75.80186462402344 10.74804019927979 80.02691650390625 14.97309303283691 C 84.25196075439453 19.19813346862793 87.56893157958984 24.11771965026855 89.88570404052734 29.59518623352051 C 92.28397369384766 35.26533508300781 93.5 41.28937149047852 93.5 47.5 C 93.5 53.71062850952148 92.28397369384766 59.73468017578125 89.88570404052734 65.40481567382812 C 87.56893157958984 70.88229370117188 84.25196075439453 75.80186462402344 80.02691650390625 80.02691650390625 C 75.80186462402344 84.25196075439453 70.88229370117188 87.56893157958984 65.40481567382812 89.88570404052734 C 59.73468017578125 92.28397369384766 53.71062850952148 93.5 47.5 93.5 Z" stroke="none"/>
                <path d="M 47.5 3 C 41.49121475219727 3 35.66376876831055 4.176155090332031 30.17950439453125 6.495796203613281 C 24.88084411621094 8.736953735351562 20.12152099609375 11.94598388671875 16.03375244140625 16.03375244140625 C 11.94598388671875 20.12152099609375 8.736953735351562 24.88084411621094 6.495796203613281 30.17950439453125 C 4.176155090332031 35.66376876831055 3 41.49121475219727 3 47.5 C 3 53.50878524780273 4.176155090332031 59.33623123168945 6.495796203613281 64.82049560546875 C 8.736953735351562 70.11915588378906 11.94598388671875 74.87847900390625 16.03375244140625 78.96624755859375 C 20.12152099609375 83.05401611328125 24.88084411621094 86.26304626464844 30.17950439453125 88.50419616699219 C 35.66376876831055 90.82384490966797 41.49121475219727 92 47.5 92 C 53.50878524780273 92 59.33623123168945 90.82384490966797 64.82049560546875 88.50419616699219 C 70.11915588378906 86.26304626464844 74.87847900390625 83.05401611328125 78.96624755859375 78.96624755859375 C 83.05401611328125 74.87847900390625 86.26304626464844 70.11915588378906 88.50419616699219 64.82049560546875 C 90.82384490966797 59.33623123168945 92 53.50878524780273 92 47.5 C 92 41.49121475219727 90.82384490966797 35.66376876831055 88.50419616699219 30.17950439453125 C 86.26304626464844 24.88084411621094 83.05401611328125 20.12152099609375 78.96624755859375 16.03375244140625 C 74.87847900390625 11.94598388671875 70.11915588378906 8.736953735351562 64.82049560546875 6.495796203613281 C 59.33623123168945 4.176155090332031 53.50878524780273 3 47.5 3 M 47.5 0 C 73.7335205078125 0 95 21.2664794921875 95 47.5 C 95 73.7335205078125 73.7335205078125 95 47.5 95 C 21.2664794921875 95 0 73.7335205078125 0 47.5 C 0 21.2664794921875 21.2664794921875 0 47.5 0 Z" stroke="none" fill="#83793c"/>
              </g>
            </g>
          </g>
        </g>
      </g>
    </g>
    <g id="leader_12069041" transform="translate(291.179 1420.182)">
      <g id="Grupo_1178245" data-name="Grupo 1178245" transform="translate(7.5 16.531)">
        <path id="Trazado_1039838" data-name="Trazado 1039838" d="M123.544,349.607l1.435,6.382a2.259,2.259,0,1,0,4.519,0v-3.163Z" transform="translate(-109.617 -317.579)" fill="#ffded0"/>
        <path id="Trazado_1039839" data-name="Trazado 1039839" d="M14.068,349.607l-2.049,6.382a2.259,2.259,0,1,1-4.519,0v-3.163Z" transform="translate(-7.5 -317.579)" fill="#ffded0"/>
        <path id="Trazado_1039840" data-name="Trazado 1039840" d="M27.382,287.858v4.137H24.667l-.827-.53-.973.53h0V293.8c-3.08,3.092-7.566,2.721-10.844,0v-1.807h0l-.8-.543-1,.543H7.5v-4.137a8.071,8.071,0,0,1,4.807-7.379h10.2C25.4,282.112,27.382,284.374,27.382,287.858Z" transform="translate(-7.501 -256.748)" fill="#5ad6ff"/>
        <path id="Trazado_1039841" data-name="Trazado 1039841" d="M45.151,391.489v10.844a2.711,2.711,0,1,0,5.421,0,2.711,2.711,0,1,0,5.422,0V391.489Z" transform="translate(-40.632 -354.435)" fill="#db9e82"/>
        <path id="Trazado_1039842" data-name="Trazado 1039842" d="M15.051,175.735a9.036,9.036,0,0,0,18.069,0,9.784,9.784,0,0,0-18.069,0Z" transform="translate(-14.145 -159.271)" fill="#ffded0"/>
        <path id="Trazado_1039843" data-name="Trazado 1039843" d="M15.039,152.25a8.425,8.425,0,0,0,7.7-2.775,1.8,1.8,0,0,1,2.675,0,8.37,8.37,0,0,0,7.692,2.78,9.036,9.036,0,1,0-18.069,0Z" transform="translate(-14.133 -135.785)" fill="#ffcf6b"/>
        <path id="Trazado_1039844" data-name="Trazado 1039844" d="M338.791,354.13v3.162a2.259,2.259,0,1,0,4.519,0l1.688-6.2Z" transform="translate(-299.03 -318.883)" fill="#ffbf9d"/>
        <path id="Trazado_1039845" data-name="Trazado 1039845" d="M461.081,354.13v3.162a2.259,2.259,0,1,1-4.519,0l-1.4-6.2Z" transform="translate(-401.439 -318.883)" fill="#ffbf9d"/>
        <path id="Trazado_1039846" data-name="Trazado 1039846" d="M358.672,287.858v4.137h-2.714l-.9-.474-.9.474h0V293.8c-.36.3-3.831,3.087-7.776,1.879a7.411,7.411,0,0,1-3.068-1.879v-1.807h0l-.85-.5-.951.5h-2.715v-4.137c0-3.484,1.98-5.745,4.875-7.379h10.2A8.071,8.071,0,0,1,358.672,287.858Z" transform="translate(-299.03 -256.748)" fill="#55d47b"/>
        <path id="Trazado_1039847" data-name="Trazado 1039847" d="M387.285,391.489v10.844a2.711,2.711,0,1,1-5.421,0,2.711,2.711,0,1,1-5.422,0V391.489Z" transform="translate(-332.162 -354.435)" fill="#7a8fa5"/>
        <path id="Trazado_1039848" data-name="Trazado 1039848" d="M364.41,175.735a9.036,9.036,0,0,1-18.069,0,9.784,9.784,0,0,1,18.069,0Z" transform="translate(-305.674 -159.271)" fill="#ffbf9d"/>
        <path id="Trazado_1039849" data-name="Trazado 1039849" d="M364.4,152.25a8.425,8.425,0,0,1-7.7-2.775,1.8,1.8,0,0,0-2.675,0,8.37,8.37,0,0,1-7.692,2.78,9.036,9.036,0,1,1,18.069,0Z" transform="translate(-305.662 -135.785)" fill="#7a8fa5"/>
        <path id="Trazado_1039850" data-name="Trazado 1039850" d="M246,235.237a19.011,19.011,0,0,1-6.82,4.921,1.8,1.8,0,0,0-1.085,1.659v5.265a15.09,15.09,0,0,1-8.508,1.518,21.551,21.551,0,0,1,.6-15.285l3.243-6.956A15.989,15.989,0,0,1,246,235.237Z" transform="translate(-201.947 -209.123)" fill="#efedff"/>
        <path id="Trazado_1039851" data-name="Trazado 1039851" d="M153.486,233.752c-3.436,1.861-4.02,10.278-4.039,14.185a10.771,10.771,0,0,1-4.144-1.518v-5.265a1.8,1.8,0,0,0-1.085-1.659,19.011,19.011,0,0,1-6.82-4.921A15.982,15.982,0,0,1,153.29,225.7Z" transform="translate(-121.809 -208.46)" fill="#d9d9f9"/>
        <path id="Trazado_1039852" data-name="Trazado 1039852" d="M335.532,239.123a6.209,6.209,0,0,0,4.47,3.149,19.019,19.019,0,0,0,2.674-3.923,2.772,2.772,0,0,0-.01-2.589,2.714,2.714,0,0,0-4.806.1,2.423,2.423,0,0,0-2.089.84A2.291,2.291,0,0,0,335.532,239.123Z" transform="translate(-295.95 -216.158)" fill="#ffccbf"/>
        <path id="Trazado_1039853" data-name="Trazado 1039853" d="M243.773,310.741l-.744.5a1.8,1.8,0,0,1-2,0l-.729-.486a6.469,6.469,0,0,1,2.2-6.621l1.253.034.789,4.785A1.8,1.8,0,0,1,243.773,310.741Z" transform="translate(-212.21 -277.559)" fill="#7a8fa5"/>
        <path id="Trazado_1039854" data-name="Trazado 1039854" d="M237.8,303.7a15.873,15.873,0,0,0-2.2,6.621,1.8,1.8,0,0,1-.792-1.8l.811-4.878Z" transform="translate(-207.5 -277.128)" fill="#5b778f"/>
        <path id="Trazado_1039855" data-name="Trazado 1039855" d="M119.945,239.123a6.209,6.209,0,0,1-4.47,3.149,19.018,19.018,0,0,1-2.674-3.923,2.772,2.772,0,0,1,.01-2.589,2.714,2.714,0,0,1,4.806.1A2.9,2.9,0,0,1,119.945,239.123Z" transform="translate(-99.885 -216.158)" fill="#ffbbae"/>
        <path id="Trazado_1039856" data-name="Trazado 1039856" d="M181.234,138.67a12.177,12.177,0,0,1-8.252-21.726,14.834,14.834,0,0,1,19.379,7.565A13.562,13.562,0,0,1,181.234,138.67Z" transform="translate(-149.01 -111.767)" fill="#ffded0"/>
        <path id="Trazado_1039857" data-name="Trazado 1039857" d="M158.976,147.615a13.563,13.563,0,0,1-15.932-14.156,15.024,15.024,0,0,1,7.68-7.57A13.571,13.571,0,0,0,158.976,147.615Z" transform="translate(-126.752 -120.711)" fill="#ffccbf"/>
        <path id="Trazado_1039858" data-name="Trazado 1039858" d="M205.965,96.591a8.573,8.573,0,0,1-6.168-3.076,2.409,2.409,0,0,0-2.753-.647,11.941,11.941,0,0,1-9.214,0,2.425,2.425,0,0,0-2.781.679,8.684,8.684,0,0,1-1.073,1.06C182.6,87.87,188.29,83.4,194.836,84.065A13.558,13.558,0,0,1,205.965,96.591Z" transform="translate(-162.614 -83.848)" fill="#db9e82"/>
        <path id="Trazado_1039859" data-name="Trazado 1039859" d="M159.171,82.963a13.565,13.565,0,0,0-10.859,10.544,8.691,8.691,0,0,1-5.071,1.987A13.558,13.558,0,0,1,159.171,82.963Z" transform="translate(-126.95 -82.747)" fill="#c8866a"/>
        <path id="Trazado_1039860" data-name="Trazado 1039860" d="M224.779,399.019v9.489a3.163,3.163,0,0,1-3.252,3.161,3.206,3.206,0,0,1-3.074-3.227,3.154,3.154,0,0,1-.916,2.291,6.642,6.642,0,0,1-3.672-3.242c-1.221-2.643-.3-6.151,2.436-8.471Z" transform="translate(-188.632 -361.061)" fill="#7a8fa5"/>
        <path id="Trazado_1039861" data-name="Trazado 1039861" d="M208.671,410.733a3.171,3.171,0,0,1-5.41-2.291v-9.423h4.174C207.266,403.79,207.789,408.553,208.671,410.733Z" transform="translate(-179.766 -361.061)" fill="#5b778f"/>
        <path id="Trazado_1039862" data-name="Trazado 1039862" d="M237.965,211.116c0-1.757-1.273-1.923-2.844-1.923s-2.844.165-2.844,1.923a2.862,2.862,0,1,0,5.687,0Z" transform="translate(-205.301 -194.017)" fill="#495560"/>
      </g>
      <g id="Grupo_1178247" data-name="Grupo 1178247" transform="translate(7.5 7.5)">
        <circle id="Elipse_12523" data-name="Elipse 12523" cx="13.555" cy="13.555" r="13.555" transform="translate(16.266 9.037)" fill="none" stroke="#000" stroke-linecap="round" stroke-linejoin="round" stroke-miterlimit="10" stroke-width="1.3"/>
        <path id="Trazado_1039863" data-name="Trazado 1039863" d="M117.617,235.867a2.714,2.714,0,0,0-4.806-.1,2.773,2.773,0,0,0-.01,2.589,19.05,19.05,0,0,0,9.494,8.844,1.8,1.8,0,0,1,1.085,1.659V263.55a3.206,3.206,0,0,0,3.074,3.227,3.163,3.163,0,0,0,3.252-3.162v-.066a3.206,3.206,0,0,0,3.074,3.227,3.163,3.163,0,0,0,3.252-3.162V248.863a1.8,1.8,0,0,1,1.085-1.659,19.051,19.051,0,0,0,9.494-8.844,2.772,2.772,0,0,0-.01-2.589,2.714,2.714,0,0,0-4.806.1" transform="translate(-99.885 -207.137)" fill="none" stroke="#000" stroke-linecap="round" stroke-linejoin="round" stroke-miterlimit="10" stroke-width="1.3"/>
        <path id="Trazado_1039864" data-name="Trazado 1039864" d="M137.4,277.253a6.21,6.21,0,0,0,4.471-3.148" transform="translate(-121.806 -242.107)" fill="none" stroke="#000" stroke-linecap="round" stroke-linejoin="round" stroke-miterlimit="10" stroke-width="1.3"/>
        <path id="Trazado_1039865" data-name="Trazado 1039865" d="M341.767,277.253A6.21,6.21,0,0,1,337.3,274.1" transform="translate(-297.715 -242.107)" fill="none" stroke="#000" stroke-linecap="round" stroke-linejoin="round" stroke-miterlimit="10" stroke-width="1.3"/>
        <line id="Línea_1030" data-name="Línea 1030" x2="2.711" transform="translate(33.436 46.99)" fill="none" stroke="#000" stroke-linecap="round" stroke-linejoin="round" stroke-miterlimit="10" stroke-width="1.3"/>
        <line id="Línea_1031" data-name="Línea 1031" x2="6.326" transform="translate(23.495 46.99)" fill="none" stroke="#000" stroke-linecap="round" stroke-linejoin="round" stroke-miterlimit="10" stroke-width="1.3"/>
        <path id="Trazado_1039866" data-name="Trazado 1039866" d="M239.088,308.676l.712,4.274c.255,1.529-1.533,2.3-1.521,2.29a1.8,1.8,0,0,1-2,0c-.675-.45-1.741-.969-1.521-2.29l.712-4.274" transform="translate(-207.46 -272.529)" fill="none" stroke="#000" stroke-linecap="round" stroke-linejoin="round" stroke-miterlimit="10" stroke-width="1.3"/>
        <g id="Grupo_1178246" data-name="Grupo 1178246" transform="translate(22.592 23.495)">
          <line id="Línea_1032" data-name="Línea 1032" y2="1.44" fill="none" stroke="#000" stroke-linecap="round" stroke-linejoin="round" stroke-miterlimit="10" stroke-width="1.3"/>
          <path id="Trazado_1039867" data-name="Trazado 1039867" d="M237.965,211.127c0-1.757-1.273-1.923-2.844-1.923s-2.844.165-2.844,1.923a2.862,2.862,0,1,0,5.687,0Z" transform="translate(-227.892 -208.491)" fill="none" stroke="#000" stroke-linecap="round" stroke-linejoin="round" stroke-miterlimit="10" stroke-width="1.3"/>
          <line id="Línea_1033" data-name="Línea 1033" y2="1.44" transform="translate(14.459)" fill="none" stroke="#000" stroke-linecap="round" stroke-linejoin="round" stroke-miterlimit="10" stroke-width="1.3"/>
        </g>
        <path id="Trazado_1039868" data-name="Trazado 1039868" d="M170.29,160.261a8.634,8.634,0,0,1-6.161-3.067,2.4,2.4,0,0,0-2.762-.657,11.943,11.943,0,0,1-9.213,0,2.422,2.422,0,0,0-2.78.679,8.688,8.688,0,0,1-6.145,3.048" transform="translate(-126.938 -138.486)" fill="none" stroke="#000" stroke-linecap="round" stroke-linejoin="round" stroke-miterlimit="10" stroke-width="1.3"/>
        <path id="Trazado_1039869" data-name="Trazado 1039869" d="M50.57,342.109v7.229a2.711,2.711,0,0,1-5.422,0V331.265" transform="translate(-40.63 -292.407)" fill="none" stroke="#000" stroke-linecap="round" stroke-linejoin="round" stroke-miterlimit="10" stroke-width="1.3"/>
        <path id="Trazado_1039870" data-name="Trazado 1039870" d="M95.746,331.265v18.073a2.711,2.711,0,0,1-5.422,0v-7.229" transform="translate(-80.384 -292.407)" fill="none" stroke="#000" stroke-linecap="round" stroke-linejoin="round" stroke-miterlimit="10" stroke-width="1.3"/>
        <path id="Trazado_1039871" data-name="Trazado 1039871" d="M135.5,338.562a2.259,2.259,0,1,0,4.518,0c0-7.8.043-7.818-.125-8.76" transform="translate(-120.138 -291.12)" fill="none" stroke="#000" stroke-linecap="round" stroke-linejoin="round" stroke-miterlimit="10" stroke-width="1.3"/>
        <path id="Trazado_1039872" data-name="Trazado 1039872" d="M28.277,160.059A9.037,9.037,0,1,1,30.8,146.036" transform="translate(-14.125 -126.759)" fill="none" stroke="#000" stroke-linecap="round" stroke-linejoin="round" stroke-miterlimit="10" stroke-width="1.3"/>
        <path id="Trazado_1039873" data-name="Trazado 1039873" d="M12.306,280.295A8.1,8.1,0,0,0,7.5,287.7V295a2.259,2.259,0,1,0,4.518,0" transform="translate(-7.5 -247.555)" fill="none" stroke="#000" stroke-linecap="round" stroke-linejoin="round" stroke-miterlimit="10" stroke-width="1.3"/>
        <line id="Línea_1034" data-name="Línea 1034" x1="10.844" transform="translate(4.518 46.087)" fill="none" stroke="#000" stroke-linecap="round" stroke-linejoin="round" stroke-miterlimit="10" stroke-width="1.3"/>
        <line id="Línea_1035" data-name="Línea 1035" x1="4.518" transform="translate(0 44.279)" fill="none" stroke="#000" stroke-linecap="round" stroke-linejoin="round" stroke-miterlimit="10" stroke-width="1.3"/>
        <line id="Línea_1036" data-name="Línea 1036" x2="4.518" transform="translate(15.362 44.279)" fill="none" stroke="#000" stroke-linecap="round" stroke-linejoin="round" stroke-miterlimit="10" stroke-width="1.3"/>
        <path id="Trazado_1039874" data-name="Trazado 1039874" d="M381.905,195.2a8.427,8.427,0,0,1-7.7-2.776,1.8,1.8,0,0,0-2.675,0,8.446,8.446,0,0,1-5.306,2.829" transform="translate(-323.169 -169.701)" fill="none" stroke="#000" stroke-linecap="round" stroke-linejoin="round" stroke-miterlimit="10" stroke-width="1.3"/>
        <path id="Trazado_1039875" data-name="Trazado 1039875" d="M365.509,146.036a9.037,9.037,0,1,1,2.523,14.024" transform="translate(-322.542 -126.76)" fill="none" stroke="#000" stroke-linecap="round" stroke-linejoin="round" stroke-miterlimit="10" stroke-width="1.3"/>
        <path id="Trazado_1039876" data-name="Trazado 1039876" d="M15.047,195.2a8.427,8.427,0,0,0,7.7-2.776,1.8,1.8,0,0,1,2.675,0,8.446,8.446,0,0,0,5.306,2.829" transform="translate(-14.141 -169.701)" fill="none" stroke="#000" stroke-linecap="round" stroke-linejoin="round" stroke-miterlimit="10" stroke-width="1.3"/>
        <path id="Trazado_1039877" data-name="Trazado 1039877" d="M421.618,342.109v7.229a2.711,2.711,0,0,0,5.422,0V331.265" transform="translate(-371.917 -292.407)" fill="none" stroke="#000" stroke-linecap="round" stroke-linejoin="round" stroke-miterlimit="10" stroke-width="1.3"/>
        <path id="Trazado_1039878" data-name="Trazado 1039878" d="M376.441,331.265v18.073a2.711,2.711,0,0,0,2.711,2.711h0a2.711,2.711,0,0,0,2.711-2.711v-7.229" transform="translate(-332.162 -292.407)" fill="none" stroke="#000" stroke-linecap="round" stroke-linejoin="round" stroke-miterlimit="10" stroke-width="1.3"/>
        <path id="Trazado_1039879" data-name="Trazado 1039879" d="M343.276,338.562a2.259,2.259,0,1,1-4.518,0c0-7.8-.043-7.818.125-8.76" transform="translate(-298.997 -291.12)" fill="none" stroke="#000" stroke-linecap="round" stroke-linejoin="round" stroke-miterlimit="10" stroke-width="1.3"/>
        <path id="Trazado_1039880" data-name="Trazado 1039880" d="M471.312,353.853v5.874a2.259,2.259,0,1,1-4.518,0" transform="translate(-411.671 -312.284)" fill="none" stroke="#000" stroke-linecap="round" stroke-linejoin="round" stroke-miterlimit="10" stroke-width="1.3"/>
        <path id="Trazado_1039881" data-name="Trazado 1039881" d="M464.394,280.295a8.39,8.39,0,0,1,4.522,5.214" transform="translate(-409.559 -247.555)" fill="none" stroke="#000" stroke-linecap="round" stroke-linejoin="round" stroke-miterlimit="10" stroke-width="1.3"/>
        <line id="Línea_1037" data-name="Línea 1037" x2="10.844" transform="translate(44.279 46.087)" fill="none" stroke="#000" stroke-linecap="round" stroke-linejoin="round" stroke-miterlimit="10" stroke-width="1.3"/>
        <line id="Línea_1038" data-name="Línea 1038" x2="4.518" transform="translate(55.123 44.279)" fill="none" stroke="#000" stroke-linecap="round" stroke-linejoin="round" stroke-miterlimit="10" stroke-width="1.3"/>
        <line id="Línea_1039" data-name="Línea 1039" x1="4.518" transform="translate(39.761 44.279)" fill="none" stroke="#000" stroke-linecap="round" stroke-linejoin="round" stroke-miterlimit="10" stroke-width="1.3"/>
        <line id="Línea_1040" data-name="Línea 1040" y2="4.518" transform="translate(29.821 0)" fill="none" stroke="#000" stroke-linecap="round" stroke-linejoin="round" stroke-miterlimit="10" stroke-width="1.3"/>
        <line id="Línea_1041" data-name="Línea 1041" x2="1.807" y2="2.711" transform="translate(20.784 2.711)" fill="none" stroke="#000" stroke-linecap="round" stroke-linejoin="round" stroke-miterlimit="10" stroke-width="1.3"/>
        <line id="Línea_1042" data-name="Línea 1042" x2="2.711" y2="0.904" transform="translate(14.459 9.037)" fill="none" stroke="#000" stroke-linecap="round" stroke-linejoin="round" stroke-miterlimit="10" stroke-width="1.3"/>
        <line id="Línea_1043" data-name="Línea 1043" x1="1.807" y2="2.711" transform="translate(37.05 2.711)" fill="none" stroke="#000" stroke-linecap="round" stroke-linejoin="round" stroke-miterlimit="10" stroke-width="1.3"/>
        <line id="Línea_1044" data-name="Línea 1044" x1="2.711" y2="0.904" transform="translate(42.472 9.037)" fill="none" stroke="#000" stroke-linecap="round" stroke-linejoin="round" stroke-miterlimit="10" stroke-width="1.3"/>
      </g>
    </g>
  </g>
</svg>
