<svg xmlns="http://www.w3.org/2000/svg" xmlns:xlink="http://www.w3.org/1999/xlink" width="113" height="113" viewBox="0 0 113 113">
  <defs>
    <filter id="Trazado_982547" x="0" y="0" width="113" height="113" filterUnits="userSpaceOnUse">
      <feOffset dy="3" input="SourceAlpha"/>
      <feGaussianBlur stdDeviation="3" result="blur"/>
      <feFlood flood-opacity="0.161"/>
      <feComposite operator="in" in2="blur"/>
      <feComposite in="SourceGraphic"/>
    </filter>
  </defs>
  <g id="Grupo_1177987" data-name="Grupo 1177987" transform="translate(-1163.5 -912)">
    <g id="Grupo_1177681" data-name="Grupo 1177681" transform="translate(1172.5 918)">
      <g id="Grupo_1172010" data-name="Grupo 1172010">
        <g id="Grupo_1171046" data-name="Grupo 1171046">
          <g id="Grupo_1148525" data-name="Grupo 1148525">
            <g transform="matrix(1, 0, 0, 1, -9, -6)" filter="url(#Trazado_982547)">
              <g id="Trazado_982547-2" data-name="Trazado 982547" transform="translate(9 6)" fill="#fdfbec">
                <path d="M 47.5 93.5 C 41.28937149047852 93.5 35.26533508300781 92.28397369384766 29.59518623352051 89.88570404052734 C 24.11771965026855 87.56893157958984 19.19813346862793 84.25196075439453 14.97309303283691 80.02691650390625 C 10.74804019927979 75.80186462402344 7.431066513061523 70.88229370117188 5.114293098449707 65.40481567382812 C 2.716026782989502 59.73468017578125 1.5 53.71062850952148 1.5 47.5 C 1.5 41.28937149047852 2.716026782989502 35.26533508300781 5.114293098449707 29.59518623352051 C 7.431066513061523 24.11771965026855 10.74804019927979 19.19813346862793 14.97309303283691 14.97309303283691 C 19.19813346862793 10.74804019927979 24.11771965026855 7.431066513061523 29.59518623352051 5.114293098449707 C 35.26533508300781 2.716026782989502 41.28937149047852 1.5 47.5 1.5 C 53.71062850952148 1.5 59.73468017578125 2.716026782989502 65.40481567382812 5.114293098449707 C 70.88229370117188 7.431066513061523 75.80186462402344 10.74804019927979 80.02691650390625 14.97309303283691 C 84.25196075439453 19.19813346862793 87.56893157958984 24.11771965026855 89.88570404052734 29.59518623352051 C 92.28397369384766 35.26533508300781 93.5 41.28937149047852 93.5 47.5 C 93.5 53.71062850952148 92.28397369384766 59.73468017578125 89.88570404052734 65.40481567382812 C 87.56893157958984 70.88229370117188 84.25196075439453 75.80186462402344 80.02691650390625 80.02691650390625 C 75.80186462402344 84.25196075439453 70.88229370117188 87.56893157958984 65.40481567382812 89.88570404052734 C 59.73468017578125 92.28397369384766 53.71062850952148 93.5 47.5 93.5 Z" stroke="none"/>
                <path d="M 47.5 3 C 41.49121475219727 3 35.66376876831055 4.176155090332031 30.17950439453125 6.495796203613281 C 24.88084411621094 8.736953735351562 20.12152099609375 11.94598388671875 16.03375244140625 16.03375244140625 C 11.94598388671875 20.12152099609375 8.736953735351562 24.88084411621094 6.495796203613281 30.17950439453125 C 4.176155090332031 35.66376876831055 3 41.49121475219727 3 47.5 C 3 53.50878524780273 4.176155090332031 59.33623123168945 6.495796203613281 64.82049560546875 C 8.736953735351562 70.11915588378906 11.94598388671875 74.87847900390625 16.03375244140625 78.96624755859375 C 20.12152099609375 83.05401611328125 24.88084411621094 86.26304626464844 30.17950439453125 88.50419616699219 C 35.66376876831055 90.82384490966797 41.49121475219727 92 47.5 92 C 53.50878524780273 92 59.33623123168945 90.82384490966797 64.82049560546875 88.50419616699219 C 70.11915588378906 86.26304626464844 74.87847900390625 83.05401611328125 78.96624755859375 78.96624755859375 C 83.05401611328125 74.87847900390625 86.26304626464844 70.11915588378906 88.50419616699219 64.82049560546875 C 90.82384490966797 59.33623123168945 92 53.50878524780273 92 47.5 C 92 41.49121475219727 90.82384490966797 35.66376876831055 88.50419616699219 30.17950439453125 C 86.26304626464844 24.88084411621094 83.05401611328125 20.12152099609375 78.96624755859375 16.03375244140625 C 74.87847900390625 11.94598388671875 70.11915588378906 8.736953735351562 64.82049560546875 6.495796203613281 C 59.33623123168945 4.176155090332031 53.50878524780273 3 47.5 3 M 47.5 0 C 73.7335205078125 0 95 21.2664794921875 95 47.5 C 95 73.7335205078125 73.7335205078125 95 47.5 95 C 21.2664794921875 95 0 73.7335205078125 0 47.5 C 0 21.2664794921875 21.2664794921875 0 47.5 0 Z" stroke="none" fill="#83793c"/>
              </g>
            </g>
          </g>
        </g>
      </g>
    </g>
    <g id="duty_18024971" transform="translate(1179.281 936.401)">
      <path id="Trazado_1036132" data-name="Trazado 1036132" d="M42.418,387.14H75.609v11.519H42.418a5.76,5.76,0,0,1,0-11.519Z" transform="translate(-20.873 -343.135)" fill="#daeafa" fill-rule="evenodd"/>
      <path id="Trazado_1036133" data-name="Trazado 1036133" d="M62.911,383.129a1.764,1.764,0,1,1,0,3.528H28.654a7.524,7.524,0,0,1,0-15.047H62.911a1.765,1.765,0,1,1,0,3.53H28.654a3.994,3.994,0,1,0,0,7.987H62.911Z" transform="translate(-7.108 -329.37)" fill="#2f5274"/>
      <g id="Grupo_1177986" data-name="Grupo 1177986" transform="translate(14.022 0.91)">
        <path id="Trazado_1036134" data-name="Trazado 1036134" d="M68.47,8.01h32.785V46.062H68.47Z" transform="translate(-63.089 -8.01)" fill="#daeafa" fill-rule="evenodd"/>
        <path id="Trazado_1036135" data-name="Trazado 1036135" d="M102.77,34.91h8.142v8.139H102.77Z" transform="translate(-93.49 -31.852)" fill="#70da40" fill-rule="evenodd"/>
        <path id="Trazado_1036136" data-name="Trazado 1036136" d="M102.77,139.6h8.142v8.139H102.77Z" transform="translate(-93.49 -124.643)" fill="#70da40" fill-rule="evenodd"/>
        <path id="Trazado_1036137" data-name="Trazado 1036137" d="M102.77,244.28h8.142v8.139H102.77Z" transform="translate(-93.49 -217.424)" fill="#70da40" fill-rule="evenodd"/>
        <path id="Trazado_1036138" data-name="Trazado 1036138" d="M291.453,118.343a8.391,8.391,0,1,0-8.393-8.39A8.407,8.407,0,0,0,291.453,118.343Z" transform="translate(-253.287 -90.926)" fill="#0cf" fill-rule="evenodd"/>
        <path id="Trazado_1036139" data-name="Trazado 1036139" d="M439.382,249.027h-6.6V221.781l3.3-5.451,3.3,5.451Z" transform="translate(-385.989 -192.651)" fill="#ffd400" fill-rule="evenodd"/>
        <path id="Trazado_1036140" data-name="Trazado 1036140" d="M432.78,221.781l3.3-5.451,3.3,5.451Z" transform="translate(-385.989 -192.651)" fill="#2f5274" fill-rule="evenodd"/>
        <path id="Trazado_1036141" data-name="Trazado 1036141" d="M432.78,450.95h6.6v6.029h-6.6Z" transform="translate(-385.989 -400.602)" fill="#ff4646" fill-rule="evenodd"/>
        <path id="Trazado_1036142" data-name="Trazado 1036142" d="M23.225,379.134a7.536,7.536,0,0,1,7.524-7.524H28.654a7.524,7.524,0,0,0,0,15.047h2.095a7.536,7.536,0,0,1-7.524-7.524Z" transform="translate(-21.13 -330.281)" fill="#2a4a68" fill-rule="evenodd"/>
        <path id="Trazado_1036143" data-name="Trazado 1036143" d="M284.79,109.944a8.4,8.4,0,0,1,6.663-8.214,7.47,7.47,0,0,1,.864-.135,8.393,8.393,0,1,0,0,16.7,7.764,7.764,0,0,1-.864-.135A8.392,8.392,0,0,1,284.79,109.944Z" transform="translate(-253.287 -90.918)" fill="#00b8e6" fill-rule="evenodd"/>
        <path id="Trazado_1036144" data-name="Trazado 1036144" d="M432.78,264.29H434.2v21.217H432.78Z" transform="translate(-385.989 -235.159)" fill="#e6bf00" fill-rule="evenodd"/>
        <path id="Trazado_1036145" data-name="Trazado 1036145" d="M432.78,221.781H434.2l2.59-4.275-.712-1.176Z" transform="translate(-385.989 -192.651)" fill="#2a4a68" fill-rule="evenodd"/>
        <path id="Trazado_1036146" data-name="Trazado 1036146" d="M432.78,450.95H434.2v6.029H432.78Z" transform="translate(-385.989 -400.602)" fill="#e63f3f" fill-rule="evenodd"/>
      </g>
      <path id="Trazado_1036147" data-name="Trazado 1036147" d="M24.95,32.411a.911.911,0,0,1,1.289-1.287l.584.585,1.685-1.685a.91.91,0,1,1,1.287,1.287l-2.329,2.329a.91.91,0,0,1-1.288,0Zm9.276-13.237h6.1a.91.91,0,1,0,0-1.821h-6.1a.91.91,0,0,0,0,1.821Zm22.852-.148H53.1V15.05a.91.91,0,0,0-1.821,0v4.888a.91.91,0,0,0,.91.91h4.891a.91.91,0,1,0,0-1.821ZM34.226,10.62h7.03a.91.91,0,1,0,0-1.821h-7.03a.91.91,0,0,0,0,1.821Zm34.1,19.421V57.287a.91.91,0,0,1-.91.91H60.812a.91.91,0,0,1-.91-.91V30.041a.909.909,0,0,1,.132-.472l3.3-5.451a.91.91,0,0,1,1.557,0l3.3,5.451a.909.909,0,0,1,.132.472Zm-5.9-.91H65.8l-1.687-2.785Zm4.08,23.038H61.722v4.208h4.784Zm0-21.217H61.722v19.4h4.784ZM55.645,46.682v6.166H55.8a2.674,2.674,0,0,1,0,5.348H21.544a8.434,8.434,0,0,1,0-16.868H55.8a2.676,2.676,0,0,1,0,5.351h-.159Zm-34.6,3.082a.91.91,0,0,1,.91-.91H53.824V46.681H21.544a3.083,3.083,0,0,0,0,6.166h32.28V50.673H21.953A.909.909,0,0,1,21.043,49.763Zm34.762-4.9a.856.856,0,0,0,0-1.712H21.544a6.613,6.613,0,1,0,0,13.226H55.8a.854.854,0,0,0,0-1.708H21.544a4.9,4.9,0,0,1,0-9.808H55.8ZM34.226,7.279H48.287a.91.91,0,1,0,0-1.821H34.226a.91.91,0,0,0,0,1.821Zm0,15.24h6.1a.91.91,0,0,0,0-1.821h-6.1a.91.91,0,0,0,0,1.821ZM41.256,32.6h-7.03a.91.91,0,0,0,0,1.821h7.03a.91.91,0,1,0,0-1.821Zm-8.9-4.829v8.139a.91.91,0,0,1-.91.91H23.3a.91.91,0,0,1-.91-.91V27.767a.91.91,0,0,1,.91-.91h8.139a.911.911,0,0,1,.91.91Zm-1.821.91H24.213V35h6.319Zm2.784,1.487a.91.91,0,0,0,.91.91H45.947a.91.91,0,1,0,0-1.821H34.226A.911.911,0,0,0,33.315,30.164ZM61.49,19.937A9.315,9.315,0,0,1,53.1,29.2v9.767a.91.91,0,0,1-.91.91H19.4a.91.91,0,0,1-.91-.91V.91A.91.91,0,0,1,19.4,0H52.185a.91.91,0,0,1,.91.91v9.767a9.318,9.318,0,0,1,8.394,9.259ZM51.276,29.2a9.3,9.3,0,0,1,0-18.516V1.821H20.312V38.053H51.276Zm8.393-9.258a7.492,7.492,0,0,0-7.441-7.483l-.042,0-.042,0a7.483,7.483,0,1,0,7.525,7.483ZM32.353,3.968V12.11a.91.91,0,0,1-.91.91H23.3a.91.91,0,0,1-.91-.91V3.968a.91.91,0,0,1,.91-.91h8.139A.911.911,0,0,1,32.353,3.968Zm-1.821.91H24.213V11.2h6.319ZM26.177,21.742a.911.911,0,0,0,.643.267h0a.91.91,0,0,0,.643-.266l2.329-2.327a.91.91,0,0,0-1.286-1.288l-1.685,1.682-.584-.585a.91.91,0,1,0-1.289,1.284Zm0-11.9a.91.91,0,0,0,1.288,0l2.329-2.33A.91.91,0,1,0,28.507,6.23L26.822,7.916l-.584-.585a.911.911,0,0,0-1.289,1.287Zm6.176,6.021v8.139a.91.91,0,0,1-.91.91H23.3a.91.91,0,0,1-.91-.91V15.868a.91.91,0,0,1,.91-.91h8.139A.91.91,0,0,1,32.353,15.868Zm-1.821.909H24.213V23.1h6.319Z"/>
    </g>
  </g>
</svg>
