<svg xmlns="http://www.w3.org/2000/svg" xmlns:xlink="http://www.w3.org/1999/xlink" width="113" height="113" viewBox="0 0 113 113">
  <defs>
    <filter id="Trazado_982547" x="0" y="0" width="113" height="113" filterUnits="userSpaceOnUse">
      <feOffset dy="3" input="SourceAlpha"/>
      <feGaussianBlur stdDeviation="3" result="blur"/>
      <feFlood flood-opacity="0.161"/>
      <feComposite operator="in" in2="blur"/>
      <feComposite in="SourceGraphic"/>
    </filter>
  </defs>
  <g id="Grupo_1178265" data-name="Grupo 1178265" transform="translate(-586.56 -1405.003)">
    <g id="Grupo_1177897" data-name="Grupo 1177897" transform="translate(595.561 1411.003)">
      <g id="Grupo_1172010" data-name="Grupo 1172010" transform="translate(0)">
        <g id="Grupo_1171046" data-name="Grupo 1171046">
          <g id="Grupo_1148525" data-name="Grupo 1148525">
            <g transform="matrix(1, 0, 0, 1, -9, -6)" filter="url(#Trazado_982547)">
              <g id="Trazado_982547-2" data-name="Trazado 982547" transform="translate(9 6)" fill="#fdfbec">
                <path d="M 47.5 93.5 C 41.28937149047852 93.5 35.26533508300781 92.28397369384766 29.59518623352051 89.88570404052734 C 24.11771965026855 87.56893157958984 19.19813346862793 84.25196075439453 14.97309303283691 80.02691650390625 C 10.74804019927979 75.80186462402344 7.431066513061523 70.88229370117188 5.114293098449707 65.40481567382812 C 2.716026782989502 59.73468017578125 1.5 53.71062850952148 1.5 47.5 C 1.5 41.28937149047852 2.716026782989502 35.26533508300781 5.114293098449707 29.59518623352051 C 7.431066513061523 24.11771965026855 10.74804019927979 19.19813346862793 14.97309303283691 14.97309303283691 C 19.19813346862793 10.74804019927979 24.11771965026855 7.431066513061523 29.59518623352051 5.114293098449707 C 35.26533508300781 2.716026782989502 41.28937149047852 1.5 47.5 1.5 C 53.71062850952148 1.5 59.73468017578125 2.716026782989502 65.40481567382812 5.114293098449707 C 70.88229370117188 7.431066513061523 75.80186462402344 10.74804019927979 80.02691650390625 14.97309303283691 C 84.25196075439453 19.19813346862793 87.56893157958984 24.11771965026855 89.88570404052734 29.59518623352051 C 92.28397369384766 35.26533508300781 93.5 41.28937149047852 93.5 47.5 C 93.5 53.71062850952148 92.28397369384766 59.73468017578125 89.88570404052734 65.40481567382812 C 87.56893157958984 70.88229370117188 84.25196075439453 75.80186462402344 80.02691650390625 80.02691650390625 C 75.80186462402344 84.25196075439453 70.88229370117188 87.56893157958984 65.40481567382812 89.88570404052734 C 59.73468017578125 92.28397369384766 53.71062850952148 93.5 47.5 93.5 Z" stroke="none"/>
                <path d="M 47.5 3 C 41.49121475219727 3 35.66376876831055 4.176155090332031 30.17950439453125 6.495796203613281 C 24.88084411621094 8.736953735351562 20.12152099609375 11.94598388671875 16.03375244140625 16.03375244140625 C 11.94598388671875 20.12152099609375 8.736953735351562 24.88084411621094 6.495796203613281 30.17950439453125 C 4.176155090332031 35.66376876831055 3 41.49121475219727 3 47.5 C 3 53.50878524780273 4.176155090332031 59.33623123168945 6.495796203613281 64.82049560546875 C 8.736953735351562 70.11915588378906 11.94598388671875 74.87847900390625 16.03375244140625 78.96624755859375 C 20.12152099609375 83.05401611328125 24.88084411621094 86.26304626464844 30.17950439453125 88.50419616699219 C 35.66376876831055 90.82384490966797 41.49121475219727 92 47.5 92 C 53.50878524780273 92 59.33623123168945 90.82384490966797 64.82049560546875 88.50419616699219 C 70.11915588378906 86.26304626464844 74.87847900390625 83.05401611328125 78.96624755859375 78.96624755859375 C 83.05401611328125 74.87847900390625 86.26304626464844 70.11915588378906 88.50419616699219 64.82049560546875 C 90.82384490966797 59.33623123168945 92 53.50878524780273 92 47.5 C 92 41.49121475219727 90.82384490966797 35.66376876831055 88.50419616699219 30.17950439453125 C 86.26304626464844 24.88084411621094 83.05401611328125 20.12152099609375 78.96624755859375 16.03375244140625 C 74.87847900390625 11.94598388671875 70.11915588378906 8.736953735351562 64.82049560546875 6.495796203613281 C 59.33623123168945 4.176155090332031 53.50878524780273 3 47.5 3 M 47.5 0 C 73.7335205078125 0 95 21.2664794921875 95 47.5 C 95 73.7335205078125 73.7335205078125 95 47.5 95 C 21.2664794921875 95 0 73.7335205078125 0 47.5 C 0 21.2664794921875 21.2664794921875 0 47.5 0 Z" stroke="none" fill="#83793c"/>
              </g>
            </g>
          </g>
        </g>
      </g>
    </g>
    <g id="hand_6551779" transform="translate(615.195 1431.906)">
      <g id="Grupo_1178263" data-name="Grupo 1178263" transform="translate(0.874 0.874)">
        <g id="Grupo_1178249" data-name="Grupo 1178249" transform="translate(0 20.976)">
          <path id="Trazado_1039882" data-name="Trazado 1039882" d="M25.472,33.74v3.5H17.746a8.74,8.74,0,1,1,0-6.992h7.726Z" transform="translate(-1 -25)" fill="#e6e9ed"/>
        </g>
        <g id="Grupo_1178250" data-name="Grupo 1178250" transform="translate(24.472 22.724)">
          <path id="Trazado_1039883" data-name="Trazado 1039883" d="M32.5,35.74v4.37a.877.877,0,0,1-.874.874H29V27h2.622a.877.877,0,0,1,.874.874V35.74Z" transform="translate(-29 -27)" fill="#aab2bd"/>
        </g>
        <g id="Grupo_1178251" data-name="Grupo 1178251" transform="translate(3.496 24.472)">
          <path id="Trazado_1039884" data-name="Trazado 1039884" d="M6.748,32.5V30.748A1.753,1.753,0,0,1,8.5,29h3.5a1.753,1.753,0,0,1,1.748,1.748v5.244a3.5,3.5,0,0,1-3.5,3.5H8.5a3.5,3.5,0,0,1-3.5-3.5V34.244A1.753,1.753,0,0,1,6.748,32.5Z" transform="translate(-5 -29)" fill="#f0d0b4"/>
        </g>
        <g id="Grupo_1178252" data-name="Grupo 1178252" transform="translate(27.968)">
          <path id="Trazado_1039885" data-name="Trazado 1039885" d="M48.732,1H38.62A2.119,2.119,0,0,0,36.5,3.124a2.087,2.087,0,0,0,.227.944l.647,1.3-2.054.411A2.883,2.883,0,0,0,33,8.6v9a2.619,2.619,0,0,1,2.622-2.622H36.5v-3.5H48.732A1.761,1.761,0,0,0,50.48,9.74a3.5,3.5,0,0,1,3.5,3.5v1.748h.874a2.618,2.618,0,0,1,2.622,2.622V9.74A8.743,8.743,0,0,0,48.732,1Z" transform="translate(-33 -1)" fill="#b27946"/>
        </g>
        <g id="Grupo_1178253" data-name="Grupo 1178253" transform="translate(34.96 43.7)">
          <path id="Trazado_1039886" data-name="Trazado 1039886" d="M41,51h3.5v8.74H41Z" transform="translate(-41 -51)" fill="#969faa"/>
        </g>
        <g id="Grupo_1178254" data-name="Grupo 1178254" transform="translate(38.456 43.7)">
          <path id="Trazado_1039887" data-name="Trazado 1039887" d="M45,51h8.74v8.74H45Z" transform="translate(-45 -51)" fill="#969faa"/>
        </g>
        <g id="Grupo_1178255" data-name="Grupo 1178255" transform="translate(34.96 29.716)">
          <path id="Trazado_1039888" data-name="Trazado 1039888" d="M53.236,35V48.984H41V38.5h8.74a3.491,3.491,0,0,0,3.5-3.5Z" transform="translate(-41 -35)" fill="#b4dd7f"/>
        </g>
        <g id="Grupo_1178256" data-name="Grupo 1178256" transform="translate(31.464 26.22)">
          <path id="Trazado_1039889" data-name="Trazado 1039889" d="M49.236,31a3.5,3.5,0,1,1,0,6.992H37.874A.877.877,0,0,1,37,37.118V31H49.236Z" transform="translate(-37 -31)" fill="#b4dd7f"/>
        </g>
        <g id="Grupo_1178257" data-name="Grupo 1178257" transform="translate(27.968 24.472)">
          <path id="Trazado_1039890" data-name="Trazado 1039890" d="M36.5,30.748v5.244H33V29h1.748A1.753,1.753,0,0,1,36.5,30.748Z" transform="translate(-33 -29)" fill="#f0d0b4"/>
        </g>
        <g id="Grupo_1178258" data-name="Grupo 1178258" transform="translate(48.944 13.984)">
          <path id="Trazado_1039891" data-name="Trazado 1039891" d="M57.874,17a2.622,2.622,0,0,1,0,5.244H57V17Z" transform="translate(-57 -17)" fill="#f0d0b4"/>
        </g>
        <g id="Grupo_1178259" data-name="Grupo 1178259" transform="translate(31.464 8.74)">
          <path id="Trazado_1039892" data-name="Trazado 1039892" d="M54.48,16.244v5.244a6.99,6.99,0,0,1-6.992,6.992h-3.5A6.99,6.99,0,0,1,37,21.488v-8.74H49.236A1.761,1.761,0,0,0,50.984,11a3.5,3.5,0,0,1,3.5,3.5Z" transform="translate(-37 -11)" fill="#f0d0b4"/>
        </g>
        <g id="Grupo_1178260" data-name="Grupo 1178260" transform="translate(27.968 13.984)">
          <path id="Trazado_1039893" data-name="Trazado 1039893" d="M36.5,17v5.244h-.874a2.622,2.622,0,1,1,0-5.244Z" transform="translate(-33 -17)" fill="#f0d0b4"/>
        </g>
        <g id="Grupo_1178261" data-name="Grupo 1178261" transform="translate(36.708 19.228)">
          <path id="Trazado_1039894" data-name="Trazado 1039894" d="M43,23h6.992A3.5,3.5,0,1,1,43,23Z" transform="translate(-43 -23)" fill="#ef7385"/>
        </g>
        <g id="Grupo_1178262" data-name="Grupo 1178262" transform="translate(3.496 1.748)">
          <path id="Trazado_1039895" data-name="Trazado 1039895" d="M14.509,5.194a5.183,5.183,0,0,1,.979,3.05,5.245,5.245,0,1,1-.979-3.05Z" transform="translate(-5 -3)" fill="#ef7385"/>
        </g>
      </g>
      <g id="Grupo_1178264" data-name="Grupo 1178264" transform="translate(0)">
        <path id="Trazado_1039896" data-name="Trazado 1039896" d="M11.866,28H8.37a2.625,2.625,0,0,0-2.622,2.622v1.023A2.627,2.627,0,0,0,4,34.118v1.748a4.375,4.375,0,0,0,4.37,4.37h1.748a4.375,4.375,0,0,0,4.37-4.37V30.622A2.625,2.625,0,0,0,11.866,28Zm.874,7.866a2.625,2.625,0,0,1-2.622,2.622H8.37a2.625,2.625,0,0,1-2.622-2.622V34.118a.874.874,0,1,1,1.748,0v.874H9.244v-.874A2.627,2.627,0,0,0,7.5,31.645V30.622a.874.874,0,0,1,.874-.874h3.5a.874.874,0,0,1,.874.874Z" transform="translate(-0.504 -3.528)"/>
        <path id="Trazado_1039897" data-name="Trazado 1039897" d="M42,22.874a4.37,4.37,0,0,0,8.74,0V22H42Zm6.843.874a2.623,2.623,0,0,1-4.945,0Z" transform="translate(-5.292 -2.772)"/>
        <path id="Trazado_1039898" data-name="Trazado 1039898" d="M41.748,18.622a.874.874,0,0,1,1.748,0V19.5h1.748v-.874a2.622,2.622,0,0,0-5.244,0V19.5h1.748Z" transform="translate(-5.04 -2.016)"/>
        <path id="Trazado_1039899" data-name="Trazado 1039899" d="M50.622,16A2.625,2.625,0,0,0,48,18.622V19.5h1.748v-.874a.874.874,0,0,1,1.748,0V19.5h1.748v-.874A2.625,2.625,0,0,0,50.622,16Z" transform="translate(-6.048 -2.016)"/>
        <path id="Trazado_1039900" data-name="Trazado 1039900" d="M50.641,20.976h.052a3.5,3.5,0,0,0,3.5-3.5V9.614A9.625,9.625,0,0,0,44.574,0H34.459a3,3,0,0,0-2.68,4.335l.138.276-.931.186A3.766,3.766,0,0,0,27.968,8.48v9a3.5,3.5,0,0,0,3.5,3.5h.052A7.858,7.858,0,0,0,34.4,26.22H33.063a2.627,2.627,0,0,0-2.473-1.748h-.874a1.75,1.75,0,0,0-1.748-1.748H26.22V0H24.472V26.22h-6.3a9.6,9.6,0,0,0-7.687-5.183V13.914a6.105,6.105,0,0,0,4.478-9.006l2.293-2.58L15.953,1.168,13.885,3.494A6.113,6.113,0,1,0,8.74,13.914v7.107A9.612,9.612,0,1,0,18.175,34.96h6.3V52.44H0v1.748H54.188V52.44H48.944V30.59a4.355,4.355,0,0,0-2.119-3.726A7.872,7.872,0,0,0,50.641,20.976Zm.052-1.748v-3.5a1.748,1.748,0,1,1,0,3.5ZM31.33,6.511l3.176-.635L33.344,3.554a1.247,1.247,0,0,1,1.115-1.806H44.574A7.875,7.875,0,0,1,52.44,9.614V14.47a3.46,3.46,0,0,0-1.748-.486V13.11a4.368,4.368,0,0,0-3.634-4.3,2.616,2.616,0,0,0-2.484-1.822H43.7V8.74h.874a.874.874,0,1,1,0,1.748H31.724a2.008,2.008,0,0,1-.393-3.977Zm.134,7.473a3.46,3.46,0,0,0-1.748.486V11.643a3.722,3.722,0,0,0,1.748.566Zm-1.748,3.5a1.75,1.75,0,0,1,1.748-1.748v3.5A1.75,1.75,0,0,1,29.716,17.48Zm.874,8.74a.874.874,0,0,1,.874.874v4.37H29.716V26.22Zm-2.622-1.748V36.708H26.22V24.472ZM5.244,7.866A4.365,4.365,0,0,1,12.723,4.8L9.576,8.341,7.61,6.374,6.374,7.61l3.278,3.278,4.042-4.548a4.326,4.326,0,0,1,.29,1.527,4.37,4.37,0,0,1-8.74,0ZM17.05,33.212l-.229.524a7.866,7.866,0,1,1,0-6.293l.229.524h7.422v1.748H17.48v1.748h6.992v1.748Zm9.17,5.244h1.748a1.75,1.75,0,0,0,1.748-1.748v-3.5h1.748a1.75,1.75,0,0,0,1.748,1.748H34.96V52.44H26.22Zm10.488,6.992h1.748V52.44H36.708Zm0-1.748V34.96h7.866a4.325,4.325,0,0,0,2.622-.9V43.7Zm3.5,8.74V45.448H47.2V52.44Zm4.37-24.472a2.622,2.622,0,1,1,0,5.244H33.212V27.968ZM42.826,26.22h-3.5A6.126,6.126,0,0,1,33.212,20.1V12.236H44.574A2.623,2.623,0,0,0,47,10.589a2.617,2.617,0,0,1,1.94,2.521V20.1A6.126,6.126,0,0,1,42.826,26.22Z" transform="translate(0)"/>
        <path id="Trazado_1039901" data-name="Trazado 1039901" d="M36,52h1.748v1.748H36Z" transform="translate(-4.536 -6.552)"/>
        <path id="Trazado_1039902" data-name="Trazado 1039902" d="M32,52h1.748v1.748H32Z" transform="translate(-4.032 -6.552)"/>
      </g>
    </g>
  </g>
</svg>
