<svg xmlns="http://www.w3.org/2000/svg" xmlns:xlink="http://www.w3.org/1999/xlink" width="113" height="113" viewBox="0 0 113 113">
  <defs>
    <filter id="Trazado_982547" x="0" y="0" width="113" height="113" filterUnits="userSpaceOnUse">
      <feOffset dy="3" input="SourceAlpha"/>
      <feGaussianBlur stdDeviation="3" result="blur"/>
      <feFlood flood-opacity="0.161"/>
      <feComposite operator="in" in2="blur"/>
      <feComposite in="SourceGraphic"/>
    </filter>
  </defs>
  <g id="Grupo_1178266" data-name="Grupo 1178266" transform="translate(-901.56 -1405.003)">
    <g id="Grupo_1177898" data-name="Grupo 1177898" transform="translate(910.561 1411.003)">
      <g id="Grupo_1172010" data-name="Grupo 1172010" transform="translate(0)">
        <g id="Grupo_1171046" data-name="Grupo 1171046">
          <g id="Grupo_1148525" data-name="Grupo 1148525">
            <g transform="matrix(1, 0, 0, 1, -9, -6)" filter="url(#Trazado_982547)">
              <g id="Trazado_982547-2" data-name="Trazado 982547" transform="translate(9 6)" fill="#fdfbec">
                <path d="M 47.5 93.5 C 41.28937149047852 93.5 35.26533508300781 92.28397369384766 29.59518623352051 89.88570404052734 C 24.11771965026855 87.56893157958984 19.19813346862793 84.25196075439453 14.97309303283691 80.02691650390625 C 10.74804019927979 75.80186462402344 7.431066513061523 70.88229370117188 5.114293098449707 65.40481567382812 C 2.716026782989502 59.73468017578125 1.5 53.71062850952148 1.5 47.5 C 1.5 41.28937149047852 2.716026782989502 35.26533508300781 5.114293098449707 29.59518623352051 C 7.431066513061523 24.11771965026855 10.74804019927979 19.19813346862793 14.97309303283691 14.97309303283691 C 19.19813346862793 10.74804019927979 24.11771965026855 7.431066513061523 29.59518623352051 5.114293098449707 C 35.26533508300781 2.716026782989502 41.28937149047852 1.5 47.5 1.5 C 53.71062850952148 1.5 59.73468017578125 2.716026782989502 65.40481567382812 5.114293098449707 C 70.88229370117188 7.431066513061523 75.80186462402344 10.74804019927979 80.02691650390625 14.97309303283691 C 84.25196075439453 19.19813346862793 87.56893157958984 24.11771965026855 89.88570404052734 29.59518623352051 C 92.28397369384766 35.26533508300781 93.5 41.28937149047852 93.5 47.5 C 93.5 53.71062850952148 92.28397369384766 59.73468017578125 89.88570404052734 65.40481567382812 C 87.56893157958984 70.88229370117188 84.25196075439453 75.80186462402344 80.02691650390625 80.02691650390625 C 75.80186462402344 84.25196075439453 70.88229370117188 87.56893157958984 65.40481567382812 89.88570404052734 C 59.73468017578125 92.28397369384766 53.71062850952148 93.5 47.5 93.5 Z" stroke="none"/>
                <path d="M 47.5 3 C 41.49121475219727 3 35.66376876831055 4.176155090332031 30.17950439453125 6.495796203613281 C 24.88084411621094 8.736953735351562 20.12152099609375 11.94598388671875 16.03375244140625 16.03375244140625 C 11.94598388671875 20.12152099609375 8.736953735351562 24.88084411621094 6.495796203613281 30.17950439453125 C 4.176155090332031 35.66376876831055 3 41.49121475219727 3 47.5 C 3 53.50878524780273 4.176155090332031 59.33623123168945 6.495796203613281 64.82049560546875 C 8.736953735351562 70.11915588378906 11.94598388671875 74.87847900390625 16.03375244140625 78.96624755859375 C 20.12152099609375 83.05401611328125 24.88084411621094 86.26304626464844 30.17950439453125 88.50419616699219 C 35.66376876831055 90.82384490966797 41.49121475219727 92 47.5 92 C 53.50878524780273 92 59.33623123168945 90.82384490966797 64.82049560546875 88.50419616699219 C 70.11915588378906 86.26304626464844 74.87847900390625 83.05401611328125 78.96624755859375 78.96624755859375 C 83.05401611328125 74.87847900390625 86.26304626464844 70.11915588378906 88.50419616699219 64.82049560546875 C 90.82384490966797 59.33623123168945 92 53.50878524780273 92 47.5 C 92 41.49121475219727 90.82384490966797 35.66376876831055 88.50419616699219 30.17950439453125 C 86.26304626464844 24.88084411621094 83.05401611328125 20.12152099609375 78.96624755859375 16.03375244140625 C 74.87847900390625 11.94598388671875 70.11915588378906 8.736953735351562 64.82049560546875 6.495796203613281 C 59.33623123168945 4.176155090332031 53.50878524780273 3 47.5 3 M 47.5 0 C 73.7335205078125 0 95 21.2664794921875 95 47.5 C 95 73.7335205078125 73.7335205078125 95 47.5 95 C 21.2664794921875 95 0 73.7335205078125 0 47.5 C 0 21.2664794921875 21.2664794921875 0 47.5 0 Z" stroke="none" fill="#83793c"/>
              </g>
            </g>
          </g>
        </g>
      </g>
    </g>
    <g id="storytelling_1702323" transform="translate(928.65 1423.504)">
      <path id="Trazado_1039903" data-name="Trazado 1039903" d="M281.2,250.505l-4.853-16.141a2.67,2.67,0,0,0-2.667-1.9h-6.7a10.862,10.862,0,0,1-1.53.684v1.557a3.625,3.625,0,0,1-2.53,3.449c0-.011,0-.021-.005-.032a8.256,8.256,0,0,1,.114,1.344h.644a1.868,1.868,0,0,1,1.872,1.853v1.549a1.868,1.868,0,0,1-1.872,1.853h-.908a7.842,7.842,0,0,1-1.418,2.829l12.132-6.988c.681-.392,1.238-.071,1.238.713v6.08h1.568a1.143,1.143,0,0,1,1.143,1.141v5.563a1.142,1.142,0,0,1-1.143,1.141h-1.568v2.55H276a5.446,5.446,0,0,0,4.439-2.127,5.72,5.72,0,0,0,.77-5.124Zm0,0" transform="translate(-225.192 -200.684)" fill="#ef5050"/>
      <path id="Trazado_1039904" data-name="Trazado 1039904" d="M181.647,96.959h-1.8V93.972a1.1,1.1,0,0,0-1.1-1.093H158.9a1.1,1.1,0,0,0-1.1,1.093v2.988h-1.8a2.351,2.351,0,0,0-2.369,2.331v2.468a2.351,2.351,0,0,0,2.369,2.331h1.978a11.22,11.22,0,0,0,3.78,6.582,8.428,8.428,0,0,1,8.173,6.984,3.624,3.624,0,0,0,2.53-3.449v-1.557a11.172,11.172,0,0,0,7.2-8.56h1.978a2.35,2.35,0,0,0,2.369-2.331V99.291a2.35,2.35,0,0,0-2.369-2.331Zm0,0" transform="translate(-132.2 -80.181)" fill="#ffd5b3"/>
      <path id="Trazado_1039905" data-name="Trazado 1039905" d="M167.222,23.253h1.8V20.266a1.1,1.1,0,0,1,1.1-1.093h19.845a1.1,1.1,0,0,1,1.1,1.093v2.988h1.8a2.39,2.39,0,0,1,.593.077V15.6a5.827,5.827,0,0,0-9.147-4.754C182.6,8.646,179.621,7.5,176.229,7.5a9.574,9.574,0,0,0-9.6,9.549v6.28a2.382,2.382,0,0,1,.593-.077Zm0,0" transform="translate(-143.416 -6.475)" fill="#f7931e"/>
      <path id="Trazado_1039906" data-name="Trazado 1039906" d="M167.222,23.253h1.8V20.266a1.1,1.1,0,0,1,1.1-1.093h.7V17.05a9.564,9.564,0,0,1,7.7-9.362,13.84,13.84,0,0,0-2.3-.187,9.574,9.574,0,0,0-9.6,9.549v6.28a2.382,2.382,0,0,1,.593-.077Zm0,0" transform="translate(-143.416 -6.475)" fill="#de841b"/>
      <path id="Trazado_1039907" data-name="Trazado 1039907" d="M240.171,190.457a4.065,4.065,0,0,1-3.89-4.211.551.551,0,0,1,.556-.547h6.669a.552.552,0,0,1,.556.547A4.065,4.065,0,0,1,240.171,190.457Zm0,0" transform="translate(-203.545 -160.311)" fill="#fb8276"/>
      <path id="Trazado_1039908" data-name="Trazado 1039908" d="M239.154,186.246a.551.551,0,0,1,.556-.547h-2.873a.551.551,0,0,0-.556.547,4.065,4.065,0,0,0,3.89,4.211,3.609,3.609,0,0,0,1.437-.3A4.225,4.225,0,0,1,239.154,186.246Zm0,0" transform="translate(-203.546 -160.311)" fill="#e1756a"/>
      <path id="Trazado_1039909" data-name="Trazado 1039909" d="M133.9,241.649a2.756,2.756,0,0,0,2.477,0l3.969-2.286a7.842,7.842,0,0,0,1.418-2.829h.908a1.868,1.868,0,0,0,1.872-1.853v-1.549a1.868,1.868,0,0,0-1.872-1.853h-.644a8.4,8.4,0,0,0-8.481-8.3h-1.368a8.4,8.4,0,0,0-8.481,8.3h-.644a1.868,1.868,0,0,0-1.872,1.853v1.192Zm0,0" transform="translate(-104.184 -192.492)" fill="#ffd5b3"/>
      <path id="Trazado_1039910" data-name="Trazado 1039910" d="M156.772,224.722a8.553,8.553,0,0,0-5.2-1.745h-1.368a8.461,8.461,0,0,0-8.142,5.99,1.824,1.824,0,0,0,2.383-.166l1.01-1.007a1.821,1.821,0,0,0,3.091,1.024l1.01-1.008a1.8,1.8,0,0,0,.513,1.024,1.824,1.824,0,0,0,2.577,0Zm0,0" transform="translate(-122.212 -192.492)" fill="#f7931e"/>
      <path id="Trazado_1039911" data-name="Trazado 1039911" d="M142.91,261.711a8.16,8.16,0,0,1,.563-2.985,1.849,1.849,0,0,1-.156-.516l-1.01,1.008a1.825,1.825,0,0,1-2.383.166,8.154,8.154,0,0,0-.339,2.327v3.217a7.869,7.869,0,0,0,.114,1.326l3.25,1.872c-.026-1.368-.039-2.937-.039-3.2Zm0,0" transform="translate(-120.07 -222.909)" fill="#e5bfa1"/>
      <path id="Trazado_1039912" data-name="Trazado 1039912" d="M152.551,223.034a8.629,8.629,0,0,0-.975-.057h-1.368a8.461,8.461,0,0,0-8.142,5.99,1.824,1.824,0,0,0,2.383-.166l1.01-1.007a1.833,1.833,0,0,0,.156.516,8.463,8.463,0,0,1,6.935-5.276Zm0,0" transform="translate(-122.212 -192.492)" fill="#de841b"/>
      <path id="Trazado_1039913" data-name="Trazado 1039913" d="M123.249,297.456h1.292v-6.08c0-.785-.558-1.105-1.238-.714l-16.1,9.273a2.752,2.752,0,0,1-2.477,0l-16.1-9.273c-.681-.392-1.238-.071-1.238.714v6.08h1.546a1.143,1.143,0,0,1,1.143,1.141v5.563a1.142,1.142,0,0,1-1.143,1.141H87.386v2.745a2.741,2.741,0,0,0,1.238,2.14l16.1,9.273a2.752,2.752,0,0,0,2.477,0l16.1-9.273a2.741,2.741,0,0,0,1.238-2.14V305.3h-1.292a1.142,1.142,0,0,1-1.144-1.141V298.6a1.143,1.143,0,0,1,1.144-1.141Zm0,0" transform="translate(-75.007 -250.78)" fill="#d5e962"/>
      <path id="Trazado_1039914" data-name="Trazado 1039914" d="M104.726,299.937l-16.1-9.274c-.681-.392-1.238-.071-1.238.714v6.08h1.546a1.143,1.143,0,0,1,1.143,1.141v5.563a1.142,1.142,0,0,1-1.143,1.141H87.386v2.745a2.741,2.741,0,0,0,1.238,2.14l16.1,9.273a2.537,2.537,0,0,0,1.239.294V300.231a2.543,2.543,0,0,1-1.239-.294Zm0,0" transform="translate(-75.007 -250.78)" fill="#89c947"/>
      <path id="Trazado_1039915" data-name="Trazado 1039915" d="M88.933,297.456a1.143,1.143,0,0,1,1.125.943v-5.5c0-.725.476-1.053,1.086-.788l-2.519-1.452c-.681-.392-1.238-.071-1.238.714v6.08Zm0,0" transform="translate(-75.008 -250.78)" fill="#7bb540"/>
      <path id="Trazado_1039916" data-name="Trazado 1039916" d="M90.5,376.026q-.211-.21-.428-.408v2.028a1.142,1.142,0,0,1-1.143,1.141H87.386v2.745a2.741,2.741,0,0,0,1.238,2.14l5.98,3.445A13.784,13.784,0,0,0,90.5,376.026Zm0,0" transform="translate(-75.007 -324.264)" fill="#ffc502"/>
      <path id="Trazado_1039917" data-name="Trazado 1039917" d="M92.013,399.665l-.717-.413a2.739,2.739,0,0,1-1.238-2.139V391.9a1.143,1.143,0,0,1-1.125.943H87.387v2.745a2.741,2.741,0,0,0,1.238,2.14l3.4,1.957Zm0,0" transform="translate(-75.008 -338.319)" fill="#e5b102"/>
      <path id="Trazado_1039918" data-name="Trazado 1039918" d="M253.914,371.875a1.432,1.432,0,0,0,.392-.28l2.318-2.3,2.317.138a.831.831,0,0,0,.393-.086,1.466,1.466,0,0,0,.5-.393,1.27,1.27,0,0,0,.336-.982l-.443-2.374,1.875-2.7a1.1,1.1,0,0,0,.213-.965.5.5,0,0,0-.681-.257l-2.591.832L257.38,360.7a.56.56,0,0,0-.756-.118,1.582,1.582,0,0,0-.757.823l-1.159,2.888-2.591,1.585a1.6,1.6,0,0,0-.681.891c-.1.354-.018.647.213.766l1.875.953-.442,2.787c-.054.344.074.6.335.669A.742.742,0,0,0,253.914,371.875Zm0,0" transform="translate(-216.593 -311.209)" fill="#ffc502"/>
      <path id="Trazado_1039919" data-name="Trazado 1039919" d="M255.667,395.593l.443-2.787-1.875-.953c-.231-.119-.313-.412-.213-.766a1.447,1.447,0,0,1,.13-.307l-2.033,1.244a1.6,1.6,0,0,0-.681.891c-.1.354-.018.647.213.766l1.875.953-.443,2.787c-.054.344.074.6.336.669a.744.744,0,0,0,.5-.07,1.446,1.446,0,0,0,.392-.28l1.556-1.543A.583.583,0,0,1,255.667,395.593Zm0,0" transform="translate(-216.593 -337.354)" fill="#e5b102"/>
      <path id="Trazado_1039920" data-name="Trazado 1039920" d="M74.558,348.114a1.143,1.143,0,0,1-1.143,1.141h-2.86a1.142,1.142,0,0,1-1.144-1.141v-5.563a1.143,1.143,0,0,1,1.144-1.141h2.86a1.142,1.142,0,0,1,1.143,1.141Zm0,0" transform="translate(-59.489 -294.733)" fill="#ffd5b3"/>
      <path id="Trazado_1039921" data-name="Trazado 1039921" d="M71.493,348.114v-5.563a1.143,1.143,0,0,1,1.144-1.141H70.554a1.142,1.142,0,0,0-1.144,1.141v5.563a1.143,1.143,0,0,0,1.144,1.141h2.083A1.142,1.142,0,0,1,71.493,348.114Zm0,0" transform="translate(-59.489 -294.733)" fill="#e5bfa1"/>
      <path id="Trazado_1039922" data-name="Trazado 1039922" d="M346.483,348.114a1.143,1.143,0,0,1-1.143,1.141h-2.86a1.142,1.142,0,0,1-1.144-1.141v-5.563a1.143,1.143,0,0,1,1.144-1.141h2.86a1.142,1.142,0,0,1,1.143,1.141Zm0,0" transform="translate(-294.237 -294.733)" fill="#ffd5b3"/>
      <path id="Trazado_1039923" data-name="Trazado 1039923" d="M343.429,348.114v-5.563a1.143,1.143,0,0,1,1.144-1.141H342.48a1.142,1.142,0,0,0-1.144,1.141v5.563a1.143,1.143,0,0,0,1.144,1.141h2.092A1.142,1.142,0,0,1,343.429,348.114Zm0,0" transform="translate(-294.238 -294.733)" fill="#e5bfa1"/>
      <path id="Trazado_1039924" data-name="Trazado 1039924" d="M27.175,153.463l-2.085-1.316v-6.779A1.371,1.371,0,0,0,23.723,144H9.367A1.371,1.371,0,0,0,8,145.367V156.3a1.371,1.371,0,0,0,1.367,1.367H23.723A1.371,1.371,0,0,0,25.09,156.3v-.8l2.085-1.316A.4.4,0,0,0,27.175,153.463Zm0,0" transform="translate(-6.475 -124.313)" fill="#fcdb67"/>
      <path id="Trazado_1039925" data-name="Trazado 1039925" d="M12.142,156.3V145.367A1.371,1.371,0,0,1,13.509,144H9.367A1.371,1.371,0,0,0,8,145.367V156.3a1.371,1.371,0,0,0,1.367,1.367h4.142A1.371,1.371,0,0,1,12.142,156.3Zm0,0" transform="translate(-6.475 -124.313)" fill="#e2c55c"/>
      <path id="Trazado_1039926" data-name="Trazado 1039926" d="M193.9,100.379h-2.2a.07.07,0,0,0-.073.067v8.126a10.2,10.2,0,0,0,3.334,7.564,9.6,9.6,0,0,1,2.237.408,11.224,11.224,0,0,1-3.3-7.972v-8.126C193.892,100.423,193.894,100.4,193.9,100.379Zm0,0" transform="translate(-164.994 -86.656)" fill="#e5bfa1"/>
      <path id="Trazado_1039927" data-name="Trazado 1039927" d="M110.009,49.525l-2.73-9.078a1.026,1.026,0,0,0-1.964.591l2.73,9.078a4.707,4.707,0,0,1-.609,4.216,4.431,4.431,0,0,1-3.616,1.715h-.245v-.5h.542a2.17,2.17,0,0,0,2.169-2.166V47.818a2.17,2.17,0,0,0-2.169-2.167h-.542V40.6a1.758,1.758,0,0,0-1.714-1.906,2.122,2.122,0,0,0-1.062.3l-6.446,3.712a2.859,2.859,0,0,0,.05-.519V40.639a2.883,2.883,0,0,0-2.139-2.774,4.638,4.638,0,0,0,2.044-3.84v-.857c.26-.111.515-.23.765-.358h6.478a1.64,1.64,0,0,1,1.642,1.166l.726,2.413a1.026,1.026,0,0,0,1.964-.591l-.726-2.413a3.688,3.688,0,0,0-3.668-2.625H97.934a12.25,12.25,0,0,0,3.381-5.825h1.147a3.379,3.379,0,0,0,3.394-3.357V19.109a3.355,3.355,0,0,0-1.776-2.95V9.129a6.849,6.849,0,0,0-9.967-6.066A11.272,11.272,0,0,0,85.827,0,10.612,10.612,0,0,0,75.2,10.574V16.16a3.354,3.354,0,0,0-1.776,2.95v2.468a3.38,3.38,0,0,0,3.394,3.357h1.147a12.241,12.241,0,0,0,2.239,4.561,9.446,9.446,0,0,0-8.643,8.286,2.9,2.9,0,0,0-2.52,2.308l-1.9-1.093a2.113,2.113,0,0,0-1.062-.3A1.758,1.758,0,0,0,64.368,40.6v5.055H64.08a2.17,2.17,0,0,0-2.169,2.167v5.563a2.17,2.17,0,0,0,2.169,2.167h.288v1.719A3.756,3.756,0,0,0,66.12,60.3l16.1,9.273a3.768,3.768,0,0,0,3.5,0l16.1-9.273a3.782,3.782,0,0,0,1.631-2.2h.366a6.461,6.461,0,0,0,5.26-2.539,6.735,6.735,0,0,0,.93-6.033ZM92.352,40.639v1.549a.828.828,0,0,1-.516.761,8.91,8.91,0,0,0,.05-.93V39.9a.825.825,0,0,1,.466.738Zm-.932-4.718a9.216,9.216,0,0,0-.84-1.836,11.869,11.869,0,0,0,1.676-.252v.192A2.572,2.572,0,0,1,91.42,35.921ZM102.461,17.8a1.326,1.326,0,0,1,1.343,1.306v2.468a1.326,1.326,0,0,1-1.343,1.306h-.812q.038-.478.038-.966V17.8ZM97.231,4.363a4.787,4.787,0,0,1,4.8,4.766v6.623h-.342V13.791a2.123,2.123,0,0,0-2.123-2.118H96.453V9.091a8.793,8.793,0,0,0-1.09-4.349,4.785,4.785,0,0,1,1.869-.38ZM76.82,22.883a1.327,1.327,0,0,1-1.344-1.306V19.109A1.327,1.327,0,0,1,76.82,17.8h.774v4.113c0,.325.013.647.038.967Zm.774-9.092v1.962h-.341V10.574A8.559,8.559,0,0,1,85.827,2.05a10.031,10.031,0,0,1,6.157,1.838,6.346,6.346,0,0,1,2.418,5.2v2.581H79.717a2.123,2.123,0,0,0-2.123,2.118Zm2.051,8.126V13.791a.07.07,0,0,1,.073-.067H99.563a.07.07,0,0,1,.073.067v8.126a10.088,10.088,0,0,1-10,10.157c-.237,0-.472-.01-.7-.027a9.547,9.547,0,0,0-5.957-2.566,10.2,10.2,0,0,1-3.334-7.564Zm1.367,9.594h1.368a7.545,7.545,0,0,1,3.571.892l-3.222,3.214a.8.8,0,0,1-1.128,0,.781.781,0,0,1-.222-.445,1.026,1.026,0,0,0-1.739-.579L78.629,35.6a.8.8,0,0,1-1.129,0,.781.781,0,0,1-.222-.446,1.026,1.026,0,0,0-1.739-.579l-1.01,1.008a.785.785,0,0,1-.292.182A7.476,7.476,0,0,1,81.011,31.51ZM73.556,38.8a7.179,7.179,0,0,1,.067-.964,2.85,2.85,0,0,0,2.354-.8l.029-.029.045.046a2.854,2.854,0,0,0,4.025,0l.03-.029.045.045a2.854,2.854,0,0,0,4.026,0l3.449-3.441A7.19,7.19,0,0,1,89.835,38.8V42.02a6.787,6.787,0,0,1-1.352,4.068L84.7,48.268a1.758,1.758,0,0,1-1.453,0l-9.654-5.56a6.82,6.82,0,0,1-.036-.688ZM71.04,40.639A.826.826,0,0,1,71.5,39.9v1.6l-.465-.268ZM64.08,53.5a.117.117,0,0,1-.119-.116V47.818a.117.117,0,0,1,.119-.116h2.86a.117.117,0,0,1,.118.116v5.563a.117.117,0,0,1-.118.116Zm3.064,5.022a1.732,1.732,0,0,1-.725-1.252V55.547h.521a2.17,2.17,0,0,0,2.1-1.626,12.64,12.64,0,0,1,2.607,7.189Zm34.379-1.252a1.731,1.731,0,0,1-.725,1.251L85,67.619V66.308a1.025,1.025,0,0,0-2.051,0v1.311l-9.263-5.335a14.784,14.784,0,0,0-4.448-11.249c-.042-.041-.085-.08-.127-.12v-3.1a2.17,2.17,0,0,0-2.169-2.167h-.521V40.944l15.8,9.1a3.1,3.1,0,0,0,.725.295V61.523a1.025,1.025,0,1,0,2.051,0V50.34a3.076,3.076,0,0,0,.725-.295l15.8-9.1v4.708h-.266a2.17,2.17,0,0,0-2.169,2.167v2.323a1.467,1.467,0,0,0-1.3-.738,1.8,1.8,0,0,0-.551.089l-1.84.591-.733-1.144a1.469,1.469,0,0,0-1.262-.678,1.868,1.868,0,0,0-.791.184,2.614,2.614,0,0,0-1.275,1.37l-1.032,2.573L88,53.8a2.628,2.628,0,0,0-1.133,1.488,1.619,1.619,0,0,0,.736,1.958l1.21.615-.325,2.05a1.54,1.54,0,0,0,1.088,1.821,1.583,1.583,0,0,0,.4.051,1.87,1.87,0,0,0,.791-.184,2.481,2.481,0,0,0,.679-.481l1.992-1.976,1.862.111a1.842,1.842,0,0,0,.884-.18,2.506,2.506,0,0,0,.849-.663,2.276,2.276,0,0,0,.558-1.828l-.364-1.954,1.631-2.35a2.585,2.585,0,0,0,.225-.394v1.5a2.17,2.17,0,0,0,2.169,2.167h.267v1.719Zm-6.387-2.688.434,2.33a.544.544,0,0,1-.106.18.526.526,0,0,1-.12.109l-2.238-.133a1.012,1.012,0,0,0-.783.3l-1.6,1.591.239-1.509a1.026,1.026,0,0,0-.548-1.075l-1.441-.733a.5.5,0,0,1,.1-.089l2.591-1.585a1.027,1.027,0,0,0,.417-.493L93.24,50.58c0-.013.011-.026.017-.038l.84,1.311a1.025,1.025,0,0,0,1.177.423l1.4-.45L95.3,53.806a1.023,1.023,0,0,0-.166.772Zm6.12-1.081a.117.117,0,0,1-.119-.116V47.818a.117.117,0,0,1,.119-.116h2.86a.117.117,0,0,1,.118.116v5.563a.117.117,0,0,1-.118.116Zm0,0" transform="translate(-53.014)"/>
      <path id="Trazado_1039928" data-name="Trazado 1039928" d="M215.291,133.967a1.025,1.025,0,0,0,1.025-1.025v-1.4a1.025,1.025,0,0,0-2.051,0v1.4A1.026,1.026,0,0,0,215.291,133.967Zm0,0" transform="translate(-184.54 -112.672)"/>
      <path id="Trazado_1039929" data-name="Trazado 1039929" d="M301.228,133.967a1.025,1.025,0,0,0,1.025-1.025v-1.4a1.025,1.025,0,0,0-2.051,0v1.4A1.026,1.026,0,0,0,301.228,133.967Zm0,0" transform="translate(-258.728 -112.672)"/>
      <path id="Trazado_1039930" data-name="Trazado 1039930" d="M252,138.164h1.216a1.025,1.025,0,0,0,0-2.051h-.874v-2.471a1.025,1.025,0,1,0-2.051,0v2.812A1.711,1.711,0,0,0,252,138.164Zm0,0" transform="translate(-215.638 -114.487)"/>
      <path id="Trazado_1039931" data-name="Trazado 1039931" d="M233.7,185.008a5.09,5.09,0,0,0,4.916-5.236,1.578,1.578,0,0,0-1.581-1.572h-6.669a1.578,1.578,0,0,0-1.581,1.572A5.09,5.09,0,0,0,233.7,185.008Zm2.833-4.758a2.835,2.835,0,0,1-5.665,0Zm0,0" transform="translate(-197.071 -153.836)"/>
      <path id="Trazado_1039932" data-name="Trazado 1039932" d="M166.142,300.151a1.025,1.025,0,0,0,1.025-1.025v-.608a1.025,1.025,0,0,0-2.051,0v.608A1.026,1.026,0,0,0,166.142,300.151Zm0,0" transform="translate(-142.111 -256.82)"/>
      <path id="Trazado_1039933" data-name="Trazado 1039933" d="M234.158,300.151a1.025,1.025,0,0,0,1.025-1.025v-.608a1.025,1.025,0,0,0-2.051,0v.608A1.026,1.026,0,0,0,234.158,300.151Zm0,0" transform="translate(-200.828 -256.82)"/>
      <path id="Trazado_1039934" data-name="Trazado 1039934" d="M196.869,305.056h.52a1.025,1.025,0,0,0,0-2.051h-.014V302.6a1.025,1.025,0,1,0-2.051,0v.751a1.635,1.635,0,0,0,1.545,1.709Zm0,0" transform="translate(-168.188 -260.341)"/>
      <path id="Trazado_1039935" data-name="Trazado 1039935" d="M12.571,151.2a1.025,1.025,0,0,0-1.025-1.025H2.893a.346.346,0,0,1-.342-.342V138.893a.346.346,0,0,1,.342-.342H17.248a.346.346,0,0,1,.342.342v6.779a1.026,1.026,0,0,0,.478.867l1.29.814-1.29.814a1.025,1.025,0,0,0-.478.867v.8a.346.346,0,0,1-.342.342h-.917a1.025,1.025,0,0,0,0,2.051h.917a2.4,2.4,0,0,0,2.393-2.393v-.23l1.608-1.015a1.417,1.417,0,0,0,0-2.464l-1.608-1.015v-6.214a2.4,2.4,0,0,0-2.393-2.393H2.893A2.4,2.4,0,0,0,.5,138.893V149.83a2.4,2.4,0,0,0,2.393,2.393h8.653A1.025,1.025,0,0,0,12.571,151.2Zm0,0" transform="translate(0 -117.838)"/>
      <path id="Trazado_1039936" data-name="Trazado 1039936" d="M28.131,164.231h9.951a1.025,1.025,0,1,0,0-2.051H28.131a1.025,1.025,0,1,0,0,2.051Zm0,0" transform="translate(-22.968 -140.007)"/>
      <path id="Trazado_1039937" data-name="Trazado 1039937" d="M39.108,186.025A1.025,1.025,0,0,0,38.082,185H28.131a1.025,1.025,0,0,0,0,2.051h9.951A1.025,1.025,0,0,0,39.108,186.025Zm0,0" transform="translate(-22.968 -159.707)"/>
      <path id="Trazado_1039938" data-name="Trazado 1039938" d="M28.131,207.82a1.025,1.025,0,1,0,0,2.051h5.8a1.025,1.025,0,1,0,0-2.051Zm0,0" transform="translate(-22.968 -179.408)"/>
    </g>
  </g>
</svg>
