<svg xmlns="http://www.w3.org/2000/svg" xmlns:xlink="http://www.w3.org/1999/xlink" width="113" height="113" viewBox="0 0 113 113">
  <defs>
    <filter id="Trazado_982547" x="0" y="0" width="113" height="113" filterUnits="userSpaceOnUse">
      <feOffset dy="3" input="SourceAlpha"/>
      <feGaussianBlur stdDeviation="3" result="blur"/>
      <feFlood flood-opacity="0.161"/>
      <feComposite operator="in" in2="blur"/>
      <feComposite in="SourceGraphic"/>
    </filter>
  </defs>
  <g id="Grupo_1178033" data-name="Grupo 1178033" transform="translate(-901.85 -1275.921)">
    <g id="Grupo_1177782" data-name="Grupo 1177782" transform="translate(910.85 1281.921)">
      <g id="Grupo_1172010" data-name="Grupo 1172010" transform="translate(0)">
        <g id="Grupo_1171046" data-name="Grupo 1171046">
          <g id="Grupo_1148525" data-name="Grupo 1148525">
            <g transform="matrix(1, 0, 0, 1, -9, -6)" filter="url(#Trazado_982547)">
              <g id="Trazado_982547-2" data-name="Trazado 982547" transform="translate(9 6)" fill="#fdfbec">
                <path d="M 47.5 93.5 C 41.28937149047852 93.5 35.26533508300781 92.28397369384766 29.59518623352051 89.88570404052734 C 24.11771965026855 87.56893157958984 19.19813346862793 84.25196075439453 14.97309303283691 80.02691650390625 C 10.74804019927979 75.80186462402344 7.431066513061523 70.88229370117188 5.114293098449707 65.40481567382812 C 2.716026782989502 59.73468017578125 1.5 53.71062850952148 1.5 47.5 C 1.5 41.28937149047852 2.716026782989502 35.26533508300781 5.114293098449707 29.59518623352051 C 7.431066513061523 24.11771965026855 10.74804019927979 19.19813346862793 14.97309303283691 14.97309303283691 C 19.19813346862793 10.74804019927979 24.11771965026855 7.431066513061523 29.59518623352051 5.114293098449707 C 35.26533508300781 2.716026782989502 41.28937149047852 1.5 47.5 1.5 C 53.71062850952148 1.5 59.73468017578125 2.716026782989502 65.40481567382812 5.114293098449707 C 70.88229370117188 7.431066513061523 75.80186462402344 10.74804019927979 80.02691650390625 14.97309303283691 C 84.25196075439453 19.19813346862793 87.56893157958984 24.11771965026855 89.88570404052734 29.59518623352051 C 92.28397369384766 35.26533508300781 93.5 41.28937149047852 93.5 47.5 C 93.5 53.71062850952148 92.28397369384766 59.73468017578125 89.88570404052734 65.40481567382812 C 87.56893157958984 70.88229370117188 84.25196075439453 75.80186462402344 80.02691650390625 80.02691650390625 C 75.80186462402344 84.25196075439453 70.88229370117188 87.56893157958984 65.40481567382812 89.88570404052734 C 59.73468017578125 92.28397369384766 53.71062850952148 93.5 47.5 93.5 Z" stroke="none"/>
                <path d="M 47.5 3 C 41.49121475219727 3 35.66376876831055 4.176155090332031 30.17950439453125 6.495796203613281 C 24.88084411621094 8.736953735351562 20.12152099609375 11.94598388671875 16.03375244140625 16.03375244140625 C 11.94598388671875 20.12152099609375 8.736953735351562 24.88084411621094 6.495796203613281 30.17950439453125 C 4.176155090332031 35.66376876831055 3 41.49121475219727 3 47.5 C 3 53.50878524780273 4.176155090332031 59.33623123168945 6.495796203613281 64.82049560546875 C 8.736953735351562 70.11915588378906 11.94598388671875 74.87847900390625 16.03375244140625 78.96624755859375 C 20.12152099609375 83.05401611328125 24.88084411621094 86.26304626464844 30.17950439453125 88.50419616699219 C 35.66376876831055 90.82384490966797 41.49121475219727 92 47.5 92 C 53.50878524780273 92 59.33623123168945 90.82384490966797 64.82049560546875 88.50419616699219 C 70.11915588378906 86.26304626464844 74.87847900390625 83.05401611328125 78.96624755859375 78.96624755859375 C 83.05401611328125 74.87847900390625 86.26304626464844 70.11915588378906 88.50419616699219 64.82049560546875 C 90.82384490966797 59.33623123168945 92 53.50878524780273 92 47.5 C 92 41.49121475219727 90.82384490966797 35.66376876831055 88.50419616699219 30.17950439453125 C 86.26304626464844 24.88084411621094 83.05401611328125 20.12152099609375 78.96624755859375 16.03375244140625 C 74.87847900390625 11.94598388671875 70.11915588378906 8.736953735351562 64.82049560546875 6.495796203613281 C 59.33623123168945 4.176155090332031 53.50878524780273 3 47.5 3 M 47.5 0 C 73.7335205078125 0 95 21.2664794921875 95 47.5 C 95 73.7335205078125 73.7335205078125 95 47.5 95 C 21.2664794921875 95 0 73.7335205078125 0 47.5 C 0 21.2664794921875 21.2664794921875 0 47.5 0 Z" stroke="none" fill="#83793c"/>
              </g>
            </g>
          </g>
        </g>
      </g>
    </g>
    <g id="education_4694357_1_" data-name="education_4694357 (1)" transform="translate(930.113 1300.824)">
      <g id="Grupo_1178031" data-name="Grupo 1178031" transform="translate(0.909 0.909)">
        <g id="Grupo_1178017" data-name="Grupo 1178017" transform="translate(0 39.992)">
          <path id="Trazado_1036355" data-name="Trazado 1036355" d="M55.534,45.909v1.818a.912.912,0,0,1-.909.909H36.1a.912.912,0,0,0-.818.5l-1.563,3.136-.191.382a5.883,5.883,0,0,1-10.525,0l-.191-.382L21.25,49.136a.912.912,0,0,0-.818-.5H1.909A.912.912,0,0,1,1,47.727V45.909A.912.912,0,0,1,1.909,45H20.8a3.656,3.656,0,0,1,3.09,1.709l2.99,4.79a1.638,1.638,0,0,0,2.781,0l2.99-4.79A3.656,3.656,0,0,1,35.738,45H54.625a.912.912,0,0,1,.909.909Z" transform="translate(-1 -45)" fill="#e6e9ed"/>
        </g>
        <g id="Grupo_1178018" data-name="Grupo 1178018" transform="translate(32.721 43.627)">
          <path id="Trazado_1036356" data-name="Trazado 1036356" d="M57.9,49v3.636H37L38.563,49.5a.912.912,0,0,1,.818-.5Z" transform="translate(-37 -49)" fill="#ccd1d9"/>
        </g>
        <g id="Grupo_1178019" data-name="Grupo 1178019" transform="translate(0.909 43.627)">
          <path id="Trazado_1036357" data-name="Trazado 1036357" d="M21.341,49.5,22.9,52.636H2V49H20.523a.912.912,0,0,1,.818.5Z" transform="translate(-2 -49)" fill="#ccd1d9"/>
        </g>
        <g id="Grupo_1178020" data-name="Grupo 1178020" transform="translate(0 47.263)">
          <path id="Trazado_1036358" data-name="Trazado 1036358" d="M23,53.382a5.887,5.887,0,0,0,10.525,0L33.721,53h20.9a.912.912,0,0,1,.909.909v1.818a.912.912,0,0,1-.909.909H35.756a9.532,9.532,0,0,1-14.979,0H1.909A.912.912,0,0,1,1,55.727V53.909A.912.912,0,0,1,1.909,53h20.9Z" transform="translate(-1 -53)" fill="#cf9e76"/>
        </g>
        <g id="Grupo_1178021" data-name="Grupo 1178021" transform="translate(41.81 19.996)">
          <path id="Trazado_1036359" data-name="Trazado 1036359" d="M50.636,23.909v3.636a.912.912,0,0,1-.909.909H47.909A.912.912,0,0,1,47,27.545V23.909A.912.912,0,0,1,47.909,23h1.818A.912.912,0,0,1,50.636,23.909Z" transform="translate(-47 -23)" fill="#fcd770"/>
        </g>
        <g id="Grupo_1178022" data-name="Grupo 1178022" transform="translate(9.089 3.636)">
          <path id="Trazado_1036360" data-name="Trazado 1036360" d="M47.356,5.909V7.727a.912.912,0,0,1-.909.909H11.909A.912.912,0,0,1,11,7.727V5.909A.912.912,0,0,1,11.909,5H46.447A.912.912,0,0,1,47.356,5.909Z" transform="translate(-11 -5)" fill="#969faa"/>
        </g>
        <g id="Grupo_1178023" data-name="Grupo 1178023" transform="translate(23.632)">
          <path id="Trazado_1036361" data-name="Trazado 1036361" d="M34.271,4.636H27a3.636,3.636,0,1,1,7.271,0Z" transform="translate(-27 -1)" fill="#aab2bd"/>
        </g>
        <g id="Grupo_1178024" data-name="Grupo 1178024" transform="translate(18.178 7.271)">
          <path id="Trazado_1036362" data-name="Trazado 1036362" d="M39.178,9V19a.912.912,0,0,1-.909.909H21.909A.912.912,0,0,1,21,19V9Z" transform="translate(-21 -9)" fill="#aab2bd"/>
        </g>
        <g id="Grupo_1178025" data-name="Grupo 1178025" transform="translate(0 10.907)">
          <circle id="Elipse_12502" data-name="Elipse 12502" cx="9" cy="9" r="9" transform="translate(0.267 0.36)" fill="#69d6f4"/>
        </g>
        <g id="Grupo_1178026" data-name="Grupo 1178026" transform="translate(29.085 18.178)">
          <path id="Trazado_1036363" data-name="Trazado 1036363" d="M33,21h3.636V35.542H33Z" transform="translate(-33 -21)" fill="#b4dd7f"/>
        </g>
        <g id="Grupo_1178027" data-name="Grupo 1178027" transform="translate(21.814 18.178)">
          <path id="Trazado_1036364" data-name="Trazado 1036364" d="M25,21h3.636V35.542H25Z" transform="translate(-25 -21)" fill="#b4dd7f"/>
        </g>
        <g id="Grupo_1178028" data-name="Grupo 1178028" transform="translate(25.449 18.178)">
          <path id="Trazado_1036365" data-name="Trazado 1036365" d="M29,21h3.636V35.542H29Z" transform="translate(-29 -21)" fill="#ff826e"/>
        </g>
        <g id="Grupo_1178029" data-name="Grupo 1178029" transform="translate(21.814 32.721)">
          <path id="Trazado_1036366" data-name="Trazado 1036366" d="M35.907,37,33.18,42.453H27.727L25,37H35.907Z" transform="translate(-25 -37)" fill="#ccd1d9"/>
        </g>
        <g id="Grupo_1178030" data-name="Grupo 1178030" transform="translate(24.54 38.174)">
          <path id="Trazado_1036367" data-name="Trazado 1036367" d="M33.453,43l-1.409,2.827a1.478,1.478,0,0,1-2.636,0L28,43Z" transform="translate(-28 -43)" fill="#969faa"/>
        </g>
      </g>
      <g id="Grupo_1178032" data-name="Grupo 1178032" transform="translate(0)">
        <path id="Trazado_1036368" data-name="Trazado 1036368" d="M32.625,52.886a4.975,4.975,0,0,1-8.9,0L23.284,52H1.818A1.82,1.82,0,0,0,0,53.818v1.818a1.82,1.82,0,0,0,1.818,1.818H20.259a10.439,10.439,0,0,0,15.835,0H56.352V52H33.068Zm1.565.932H54.534v1.818H35.22l-.273.349a8.618,8.618,0,0,1-13.542,0l-.274-.349H1.818V53.818H22.162a6.792,6.792,0,0,0,12.028,0Z" transform="translate(0 -4.737)"/>
        <path id="Trazado_1036369" data-name="Trazado 1036369" d="M54.534,44H35.644a4.518,4.518,0,0,0-3.854,2.136L28.8,50.928a.755.755,0,0,1-1.239,0l-2.995-4.792A4.52,4.52,0,0,0,20.708,44H1.818A1.82,1.82,0,0,0,0,45.818v1.818a1.82,1.82,0,0,0,1.818,1.818H20V47.636H1.818V45.818h18.89A2.709,2.709,0,0,1,23.019,47.1l2.995,4.791a2.549,2.549,0,0,0,4.324,0L33.332,47.1a2.71,2.71,0,0,1,2.311-1.282H54.534v1.818H36.356v1.818H54.534a1.82,1.82,0,0,0,1.818-1.818V45.818A1.82,1.82,0,0,0,54.534,44Z" transform="translate(0 -4.008)"/>
        <path id="Trazado_1036370" data-name="Trazado 1036370" d="M44,40h5.453v1.818H44Z" transform="translate(-4.008 -3.644)"/>
        <path id="Trazado_1036371" data-name="Trazado 1036371" d="M52,40h1.818v1.818H52Z" transform="translate(-4.737 -3.644)"/>
        <path id="Trazado_1036372" data-name="Trazado 1036372" d="M56,40h1.818v1.818H56Z" transform="translate(-5.101 -3.644)"/>
        <path id="Trazado_1036373" data-name="Trazado 1036373" d="M44,36H56.725v1.818H44Z" transform="translate(-4.008 -3.279)"/>
        <path id="Trazado_1036374" data-name="Trazado 1036374" d="M44,32H56.725v1.818H44Z" transform="translate(-4.008 -2.915)"/>
        <path id="Trazado_1036375" data-name="Trazado 1036375" d="M10,36h1.818v1.818H10Z" transform="translate(-0.911 -3.279)"/>
        <path id="Trazado_1036376" data-name="Trazado 1036376" d="M14,36h1.818v1.818H14Z" transform="translate(-1.275 -3.279)"/>
        <path id="Trazado_1036377" data-name="Trazado 1036377" d="M6,36H7.818v1.818H6Z" transform="translate(-0.547 -3.279)"/>
        <path id="Trazado_1036378" data-name="Trazado 1036378" d="M10,30.9a10.01,10.01,0,0,0,10-10c0-.308-.019-.613-.046-.913.015,0,.031,0,.046,0h1.818V33.844l4.234,8.467a2.38,2.38,0,0,0,4.257,0l4.234-8.468V20h1.818a1.82,1.82,0,0,0,1.818-1.818V9.089h5.453V20a1.82,1.82,0,0,0-1.818,1.818v3.636a1.82,1.82,0,0,0,1.818,1.818h1.818a1.82,1.82,0,0,0,1.818-1.818V21.814A1.82,1.82,0,0,0,45.445,20V9.089a1.82,1.82,0,0,0,1.818-1.818V5.453a1.82,1.82,0,0,0-1.818-1.818H32.629a4.545,4.545,0,0,0-8.905,0H10.907A1.82,1.82,0,0,0,9.089,5.453V7.271a1.82,1.82,0,0,0,1.818,1.818h7.271v6.085A9.994,9.994,0,1,0,10,30.9Zm35.448-5.453H43.627V21.814h1.818ZM25.449,20V32.721H23.632V20ZM24.193,34.538h7.966l-1.818,3.636h-4.33Zm3.074-1.818V20h1.818V32.721Zm.406,8.778-.753-1.507h2.512L28.679,41.5a.583.583,0,0,1-1.005,0Zm5.047-8.778H30.9V20h1.818Zm-4.545-30.9a2.723,2.723,0,0,1,2.559,1.818H25.617a2.721,2.721,0,0,1,2.559-1.818ZM10.907,5.453H45.445V7.271H10.907ZM36.356,9.089v9.089H20V9.089ZM3.2,25.449H6.281a12.97,12.97,0,0,0,1.342,2.62l.533.8A8.2,8.2,0,0,1,3.2,25.449ZM1.818,20.9a8.122,8.122,0,0,1,.477-2.727H5.746a12.848,12.848,0,0,0,0,5.453H2.295A8.122,8.122,0,0,1,1.818,20.9ZM10,13.455l.863,1.294a11.139,11.139,0,0,1,.886,1.611h-3.5a11.092,11.092,0,0,1,.886-1.611Zm2.381,4.724a11.083,11.083,0,0,1,.345,2.727,11.126,11.126,0,0,1-.345,2.727H7.617a10.936,10.936,0,0,1,0-5.453Zm5.8,2.727a8.122,8.122,0,0,1-.477,2.727H14.25a12.848,12.848,0,0,0,0-5.453H17.7A8.122,8.122,0,0,1,18.178,20.9ZM10,28.355l-.863-1.294a11.092,11.092,0,0,1-.886-1.611h3.5a11.092,11.092,0,0,1-.886,1.611Zm1.843.513.533-.8a12.9,12.9,0,0,0,1.342-2.62h3.079a8.2,8.2,0,0,1-4.954,3.418ZM16.795,16.36H13.715a12.97,12.97,0,0,0-1.342-2.62l-.533-.8A8.2,8.2,0,0,1,16.795,16.36Zm-8.64-3.418-.533.8a12.97,12.97,0,0,0-1.342,2.62H3.2A8.2,8.2,0,0,1,8.155,12.942Z" transform="translate(0)"/>
      </g>
    </g>
  </g>
</svg>
