<svg xmlns="http://www.w3.org/2000/svg" xmlns:xlink="http://www.w3.org/1999/xlink" width="113" height="113" viewBox="0 0 113 113">
  <defs>
    <filter id="Trazado_982547" x="0" y="0" width="113" height="113" filterUnits="userSpaceOnUse">
      <feOffset dy="3" input="SourceAlpha"/>
      <feGaussianBlur stdDeviation="3" result="blur"/>
      <feFlood flood-opacity="0.161"/>
      <feComposite operator="in" in2="blur"/>
      <feComposite in="SourceGraphic"/>
    </filter>
  </defs>
  <g id="Grupo_1178040" data-name="Grupo 1178040" transform="translate(-1216.85 -1275.921)">
    <g id="Grupo_1177783" data-name="Grupo 1177783" transform="translate(1225.85 1281.921)">
      <g id="Grupo_1172010" data-name="Grupo 1172010" transform="translate(0)">
        <g id="Grupo_1171046" data-name="Grupo 1171046">
          <g id="Grupo_1148525" data-name="Grupo 1148525">
            <g transform="matrix(1, 0, 0, 1, -9, -6)" filter="url(#Trazado_982547)">
              <g id="Trazado_982547-2" data-name="Trazado 982547" transform="translate(9 6)" fill="#fdfbec">
                <path d="M 47.5 93.5 C 41.28937149047852 93.5 35.26533508300781 92.28397369384766 29.59518623352051 89.88570404052734 C 24.11771965026855 87.56893157958984 19.19813346862793 84.25196075439453 14.97309303283691 80.02691650390625 C 10.74804019927979 75.80186462402344 7.431066513061523 70.88229370117188 5.114293098449707 65.40481567382812 C 2.716026782989502 59.73468017578125 1.5 53.71062850952148 1.5 47.5 C 1.5 41.28937149047852 2.716026782989502 35.26533508300781 5.114293098449707 29.59518623352051 C 7.431066513061523 24.11771965026855 10.74804019927979 19.19813346862793 14.97309303283691 14.97309303283691 C 19.19813346862793 10.74804019927979 24.11771965026855 7.431066513061523 29.59518623352051 5.114293098449707 C 35.26533508300781 2.716026782989502 41.28937149047852 1.5 47.5 1.5 C 53.71062850952148 1.5 59.73468017578125 2.716026782989502 65.40481567382812 5.114293098449707 C 70.88229370117188 7.431066513061523 75.80186462402344 10.74804019927979 80.02691650390625 14.97309303283691 C 84.25196075439453 19.19813346862793 87.56893157958984 24.11771965026855 89.88570404052734 29.59518623352051 C 92.28397369384766 35.26533508300781 93.5 41.28937149047852 93.5 47.5 C 93.5 53.71062850952148 92.28397369384766 59.73468017578125 89.88570404052734 65.40481567382812 C 87.56893157958984 70.88229370117188 84.25196075439453 75.80186462402344 80.02691650390625 80.02691650390625 C 75.80186462402344 84.25196075439453 70.88229370117188 87.56893157958984 65.40481567382812 89.88570404052734 C 59.73468017578125 92.28397369384766 53.71062850952148 93.5 47.5 93.5 Z" stroke="none"/>
                <path d="M 47.5 3 C 41.49121475219727 3 35.66376876831055 4.176155090332031 30.17950439453125 6.495796203613281 C 24.88084411621094 8.736953735351562 20.12152099609375 11.94598388671875 16.03375244140625 16.03375244140625 C 11.94598388671875 20.12152099609375 8.736953735351562 24.88084411621094 6.495796203613281 30.17950439453125 C 4.176155090332031 35.66376876831055 3 41.49121475219727 3 47.5 C 3 53.50878524780273 4.176155090332031 59.33623123168945 6.495796203613281 64.82049560546875 C 8.736953735351562 70.11915588378906 11.94598388671875 74.87847900390625 16.03375244140625 78.96624755859375 C 20.12152099609375 83.05401611328125 24.88084411621094 86.26304626464844 30.17950439453125 88.50419616699219 C 35.66376876831055 90.82384490966797 41.49121475219727 92 47.5 92 C 53.50878524780273 92 59.33623123168945 90.82384490966797 64.82049560546875 88.50419616699219 C 70.11915588378906 86.26304626464844 74.87847900390625 83.05401611328125 78.96624755859375 78.96624755859375 C 83.05401611328125 74.87847900390625 86.26304626464844 70.11915588378906 88.50419616699219 64.82049560546875 C 90.82384490966797 59.33623123168945 92 53.50878524780273 92 47.5 C 92 41.49121475219727 90.82384490966797 35.66376876831055 88.50419616699219 30.17950439453125 C 86.26304626464844 24.88084411621094 83.05401611328125 20.12152099609375 78.96624755859375 16.03375244140625 C 74.87847900390625 11.94598388671875 70.11915588378906 8.736953735351562 64.82049560546875 6.495796203613281 C 59.33623123168945 4.176155090332031 53.50878524780273 3 47.5 3 M 47.5 0 C 73.7335205078125 0 95 21.2664794921875 95 47.5 C 95 73.7335205078125 73.7335205078125 95 47.5 95 C 21.2664794921875 95 0 73.7335205078125 0 47.5 C 0 21.2664794921875 21.2664794921875 0 47.5 0 Z" stroke="none" fill="#83793c"/>
              </g>
            </g>
          </g>
        </g>
      </g>
    </g>
    <g id="Artboard11" transform="translate(1230.908 1291.658)">
      <g id="Grupo_1178039" data-name="Grupo 1178039" transform="translate(10.191 7.003)">
        <g id="Grupo_1178038" data-name="Grupo 1178038" transform="translate(1.054 5.998)">
          <g id="Grupo_1178035" data-name="Grupo 1178035" transform="translate(0 13.431)">
            <path id="Trazado_1036379" data-name="Trazado 1036379" d="M57.424,154.956a17.749,17.749,0,0,1,9.57,6.381,17.762,17.762,0,0,1,9.57-6.381c4.092-1.064,13.786,0,13.786,0v12.763H43.584V154.956S53.322,153.893,57.424,154.956Z" transform="translate(-40.239 -154.484)" fill="#d1d1d6" fill-rule="evenodd"/>
            <path id="Trazado_1036380" data-name="Trazado 1036380" d="M66.967,167.719H43.584V154.956s9.738-1.064,13.84,0a17.746,17.746,0,0,1,9.543,6.346Z" transform="translate(-40.239 -154.484)" fill="#eceff1" fill-rule="evenodd"/>
            <g id="Grupo_1178034" data-name="Grupo 1178034" transform="translate(0 9.845)">
              <path id="Trazado_1036381" data-name="Trazado 1036381" d="M47.959,234v1.235a1.2,1.2,0,0,1-1.2,1.2h-3.63a1.2,1.2,0,0,1-1.2-1.2V234H20.586a2.395,2.395,0,0,1,0-4.79h48.72a2.395,2.395,0,0,1,0,4.79Z" transform="translate(-18.191 -229.213)" fill="#9facba" fill-rule="evenodd"/>
              <path id="Trazado_1036382" data-name="Trazado 1036382" d="M247.6,229.213h1.317a2.395,2.395,0,0,1,0,4.79H247.6a2.395,2.395,0,0,0,0-4.79ZM227.572,234v1.235a1.2,1.2,0,0,1-1.2,1.2h-1.317a1.2,1.2,0,0,0,1.2-1.2V234Z" transform="translate(-197.805 -229.213)" fill="#8d9ca8" fill-rule="evenodd"/>
            </g>
          </g>
          <g id="Grupo_1178036" data-name="Grupo 1178036" transform="translate(0.308 34.655)">
            <path id="Trazado_1036383" data-name="Trazado 1036383" d="M48.539,323.52,59.5,317.171c2.058-1.193,4.149-2.038,6.412-1.3,2.52.819,6.636,2.573,10.835,3.33a3.045,3.045,0,0,1,2.108,3.647c-.426,1.582-1.761,2.4-3.65,2.108l1.47.235a6.813,6.813,0,0,0,4.7-.819l10.538-6.138c8.192-4.77,9.395,2.57,6.673,4.248L79.455,334.253a7.02,7.02,0,0,1-5.678.8l-13.871-3.716-5.14,2.966a2.076,2.076,0,0,1-2.828-.76l-4.156-7.195a2.078,2.078,0,0,1,.756-2.828Z" transform="translate(-43.953 -315.593)" fill="#f6dccd" fill-rule="evenodd"/>
            <path id="Trazado_1036384" data-name="Trazado 1036384" d="M210.682,358.379a3.007,3.007,0,0,1-3.4,1.45c-2.269-.6-4.542-1.216-6.812-1.824a1.141,1.141,0,0,1,.591-2.2Z" transform="translate(-176.033 -350.472)" fill="#f1cbbc" fill-rule="evenodd"/>
            <path id="Trazado_1036385" data-name="Trazado 1036385" d="M48.539,323.52,59.5,317.171c2.058-1.193,4.149-2.038,6.412-1.3,1.348.436,3.155,1.143,5.183,1.82L49.86,329.948l-2.078-3.6A2.078,2.078,0,0,1,48.539,323.52Z" transform="translate(-43.953 -315.593)" fill="#f1cbbc" fill-rule="evenodd"/>
            <path id="Trazado_1036386" data-name="Trazado 1036386" d="M26.39,346.605l8.694,15.361a1.558,1.558,0,0,1-.585,2.114l-2.96,1.675a1.558,1.558,0,0,1-2.114-.588l-8.691-15.361a1.552,1.552,0,0,1,.585-2.114l2.956-1.675A1.556,1.556,0,0,1,26.39,346.605Z" transform="translate(-20.532 -341.836)" fill="#d1d1d6" fill-rule="evenodd"/>
            <path id="Trazado_1036387" data-name="Trazado 1036387" d="M57.658,357.16l1.536,2.719,1.523,2.689a1.555,1.555,0,0,1-.581,2.111l1.057-.6a1.558,1.558,0,0,0,.585-2.114l-1.526-2.7-3.066-5.417-3.069-5.421-1.034-1.824a1.558,1.558,0,0,0-1.807-.72l1.787,3.158,3.066,5.417,1.526,2.7Z" transform="translate(-47.226 -341.836)" fill="#b1b1b5" fill-rule="evenodd"/>
          </g>
          <g id="Grupo_1178037" data-name="Grupo 1178037" transform="translate(38.409)">
            <path id="Trazado_1036388" data-name="Trazado 1036388" d="M369.348,266.948h-5.206v2.4a1.584,1.584,0,0,0,1.579,1.579h2.049a1.583,1.583,0,0,0,1.577-1.579Z" transform="translate(-356.976 -238.701)" fill="#b1b1b5" fill-rule="evenodd"/>
            <path id="Trazado_1036389" data-name="Trazado 1036389" d="M351.576,243.593l.036,2.314a1.593,1.593,0,0,0,1.579,1.579h5.288a1.575,1.575,0,0,0,1.577-1.579l-.034-2.314C357.265,243.68,354.352,243.593,351.576,243.593Z" transform="translate(-346.065 -218.423)" fill="#d1d1d6" fill-rule="evenodd"/>
            <path id="Trazado_1036390" data-name="Trazado 1036390" d="M325.266,75.279c.466-7.954,3.914-7.632,3.914-13.028a9.717,9.717,0,1,0-19.433,0c0,5.4,3.446,5.075,3.914,13.028.209,1.572,1.106,1.926,1.625,1.926C323.019,77.2,324.389,77.969,325.266,75.279Z" transform="translate(-309.747 -52.533)" fill="#ffe177" fill-rule="evenodd"/>
            <path id="Trazado_1036391" data-name="Trazado 1036391" d="M385.75,75.279c.466-7.954,3.914-7.632,3.914-13.028a9.718,9.718,0,0,0-9.718-9.717c-.181,0-.36.006-.539.015a9.719,9.719,0,0,1,9.177,9.7c0,5.4-3.448,5.075-3.916,13.028-.519,1.6-1.214,1.977-3.311,2.021C384.315,77.343,385.149,77.123,385.75,75.279Z" transform="translate(-370.231 -52.533)" fill="#ffd064" fill-rule="evenodd"/>
            <path id="Trazado_1036392" data-name="Trazado 1036392" d="M395.773,247.486h1.081a1.575,1.575,0,0,0,1.577-1.579l-.034-2.314c-.358.011-.717.019-1.079.027l.034,2.287A1.575,1.575,0,0,1,395.773,247.486Z" transform="translate(-384.44 -218.423)" fill="#b1b1b5" fill-rule="evenodd"/>
            <path id="Trazado_1036393" data-name="Trazado 1036393" d="M339.457,225.192v1.579a1.584,1.584,0,0,0,1.579,1.579h8.446a1.584,1.584,0,0,0,1.579-1.579v-1.579Z" transform="translate(-335.543 -202.446)" fill="#eceff1" fill-rule="evenodd"/>
            <path id="Trazado_1036394" data-name="Trazado 1036394" d="M407.357,228.351h1.081a1.584,1.584,0,0,0,1.579-1.579v-1.579h-1.081v1.579A1.583,1.583,0,0,1,407.357,228.351Z" transform="translate(-394.498 -202.446)" fill="#d1d1d6" fill-rule="evenodd"/>
          </g>
        </g>
        <path id="Trazado_1036395" data-name="Trazado 1036395" d="M26.326,65.35l.828,1.463v0a2.6,2.6,0,0,1-.982,3.533l-2.934,1.663,0,0A2.6,2.6,0,0,1,19.7,71.03L11.075,55.785a2.6,2.6,0,0,1,.977-3.536l2.937-1.663h0a2.606,2.606,0,0,1,3.533.979v0l.671,1.186,7.671-4.441c2.313-1.338,4.678-2.21,7.219-1.385,2.47.8,6.5,2.527,10.617,3.271a1.046,1.046,0,0,1,.137.035,4.07,4.07,0,0,1,2.782,4.9,4.59,4.59,0,0,1-.333.881,5.7,5.7,0,0,0,1.286-.556l10.462-6.093c3.787-2.206,6.311-1.966,7.74-1.007a4.355,4.355,0,0,1-.036,7.03L47.758,67.074a7.983,7.983,0,0,1-6.462.919h0L27.946,64.414ZM20.234,54.587l5.053,8.929,1.983-1.145a1.054,1.054,0,0,1,.8-.105l13.77,3.69a5.943,5.943,0,0,0,4.811-.676h0L65.636,53.591a1.937,1.937,0,0,0,.791-1.523,2,2,0,0,0-1.548-2.256c-1.106-.232-2.662.138-4.781,1.373L49.636,57.276a7.805,7.805,0,0,1-5.362.945h0l-1.3-.211L42.93,58h0c-2.361-.485-4.551-1.2-6.981-1.851a1.054,1.054,0,0,1,.547-2.036c2.373.638,4.512,1.337,6.815,1.813a1.9,1.9,0,0,0,2.277-1.345h0a1.966,1.966,0,0,0-1.336-2.326c-4.194-.77-8.3-2.51-10.816-3.326h0c-1.951-.633-3.736.178-5.512,1.2Zm-3.543-1.98h0a.491.491,0,0,0-.664-.185L13.09,54.083h0a.486.486,0,0,0-.181.662h0l8.628,15.246h0a.49.49,0,0,0,.664.183l2.932-1.662h0a.49.49,0,0,0,.183-.664ZM15.6,54.2a1.218,1.218,0,1,1-1.031,1.379A1.218,1.218,0,0,1,15.6,54.2ZM55.066,42.12h-13V42.3a2.252,2.252,0,0,1-2.252,2.252h-3.63A2.252,2.252,0,0,1,33.933,42.3V42.12H13.64a3.449,3.449,0,0,1-.1-6.9V26.9a1.054,1.054,0,0,1,.939-1.048s10.005-1.065,14.219.028A18.743,18.743,0,0,1,38,31.632a18.76,18.76,0,0,1,9.3-5.747,13.735,13.735,0,0,1,1.881-.328,9.974,9.974,0,0,1-.317-2.63,10.5,10.5,0,1,1,21.005,0,9.183,9.183,0,0,1-1.346,5.017,14.325,14.325,0,0,0-2.462,7.711v1.474a2.6,2.6,0,0,1-1.533,2.364V40.2a2.6,2.6,0,0,1-1.577,2.382v.69a2.6,2.6,0,0,1-2.586,2.59H58.373a2.6,2.6,0,0,1-2.59-2.59v-.69a2.6,2.6,0,0,1-.717-.461Zm-39.422-6.9H32.628a16.327,16.327,0,0,0-4.462-1.908c-3.224-.836-10.03-.3-12.521-.067Zm20.537,0h.738V33.617a16.672,16.672,0,0,0-8.754-5.692c-3.224-.836-10.03-.3-12.521-.067v3.279c2.763-.241,9.718-.726,13.05.138a18.613,18.613,0,0,1,7.486,3.948Zm2.846,0h.793A18.64,18.64,0,0,1,47.3,31.275a20.979,20.979,0,0,1,4.4-.49,21.145,21.145,0,0,0-1.491-2.842q-.1-.175-.194-.351a13.329,13.329,0,0,0-2.185.333,16.692,16.692,0,0,0-8.808,5.76Zm4.347,0h9.273a18.328,18.328,0,0,0-.321-2.343,20.374,20.374,0,0,0-4.491.435A16.364,16.364,0,0,0,43.374,35.223Zm9.309,2.108H13.64a1.341,1.341,0,0,0,0,2.682H34.987a1.054,1.054,0,0,1,1.054,1.054V42.3a.144.144,0,0,0,.144.144h3.63a.144.144,0,0,0,.144-.144V41.067a1.054,1.054,0,0,1,1.054-1.054h13.2v-.52a2.6,2.6,0,0,1-1.528-2.162Zm11.275-.684H54.782v.482a.483.483,0,0,0,.482.482h8.214a.482.482,0,0,0,.479-.482Zm-1.533,3.071H56.318V40.2a.483.483,0,0,0,.482.482h5.142a.484.484,0,0,0,.482-.482Zm-1.577,3.071H57.891v.482a.484.484,0,0,0,.482.482h1.995a.482.482,0,0,0,.479-.482Zm1.209-8.251h1.983a14.869,14.869,0,0,1,2.136-6.74,8.3,8.3,0,0,0,1.591-4.872,8.395,8.395,0,1,0-16.79,0A8.3,8.3,0,0,0,52.567,27.8a14.87,14.87,0,0,1,2.137,6.74h1.983V26.245H55.543A3.25,3.25,0,1,1,58.794,23v1.14h1.154V23A3.25,3.25,0,1,1,63.2,26.245H62.055Zm-3.261,0h1.154V26.245H58.794Zm3.261-10.4H63.2A1.142,1.142,0,1,0,62.055,23Zm-5.369,0V23a1.142,1.142,0,1,0-1.144,1.14Zm3.738-13.854a1.054,1.054,0,1,1-2.108,0V8.057a1.054,1.054,0,1,1,2.108,0Zm-7.269,1.383a1.054,1.054,0,1,1-1.826,1.053L50.218,10.79a1.054,1.054,0,0,1,1.826-1.053Zm-5.6,4.832A1.054,1.054,0,0,1,46.5,18.323l-1.928-1.115a1.054,1.054,0,0,1,1.055-1.825ZM67.408,12.72a1.054,1.054,0,1,1-1.825-1.055L66.7,9.737a1.054,1.054,0,0,1,1.825,1.055Zm4.834,5.6A1.054,1.054,0,0,1,71.186,16.5l1.925-1.115a1.054,1.054,0,1,1,1.056,1.824Z" transform="translate(-10.191 -7.003)" fill-rule="evenodd"/>
      </g>
    </g>
  </g>
</svg>
