<svg xmlns="http://www.w3.org/2000/svg" xmlns:xlink="http://www.w3.org/1999/xlink" width="103" height="103" viewBox="0 0 103 103">
  <defs>
    <filter id="Trazado_978624" x="0" y="0" width="103" height="103" filterUnits="userSpaceOnUse">
      <feOffset dy="3" input="SourceAlpha"/>
      <feGaussianBlur stdDeviation="3" result="blur"/>
      <feFlood flood-opacity="0.161"/>
      <feComposite operator="in" in2="blur"/>
      <feComposite in="SourceGraphic"/>
    </filter>
  </defs>
  <g id="Grupo_1178144" data-name="Grupo 1178144" transform="translate(-185 -3062)">
    <g id="Grupo_1177896" data-name="Grupo 1177896" transform="translate(14 196)">
      <g id="Grupo_1176881" data-name="Grupo 1176881">
        <g id="Grupo_1175148" data-name="Grupo 1175148" transform="translate(0 1580)">
          <g id="Grupo_1173798" data-name="Grupo 1173798" transform="translate(-3 -3520)">
            <g id="Grupo_1171925" data-name="Grupo 1171925" transform="translate(-22 -2246)">
              <g id="Grupo_1164524" data-name="Grupo 1164524" transform="translate(205 7058)">
                <g id="Grupo_1144123" data-name="Grupo 1144123">
                  <g transform="matrix(1, 0, 0, 1, -9, -6)" filter="url(#Trazado_978624)">
                    <g id="Trazado_978624-2" data-name="Trazado 978624" transform="translate(9 6)" fill="#edf3fc">
                      <path d="M 42.5 83.5 C 36.96437835693359 83.5 31.59512901306152 82.41617584228516 26.54141235351562 80.27863311767578 C 21.65934181213379 78.21369171142578 17.27447128295898 75.25723266601562 13.50862312316895 71.49137878417969 C 9.742764472961426 67.72553253173828 6.786305904388428 63.34066009521484 4.721364498138428 58.45858764648438 C 2.583823442459106 53.40486907958984 1.5 48.03562164306641 1.5 42.5 C 1.5 36.96437835693359 2.583823442459106 31.59512901306152 4.721364498138428 26.54141235351562 C 6.786305904388428 21.65934181213379 9.742764472961426 17.27447128295898 13.50862312316895 13.50862312316895 C 17.27447128295898 9.742764472961426 21.65934181213379 6.786305904388428 26.54141235351562 4.721364498138428 C 31.59512901306152 2.583823442459106 36.96437835693359 1.5 42.5 1.5 C 48.03562164306641 1.5 53.40486907958984 2.583823442459106 58.45858764648438 4.721364498138428 C 63.34066009521484 6.786305904388428 67.72553253173828 9.742764472961426 71.49137878417969 13.50862312316895 C 75.25723266601562 17.27447128295898 78.21369171142578 21.65934181213379 80.27863311767578 26.54141235351562 C 82.41617584228516 31.59512901306152 83.5 36.96437835693359 83.5 42.5 C 83.5 48.03562164306641 82.41617584228516 53.40486907958984 80.27863311767578 58.45858764648438 C 78.21369171142578 63.34066009521484 75.25723266601562 67.72553253173828 71.49137878417969 71.49137878417969 C 67.72553253173828 75.25723266601562 63.34066009521484 78.21369171142578 58.45858764648438 80.27863311767578 C 53.40486907958984 82.41617584228516 48.03562164306641 83.5 42.5 83.5 Z" stroke="none"/>
                      <path d="M 42.5 3 C 37.16621398925781 3 31.99356079101562 4.043960571289062 27.125732421875 6.102882385253906 C 22.42246627807617 8.092185974121094 18.19785308837891 10.94070434570312 14.56928253173828 14.56928253173828 C 10.94070434570312 18.19785308837891 8.092185974121094 22.42246627807617 6.102882385253906 27.125732421875 C 4.043960571289062 31.99356079101562 3 37.16621398925781 3 42.5 C 3 47.83378601074219 4.043960571289062 53.00643920898438 6.102882385253906 57.87425231933594 C 8.092185974121094 62.57753372192383 10.94070434570312 66.80213165283203 14.56928253173828 70.43071746826172 C 18.19786834716797 74.05929565429688 22.42246627807617 76.90781402587891 27.125732421875 78.89711761474609 C 31.99356079101562 80.95603942871094 37.16621398925781 82 42.5 82 C 47.83378601074219 82 53.00642395019531 80.95603942871094 57.87425231933594 78.89711761474609 C 62.57753372192383 76.90781402587891 66.80213165283203 74.05929565429688 70.43071746826172 70.43071746826172 C 74.05929565429688 66.80213165283203 76.90781402587891 62.57753372192383 78.89711761474609 57.87425231933594 C 80.95603942871094 53.00642395019531 82 47.83378601074219 82 42.5 C 82 37.16621398925781 80.95603942871094 31.99356079101562 78.89711761474609 27.125732421875 C 76.90781402587891 22.42246627807617 74.05929565429688 18.19786834716797 70.43071746826172 14.56928253173828 C 66.80213165283203 10.94070434570312 62.57753372192383 8.092185974121094 57.87425231933594 6.102882385253906 C 53.00643920898438 4.043960571289062 47.83378601074219 3 42.5 3 M 42.5 0 C 65.97209167480469 0 85 19.02789306640625 85 42.5 C 85 65.97209167480469 65.97209167480469 85 42.5 85 C 19.02789306640625 85 0 65.97209167480469 0 42.5 C 0 19.02789306640625 19.02789306640625 0 42.5 0 Z" stroke="none" fill="#5692e8"/>
                    </g>
                  </g>
                </g>
              </g>
            </g>
          </g>
        </g>
      </g>
    </g>
    <g id="school_2602414" transform="translate(209.704 3055.083)">
      <g id="Grupo_1178142" data-name="Grupo 1178142" transform="translate(0.785 28.842)">
        <path id="Trazado_1039595" data-name="Trazado 1039595" d="M256,35.557h5.873v4.2H256Z" transform="translate(-229.989 -35.557)" fill="#ff8086"/>
        <path id="Trazado_1039596" data-name="Trazado 1039596" d="M256,35.557h2.517v4.2H256Z" transform="translate(-229.989 -35.557)" fill="#e5646e"/>
        <path id="Trazado_1039597" data-name="Trazado 1039597" d="M56.166,179.847H10.856L7.5,187.4H59.522Z" transform="translate(-7.5 -164.744)" fill="#ff8086"/>
        <path id="Trazado_1039598" data-name="Trazado 1039598" d="M8.619,227.944,7.5,230.461H59.522L58.4,227.944Z" transform="translate(-7.5 -207.806)" fill="#e5646e"/>
        <path id="Trazado_1039599" data-name="Trazado 1039599" d="M72.2,160.653H23.532V137.159H34.44l13.425-13.425L61.29,137.159H72.2Z" transform="translate(-21.854 -114.504)" fill="#ffc269"/>
        <path id="Trazado_1039600" data-name="Trazado 1039600" d="M207.9,372.234h10.069v9.23H207.9Z" transform="translate(-186.926 -336.993)" fill="#c38c66"/>
        <circle id="Elipse_12518" data-name="Elipse 12518" cx="5.034" cy="5.034" r="5.034" transform="translate(20.977 19.298)" fill="#fff0af"/>
        <circle id="Elipse_12519" data-name="Elipse 12519" cx="2.517" cy="2.517" r="2.517" transform="translate(23.494 21.816)" fill="#fff"/>
        <path id="Trazado_1039601" data-name="Trazado 1039601" d="M191.871,444.379H205.3v3.356H191.871Z" transform="translate(-172.572 -401.587)" fill="#c8c5c9"/>
        <path id="Trazado_1039602" data-name="Trazado 1039602" d="M61.29,137.159,47.865,123.734,34.44,137.159H23.532v23.494h2.517v-19.3a1.678,1.678,0,0,1,1.678-1.678h6.489a3.356,3.356,0,0,0,2.386-1l11.262-11.386L59.127,138.68a3.356,3.356,0,0,0,2.386,1H72.2v-2.517Z" transform="translate(-21.854 -114.504)" fill="#ffa95f"/>
        <path id="Trazado_1039603" data-name="Trazado 1039603" d="M344.177,292.073h11.747v5.034H344.177Z" transform="translate(-308.936 -265.223)" fill="#edf4ff"/>
        <path id="Trazado_1039604" data-name="Trazado 1039604" d="M346.7,292.912v-.839h-2.517v5.034h11.747V294.59h-7.552A1.678,1.678,0,0,1,346.7,292.912Z" transform="translate(-308.937 -265.223)" fill="#dbeaff"/>
        <path id="Trazado_1039605" data-name="Trazado 1039605" d="M344.177,372.234h11.747v5.034H344.177Z" transform="translate(-308.936 -336.993)" fill="#edf4ff"/>
        <path id="Trazado_1039606" data-name="Trazado 1039606" d="M346.7,373.073v-.839h-2.517v5.034h11.747v-2.517h-7.552A1.678,1.678,0,0,1,346.7,373.073Z" transform="translate(-308.937 -336.993)" fill="#dbeaff"/>
        <path id="Trazado_1039607" data-name="Trazado 1039607" d="M55.6,292.073H67.344v5.034H55.6Z" transform="translate(-50.563 -265.223)" fill="#edf4ff"/>
        <path id="Trazado_1039608" data-name="Trazado 1039608" d="M58.114,292.912v-.839H55.6v5.034H67.344V294.59H59.792A1.678,1.678,0,0,1,58.114,292.912Z" transform="translate(-50.563 -265.223)" fill="#dbeaff"/>
        <path id="Trazado_1039609" data-name="Trazado 1039609" d="M55.6,372.234H67.344V375.8H55.6Z" transform="translate(-50.563 -336.993)" fill="#edf4ff"/>
        <path id="Trazado_1039610" data-name="Trazado 1039610" d="M58.114,373.073v-.839H55.6v5.034H67.344v-2.517H59.792A1.678,1.678,0,0,1,58.114,373.073Z" transform="translate(-50.563 -336.993)" fill="#dbeaff"/>
      </g>
      <g id="Grupo_1178143" data-name="Grupo 1178143" transform="translate(0 28.057)">
        <path id="Trazado_1039611" data-name="Trazado 1039611" d="M52.807,74.205h-.893V52.282h.893a.785.785,0,0,0,.717-1.1l-3.356-7.552a.785.785,0,0,0-.717-.466H32.994l-5.414-5.414V33.822h5.088a.785.785,0,0,0,.785-.785v-4.2a.785.785,0,0,0-.785-.785H26.8a.785.785,0,0,0-.785.785v8.9L20.6,43.16H4.141a.785.785,0,0,0-.717.466L.067,51.178a.785.785,0,0,0,.717,1.1h.893V74.206H.785a.785.785,0,1,0,0,1.57H52.807a.785.785,0,0,0,0-1.57ZM31.884,32.252h-4.3V29.627h4.3ZM4.651,44.73H19.027l-5.981,5.981H1.993Zm-1.4,7.552H13.371a.785.785,0,0,0,.555-.23L26.8,39.182l12.87,12.87a.785.785,0,0,0,.555.23h5.873a.785.785,0,0,0,0-1.57H40.546L34.565,44.73H48.941L51.6,50.712H49.451a.785.785,0,1,0,0,1.57h.893V74.206H34.293V71.634a.785.785,0,0,0-.785-.785h-.893V64.083a.785.785,0,0,0-.785-.785H21.762a.785.785,0,0,0-.785.785v6.767h-.893a.785.785,0,0,0-.785.785v2.571H3.248Zm27.8,12.586v5.981H27.581V64.868Zm-5.034,5.981H22.546V64.868h3.464Zm6.713,1.57v1.786H20.868V72.419Z" transform="translate(0 -28.057)"/>
        <path id="Trazado_1039612" data-name="Trazado 1039612" d="M206.222,224.066a5.819,5.819,0,1,0-5.819-5.819A5.826,5.826,0,0,0,206.222,224.066Zm0-10.069a4.249,4.249,0,1,1-4.249,4.249A4.254,4.254,0,0,1,206.222,214Z" transform="translate(-179.426 -193.129)"/>
        <path id="Trazado_1039613" data-name="Trazado 1039613" d="M249.285,256.594a.785.785,0,0,0,.785-.785v-1.193l1.244-.622a.785.785,0,0,0-.7-1.4l-1.678.839a.785.785,0,0,0-.434.7v1.678A.785.785,0,0,0,249.285,256.594Z" transform="translate(-222.489 -229.013)"/>
        <path id="Trazado_1039614" data-name="Trazado 1039614" d="M60.629,364.734H48.882a.785.785,0,0,0-.785.785v5.034a.785.785,0,0,0,.785.785H50.56a.785.785,0,0,0,0-1.57h-.893V366.3h4.3v3.464h-.054a.785.785,0,0,0,0,1.57h6.712a.785.785,0,0,0,.785-.785v-5.034A.785.785,0,0,0,60.629,364.734Zm-.785,5.034h-4.3V366.3h4.3Z" transform="translate(-43.063 -329.493)"/>
        <path id="Trazado_1039615" data-name="Trazado 1039615" d="M60.629,284.573H48.882a.785.785,0,0,0-.785.785v5.034a.785.785,0,0,0,.785.785H60.629a.785.785,0,0,0,.785-.785v-5.034A.785.785,0,0,0,60.629,284.573Zm-10.962,1.57h4.3v3.464h-4.3Zm10.177,3.464h-4.3v-3.464h4.3Z" transform="translate(-43.063 -257.723)"/>
        <path id="Trazado_1039616" data-name="Trazado 1039616" d="M337.462,371.339h11.747a.785.785,0,0,0,.785-.785v-5.034a.785.785,0,0,0-.785-.785H337.462a.785.785,0,0,0-.785.785v5.034A.785.785,0,0,0,337.462,371.339Zm10.962-1.57h-4.3V366.3h4.3ZM338.247,366.3h4.3v3.464h-4.3Z" transform="translate(-301.436 -329.493)"/>
        <path id="Trazado_1039617" data-name="Trazado 1039617" d="M337.462,291.176h11.747a.785.785,0,0,0,.785-.785v-5.034a.785.785,0,0,0-.785-.785H337.462a.785.785,0,0,0-.785.785v5.034A.785.785,0,0,0,337.462,291.176Zm10.962-1.57h-4.3v-3.464h4.3Zm-10.177-3.464h4.3v3.464h-4.3Z" transform="translate(-301.436 -257.722)"/>
      </g>
    </g>
  </g>
</svg>
