<svg xmlns="http://www.w3.org/2000/svg" xmlns:xlink="http://www.w3.org/1999/xlink" width="113" height="113" viewBox="0 0 113 113">
  <defs>
    <filter id="Trazado_982547" x="0" y="0" width="113" height="113" filterUnits="userSpaceOnUse">
      <feOffset dy="3" input="SourceAlpha"/>
      <feGaussianBlur stdDeviation="3" result="blur"/>
      <feFlood flood-opacity="0.161"/>
      <feComposite operator="in" in2="blur"/>
      <feComposite in="SourceGraphic"/>
    </filter>
  </defs>
  <g id="Grupo_1178267" data-name="Grupo 1178267" transform="translate(-272.289 -2564)">
    <g id="Grupo_1177901" data-name="Grupo 1177901" transform="translate(281.289 2570)">
      <g id="Grupo_1172010" data-name="Grupo 1172010" transform="translate(0)">
        <g id="Grupo_1171046" data-name="Grupo 1171046">
          <g id="Grupo_1148525" data-name="Grupo 1148525">
            <g transform="matrix(1, 0, 0, 1, -9, -6)" filter="url(#Trazado_982547)">
              <g id="Trazado_982547-2" data-name="Trazado 982547" transform="translate(9 6)" fill="#ebe9f0">
                <path d="M 47.5 93.5 C 41.28937149047852 93.5 35.26533508300781 92.28397369384766 29.59518623352051 89.88570404052734 C 24.11771965026855 87.56893157958984 19.19813346862793 84.25196075439453 14.97309303283691 80.02691650390625 C 10.74804019927979 75.80186462402344 7.431066513061523 70.88229370117188 5.114293098449707 65.40481567382812 C 2.716026782989502 59.73468017578125 1.5 53.71062850952148 1.5 47.5 C 1.5 41.28937149047852 2.716026782989502 35.26533508300781 5.114293098449707 29.59518623352051 C 7.431066513061523 24.11771965026855 10.74804019927979 19.19813346862793 14.97309303283691 14.97309303283691 C 19.19813346862793 10.74804019927979 24.11771965026855 7.431066513061523 29.59518623352051 5.114293098449707 C 35.26533508300781 2.716026782989502 41.28937149047852 1.5 47.5 1.5 C 53.71062850952148 1.5 59.73468017578125 2.716026782989502 65.40481567382812 5.114293098449707 C 70.88229370117188 7.431066513061523 75.80186462402344 10.74804019927979 80.02691650390625 14.97309303283691 C 84.25196075439453 19.19813346862793 87.56893157958984 24.11771965026855 89.88570404052734 29.59518623352051 C 92.28397369384766 35.26533508300781 93.5 41.28937149047852 93.5 47.5 C 93.5 53.71062850952148 92.28397369384766 59.73468017578125 89.88570404052734 65.40481567382812 C 87.56893157958984 70.88229370117188 84.25196075439453 75.80186462402344 80.02691650390625 80.02691650390625 C 75.80186462402344 84.25196075439453 70.88229370117188 87.56893157958984 65.40481567382812 89.88570404052734 C 59.73468017578125 92.28397369384766 53.71062850952148 93.5 47.5 93.5 Z" stroke="none"/>
                <path d="M 47.5 3 C 41.49121475219727 3 35.66376876831055 4.176155090332031 30.17950439453125 6.495796203613281 C 24.88084411621094 8.736953735351562 20.12152099609375 11.94598388671875 16.03375244140625 16.03375244140625 C 11.94598388671875 20.12152099609375 8.736953735351562 24.88084411621094 6.495796203613281 30.17950439453125 C 4.176155090332031 35.66376876831055 3 41.49121475219727 3 47.5 C 3 53.50878524780273 4.176155090332031 59.33623123168945 6.495796203613281 64.82049560546875 C 8.736953735351562 70.11915588378906 11.94598388671875 74.87847900390625 16.03375244140625 78.96624755859375 C 20.12152099609375 83.05401611328125 24.88084411621094 86.26304626464844 30.17950439453125 88.50419616699219 C 35.66376876831055 90.82384490966797 41.49121475219727 92 47.5 92 C 53.50878524780273 92 59.33623123168945 90.82384490966797 64.82049560546875 88.50419616699219 C 70.11915588378906 86.26304626464844 74.87847900390625 83.05401611328125 78.96624755859375 78.96624755859375 C 83.05401611328125 74.87847900390625 86.26304626464844 70.11915588378906 88.50419616699219 64.82049560546875 C 90.82384490966797 59.33623123168945 92 53.50878524780273 92 47.5 C 92 41.49121475219727 90.82384490966797 35.66376876831055 88.50419616699219 30.17950439453125 C 86.26304626464844 24.88084411621094 83.05401611328125 20.12152099609375 78.96624755859375 16.03375244140625 C 74.87847900390625 11.94598388671875 70.11915588378906 8.736953735351562 64.82049560546875 6.495796203613281 C 59.33623123168945 4.176155090332031 53.50878524780273 3 47.5 3 M 47.5 0 C 73.7335205078125 0 95 21.2664794921875 95 47.5 C 95 73.7335205078125 73.7335205078125 95 47.5 95 C 21.2664794921875 95 0 73.7335205078125 0 47.5 C 0 21.2664794921875 21.2664794921875 0 47.5 0 Z" stroke="none" fill="#453179"/>
              </g>
            </g>
          </g>
        </g>
      </g>
    </g>
    <g id="lesson_1575406_2_" data-name="lesson_1575406 (2)" transform="translate(298.291 2589)">
      <path id="Trazado_1039939" data-name="Trazado 1039939" d="M278.777,56.238V90.851H254.323v2.038a2.062,2.062,0,0,1-.245.968l.245.051h27.511V56.238Zm0,0" transform="translate(-221.72 -49.075)" fill="#00ccb3"/>
      <path id="Trazado_1039940" data-name="Trazado 1039940" d="M262.573,40H256V76.681h24.454V40Zm0,0" transform="translate(-223.397 -34.905)" fill="#e6e7e8"/>
      <path id="Trazado_1039941" data-name="Trazado 1039941" d="M310.416,17.17v4.076l-2.395.479a8.516,8.516,0,0,1-.8,1.936l1.355,2.027-2.884,2.884-2.027-1.355a8.517,8.517,0,0,1-1.936.8l-.479,2.395H297.17l-.479-2.395a8.517,8.517,0,0,1-1.936-.8l-2.027,1.355-2.884-2.884,1.355-2.027a8.516,8.516,0,0,1-.8-1.936L288,21.246V17.17l2.395-.479a8.516,8.516,0,0,1,.8-1.936l-1.355-2.027,2.884-2.884,2.027,1.355a8.518,8.518,0,0,1,1.936-.8L297.17,8h4.076l.479,2.395a8.517,8.517,0,0,1,1.936.8l2.027-1.355,2.884,2.884-1.355,2.027a8.516,8.516,0,0,1,.8,1.936Zm0,0" transform="translate(-251.321 -6.981)" fill="#ffa733"/>
      <path id="Trazado_1039942" data-name="Trazado 1039942" d="M35.511,92.889V90.851H11.057V56.238H8v37.67H35.511l.245-.051A2.062,2.062,0,0,1,35.511,92.889Zm0,0" transform="translate(-6.983 -49.075)" fill="#00ccb3"/>
      <path id="Trazado_1039943" data-name="Trazado 1039943" d="M32,40H56.454V76.681H32Zm0,0" transform="translate(-27.927 -34.905)" fill="#e6e7e8"/>
      <path id="Trazado_1039944" data-name="Trazado 1039944" d="M216,392h22.416v4.076H216Zm0,0" transform="translate(-188.492 -342.073)" fill="#5aaae7"/>
      <path id="Trazado_1039945" data-name="Trazado 1039945" d="M394.038,392a2.038,2.038,0,0,1,0,4.076H392V392Zm0,0" transform="translate(-342.075 -342.073)" fill="#3d9ae2"/>
      <path id="Trazado_1039946" data-name="Trazado 1039946" d="M174.114,392v4.076h-1.019L168,394.038,173.095,392Zm0,0" transform="translate(-146.605 -342.073)" fill="#1e81ce"/>
      <path id="Trazado_1039947" data-name="Trazado 1039947" d="M48,416h6.114A3.057,3.057,0,1,1,48,416Zm0,0" transform="translate(-41.889 -363.016)" fill="#898890"/>
      <path id="Trazado_1039948" data-name="Trazado 1039948" d="M40.813,384.112a2.037,2.037,0,0,1-.662,3.964H34.037A2.044,2.044,0,0,1,32,386.038a1.992,1.992,0,0,1,.6-1.437,1.943,1.943,0,0,1,.775-.489,2.014,2.014,0,0,1,.662-.112h6.114a2.014,2.014,0,0,1,.662.112Zm0,0" transform="translate(-27.926 -335.092)" fill="#acabb1"/>
      <path id="Trazado_1039949" data-name="Trazado 1039949" d="M64,152H80.3v8.151H64Zm0,0" transform="translate(-55.851 -132.64)" fill="#78b9eb"/>
      <path id="Trazado_1039950" data-name="Trazado 1039950" d="M346.189,61.095A5.095,5.095,0,1,1,341.095,56,5.095,5.095,0,0,1,346.189,61.095Zm0,0" transform="translate(-293.208 -48.867)" fill="#ff6243"/>
      <path id="Trazado_1039951" data-name="Trazado 1039951" d="M228.076,90.643v2.038a2.038,2.038,0,1,1-4.076,0V56h4.076Zm0,0" transform="translate(-195.473 -48.867)" fill="#ff9811"/>
      <path id="Trazado_1039952" data-name="Trazado 1039952" d="M16.151,264A8.161,8.161,0,0,0,8,272.151a8.021,8.021,0,0,0,.6,3.057,8.137,8.137,0,0,0,3.831,4.188,2.014,2.014,0,0,1,.662-.112h6.114a2.014,2.014,0,0,1,.662.112,8.137,8.137,0,0,0,3.831-4.188,8.021,8.021,0,0,0,.6-3.057A8.151,8.151,0,0,0,16.151,264Zm0,0" transform="translate(-6.983 -230.376)" fill="#ffd422"/>
      <path id="Trazado_1039953" data-name="Trazado 1039953" d="M26.038,34.038H48.454V68.681H41.322v2.038h7.132v1.019a3.057,3.057,0,0,0,6.114,0V70.719H78A1.019,1.019,0,0,0,79.022,69.7V52.378H76.984v16.3H54.568V34.038h2.038V32H53.549a1.019,1.019,0,0,0-1.019,1.019v1.019H50.492V33.019A1.019,1.019,0,0,0,49.473,32H25.019A1.019,1.019,0,0,0,24,33.019V59.511h2.038ZM52.53,36.076V71.738a1.019,1.019,0,0,1-2.038,0V36.076Zm0,0" transform="translate(-20.946 -27.924)"/>
      <path id="Trazado_1039954" data-name="Trazado 1039954" d="M160,344h6.114v2.038H160Zm0,0" transform="translate(-139.624 -300.186)"/>
      <path id="Trazado_1039955" data-name="Trazado 1039955" d="M0,56.23H2.038V82.693H0Zm0,0" transform="translate(-0.002 -49.069)"/>
      <path id="Trazado_1039956" data-name="Trazado 1039956" d="M56,80h4.076v2.038H56Zm0,0" transform="translate(-48.87 -69.811)"/>
      <path id="Trazado_1039957" data-name="Trazado 1039957" d="M104,80h12.227v2.038H104Zm0,0" transform="translate(-90.756 -69.811)"/>
      <path id="Trazado_1039958" data-name="Trazado 1039958" d="M56,112H74.341v2.038H56Zm0,0" transform="translate(-48.87 -97.735)"/>
      <path id="Trazado_1039959" data-name="Trazado 1039959" d="M296.454,160.23v23.406H272v2.038h25.473a1.019,1.019,0,0,0,1.019-1.019V160.23Zm0,0" transform="translate(-237.359 -139.822)"/>
      <path id="Trazado_1039960" data-name="Trazado 1039960" d="M56,153.17a1.019,1.019,0,0,0,1.019,1.019h16.3a1.019,1.019,0,0,0,1.019-1.019v-8.151A1.019,1.019,0,0,0,73.322,144h-16.3A1.019,1.019,0,0,0,56,145.019Zm2.038-7.132H72.3v6.114H58.038Zm0,0" transform="translate(-48.87 -125.659)"/>
      <path id="Trazado_1039961" data-name="Trazado 1039961" d="M120,176h2.038v2.038H120Zm0,0" transform="translate(-104.719 -153.584)"/>
      <path id="Trazado_1039962" data-name="Trazado 1039962" d="M152,176h2.038v2.038H152Zm0,0" transform="translate(-132.643 -153.584)"/>
      <path id="Trazado_1039963" data-name="Trazado 1039963" d="M88,176h2.038v2.038H88Zm0,0" transform="translate(-76.794 -153.584)"/>
      <path id="Trazado_1039964" data-name="Trazado 1039964" d="M304,240h14.265v2.038H304Zm0,0" transform="translate(-265.283 -209.432)"/>
      <path id="Trazado_1039965" data-name="Trazado 1039965" d="M304,272h14.265v2.038H304Zm0,0" transform="translate(-265.283 -237.357)"/>
      <path id="Trazado_1039966" data-name="Trazado 1039966" d="M334.114,60.227A6.114,6.114,0,1,0,328,54.114,6.114,6.114,0,0,0,334.114,60.227Zm0-10.189a4.076,4.076,0,1,1-4.076,4.076A4.076,4.076,0,0,1,334.114,50.038Zm0,0" transform="translate(-286.227 -41.886)"/>
      <path id="Trazado_1039967" data-name="Trazado 1039967" d="M280,14.265a1.019,1.019,0,0,0,.815,1l1.808.362a10.136,10.136,0,0,0,.407.99l-1.019,1.528a1.018,1.018,0,0,0,.127,1.286l2.884,2.886a1.018,1.018,0,0,0,1.286.127l1.528-1.019a10.134,10.134,0,0,0,.99.407l.365,1.809a1.019,1.019,0,0,0,1,.815h4.076a1.019,1.019,0,0,0,1-.815l.362-1.808a10.133,10.133,0,0,0,.99-.407l1.528,1.019a1.018,1.018,0,0,0,1.286-.127l2.886-2.884a1.018,1.018,0,0,0,.127-1.286l-1.019-1.528a10.128,10.128,0,0,0,.407-.99l1.809-.365a1.019,1.019,0,0,0,.815-1V10.189a1.019,1.019,0,0,0-.815-1l-1.808-.362a10.136,10.136,0,0,0-.407-.99l1.019-1.528a1.018,1.018,0,0,0-.128-1.289L299.432,2.14a1.018,1.018,0,0,0-1.286-.127l-1.528,1.019a10.133,10.133,0,0,0-.99-.407L295.263.815a1.019,1.019,0,0,0-1-.815h-4.076a1.019,1.019,0,0,0-1,.815l-.362,1.808a10.133,10.133,0,0,0-.99.407l-1.528-1.019a1.018,1.018,0,0,0-1.286.127L282.14,5.023a1.018,1.018,0,0,0-.127,1.286l1.019,1.528a10.136,10.136,0,0,0-.407.99l-1.809.365a1.019,1.019,0,0,0-.815,1Zm2.038-3.24,1.577-.316a1.018,1.018,0,0,0,.78-.719,8.131,8.131,0,0,1,.713-1.721,1.02,1.02,0,0,0-.042-1.061l-.891-1.335,1.7-1.7,1.335.89a1.018,1.018,0,0,0,1.061.042,8.155,8.155,0,0,1,1.721-.713,1.02,1.02,0,0,0,.719-.78l.311-1.573h2.4l.316,1.577a1.018,1.018,0,0,0,.719.78,8.13,8.13,0,0,1,1.721.713,1.02,1.02,0,0,0,1.061-.042l1.335-.891,1.7,1.7-.89,1.335a1.018,1.018,0,0,0-.042,1.061,8.155,8.155,0,0,1,.713,1.721,1.02,1.02,0,0,0,.78.719l1.573.311V13.43l-1.577.316a1.018,1.018,0,0,0-.78.719,8.131,8.131,0,0,1-.713,1.721,1.02,1.02,0,0,0,.042,1.061l.891,1.335-1.7,1.7-1.335-.89a1.018,1.018,0,0,0-1.061-.042,8.155,8.155,0,0,1-1.721.713,1.02,1.02,0,0,0-.719.78l-.311,1.573h-2.405l-.316-1.577a1.018,1.018,0,0,0-.719-.78,8.13,8.13,0,0,1-1.721-.713,1.02,1.02,0,0,0-1.061.042l-1.335.891-1.7-1.7.89-1.335a1.018,1.018,0,0,0,.042-1.061,8.155,8.155,0,0,1-.713-1.721,1.02,1.02,0,0,0-.78-.719l-1.573-.311Zm0,0" transform="translate(-244.34)"/>
      <path id="Trazado_1039968" data-name="Trazado 1039968" d="M268.063,157.288a16.472,16.472,0,0,0,1.621,2.129l1.515-1.362a14.337,14.337,0,0,1-1.418-1.864Zm0,0" transform="translate(-233.924 -136.298)"/>
      <path id="Trazado_1039969" data-name="Trazado 1039969" d="M307.7,182.42A14.282,14.282,0,0,1,292.653,180l-1.349,1.528a16.318,16.318,0,0,0,17.206,2.764Zm0,0" transform="translate(-254.205 -157.074)"/>
      <path id="Trazado_1039970" data-name="Trazado 1039970" d="M191.573,384H166.1a1.03,1.03,0,0,0-.379.072l-5.095,2.038a1.019,1.019,0,0,0,0,1.894l5.095,2.038a1.031,1.031,0,0,0,.379.072h25.473a3.057,3.057,0,0,0,0-6.114Zm-23.435,2.038h20.378v2.038H168.138Zm-4.39,1.019,2.352-.94V388Zm27.825,1.019h-1.019v-2.038h1.019a1.019,1.019,0,1,1,0,2.038Zm0,0" transform="translate(-139.61 -335.092)"/>
      <path id="Trazado_1039971" data-name="Trazado 1039971" d="M9.168,256a9.155,9.155,0,0,0-5.481,16.5,3.024,3.024,0,0,0,1.5,4.74,4.075,4.075,0,0,0,7.959,0,3.024,3.024,0,0,0,1.5-4.74A9.155,9.155,0,0,0,9.168,256Zm0,22.416A2.031,2.031,0,0,1,7.413,277.4h3.51a2.031,2.031,0,0,1-1.755,1.019Zm3.057-3.057H6.111a1.019,1.019,0,0,1,0-2.038h6.114a1.019,1.019,0,0,1,0,2.038Zm.488-4.027a3.152,3.152,0,0,0-.488-.049H6.111a3.152,3.152,0,0,0-.488.049,7.132,7.132,0,1,1,7.09,0Zm0,0" transform="translate(0 -223.394)"/>
      <path id="Trazado_1039972" data-name="Trazado 1039972" d="M40.305,314.46l-1.19-1.785a1.058,1.058,0,0,0-1.7,0l-1.19,1.785-1.19-1.789-1.7,1.131,2.038,3.057a1.059,1.059,0,0,0,1.7,0l1.19-1.789,1.19,1.785a1.019,1.019,0,0,0,1.7,0l2.038-3.057-1.7-1.131Zm0,0" transform="translate(-29.099 -272.481)"/>
    </g>
  </g>
</svg>
