<svg xmlns="http://www.w3.org/2000/svg" xmlns:xlink="http://www.w3.org/1999/xlink" width="118" height="118" viewBox="0 0 118 118">
  <defs>
    <filter id="Trazado_982547" x="0" y="0" width="118" height="118" filterUnits="userSpaceOnUse">
      <feOffset dy="3" input="SourceAlpha"/>
      <feGaussianBlur stdDeviation="3" result="blur"/>
      <feFlood flood-opacity="0.161"/>
      <feComposite operator="in" in2="blur"/>
      <feComposite in="SourceGraphic"/>
    </filter>
  </defs>
  <g id="Grupo_1177792" data-name="Grupo 1177792" transform="translate(-204.5 -4911.545)">
    <g id="Grupo_1173988" data-name="Grupo 1173988" transform="translate(213.5 4917.545)">
      <g id="Grupo_1172010" data-name="Grupo 1172010">
        <g id="Grupo_1171046" data-name="Grupo 1171046">
          <g id="Grupo_1148525" data-name="Grupo 1148525">
            <g transform="matrix(1, 0, 0, 1, -9, -6)" filter="url(#Trazado_982547)">
              <g id="Trazado_982547-2" data-name="Trazado 982547" transform="translate(9 6)" fill="#fdfbec">
                <path d="M 50 98.5 C 43.45188522338867 98.5 37.10042953491211 97.21787261962891 31.12207221984863 94.68923950195312 C 25.34691429138184 92.24655914306641 20.15997123718262 88.74931335449219 15.70532894134521 84.29468536376953 C 11.2506856918335 79.84004211425781 7.753442764282227 74.65309906005859 5.310757160186768 68.8779296875 C 2.782128572463989 62.89957046508789 1.5 56.54811477661133 1.5 50 C 1.5 43.45188522338867 2.782128572463989 37.10042953491211 5.310757160186768 31.12207221984863 C 7.753442764282227 25.34691429138184 11.2506856918335 20.15997123718262 15.70532894134521 15.70532894134521 C 20.15997123718262 11.2506856918335 25.34691429138184 7.753442764282227 31.12207221984863 5.310757160186768 C 37.10042953491211 2.782128572463989 43.45188522338867 1.5 50 1.5 C 56.54811477661133 1.5 62.89957046508789 2.782128572463989 68.8779296875 5.310757160186768 C 74.65309906005859 7.753442764282227 79.84004211425781 11.2506856918335 84.29468536376953 15.70532894134521 C 88.74931335449219 20.15997123718262 92.24655914306641 25.34691429138184 94.68923950195312 31.12207221984863 C 97.21787261962891 37.10042953491211 98.5 43.45188522338867 98.5 50 C 98.5 56.54811477661133 97.21787261962891 62.89957046508789 94.68923950195312 68.8779296875 C 92.24655914306641 74.65309906005859 88.74931335449219 79.84004211425781 84.29468536376953 84.29468536376953 C 79.84004211425781 88.74931335449219 74.65309906005859 92.24655914306641 68.8779296875 94.68923950195312 C 62.89957046508789 97.21787261962891 56.54811477661133 98.5 50 98.5 Z" stroke="none"/>
                <path d="M 50 3 C 43.65372467041016 3 37.49886322021484 4.242263793945312 31.70639801025391 6.6922607421875 C 26.11003112792969 9.059326171875 21.08335113525391 12.44861602783203 16.76598358154297 16.76598358154297 C 12.44861602783203 21.08335113525391 9.059326171875 26.11003112792969 6.6922607421875 31.70639801025391 C 4.242263793945312 37.49886322021484 3 43.65372467041016 3 50 C 3 56.34627532958984 4.242263793945312 62.50113677978516 6.6922607421875 68.29360198974609 C 9.059326171875 73.88996887207031 12.44861602783203 78.91666412353516 16.76598358154297 83.23401641845703 C 21.08335113525391 87.55138397216797 26.11003112792969 90.940673828125 31.70639801025391 93.3077392578125 C 37.49886322021484 95.75773620605469 43.65372467041016 97 50 97 C 56.34627532958984 97 62.50113677978516 95.75773620605469 68.29360198974609 93.3077392578125 C 73.88996887207031 90.940673828125 78.91666412353516 87.55138397216797 83.23401641845703 83.23401641845703 C 87.55138397216797 78.91666412353516 90.940673828125 73.88996887207031 93.3077392578125 68.29360198974609 C 95.75773620605469 62.50113677978516 97 56.34627532958984 97 50 C 97 43.65372467041016 95.75773620605469 37.49886322021484 93.3077392578125 31.70639801025391 C 90.940673828125 26.11003112792969 87.55138397216797 21.08335113525391 83.23401641845703 16.76598358154297 C 78.91666412353516 12.44861602783203 73.88996887207031 9.059326171875 68.29360198974609 6.6922607421875 C 62.50113677978516 4.242263793945312 56.34627532958984 3 50 3 M 50 0 C 77.61424255371094 0 100 22.38577270507812 100 50 C 100 77.61424255371094 77.61424255371094 100 50 100 C 22.38577270507812 100 0 77.61424255371094 0 50 C 0 22.38577270507812 22.38577270507812 0 50 0 Z" stroke="none" fill="#83793c"/>
              </g>
            </g>
          </g>
        </g>
      </g>
    </g>
    <g id="book_681624_1_" data-name="book_681624 (1)" transform="translate(232.851 4920.666)">
      <path id="Trazado_1036396" data-name="Trazado 1036396" d="M42.861,160.869H59.52a12.691,12.691,0,0,1,8.878,3.46v-7.473H66.427a1.82,1.82,0,0,1-1.82-1.82V127.382a13.437,13.437,0,0,0-5.087-.99H42.861Z" transform="translate(-37.73 -96.485)" fill="#e0e0e0"/>
      <path id="Trazado_1036397" data-name="Trazado 1036397" d="M228.3,24.277l-3.767,7.878h7.534Z" transform="translate(-197.652 -6.596)" fill="#ffc89f"/>
      <path id="Trazado_1036398" data-name="Trazado 1036398" d="M245.009,24.277,243.514,27.4l2.272,4.752h2.99Z" transform="translate(-214.36 -6.596)" fill="#f7b081"/>
      <path id="Trazado_1036399" data-name="Trazado 1036399" d="M224.5,337.439v3.377a1.82,1.82,0,0,0,1.82,1.82h3.9a1.82,1.82,0,0,0,1.82-1.82v-3.377Z" transform="translate(-197.624 -282.265)" fill="#546f7a"/>
      <path id="Trazado_1036400" data-name="Trazado 1036400" d="M249.148,337.439v3.377a1.82,1.82,0,0,1-1.82,1.82h2.99a1.82,1.82,0,0,0,1.82-1.82v-3.377Z" transform="translate(-217.717 -282.265)" fill="#475d63"/>
      <rect id="Rectángulo_416258" data-name="Rectángulo 416258" width="7.542" height="4.08" transform="translate(26.878 51.093)" fill="#ff6137"/>
      <rect id="Rectángulo_416259" data-name="Rectángulo 416259" width="2.99" height="4.08" transform="translate(31.43 51.093)" fill="#e04f32"/>
      <path id="Trazado_1036401" data-name="Trazado 1036401" d="M11.726,155.293H7.491v39.8H67v-39.8H62.8V186.31H46.14a12.691,12.691,0,0,0-8.878,3.46,12.691,12.691,0,0,0-8.878-3.46H11.726Z" transform="translate(-6.594 -121.926)" fill="#39a4fa"/>
      <rect id="Rectángulo_416260" data-name="Rectángulo 416260" width="3.348" height="39.8" transform="translate(57.052 33.367)" fill="#0091e2"/>
      <path id="Trazado_1036402" data-name="Trazado 1036402" d="M265.041,126.393a13.436,13.436,0,0,0-5.126,1.006v27.638a1.82,1.82,0,0,1-1.82,1.82h-1.932v7.473a12.691,12.691,0,0,1,8.878-3.46H281.7V126.393Z" transform="translate(-225.494 -96.486)" fill="#bfbfbf"/>
      <rect id="Rectángulo_416261" data-name="Rectángulo 416261" width="8.22" height="8.22" transform="translate(41.402 36.374)" fill="#39a4fa"/>
      <rect id="Rectángulo_416262" data-name="Rectángulo 416262" width="8.22" height="8.22" transform="translate(11.98 50.379)" fill="#ff434d"/>
      <circle id="Elipse_12504" data-name="Elipse 12504" cx="4.96" cy="4.96" r="4.96" transform="translate(11.13 35.195)" fill="#ffd039"/>
      <path id="Trazado_1036403" data-name="Trazado 1036403" d="M59.377,414.366H42.718l-.02,3.288H59.357a12.691,12.691,0,0,1,8.878,3.46v-3.306A12.7,12.7,0,0,0,59.377,414.366Z" transform="translate(-37.586 -349.982)" fill="#bfbfbf"/>
      <path id="Trazado_1036404" data-name="Trazado 1036404" d="M264.858,414.366h16.659l.02,3.288H264.878a12.691,12.691,0,0,0-8.878,3.46v-3.306A12.7,12.7,0,0,1,264.858,414.366Z" transform="translate(-225.351 -349.982)" fill="#919191"/>
      <path id="Trazado_1036405" data-name="Trazado 1036405" d="M335.6,302.395h6.059l-6.059-9.233-6.059,9.233Z" transform="translate(-290.085 -243.289)" fill="#00b76c"/>
      <rect id="Rectángulo_416263" data-name="Rectángulo 416263" width="7.539" height="25.534" transform="translate(26.882 25.559)" fill="#ffd039"/>
      <rect id="Rectángulo_416264" data-name="Rectángulo 416264" width="2.99" height="25.534" transform="translate(31.43 25.559)" fill="#ffae47"/>
      <path id="Trazado_1036406" data-name="Trazado 1036406" d="M243.074,24.277l-1.758,3.676h3.516Z" transform="translate(-212.425 -6.596)" fill="#3c5156"/>
      <path id="Trazado_1036407" data-name="Trazado 1036407" d="M60.4,32.47H57.1V29.907a.9.9,0,0,0-.9-.9H39.546a14.556,14.556,0,0,0-4.229.63V25.559a.892.892,0,0,0-.122-.45l-1.979-4.139h0l-1.758-3.676a.9.9,0,0,0-1.618,0l-3.767,7.878,0,.011a.872.872,0,0,0-.034.084l-.005.014a.9.9,0,0,0-.027.1c0,.005,0,.01,0,.015-.005.028-.009.057-.011.086,0,.012,0,.023,0,.035s0,.025,0,.038V29.63a14.562,14.562,0,0,0-4.194-.62H5.131a.9.9,0,0,0-.9.9V32.47H.9a.9.9,0,0,0-.9.9v39.8a.9.9,0,0,0,.9.9H60.4a.9.9,0,0,0,.9-.9v-39.8A.9.9,0,0,0,60.4,32.47ZM29.456,22.254h2.385l1.151,2.408H28.3ZM59.5,72.269H1.794V34.264H4.235v20.91h0a.9.9,0,0,0,1.794,0h0V30.8H21.791a12.7,12.7,0,0,1,4.19.711V41.529a.9.9,0,0,0,.9.9.921.921,0,0,0,.093,0,.9.9,0,0,0,.808-.892V26.456h5.744V50.2H27.779v-5.08a.9.9,0,0,0-1.8,0V58.55A2.72,2.72,0,0,0,28.7,61.267h1.074v4.668a13.937,13.937,0,0,0-7.981-2.448H6.028V58.761a.9.9,0,0,0-1.794,0v5.617l-.02,3.288a.9.9,0,0,0,.9.9H21.771a11.783,11.783,0,0,1,8.249,3.2c.014.014.03.027.045.04l.015.014a.862.862,0,0,0,.094.067l.023.014a.874.874,0,0,0,.095.048l.01.005,0,0,.049.018.034.012.048.012.038.009.047.007.039.006c.022,0,.043,0,.065,0h.043c.022,0,.044,0,.065,0l.039-.006.048-.007L30.86,72l.048-.012.035-.012.049-.018,0,0,.011-.005a.891.891,0,0,0,.094-.048l.024-.014a.918.918,0,0,0,.094-.067l.017-.015c.015-.013.03-.025.044-.039a11.782,11.782,0,0,1,8.249-3.2H56.187a.9.9,0,0,0,.9-.9l-.018-3.027a.9.9,0,0,0,.037-.256V41.95a.9.9,0,1,0-1.794,0V63.487h-15.8a13.949,13.949,0,0,0-7.942,2.423V61.267H32.6a2.719,2.719,0,0,0,2.717-2.717V31.528a12.693,12.693,0,0,1,4.229-.724H55.309v7.558a.9.9,0,0,0,1.794,0v-4.1h2.4V72.269ZM6.023,65.28H21.791c.182,0,.364,0,.545.012h.03q.262.012.522.034l.047,0c.17.015.339.034.507.056l.054.007q.25.033.5.077l.056.01q.246.044.489.1l.054.012q.244.055.485.119l.048.013q.243.066.482.142l.039.012q.243.078.481.165l.027.01q.244.09.482.19l.01,0a11.279,11.279,0,0,1,1.862,1l.009.006q.211.14.414.29l.022.016q.2.147.388.3l.029.023q.187.154.366.316l.017.015v1.01a13.938,13.938,0,0,0-7.981-2.448H6.014Zm25.523,2.967a11.708,11.708,0,0,1,7.08-2.934l.091-.006q.176-.011.353-.018c.131,0,.263-.008.395-.009h15.81l.009,1.494H39.527a13.939,13.939,0,0,0-7.981,2.448v-.975Zm-.877-8.774H28.7a.924.924,0,0,1-.923-.923v-2.48h5.748v2.48a.924.924,0,0,1-.923.923H30.669Zm-2.894-5.2V51.99h5.748v2.287Z" transform="translate(0 0)"/>
      <path id="Trazado_1036408" data-name="Trazado 1036408" d="M91.332,174.789a5.857,5.857,0,1,0-5.857-5.857A5.864,5.864,0,0,0,91.332,174.789Zm0-9.921a4.063,4.063,0,1,1-4.063,4.063A4.068,4.068,0,0,1,91.332,164.869Z" transform="translate(-75.242 -128.777)"/>
      <path id="Trazado_1036409" data-name="Trazado 1036409" d="M329.753,286.075a.9.9,0,0,0-1.5,0l-6.059,9.233a.9.9,0,0,0,.75,1.389h12.118a.9.9,0,0,0,.75-1.389Zm-5.148,8.828,4.4-6.7,4.4,6.7Z" transform="translate(-283.49 -236.694)"/>
      <path id="Trazado_1036410" data-name="Trazado 1036410" d="M101.695,289.9h-8.22a.9.9,0,0,0-.9.9v8.22a.9.9,0,0,0,.9.9h8.22a.9.9,0,0,0,.9-.9V290.8A.9.9,0,0,0,101.695,289.9Zm-.9,8.22H94.372v-6.426H100.8Z" transform="translate(-81.494 -240.419)"/>
      <path id="Trazado_1036411" data-name="Trazado 1036411" d="M339.224,182.942h8.22a.9.9,0,0,0,.9-.9v-8.22a.9.9,0,0,0-.9-.9h-8.22a.9.9,0,0,0-.9.9v8.22A.9.9,0,0,0,339.224,182.942Zm.9-8.22h6.426v6.426h-6.426Z" transform="translate(-297.822 -137.45)"/>
    </g>
  </g>
</svg>
