<svg xmlns="http://www.w3.org/2000/svg" xmlns:xlink="http://www.w3.org/1999/xlink" width="1329.225" height="480" viewBox="0 0 1329.225 480">
  <defs>
    <clipPath id="clip-path">
      <rect id="Rectángulo_416091" data-name="Rectángulo 416091" width="66.474" height="37.402" transform="translate(0 0)" fill="#b5cbe4"/>
    </clipPath>
    <clipPath id="clip-path-2">
      <rect id="Rectángulo_416091-2" data-name="Rectángulo 416091" width="66.474" height="37.402" fill="#b5cbe4"/>
    </clipPath>
  </defs>
  <g id="Grupo_1177588" data-name="Grupo 1177588" transform="translate(-135.5 -9271.67)">
    <rect id="Rectángulo_416037" data-name="Rectángulo 416037" width="1329" height="480" transform="translate(135.5 9271.67)" fill="#eaf2fb"/>
    <g id="Grupo_1177569" data-name="Grupo 1177569" transform="translate(204.65 9382)">
      <g id="Grupo_1177568" data-name="Grupo 1177568" clip-path="url(#clip-path)">
        <path id="Trazado_1035556" data-name="Trazado 1035556" d="M65.913,36.278H46.919V19.346h7.112a.562.562,0,1,0,0-1.123H34.047V1.123H65.913a.562.562,0,1,0,0-1.123H12.444a.562.562,0,1,0,0,1.123h20.48v17.1H.562a.562.562,0,1,0,0,1.123H45.8V36.278H26.059a.562.562,0,1,0,0,1.124H65.913a.562.562,0,0,0,0-1.124" fill="#b5cbe4"/>
      </g>
    </g>
    <g id="Grupo_1177579" data-name="Grupo 1177579" transform="translate(1329.601 9382)">
      <g id="Grupo_1177568-2" data-name="Grupo 1177568" transform="translate(0 0)" clip-path="url(#clip-path-2)">
        <path id="Trazado_1035556-2" data-name="Trazado 1035556" d="M.562,36.278H19.556V19.346H12.444a.561.561,0,1,1,0-1.123H32.428V1.123H.562A.561.561,0,1,1,.562,0H54.031a.561.561,0,1,1,0,1.123H33.551v17.1H65.913a.561.561,0,1,1,0,1.123H20.679V36.278H40.416a.562.562,0,0,1,0,1.124H.562a.562.562,0,0,1,0-1.124" transform="translate(-0.001 0)" fill="#b5cbe4"/>
      </g>
    </g>
    <g id="Grupo_1177573" data-name="Grupo 1177573" transform="translate(347.286 9291.602)">
      <g id="Grupo_1177568-3" data-name="Grupo 1177568" clip-path="url(#clip-path)">
        <path id="Trazado_1035556-3" data-name="Trazado 1035556" d="M65.913,36.278H46.919V19.346h7.112a.562.562,0,1,0,0-1.123H34.047V1.123H65.913a.562.562,0,1,0,0-1.123H12.444a.562.562,0,1,0,0,1.123h20.48v17.1H.562a.562.562,0,1,0,0,1.123H45.8V36.278H26.059a.562.562,0,1,0,0,1.124H65.913a.562.562,0,0,0,0-1.124" fill="#b5cbe4"/>
      </g>
    </g>
    <g id="Grupo_1177577" data-name="Grupo 1177577" transform="translate(809.477 9299.563)">
      <g id="Grupo_1177568-4" data-name="Grupo 1177568" clip-path="url(#clip-path)">
        <path id="Trazado_1035556-4" data-name="Trazado 1035556" d="M65.913,36.278H46.919V19.346h7.112a.562.562,0,1,0,0-1.123H34.047V1.123H65.913a.562.562,0,1,0,0-1.123H12.444a.562.562,0,1,0,0,1.123h20.48v17.1H.562a.562.562,0,1,0,0,1.123H45.8V36.278H26.059a.562.562,0,1,0,0,1.124H65.913a.562.562,0,0,0,0-1.124" fill="#b5cbe4"/>
      </g>
    </g>
    <g id="Grupo_1177576" data-name="Grupo 1177576" transform="translate(514.049 9466.602)">
      <g id="Grupo_1177568-5" data-name="Grupo 1177568" clip-path="url(#clip-path)">
        <path id="Trazado_1035556-5" data-name="Trazado 1035556" d="M65.913,36.278H46.919V19.346h7.112a.562.562,0,1,0,0-1.123H34.047V1.123H65.913a.562.562,0,1,0,0-1.123H12.444a.562.562,0,1,0,0,1.123h20.48v17.1H.562a.562.562,0,1,0,0,1.123H45.8V36.278H26.059a.562.562,0,1,0,0,1.124H65.913a.562.562,0,0,0,0-1.124" fill="#b5cbe4"/>
      </g>
    </g>
    <g id="Grupo_1177575" data-name="Grupo 1177575" transform="translate(994.523 9474.269)">
      <g id="Grupo_1177568-6" data-name="Grupo 1177568" clip-path="url(#clip-path)">
        <path id="Trazado_1035556-6" data-name="Trazado 1035556" d="M65.913,36.278H46.919V19.346h7.112a.562.562,0,1,0,0-1.123H34.047V1.123H65.913a.562.562,0,1,0,0-1.123H12.444a.562.562,0,1,0,0,1.123h20.48v17.1H.562a.562.562,0,1,0,0,1.123H45.8V36.278H26.059a.562.562,0,1,0,0,1.124H65.913a.562.562,0,0,0,0-1.124" fill="#b5cbe4"/>
      </g>
    </g>
    <g id="Grupo_1177570" data-name="Grupo 1177570" transform="translate(311.65 9595)">
      <g id="Grupo_1177568-7" data-name="Grupo 1177568" clip-path="url(#clip-path)">
        <path id="Trazado_1035556-7" data-name="Trazado 1035556" d="M65.913,36.278H46.919V19.346h7.112a.562.562,0,1,0,0-1.123H34.047V1.123H65.913a.562.562,0,1,0,0-1.123H12.444a.562.562,0,1,0,0,1.123h20.48v17.1H.562a.562.562,0,1,0,0,1.123H45.8V36.278H26.059a.562.562,0,1,0,0,1.124H65.913a.562.562,0,0,0,0-1.124" fill="#b5cbe4"/>
      </g>
    </g>
    <g id="Grupo_1177578" data-name="Grupo 1177578" transform="translate(1222.601 9594.999)">
      <g id="Grupo_1177568-8" data-name="Grupo 1177568" transform="translate(0 0)" clip-path="url(#clip-path-2)">
        <path id="Trazado_1035556-8" data-name="Trazado 1035556" d="M.562,36.278H19.556V19.346H12.444a.561.561,0,1,1,0-1.123H32.428V1.123H.562A.561.561,0,1,1,.562,0H54.031a.561.561,0,1,1,0,1.123H33.551v17.1H65.913a.561.561,0,1,1,0,1.123H20.679V36.278H40.416a.562.562,0,0,1,0,1.124H.562a.562.562,0,0,1,0-1.124" transform="translate(-0.001 0)" fill="#b5cbe4"/>
      </g>
    </g>
    <g id="Grupo_1177574" data-name="Grupo 1177574" transform="translate(923.286 9694)">
      <g id="Grupo_1177568-9" data-name="Grupo 1177568" clip-path="url(#clip-path)">
        <path id="Trazado_1035556-9" data-name="Trazado 1035556" d="M65.913,36.278H46.919V19.346h7.112a.562.562,0,1,0,0-1.123H34.047V1.123H65.913a.562.562,0,1,0,0-1.123H12.444a.562.562,0,1,0,0,1.123h20.48v17.1H.562a.562.562,0,1,0,0,1.123H45.8V36.278H26.059a.562.562,0,1,0,0,1.124H65.913a.562.562,0,0,0,0-1.124" fill="#b5cbe4"/>
      </g>
    </g>
    <g id="Grupo_1177572" data-name="Grupo 1177572" transform="translate(182.286 9539.033)">
      <g id="Grupo_1177568-10" data-name="Grupo 1177568" clip-path="url(#clip-path)">
        <path id="Trazado_1035556-10" data-name="Trazado 1035556" d="M65.913,36.278H46.919V19.346h7.112a.562.562,0,1,0,0-1.123H34.047V1.123H65.913a.562.562,0,1,0,0-1.123H12.444a.562.562,0,1,0,0,1.123h20.48v17.1H.562a.562.562,0,1,0,0,1.123H45.8V36.278H26.059a.562.562,0,1,0,0,1.124H65.913a.562.562,0,0,0,0-1.124" fill="#b5cbe4"/>
      </g>
    </g>
    <g id="Grupo_1177580" data-name="Grupo 1177580" transform="translate(1351.965 9539.032)">
      <g id="Grupo_1177568-11" data-name="Grupo 1177568" transform="translate(0 0)" clip-path="url(#clip-path-2)">
        <path id="Trazado_1035556-11" data-name="Trazado 1035556" d="M.562,36.278H19.556V19.346H12.444a.561.561,0,1,1,0-1.123H32.428V1.123H.562A.561.561,0,1,1,.562,0H54.031a.561.561,0,1,1,0,1.123H33.551v17.1H65.913a.561.561,0,1,1,0,1.123H20.679V36.278H40.416a.562.562,0,0,1,0,1.124H.562a.562.562,0,0,1,0-1.124" transform="translate(-0.001 0)" fill="#b5cbe4"/>
      </g>
    </g>
    <g id="Grupo_1177571" data-name="Grupo 1177571" transform="translate(136 9694)">
      <g id="Grupo_1177568-12" data-name="Grupo 1177568" clip-path="url(#clip-path)">
        <path id="Trazado_1035556-12" data-name="Trazado 1035556" d="M65.913,36.278H46.919V19.346h7.112a.562.562,0,1,0,0-1.123H34.047V1.123H65.913a.562.562,0,1,0,0-1.123H12.444a.562.562,0,1,0,0,1.123h20.48v17.1H.562a.562.562,0,1,0,0,1.123H45.8V36.278H26.059a.562.562,0,1,0,0,1.124H65.913a.562.562,0,0,0,0-1.124" fill="#b5cbe4"/>
      </g>
    </g>
    <g id="Grupo_1177581" data-name="Grupo 1177581" transform="translate(1398.251 9693.999)">
      <g id="Grupo_1177568-13" data-name="Grupo 1177568" transform="translate(0 0)" clip-path="url(#clip-path-2)">
        <path id="Trazado_1035556-13" data-name="Trazado 1035556" d="M.562,36.278H19.556V19.346H12.444a.561.561,0,1,1,0-1.123H32.428V1.123H.562A.561.561,0,1,1,.562,0H54.031a.561.561,0,1,1,0,1.123H33.551v17.1H65.913a.561.561,0,1,1,0,1.123H20.679V36.278H40.416a.562.562,0,0,1,0,1.124H.562a.562.562,0,0,1,0-1.124" transform="translate(-0.001 0)" fill="#b5cbe4"/>
      </g>
    </g>
  </g>
</svg>
